<svg xmlns="http://www.w3.org/2000/svg" viewBox="0 0 185.26 53.29">
  <defs>
    <style>.cls-1{fill:#54de71;}</style>
  </defs>
  <title>d10rama</title>
  <g id="layer_2" data-name="layer 2">
    <g id="layer_1-2" data-name="layer 1">
      <polygon class="cls-1" points="70.29 44.49 66.18 44.49 65.96 45.49 70.08 45.49 70.29 44.49"/>
      <polygon class="cls-1" points="65.52 47.48 69.64 47.48 69.86 46.48 65.74 46.48 65.52 47.48"/>
      <polygon class="cls-1" points="73.39 45.37 63.78 53.29 65.36 53.29 74.96 45.37 73.39 45.37"/>
      <polygon class="cls-1" points="73.12 48.68 72.74 50.47 73.76 50.47 74.14 48.68 73.12 48.68"/>
      <polygon class="cls-1" points="75.96 48.68 74.94 48.68 74.56 50.47 75.58 50.47 75.96 48.68"/>
      <polygon class="cls-1" points="88.75 46.48 89.04 45.09 88.02 45.09 87.73 46.48 81.83 46.48 81.62 47.48 86.76 47.48 79.87 53.29 81.42 53.29 87.34 48.31 86.28 53.29 87.3 53.29 88.54 47.48 90.09 47.48 90.3 46.48 88.75 46.48"/>
      <polygon class="cls-1" points="96.72 46.48 96.5 47.48 103.8 47.48 96.77 53.28 96.78 53.29 98.33 53.29 106.58 46.48 96.72 46.48"/>
      <polygon class="cls-1" points="97.14 44.49 96.93 45.49 105.4 45.49 105.62 44.49 97.14 44.49"/>
      <polygon class="cls-1" points="121.47 46.48 111.61 46.48 111.39 47.48 118.69 47.48 114.15 51.23 115.77 53.29 117.05 53.29 115.54 51.38 121.47 46.48"/>
      <path class="cls-1" d="M27.5,7.43a9.88,9.88,0,0,0-1.62-2.88A10.43,10.43,0,0,0,17.56.82H.43L0,2.87H17.56a8.44,8.44,0,0,1,6.73,3,8.88,8.88,0,0,1,1.56,7.55c-1.27,6-7.21,11-13.24,11H8l2.22-10.53H8.1L5.46,26.41h7.15c7,0,13.79-5.65,15.25-12.59A12.3,12.3,0,0,0,28,9.65l5.23-4.32L28.83,26.41h2.1L36.48,0Z"/>
      <path class="cls-1" d="M71.41,14.64,86.58,33.85h2.5l-7.2-9.11L94.1,14.64h9.31l-2.64,12.58L127.26,5.33l-4.61,21.89,26.5-21.89-4.6,21.89,15.22-12.58h9.31l-2.47,11.77h2.1l2.47-11.77h13.67l.41-2.06H171.62L174.26,0,147.77,21.89,152.37,0,125.88,21.89,130.48,0,104,21.89,108.59,0l-28,23.13-6.7-8.49H78.8a8.61,8.61,0,0,0,8.13-6.7,5.94,5.94,0,0,0-1.09-5.07A5.75,5.75,0,0,0,81.28.82H68.68L66.2,12.58H62.11a10.6,10.6,0,0,0-2.18-8A10.44,10.44,0,0,0,51.61.82c-7,0-13.79,5.64-15.25,12.58a10.85,10.85,0,0,0,2,9.27,10.47,10.47,0,0,0,8.33,3.74c6.67,0,13.23-5.21,15-11.77h4.08L63.29,26.41H65.4l2.47-11.76Zm-33-.82c1.27-6,7.21-10.95,13.24-10.95a8.64,8.64,0,0,1,6.11,2.31L39.28,20.42A9.18,9.18,0,0,1,38.37,13.82Zm21.52-.42c-1.27,6-7.2,11-13.23,11A8.6,8.6,0,0,1,40.54,22L59,6.8A9.08,9.08,0,0,1,59.89,13.4Zm8.41-.82,2-9.71H81.28a3.7,3.7,0,0,1,3,1.3,3.92,3.92,0,0,1,.68,3.35,6.58,6.58,0,0,1-6.12,5.06Zm28.3,0,8.77-7.25-1.53,7.25Zm72.91,0h-7.24L171,5.33Z"/>
    </g>
  </g>
</svg>