<svg xmlns="http://www.w3.org/2000/svg" viewBox="0 0 770.24 28.77"><defs><style>.cls-1{fill-rule:evenodd;}.cls-2{fill:#fff;}</style></defs><g id="レイヤー_2" data-name="レイヤー 2"><g id="レイヤー_1-2" data-name="レイヤー 1"><path class="cls-1" d="M727.32,17.71c-15.12.34-32.61.5-43-1,.24,0,.53-.25,0-.33-1.6.91-5.78.66-9,.51-9.67-.44-18.16-.33-26.37-.77-1.24.41.32,1.95-.51,1.95-6.56-3.16-16.1-1-22.12-2.66-1.27-.24.33,1.55-1,1.31a5.36,5.36,0,0,0-3.76-1.38c-.62.81,1,1.6,0,1.64-3.87-.06-9.08-3.07-11.78-.86-.8-.41-1.21-1.11-2.81-1A5.86,5.86,0,0,1,604.59,17c-3.27-3.58-13.81.38-19.3-1.94-6.43,1.58-13,.12-20.3,1.29,0-.32,0-.64,0-1-6.45.39-12.58.75-17,.69-1.65.08,1.66.92,0,1-.67-1.62-6-.76-4.7-.08-12-2-26.92.21-38.66-1-1.44.5-1.6,1.92-3.79,1.88.7-1.2-1.29-.63-.93-1.63-3.11-.4-4.56.16-7.52-.45,0,1-.88,1.35-1.92,1.59-1.14-1-2.37-1-4.24-.39-1-.11-.9-.9-1.86-1-10.55,1.07-19.4-.61-29.26.81-9.46-1-18.25.29-28.27-.14a12.39,12.39,0,0,0-2.87.94c-2.15-1.63-5.09-.41-8.47-.47-.65.19-.08,1.24-1,1.3-.87-1.11-3,.51-3.75-.41-.47.62,1.39,1.12,0,1.32.07-1.14-2.46-.53-2.82-1.37-5.12,1.81-11.92-.13-17.93,1,.49,2.39-4.84,2.38-5.68,1.86-.71-1.4,2.61.11,1.91-1.26-10.39-1.31-19.09-.55-27.34-.46-4.16-2.06-9.2,1-13.68-.88-12.48.44-25.61-1.15-40-2-6.18,2.09-13.85-1.61-19.81,0-.54-.49-1.78-.54-2.33-1-2.53,1-7.81.69-10.39-.18-15.08.55-32.1-.49-43.35-.07-6.44.25-15.54-2.47-21.19-1.65-.72.1-2.48,1.24-3.33,1.24-.58,0-1.15-1.17-1.86-1.32s-4.22-.1-6.13-.11c-8.49,0-23.53-.88-32.05-.86-1.77,0-3.42.29-4.25.26-2.73-.07-6-1.38-9.41-1.45-3.82-.08-7.45,1.54-9.9-.16a142.23,142.23,0,0,1-25.28.38c-3.83,2.14-7.85,2.83-13.45,3a26.09,26.09,0,0,1-8.32,0h-.34A85.25,85.25,0,0,1,85,15.81c-3.57.86-8.15.63-11.82.52-8.63,2.33-21.62.69-28.81,3.1-.68-.61-3.08-.09-3.77-.72-3.71,1.48-11.47.3-16,.72-1.74.15-3.18.93-4.73,1.22C12.88,22,5.51,22.46,0,24.87c6.45.06,13.06-.84,19.33-.32a475.59,475.59,0,0,0,64.11,1.06c.63-.31.94-.86,1.9-.95,4.89,1,14.26-1.29,18.38.64-.55-.4,1.49-1.78,3.79-1.25,0,.42-.61.45-.49,1,1.51.1.8-1.4,2.39-1.25,7.57.86,16.15-1.08,23.08.7,11.59-.73,25.87-.09,40.09,0,13,.1,26.6-.43,39.6,0,2.75.09,4.18.13,7.08.12,20.61-.11,44.41,1.28,63.14,1.7,24.45.52,52.36.31,78.24,1,3.16-1.62,8.2-.77,11.82-1.76a16.27,16.27,0,0,1,3.77.71c14.42-1.29,29.84-1.39,44.35-1.55,4.73,0,9.66-.25,14.14-.08,35.72,1.41,70.31.5,108.45.16a17.71,17.71,0,0,1,3.76.71c.06-.83,1.76-.49,2.37-.93,15.84.82,36.16-.42,52.8.88a64.64,64.64,0,0,1,16.95.28c2.87-.68,8.88-.69,13.23-.43,1.9.12,2.59,0,4.7.08,2.59.11,5.3,1.1,8,1.1,1.23,0,2.89-.66,4.25-.57,1.79.08,3.31.9,5.17,1.06.81.06,2.42-.34,3.79-.27a37.42,37.42,0,0,0,5.16.41c4.91-.44,13,.87,18.38.63,11.25-.47,22.16-.66,32.07-.12,6.39.36,13.69.86,20.38,1.18,1.76-.68,3.61-1.33,5.5-2l-.88-.07c.45-.05.89-.06,1.34-.09,2.56-.88,5.08-1.8,7.38-2.86-.08-.17,22.81-1.06,22.72-1.23C763.56,20.61,733.94,19.45,727.32,17.71ZM291,22.53c3.62-.65,6.58.5,11.78.19C299.39,24.12,294.9,23.54,291,22.53Zm46.19,1.1c.22-.45,4.24-.72,3.75.4A11.83,11.83,0,0,0,337.15,23.63Zm9.9-.49a24.78,24.78,0,0,0,5.19.09C351.93,24,347.16,24.42,347.05,23.14Zm181.08-2.2c1.28,0,1-.53,1.89,0C528.43,21.92,522.48,20.61,528.13,20.94Zm2.37,0c2.57-.49,9.67,0,13.67-.11C541.3,21.92,535.14,21.68,530.5,21Zm14.59.57c.06-.91,4.58-1.57,4.73-.25A22.68,22.68,0,0,0,545.09,21.55Zm6.15-.56a16,16,0,0,1,7.08-.55C557.19,21.4,553.25,21.74,551.24,21Zm7.54.12c14.23-.39,29.47-1.43,45.76-.87,9.05.32,19.76.28,27.31,1.77C607.45,20.91,581.25,22.28,558.78,21.11Zm85.33,1.1c0-1,3.09-.72,3.77-.28C647.07,23,645.68,22.31,644.11,22.21Zm20.74.35c.31-.7,2.9-.26,3.3.05C667.52,24,666.62,22.28,664.85,22.56ZM670,23c1.17-1.24,5.39.27,8.49-.18C676.93,23.65,672.43,23.2,670,23Zm9.9.16c.65-.72,3.28-.07,4.72-.24C684.16,23.72,680.94,23.69,679.93,23.12Zm24.5,1.07c-.53-1.33-3.73.38-4.7-1.4,6.62.34,13.17-1.08,19.33,0C714.83,25.07,710.11,22.84,704.43,24.19Zm15.1-1.71,3.32.05C722.9,23.86,719.61,23.61,719.53,22.48Z"/><path class="cls-2" d="M47.38,2.6a3.59,3.59,0,0,0,1-.23,28,28,0,0,1,4-.89c.63,0,1.63.81,1.63,1.46,0,.27-.07.31-.63.64s-.63.42-1,.69A62,62,0,0,1,46,9c-.17.1-.71.46-.71.54a.13.13,0,0,0,.13.13,8,8,0,0,0,.8-.19,65.68,65.68,0,0,1,8.93-1.89A12.66,12.66,0,0,1,57,7.2c.54,0,1.65.58,1.65,1.1,0,.32-.24.42-.56.42s-1.91-.14-2.24-.14a9,9,0,0,0-7,3.22,3,3,0,0,0-.78,2c0,2.23,2.67,3.37,5.1,3.5a1,1,0,0,1,1,.95c0,.34-.24.5-.82.5a13.32,13.32,0,0,1-3.45-1,4.14,4.14,0,0,1-2.69-3.6c0-.95.46-3.39,4.75-5.37a25.28,25.28,0,0,0-8.67,2.54,2.67,2.67,0,0,1-1.09.34.76.76,0,0,1-.86-.75c0-.46.32-.54.95-.69,2-.48,3.77-1.91,7.18-4.66,1.47-1.21,2.9-2.75,2.9-3.16a.24.24,0,0,0-.26-.25A17.3,17.3,0,0,0,49.42,3a5.26,5.26,0,0,0-1.2.77,1.21,1.21,0,0,1-.78.35A1.83,1.83,0,0,1,46,2.23a1.55,1.55,0,0,1,.09-.54A1.78,1.78,0,0,0,47.38,2.6Z"/><path class="cls-2" d="M72.05,17.23c6.48-2.14,6.78-6.61,6.78-7.7,0-3.64-3.6-5.6-6.78-5.6a2.34,2.34,0,0,0-.81.11c1.07.85,1.07,1.48,1.07,1.58s-.07.33-.52,1.25c-2.65,5.33-2.89,5.85-4.12,7.62-.11.14-.81,1.12-1.24,1.29a1,1,0,0,1-.41.08c-.5,0-.65-.23-1.26-1.06a2.84,2.84,0,0,0-.58-.56,3.05,3.05,0,0,1-1.13-2.81c0-4.19,3.66-8.12,9.21-8.12,4,0,7.9,2.16,7.9,6.47,0,3.81-3.19,7.22-8.07,7.68ZM69.6,9.14a9.83,9.83,0,0,0,1.28-3.62,2,2,0,0,0-.61-1.34c-2.43.19-6.09,3.27-6.09,7.35,0,1.58,1,3,1.88,3a.54.54,0,0,0,.41-.15,8.06,8.06,0,0,0,1.26-1.83Z"/><path class="cls-2" d="M89.43,19.44c3.68-2.35,4.12-4.48,4.34-5.83a2.59,2.59,0,0,1-1.28.44c-1,0-2.56-1.42-2.56-3.23a2.66,2.66,0,0,1,2.58-2.66,3.23,3.23,0,0,1,1.3.33c0-.33,0-.46,0-.6V6a24.61,24.61,0,0,0-7.33,1.5,5.88,5.88,0,0,1-.85.32,2.61,2.61,0,0,1-1.69-2A1.46,1.46,0,0,1,84,5.39c.62.79,1.06,1,1.6,1a9,9,0,0,0,1.19-.17c1-.16,4.93-.75,7-.91a14.63,14.63,0,0,0-.31-3.21,2.6,2.6,0,0,0-1.43-1,2.23,2.23,0,0,1,1-.33,4,4,0,0,1,1.61.62.64.64,0,0,1,.34.57,5.65,5.65,0,0,1-.13.62,21.1,21.1,0,0,0-.21,2.69c.82-.07,4.48-.19,5.22-.25.15,0,.91-.09,1-.09.84,0,1.54.59,1.54.92s-.28.39-.52.39a1.06,1.06,0,0,1-.37-.06,20.77,20.77,0,0,0-4-.33c-1,0-1.93,0-2.89.1,0,.92,0,1.67,0,2s0,.73,0,1.27A5.2,5.2,0,0,1,95.3,12a7.6,7.6,0,0,1-3,6.08,10,10,0,0,1-2.8,1.47Zm1.19-8.68a2.29,2.29,0,0,0,2,2.27c1.2,0,1.2-1.54,1.2-1.77C93.79,9.6,93.18,9,92.12,9A1.78,1.78,0,0,0,90.62,10.76Z"/><path class="cls-2" d="M109.48,9.14c-1.09,1.1-1.28,1.31-1.93,2-.35.37-.41.41-.61.41a2.07,2.07,0,0,1-2-1.77,1.84,1.84,0,0,0,1.08.27,3.23,3.23,0,0,0,1.72-.81C108.22,9,110,7.33,110.39,7a3.3,3.3,0,0,1,2.06-1,2.77,2.77,0,0,1,1.82.83,39.71,39.71,0,0,0,9.54,6.6c.35.18,1.06.56,1.06,1.31,0,.31-.13.54-.47.54-.89,0-4.73-2.83-6.12-3.94-1.71-1.35-3.34-2.78-4.47-3.74a2.09,2.09,0,0,0-1.4-.69C111.76,7,111.36,7.18,109.48,9.14Zm11.66-2.25c0,.15,0,.58-.3.58s-.17,0-1-.73A12.7,12.7,0,0,0,116.87,5C117.37,4.93,121.14,5,121.14,6.89ZM119.89,3c.54,0,3.64.21,3.64,1.87,0,.38-.11.44-.26.44s-.3-.1-.78-.46a18.89,18.89,0,0,0-3.34-1.81A5.47,5.47,0,0,1,119.89,3Z"/><path class="cls-2" d="M136.9,4c.61-.15,5.23-1,5.46-1.06a4.39,4.39,0,0,1,1-.19c.8,0,1.6.54,1.6,1s-.48.56-.76.56-1.67-.08-1.95-.08c-4.23,0-7.26,4.24-7.26,7.43,0,3,3,4.26,5.44,4.72.58.1,1.47.27,1.47,1.08,0,.36-.37.46-.69.46a12,12,0,0,1-3.67-1.06,6,6,0,0,1-3.53-5.16c0-1.94,1.13-4.77,5.07-7.45-1.62,0-7.24,1.83-8.58,2.45-.68.31-.76.36-.87.36a1.79,1.79,0,0,1-1.45-1.86,1.46,1.46,0,0,1,.17-.77,1.73,1.73,0,0,0,1.65,1.09,5.17,5.17,0,0,0,.95-.13Z"/><path class="cls-2" d="M154.07,14.82c2,1.33,2.25,1.5,2.81,1.5a1,1,0,0,0,.87-.65,14.3,14.3,0,0,0,1.54-6.49c0-1,0-2.33-1.47-2.33a6.75,6.75,0,0,0-1.89.33c-1.8,4.25-3.56,8.47-5,10.39a.53.53,0,0,1-.45.27c-.31,0-.5-.61-.5-.9s0-.35.76-1.48a44.51,44.51,0,0,0,4.07-8,14.43,14.43,0,0,0-3.18,1.32,1.9,1.9,0,0,1-.83.35,2.13,2.13,0,0,1-1.75-2,1.07,1.07,0,0,1,.13-.5c.5.84.84,1.09,1.41,1.09a3.63,3.63,0,0,0,1-.21c1-.29,2.43-.65,3.58-1a14.57,14.57,0,0,0,1.11-3.46c0-1-1.46-1.35-1.67-1.41a1.14,1.14,0,0,1,.84-.27c.83,0,2.43.56,2.43,1.33a1.32,1.32,0,0,1-.24.67,20.9,20.9,0,0,0-1.36,2.89,6.32,6.32,0,0,1,1.58-.23c2.56,0,2.56,2.17,2.56,3.29,0,2-.65,6.81-2.95,8.45a2.41,2.41,0,0,1-1.11.44c-.3,0-.32-.09-.52-.86a10,10,0,0,0-1.8-2.56Zm9-4.1a7.6,7.6,0,0,0,2.27-.38.71.71,0,0,0,.55-.62c0-.37-1.26-2.31-4.23-4.12,1.91,0,5.9,2.77,5.9,5.37,0,.35,0,.91-.44.91a7.84,7.84,0,0,1-.93-.43c-.48-.17-2.69-.5-3.12-.58Zm0-7.26c1,0,3.51.66,3.51,1.85,0,.16-.11.52-.46.52s-.86-.65-1-.75a11.35,11.35,0,0,0-2.81-1.5A2.06,2.06,0,0,1,163.09,3.46Zm2.21-1.61c1,0,3.36.32,3.36,1.79,0,.23-.09.46-.33.46s-1-.73-1.17-.85a10.28,10.28,0,0,0-3-1.27A5,5,0,0,1,165.3,1.85Z"/><path class="cls-2" d="M174.12,3.81a7.61,7.61,0,0,0,3.1-1c.56-.31.62-.35.86-.35s1.35.2,1.35.77c0,.27-.07.29-.7.58-1.54.71-4.46,4.79-4.46,8.91,0,3.87,2.69,4.12,3.44,4.12,3.95,0,6-4.56,6-9.16a21.17,21.17,0,0,0-.5-4.39c0-.11-.24-.92-.24-1.06a.56.56,0,0,1,.61-.5c.52,0,.63.37.84,1.18a9.23,9.23,0,0,0,4,5.71c.5.39.89.7.89,1.31,0,.43-.24.6-.43.6-.39,0-2.52-1-4.58-5.62-.06-.14-.13-.19-.15-.19s0,.07,0,.11.15,1.35.17,1.62a25.41,25.41,0,0,1,.13,2.67,10.65,10.65,0,0,1-1.23,5.74,5.93,5.93,0,0,1-5,2.85,4.76,4.76,0,0,1-5-4.85c0-2.77,1.54-5.24,2.69-7.12a16.35,16.35,0,0,0,.86-1.49c0-.13-.08-.13-.13-.13-.43,0-2.29.87-2.51.87a2.12,2.12,0,0,1-1.74-2A2.9,2.9,0,0,0,174.12,3.81Z"/><path class="cls-2" d="M204.79,6.79c.37-.13.58-.25.58-.59a1.63,1.63,0,0,0-.13-.58c1,.19,1.65.73,1.65,1.67,0,.43-.11.43-.76.52-2.86.37-9.84,3.1-9.84,6.45a1.83,1.83,0,0,0,.52,1.31c.87,1,3.88,1,4.47,1a19.55,19.55,0,0,0,4.36-.48,4.3,4.3,0,0,1,.78-.07c.56,0,1.34.21,1.34.69,0,.31-.35.5-1,.65a26.85,26.85,0,0,1-3.62.23,22.49,22.49,0,0,1-4.95-.46,3,3,0,0,1-2.55-2.79c0-1.62,1.36-3.6,4.2-5.25A3.79,3.79,0,0,1,199,6.81c-.11-3.54-.13-3.92-.18-4.25a1.63,1.63,0,0,0-.54-1,8.69,8.69,0,0,0-.84-.66,2.32,2.32,0,0,1,.8-.15,2.49,2.49,0,0,1,2.17,1.44,3,3,0,0,1-.09.41,8.64,8.64,0,0,0-.35,2.56,8.87,8.87,0,0,0,.61,3.5A34.52,34.52,0,0,1,204.79,6.79Z"/><path class="cls-2" d="M218.83,15.46a23.81,23.81,0,0,0,9-2.18,4.83,4.83,0,0,0,2.71-4.23c0-2.58-2.43-3.93-4.53-3.93-2.6,0-6.83,2-9.24,4.06-.41.35-.58.48-.89.48a2.22,2.22,0,0,1-1.71-1.88,1.55,1.55,0,0,1,.17-.64,1.68,1.68,0,0,0,1.24.75A3.12,3.12,0,0,0,217,7.41c3.41-1.81,5.36-2.87,8.67-2.87,4.1,0,6.16,2.39,6.16,4.93,0,3.41-3.34,5.22-7.26,5.89a28.69,28.69,0,0,1-5.75.29Z"/><path class="cls-2" d="M241.38,9.93c-.16.62-.89,3.39-1,4a9.92,9.92,0,0,0-.46,2.4c0,.22.11,1.43.11,1.45,0,.25,0,.54-.41.54s-.72-.39-.91-.7a9.46,9.46,0,0,1-1.2-5.33,13.8,13.8,0,0,1,.15-2l.7-4.56a10,10,0,0,0,.13-1.52,2.51,2.51,0,0,0-.67-1.89A2.3,2.3,0,0,1,240,4.18a9,9,0,0,1-.35,1.15,25,25,0,0,0-1.24,6.89c0,1.73.37,3,.63,3s.24-.32.24-.34c.67-2,1-2.81,2-5.08Zm4.16,4.74a10.58,10.58,0,0,0,3.6.59,16.05,16.05,0,0,0,2.3-.19,2.85,2.85,0,0,1,.37,0c.36,0,1.51.27,1.51.79s-.73.58-2.08.58c-1,0-4.55-.14-5.9-.87a2.78,2.78,0,0,1-1.51-2.44,1.83,1.83,0,0,1,.1-.62C244.35,13.55,244.61,14.26,245.54,14.67ZM247,6.74a16,16,0,0,0,2.23-1.91c0-.17-.63-.17-.67-.17a15.88,15.88,0,0,0-4.21.9,7.55,7.55,0,0,1,4.84-1.83c1.32,0,3.1.35,3.1,1,0,.36-.3.42-1.1.57a11.13,11.13,0,0,0-4.08,1.6Z"/><path class="cls-2" d="M266,8.39l.33-.4c.06-.1.19-.27.32-.27s.26.13.39.23l.46.4c.13.1.22.18.22.31s-.18.23-.33.23h-4.57c0,.27,0,1.5,0,1.75,0,.58-.67.7-.76.7-.32,0-.39-.27-.39-.45,0-.34.09-1.71.09-2h-1.91a18.32,18.32,0,0,0-2.8.23l-.5-.9c1.63.13,3.19.17,3.6.17h1.63c0-.36,0-.92,0-1.25h-2.06c0,.56-.61.64-.74.64s-.39-.12-.39-.45.13-2.25.13-2.69a9,9,0,0,0-.13-1.46l1.26.57h1.93V2.62h-1.32a19.53,19.53,0,0,0-2.8.25L257.24,2c1.63.12,3.21.14,3.62.14h1A5.93,5.93,0,0,0,261.69.4l1.51.43c.09,0,.22.07.22.21s-.43.46-.63.56v.52h2.45l.44-.45c.21-.23.23-.25.34-.25a.85.85,0,0,1,.39.2l.57.46c.13.11.21.19.21.34s-.17.2-.32.2h-4.08V3.75h2.1l.46-.42c.07-.06.17-.17.26-.17a1.42,1.42,0,0,1,.26.17l.54.44c.11.08.18.12.18.25s-.07.12-.59.43c0,.38,0,.52,0,1.21,0,.23.09,1.29.09,1.38,0,.45-.48.6-.72.6s-.34-.21-.34-.38V7.14h-2.24l.05,1.25ZM270,11.51a.31.31,0,0,1,.15.25c0,.42-.63.33-.89.31l-1.49,1.13-1.26,1,4.64-.27A11.1,11.1,0,0,0,270,13l0-.1a8.13,8.13,0,0,1,3.36,1.35,1.37,1.37,0,0,1,.63,1,.62.62,0,0,1-.63.66c-.32,0-.39-.08-1-.85a8,8,0,0,0-.92-1l-4.33.52c0,.61.13,3.87.13,4a.66.66,0,0,1-.26.62,1.05,1.05,0,0,1-.57.17c-.36,0-.45-.21-.45-.39,0-.69.13-3.67.13-4.27-.85.1-4.58.58-5.33.66-.44.07-.74.07-1.09.11,0,.23-.13.56-.35.56s-.26-.17-.3-.23L258,14.13a7.78,7.78,0,0,0,2.71.25c1.47,0,3.58-.12,5.38-.21a16.88,16.88,0,0,0,2.06-2.66,3.75,3.75,0,0,0,.43-1Zm-12,7.68a14.63,14.63,0,0,0,3.64-2.25,3.16,3.16,0,0,0,1-1.27l1.3.94a.38.38,0,0,1,.13.25c0,.29-.35.29-.43.29a1.66,1.66,0,0,1-.33,0,13.32,13.32,0,0,1-5.29,2.2Zm3.9-14V4.25h-2.06v.93Zm0,1.46v-1h-2.08v1Zm0,5.58a5.89,5.89,0,0,1,2,.29,6.39,6.39,0,0,0,.71-2.33L266,11a.38.38,0,0,1,.22.31c0,.38-.46.32-.67.27-.18.15-1,.67-1.48,1a.92.92,0,0,1,.56.79.57.57,0,0,1-.56.59c-.26,0-.32,0-.91-.61a6.52,6.52,0,0,0-1.28-1.1Zm.91-8v.93h2.26V4.25Zm0,1.43,0,1h2.24v-1Zm4.75-.1c1.63.12,3.21.14,3.6.14h1.45l.41-.35c.18-.15.26-.19.33-.19a.7.7,0,0,1,.32.19l.76.62a.37.37,0,0,1,.16.28.33.33,0,0,1-.26.29l-.76.1a9.58,9.58,0,0,1-1.93,1.92,9.38,9.38,0,0,0,5.05,1.56v.06a2.69,2.69,0,0,0-1.37,1.29A12.1,12.1,0,0,1,271,9a10.64,10.64,0,0,1-4.75,1.63l0-.13a12.31,12.31,0,0,0,4.2-2.14,4.06,4.06,0,0,1-.89-2.08,10.12,10.12,0,0,0-1.47.18Zm3.58-4.14.45-.38c.15-.12.22-.16.29-.16s.15,0,.3.16l.54.42c.11.08.17.12.17.23s-.17.27-.54.41a6.7,6.7,0,0,0,0,1.27.24.24,0,0,0,.2.09c.15,0,.52,0,.69,0,1.24,0,1.56,0,2-1.63h.06c.09,1,.2,1.23.42,1.42s.43.35.43.54-.22.38-.39.44a10.79,10.79,0,0,1-2.93.25c-.6,0-1.58,0-1.58-.92,0-.27.06-1.43.06-1.66H269.6A4.06,4.06,0,0,1,267,5.47l0-.06a4.74,4.74,0,0,0,1.59-3.47,9.93,9.93,0,0,0-.11-1.11l1.32.61ZM268.84,16c2.84.33,4.84,1.31,4.84,2.39a.62.62,0,0,1-.59.67c-.43,0-.61-.21-1.19-.82a11.06,11.06,0,0,0-3.1-2.14Zm2-9.79a9.58,9.58,0,0,0-1,0A4.34,4.34,0,0,0,270.88,8a14.14,14.14,0,0,0,1.67-1.77Z"/><path class="cls-2" d="M284.12,14.82c2,1.33,2.26,1.5,2.82,1.5a1,1,0,0,0,.87-.65,14.43,14.43,0,0,0,1.54-6.49c0-1,0-2.33-1.48-2.33a6.75,6.75,0,0,0-1.88.33c-1.8,4.25-3.56,8.47-5,10.39a.56.56,0,0,1-.46.27c-.3,0-.5-.61-.5-.9s0-.35.76-1.48a45.22,45.22,0,0,0,4.08-8,14.34,14.34,0,0,0-3.19,1.32,1.87,1.87,0,0,1-.82.35,2.14,2.14,0,0,1-1.76-2,1.2,1.2,0,0,1,.13-.5c.5.84.85,1.09,1.41,1.09a3.74,3.74,0,0,0,1-.21c1-.29,2.43-.65,3.58-1a15,15,0,0,0,1.1-3.46c0-1-1.45-1.35-1.67-1.41a1.17,1.17,0,0,1,.85-.27c.82,0,2.43.56,2.43,1.33a1.32,1.32,0,0,1-.24.67,19.82,19.82,0,0,0-1.37,2.89,6.39,6.39,0,0,1,1.58-.23c2.56,0,2.56,2.17,2.56,3.29,0,2-.65,6.81-3,8.45a2.38,2.38,0,0,1-1.1.44c-.3,0-.33-.09-.52-.86a10.3,10.3,0,0,0-1.8-2.56Zm9-4.1a7.77,7.77,0,0,0,2.28-.38.71.71,0,0,0,.54-.62c0-.37-1.26-2.31-4.23-4.12,1.91,0,5.9,2.77,5.9,5.37,0,.35,0,.91-.43.91a8,8,0,0,1-.94-.43c-.47-.17-2.68-.5-3.12-.58Zm0-7.26c1,0,3.51.66,3.51,1.85,0,.16-.11.52-.45.52s-.87-.65-1-.75a11.22,11.22,0,0,0-2.82-1.5A2.09,2.09,0,0,1,293.14,3.46Zm2.21-1.61c1,0,3.36.32,3.36,1.79,0,.23-.08.46-.32.46s-1-.73-1.17-.85a10.54,10.54,0,0,0-3-1.27A5,5,0,0,1,295.35,1.85Z"/><path class="cls-2" d="M306.25,16.9a18.61,18.61,0,0,0,7-1.69,4.14,4.14,0,0,0,2.25-3.43c0-1.69-1.52-3.06-3.64-3.06s-5.2,1.5-7.24,3.19c-.57.45-.63.52-.76.52a1.86,1.86,0,0,1-1.39-1.61,1.11,1.11,0,0,1,.13-.56c.28.29.65.67,1.06.67a2.43,2.43,0,0,0,1.2-.48,13.9,13.9,0,0,1,6.89-2.27c3.32,0,4.86,1.79,4.86,3.79,0,2.89-3.17,5.41-10.39,5.2Z"/><path class="cls-2" d="M332,4c.61-.15,5.23-1,5.47-1.06a4.42,4.42,0,0,1,1-.19c.8,0,1.6.54,1.6,1s-.48.56-.76.56-1.67-.08-1.95-.08c-4.23,0-7.26,4.24-7.26,7.43,0,3,3,4.26,5.44,4.72.59.1,1.47.27,1.47,1.08,0,.36-.36.46-.69.46a11.92,11.92,0,0,1-3.66-1.06,6,6,0,0,1-3.54-5.16c0-1.94,1.13-4.77,5.08-7.45-1.63,0-7.25,1.83-8.59,2.45-.67.31-.76.36-.87.36a1.79,1.79,0,0,1-1.45-1.86,1.46,1.46,0,0,1,.17-.77,1.75,1.75,0,0,0,1.65,1.09,5.17,5.17,0,0,0,.95-.13Z"/><path class="cls-2" d="M353.09,8.76c-.3.59-2.6,5.12-2.68,5.33a2.36,2.36,0,0,0-.16.77c0,.15.16.81.16,1s-.16.46-.55.46-2.71-.17-3.79-4.54a24.06,24.06,0,0,1-.43-4.33,5.58,5.58,0,0,0-1.05-3.48A2.71,2.71,0,0,1,347,6.08a3.24,3.24,0,0,1-.13.89,9.47,9.47,0,0,0-.15,1.77c0,1.17.28,4.1,1.63,5.12a1,1,0,0,0,.47.23.64.64,0,0,0,.52-.31c1.61-2.42,1.78-2.64,3.34-4.83a2.21,2.21,0,0,1,.2-.29ZM358,11.3l2-.29c.17,0,.56-.1.56-.52a6.67,6.67,0,0,0-4-4.93,2.13,2.13,0,0,1,.68-.13,3.8,3.8,0,0,1,2.47,1.29,8.56,8.56,0,0,1,2.34,4.91c0,.63-.28,1.25-.61,1.25-.15,0-.21,0-.76-.47a4.73,4.73,0,0,0-2.66-1Z"/><path class="cls-2" d="M375.33,4c.61-.15,5.23-1,5.47-1.06a4.42,4.42,0,0,1,1-.19c.8,0,1.6.54,1.6,1s-.47.56-.76.56-1.67-.08-1.95-.08c-4.23,0-7.26,4.24-7.26,7.43,0,3,3,4.26,5.44,4.72.59.1,1.48.27,1.48,1.08,0,.36-.37.46-.7.46A12.07,12.07,0,0,1,376,16.86a6,6,0,0,1-3.54-5.16c0-1.94,1.13-4.77,5.08-7.45-1.63,0-7.25,1.83-8.59,2.45-.67.31-.76.36-.87.36a1.79,1.79,0,0,1-1.45-1.86,1.57,1.57,0,0,1,.17-.77,1.75,1.75,0,0,0,1.65,1.09,5.27,5.27,0,0,0,1-.13Z"/><path class="cls-2" d="M387.62,13.74a8.87,8.87,0,0,1,4.08,1.6A3.08,3.08,0,0,1,393,17.69a1.05,1.05,0,0,1-1,1.08c-.35,0-.59-.27-1-1.1-1.06-2.08-1.54-3-3.36-3.72Z"/><path class="cls-2" d="M417.54,3.89h-4l0,2h1.34l.28-.33c.07-.06.18-.17.26-.17s.11,0,.33.15l.74.45c.15.11.23.17.23.3s-.56.52-.65.56v.23l0,2.29.11,2.24c0,.17,0,1-.73,1-.46,0-.44-.29-.42-.75h-1.51l0,2.52h1.36l.52-.58c.11-.15.22-.27.35-.27a.63.63,0,0,1,.37.21l.69.62s.22.19.22.33-.17.19-.35.19h-3.14c0,.5,0,2.67,0,3.1,0,.61,0,.67-.11.81a1,1,0,0,1-.76.36c-.45,0-.45-.31-.45-.42s0-.54,0-.64c0-.5.07-2.75.09-3.21h-.78a19.79,19.79,0,0,0-2.8.25l-.5-.89c1.63.12,3.19.14,3.6.14h.5l.07-2.52H411c0,.4,0,1-.74,1a.34.34,0,0,1-.37-.37c0-1.35.11-3.52.11-4.85a12.83,12.83,0,0,0-.17-2.48l1.36.73h1.37c0-.31,0-1.71,0-2H412a19.33,19.33,0,0,0-2.8.23l-.52-.89c1.34.1,2.78.16,3.86.16a12.58,12.58,0,0,0-.26-3.14L414,.77c.15,0,.33.15.33.31s-.48.48-.74.56V3.39h2.08l.56-.7c.13-.17.22-.25.35-.25s.24.12.33.18l.78.71c.13.15.19.23.19.33S417.67,3.89,417.54,3.89Zm-5,2.5H411V8.62h1.58ZM411,9.12v2.24h1.56c0-.79,0-1.45,0-2.24Zm4.12,0h-1.54c0,1,0,1.16,0,2.24h1.54Zm0-2.73h-1.54V8.62h1.54Zm13.31.12a2.85,2.85,0,0,0-1.54,1.09,14.07,14.07,0,0,1-5-5.6,19.69,19.69,0,0,1-5.16,6.22l-.15-.14A25.35,25.35,0,0,0,420.05,3,7.73,7.73,0,0,0,421,.62l1.48.53c.09,0,.3.1.3.27s-.06.27-.61.43a9.4,9.4,0,0,0,6.29,4.5ZM426.25,11c0,.71,0,3.81.05,4.43,0,.25,0,1.36,0,1.59,0,.6,0,1.62-1.63,1.85a2.27,2.27,0,0,0-.84-1.4l.06-.08a3.41,3.41,0,0,0,.67.11c.55,0,.61-.34.63-.53s0-2.6,0-3.08H423.5c0,.55.06,3,.06,3.48,0,.33,0,.52-.28.67a1.43,1.43,0,0,1-.52.14c-.37,0-.37-.29-.37-.5s.16-3.18.16-3.79H421c0,.61.08,3.29.08,3.85a.45.45,0,0,1-.19.44,1.21,1.21,0,0,1-.63.19c-.37,0-.37-.21-.37-.36,0-1.14.09-3,.09-4.12h-1.48c0,.65,0,3.56,0,4.15,0,.75-.78.75-.84.75-.33,0-.35-.19-.35-.34a3.63,3.63,0,0,1,.05-.44c.1-1.12.1-2.66.1-3.37,0-1.16,0-3.39-.08-4.49a6,6,0,0,0-.13-.83l1.45.68H425l.37-.37a.4.4,0,0,1,.26-.19c.06,0,.08,0,.39.21l.69.52c.18.12.2.21.2.25C427,10.72,426.32,11,426.25,11Zm-7.76-.5c0,.92,0,1.94,0,2.89H420c0-.41,0-2.43,0-2.89Zm6-2.54h-2.58a19.27,19.27,0,0,0-2.79.25l-.53-.89c1.63.12,3.21.14,3.63.14h.52l.47-.66c.07-.11.2-.29.35-.29a.8.8,0,0,1,.37.22l.69.69c.18.17.22.25.22.33S424.58,8,424.45,8Zm-1.9,2.54H421c0,.42,0,2.44,0,2.89h1.54Zm2.64,0H423.5v2.89h1.73C425.21,13,425.19,11,425.19,10.53Z"/><path class="cls-2" d="M440.53,17.23c6.49-2.14,6.79-6.61,6.79-7.7,0-3.64-3.6-5.6-6.79-5.6a2.31,2.31,0,0,0-.8.11c1.07.85,1.07,1.48,1.07,1.58s-.07.33-.53,1.25c-2.64,5.33-2.88,5.85-4.12,7.62-.1.14-.8,1.12-1.23,1.29a1,1,0,0,1-.41.08c-.5,0-.65-.23-1.26-1.06a2.69,2.69,0,0,0-.59-.56,3.07,3.07,0,0,1-1.12-2.81c0-4.19,3.66-8.12,9.21-8.12,4,0,7.89,2.16,7.89,6.47,0,3.81-3.18,7.22-8.06,7.68Zm-2.45-8.09a9.83,9.83,0,0,0,1.28-3.62,2,2,0,0,0-.6-1.34c-2.43.19-6.1,3.27-6.1,7.35,0,1.58,1,3,1.89,3a.54.54,0,0,0,.41-.15,8.06,8.06,0,0,0,1.26-1.83Z"/><path class="cls-2" d="M465.74,4.87a1.77,1.77,0,0,1,.46-.08c.11,0,1.17.1,1.17.62,0,.29-.22.4-.43.5a12.71,12.71,0,0,1-3.56.6A4.47,4.47,0,0,1,462,6.29c0,.39-.06.91-.06,1.81a28.51,28.51,0,0,0,.5,5.53c.73.15,5.57,1.13,5.57,2.75a.52.52,0,0,1-.5.56,4,4,0,0,1-1.56-.77,9.32,9.32,0,0,0-3.47-1.43c-.11,1.1-.43,3-3.64,3-1.93,0-3.62-.89-3.62-2,0-.93,1.1-1.7,1.93-1.93a11.41,11.41,0,0,1,3.1-.38c.41,0,.67,0,1,0-.09-1.22-.33-4.14-.33-5.18,0-.73.05-4.33,0-4.56-.13-1.2-.32-1.47-1.62-1.81a1.65,1.65,0,0,1,1-.37c.65,0,2.19.6,2.19,1.31a9.31,9.31,0,0,1-.24,1,13.15,13.15,0,0,0-.3,1.89A10.68,10.68,0,0,0,465.74,4.87Zm-6.26,9.43c-2.45,0-3.43.73-3.43,1.35s.91,1.08,2.37,1.08a4.06,4.06,0,0,0,2.23-.6,1.87,1.87,0,0,0,.63-1.66A6.44,6.44,0,0,0,459.48,14.3Z"/><path class="cls-2" d="M481.68,19.71c2.68-2.21,5-4.87,5-8.91a5.28,5.28,0,0,0-.87-3.22,2.1,2.1,0,0,0-1.5-.71,5.43,5.43,0,0,0-3.45,1.87c-.71.77-1.17,1.27-1.71,1.27a2.11,2.11,0,0,1-2.12-2.1c.6.46.91.71,1.38.71.29,0,.44-.09,1.78-.81,2-1.09,2.78-1.52,4.19-1.52,3,0,3.57,2.66,3.57,4.35a9.47,9.47,0,0,1-2.77,6.8,13.14,13.14,0,0,1-3.45,2.42Zm.12-15.46c1.07-1,1.2-1.11,1.2-1.36s-.05-.25-1.11-.77A7,7,0,0,1,480.31.94a1.22,1.22,0,0,1-.48-.94,8.47,8.47,0,0,0,3.82,1.62c1.06.25,2.32.88,2.32,1.67,0,.37-.31.37-.44.37s-1.21-.14-1.43-.14a5.41,5.41,0,0,0-2.23.79Z"/><path class="cls-2" d="M501.49,9.93c-.16.62-.89,3.39-1.05,4a10.27,10.27,0,0,0-.45,2.4c0,.22.11,1.43.11,1.45,0,.25-.05.54-.41.54s-.72-.39-.91-.7a9.46,9.46,0,0,1-1.2-5.33,13.8,13.8,0,0,1,.15-2l.7-4.56a10,10,0,0,0,.13-1.52,2.51,2.51,0,0,0-.67-1.89,2.29,2.29,0,0,1,2.16,1.89,8.85,8.85,0,0,1-.34,1.15,25,25,0,0,0-1.24,6.89c0,1.73.37,3,.63,3s.24-.32.24-.34c.67-2,1-2.81,2-5.08Zm4.16,4.74a10.58,10.58,0,0,0,3.6.59,16.05,16.05,0,0,0,2.3-.19,2.85,2.85,0,0,1,.37,0c.36,0,1.51.27,1.51.79s-.73.58-2.08.58c-1,0-4.55-.14-5.9-.87a2.78,2.78,0,0,1-1.51-2.44,1.83,1.83,0,0,1,.1-.62C504.46,13.55,504.72,14.26,505.65,14.67Zm1.43-7.93a16,16,0,0,0,2.23-1.91c0-.17-.63-.17-.67-.17a15.88,15.88,0,0,0-4.21.9,7.55,7.55,0,0,1,4.84-1.83c1.32,0,3.1.35,3.1,1,0,.36-.3.42-1.11.57a11.14,11.14,0,0,0-4.07,1.6Z"/><path class="cls-2" d="M522.25,1.92,520.78,5l.6.33c.18.1.33.19.33.31s-.07.21-.65.63c-.11,3.35.11,8.72.11,12.07a1,1,0,0,1-1,1c-.41,0-.46-.33-.46-.56s0-.17,0-.46c.17-2,.19-3.62.19-11.72a18.53,18.53,0,0,1-3.36,4.58l-.11-.08A43.17,43.17,0,0,0,521.19.48l1.67.75a.28.28,0,0,1,.19.25C523.05,1.67,523,1.69,522.25,1.92Zm14,4.32h-5.38l.93.63c.09.06.2.12.2.25s-.59.31-.72.33a12.58,12.58,0,0,1-1.47,1.4H533l.68-.67c.21-.23.25-.27.34-.27s.22.1.39.25l.8.64c.13.13.22.19.22.34s-.17.21-.32.21h-6.31c0,.45,0,.7,0,1.54h2.89l.56-.61c.22-.23.24-.27.33-.27s.39.21.41.23l.69.6c.13.11.22.19.22.32s-.19.22-.35.22h-4.77c0,.8-.11,1.32-.15,1.77h5.23l.63-.68c.21-.23.23-.25.32-.25a.8.8,0,0,1,.41.21l.94.68c.1.09.21.19.21.31s-.19.23-.32.23H529.1c.7,1.56,3.52,4,7.33,3.94v.21A2.46,2.46,0,0,0,535,19.09a8.63,8.63,0,0,1-6.24-5.44h-.3a6,6,0,0,1-.33,1.19c-1.13,2.27-3.64,3.5-6.33,3.93v-.25c2.91-.95,5-2.74,5.46-4.87h-2.06a19.16,19.16,0,0,0-2.77.23L522,13c1.62.12,3.21.16,3.6.16h1.84c.07-.47.11-1,.15-1.77h-.76a18.93,18.93,0,0,0-2.77.23l-.52-.89c1.62.12,3.21.17,3.6.17h.47V9.35h-2a18.42,18.42,0,0,0-2.8.25l-.5-.9c1.63.13,3.19.15,3.6.15h.48a2.16,2.16,0,0,1-.41-1.13A2.86,2.86,0,0,0,525,6.24a18.74,18.74,0,0,0-2.48.23L522,5.58c1.63.12,3.21.17,3.62.17h.94c0-.46,0-2.44,0-2.84a8.63,8.63,0,0,0-.24-2.24l1.6.41c.26.07.3.17.3.29s-.13.27-.58.52c0,.25,0,3.52,0,3.86h1.67c0-.42,0-2.25,0-2.63A6.42,6.42,0,0,0,529,.67l1.6.48c.22.06.35.1.35.27s-.07.16-.65.54c0,.29,0,.48,0,2.12V5.75h3.79l.59-.75c.1-.15.19-.25.3-.25s.39.2.41.2l1,.75c.08.07.21.17.21.32S536.39,6.24,536.24,6.24ZM524.88,4.77c-.63,0-.74-.56-.87-1.34a4.53,4.53,0,0,0-.72-1.68l.18-.08c.8.41,2.08,1.35,2.08,2.31C525.55,4.27,525.37,4.77,524.88,4.77Zm.56,1.47c.61.23,1.91.9,1.91,2a.76.76,0,0,1-.18.57h2.09a8.53,8.53,0,0,0,1.08-2.61Zm8.22-2.91a21,21,0,0,1-2.52,2L531,5.25c.24-.36.93-1.4,1.37-2.21a8.58,8.58,0,0,0,.5-1.27l1.47.89c.13.09.2.17.2.25C534.55,3.16,534.22,3.23,533.66,3.33Z"/><path class="cls-2" d="M547.48,2c0-.46-.39-.63-1.32-1a1.08,1.08,0,0,1,.89-.29c1.06,0,1.93.66,1.93,1.12,0,.11,0,.25-.3.67-.18.25-1,1.43-1.2,1.66A14.65,14.65,0,0,0,550,3.33a1.87,1.87,0,0,1,.58-.15c.33,0,1.11.17,1.11.61s-.35.46-.85.58c-1.49.35-2.29.5-4.07.81A36.12,36.12,0,0,0,544.21,9a4,4,0,0,1,2.17-.69A2.56,2.56,0,0,1,549,10.47c1.05-.56,2.19-1.17,4.67-2.25.28-.12.45-.25.45-.54s-.26-.48-.61-.75a1.28,1.28,0,0,1,.35,0c.46,0,2.15.52,2.15,1.62,0,.44-.24.46-1.09.59a29.53,29.53,0,0,0-5.74,2.1,12.5,12.5,0,0,1,.26,2.6c0,.21,0,1.71-.72,1.71s-.63-.88-.63-1.13c0-.08.07-1.37.07-1.64a7.23,7.23,0,0,0-.07-1c-1.67,1-3.25,2.71-3.25,3.87,0,1.54,2.69,1.58,3.45,1.58a18.08,18.08,0,0,0,3.36-.37,4.28,4.28,0,0,1,.69-.09c.68,0,1.26.34,1.26.73,0,.13-.09.42-.61.52a19.36,19.36,0,0,1-3.16.21c-3.3,0-4.08-.35-4.75-.79a2.15,2.15,0,0,1-1-1.68,3.53,3.53,0,0,1,.76-1.94A13.22,13.22,0,0,1,548,11.05c-.24-1.23-.61-2.14-2-2.14a3.84,3.84,0,0,0-2.82,1.64c-.84,1.17-1,1.31-1.23,1.31-.52,0-.55-.6-.55-.75,0-.47.18-.6.5-.83,1.09-.75,2.65-3.18,3.73-4.91a12.47,12.47,0,0,1-2.27.29,1.75,1.75,0,0,1-2-1.64,3.18,3.18,0,0,0,2.06.7,16.05,16.05,0,0,0,2.8-.29A13.34,13.34,0,0,0,547.48,2Z"/><path class="cls-2" d="M572,2.21H568.7c0,3.66,0,7.3,0,11,0,.78.13,4.63.13,5.48a.93.93,0,0,1-1,.94.45.45,0,0,1-.5-.48c0-.21.09-1.21.09-1.44.07-1.14.11-3.14.13-4.31-4,1.6-4.57,1.81-5.77,2.19-.13.6-.17.81-.5.81-.17,0-.28-.06-.47-.52l-.7-1.73c.16,0,.83.11,1,.11.37,0,1.26-.15,1.67-.21V2.23a12,12,0,0,0-2,.23l-.49-.92c1.12.1,2.47.17,3.6.17h5.81l.88-.75c.22-.19.31-.25.37-.25s.16,0,.39.23l.89.73a.43.43,0,0,1,.22.31C572.39,2.21,572.15,2.21,572,2.21Zm-4.53,0h-3.62V5.54h3.62Zm0,3.83h-3.62V9.45h3.62Zm0,3.91h-3.62v3.87c1.21-.21,2.52-.44,3.62-.71Zm11.17,8.51a12.58,12.58,0,0,1-4.49-4.2,10.82,10.82,0,0,1-5.07,3.83l-.09-.17a11.84,11.84,0,0,0,4.53-4.7,18.45,18.45,0,0,1-2.1-9.12,4.1,4.1,0,0,0-.87.13l-.52-.92c1.63.15,3.21.17,3.62.17h2.62l.57-.63c.26-.27.28-.31.34-.31a1.69,1.69,0,0,1,.42.25l1,.71a.35.35,0,0,1,.13.29c0,.14,0,.19-.26.31a8,8,0,0,1-.91.48,32.57,32.57,0,0,1-2.89,8.78,11.08,11.08,0,0,0,5.75,3.85v.11A2.47,2.47,0,0,0,578.68,18.46ZM573.39,4c-.63,0-1.24,0-1.63.08A23.34,23.34,0,0,0,573.91,12a2.2,2.2,0,0,0,.15.31A39.09,39.09,0,0,0,576.38,4Z"/><path class="cls-2" d="M590.25,19.36A11.09,11.09,0,0,0,594,14.69a13.63,13.63,0,0,0,1-5.76,11.15,11.15,0,0,0-.71-4.54,1.42,1.42,0,0,0-1.07-.66,1.52,1.52,0,0,0-1,.37c-2,1.85-3,5.89-3.08,6.14a18.26,18.26,0,0,0-.26,2.39c0,.15.06.86.06,1a.3.3,0,0,1-.32.34,1.06,1.06,0,0,1-.7-.42,6.85,6.85,0,0,1-.82-3.54c0-1.27.59-4.79.82-6.24a6.45,6.45,0,0,0,.09-.94c0-1-.63-1.39-1.36-1.91a3.11,3.11,0,0,1,.54-.07c.69,0,2.06.38,2.06,1.4a3,3,0,0,1-.22,1A21.48,21.48,0,0,0,588,9.1a4.76,4.76,0,0,0,.2,1.58s.09,0,.11,0,.15-.06.19-.21c.31-1.27,1.54-5.51,4-7a1.8,1.8,0,0,1,1-.23c2.6,0,2.86,4.06,2.86,6,0,2.77-.43,6.22-3.51,8.78a8.27,8.27,0,0,1-2.54,1.5Z"/><path class="cls-2" d="M622.51,2.37a6.76,6.76,0,0,1-.72.48c0,.09,0,5.31,0,6.85,0,1.17.22,8.41.22,8.74a.67.67,0,0,1-.17.52,1.35,1.35,0,0,1-.83.33c-.28,0-.41-.1-.41-.7,0-.05,0-.32,0-.69H606.37c0,.39,0,.67,0,.81a.9.9,0,0,1-.91.79c-.44,0-.44-.29-.44-.62,0-.81,0-2.15.07-3,0-3.37.08-5.68.08-8.2,0-1.85,0-3.77-.13-5.39a4.55,4.55,0,0,0-.13-1.08l1.46.58h13.94l.43-.48c.15-.16.24-.27.35-.27a.8.8,0,0,1,.35.17l.91.56c.15.1.26.17.26.31A.4.4,0,0,1,622.51,2.37Zm-1.85-.06H606.35V17.4h14.31Zm-.86,8.76h-3c0,.75.15,4.06.15,4.73s-.89.79-.95.79c-.39,0-.39-.42-.39-.52,0-.29,0-1.65,0-1.92V11.07H611.9c-.3,2.56-1.95,5.23-4.64,5.91l-.11-.1c2.19-1,3.3-3.73,3.6-5.81h-.39a18.43,18.43,0,0,0-2.77.25l-.52-.89c1.8.14,3.23.14,3.75.14a31.14,31.14,0,0,0,.11-3.51,17.17,17.17,0,0,0-2.91.23l-.52-.9c1.09.08,1.91.12,3.41.17a16.87,16.87,0,0,0-.37-3.75l1.78.48c.28.08.3.25.3.33s-.28.36-.59.46c0,.4,0,2.12,0,2.48h3.56c0-.32,0-1.69,0-2a5.57,5.57,0,0,0-.31-1.81l1.72.5c.15,0,.3.1.3.29s0,.19-.59.5v1c0,.25,0,1.29,0,1.5h.88l.59-.57c.26-.24.28-.24.37-.24A.76.76,0,0,1,619,6l.61.54c.13.11.21.19.21.32s-.17.23-.32.23H616.7c0,.77,0,3,0,3.51h1.08l.61-.62c.15-.15.2-.27.35-.27s.26.12.43.27l.69.6c.11.11.22.19.22.32S620,11.07,619.8,11.07Zm-4.23-4H612c0,1.27-.06,3.49-.06,3.51h3.64C615.59,9.93,615.57,7.2,615.57,7.06Z"/><path class="cls-2" d="M644.36,11.07a11.06,11.06,0,0,1-2,4.5,4.9,4.9,0,0,1-3.64,1.79c-2.32,0-2.54-1.73-2.8-3.77-.19-1.54-.34-2.62-1.62-2.62s-2.48.66-3.75,2.31a13,13,0,0,0-2.06,3.83c-.2.44-.35.81-.74.81s-.63-1.14-.63-1.27.15-.6.61-1.19c1-1.31,4.35-7.3,5.53-9.57a11.2,11.2,0,0,0,1.08-2.62c0-.25-.17-.67-.89-1.21A1.78,1.78,0,0,1,634,2c.91,0,2.06.89,2.06,1.73,0,.41-.18.6-.57,1a5.45,5.45,0,0,0-.58.78c-3,4.59-3.3,5-4,6.53,1.52-1.23,2.62-1.73,3.7-1.73,2,0,2.17,1.44,2.5,3.17s.52,2.66,1.93,2.66a3.77,3.77,0,0,0,2.64-1.25,12.19,12.19,0,0,0,2.54-3.81Z"/><path class="cls-2" d="M649.81,5.47a15.73,15.73,0,0,0,3.58-.77c3.23-.83,9.69-2.14,10-2.14s1.54.38,1.54,1-.54.54-.82.54L662.78,4a6.56,6.56,0,0,0-4.86,1.6,7.5,7.5,0,0,0-2.9,5.6c0,3.64,3.83,4.66,5.5,5,.59.11.91.15,1.22.52a1,1,0,0,1,.24.56c0,.34-.31.4-.55.4-2.23,0-7.3-1.58-7.3-6.22,0-3.58,2.77-5.71,5-7.43-1.3.35-2.91.72-4.36,1.06a14.27,14.27,0,0,0-4.6,1.68,1.14,1.14,0,0,1-.62.21,1.79,1.79,0,0,1-1.43-1.81,1.53,1.53,0,0,1,.15-.69C649,5.33,649.1,5.47,649.81,5.47Zm12.32,1.4c1.45.87,1.63,1.39,1.63,1.87,0,.21,0,.65-.46.65-.24,0-.37-.21-.52-.46a9.21,9.21,0,0,0-2.67-2.75A4.81,4.81,0,0,1,662.13,6.87Zm4.14,1c0,.5-.28.56-.39.56s-.39-.23-.61-.52a11.21,11.21,0,0,0-2.82-2.48C663.89,5.64,666.27,6.51,666.27,7.87Z"/><path class="cls-2" d="M678.23,8.76c-.3.59-2.6,5.12-2.69,5.33a2.63,2.63,0,0,0-.15.77c0,.15.15.81.15,1s-.15.46-.54.46-2.71-.17-3.79-4.54a24.56,24.56,0,0,1-.44-4.33,5.57,5.57,0,0,0-1-3.48,2.71,2.71,0,0,1,2.41,2.15A3.24,3.24,0,0,1,672,7a9.47,9.47,0,0,0-.15,1.77c0,1.17.28,4.1,1.62,5.12a1,1,0,0,0,.48.23.65.65,0,0,0,.52-.31c1.61-2.42,1.78-2.64,3.34-4.83a3.43,3.43,0,0,1,.19-.29Zm4.92,2.54,2-.29c.17,0,.56-.1.56-.52a6.67,6.67,0,0,0-4-4.93,2.11,2.11,0,0,1,.67-.13,3.76,3.76,0,0,1,2.47,1.29,8.59,8.59,0,0,1,2.35,4.91c0,.63-.29,1.25-.61,1.25-.15,0-.22,0-.76-.47a4.77,4.77,0,0,0-2.67-1Z"/><path class="cls-2" d="M697.89,2.69c0-.75-.52-1-1.15-1.3a1.41,1.41,0,0,1,.65-.16c1.69,0,2,1.19,2,1.58a2.08,2.08,0,0,1-.35.65,12.88,12.88,0,0,0-.93,2,11.82,11.82,0,0,0,2-.87,3.05,3.05,0,0,1,1.2-.48c.26,0,.71.17.71.54,0,.13,0,.25-.45.48a17.3,17.3,0,0,1-3.82,1.35c0,.13-.09.23-.22.56-2.06,5.54-4.18,9.93-4.42,10.37a.6.6,0,0,1-.59.37c-.39,0-.56-.54-.56-.89s0-.42.69-1.33c.91-1.27,1.26-2.13,4-8.49.09-.23.09-.25.13-.34a16.23,16.23,0,0,1-3,.38A2.6,2.6,0,0,1,691.67,6a8.3,8.3,0,0,0,2.21.27,12.73,12.73,0,0,0,3.19-.45A16.62,16.62,0,0,0,697.89,2.69Zm6.44,14a15.25,15.25,0,0,0,2.43-.17,5.49,5.49,0,0,1,.71-.08.94.94,0,0,1,1,.81c0,.25-.22.38-.44.42a14.12,14.12,0,0,1-2.43.17,12.12,12.12,0,0,1-4.75-.73,2.64,2.64,0,0,1-1.56-2.23,2.71,2.71,0,0,1,.42-1.41C699.89,15.32,700.15,16.67,704.33,16.67Zm-.26-7c1.37-1.11,1.82-1.46,1.82-1.73,0-.42-1-.6-1.95-.6-.67,0-1.21.06-1.63.08a5.48,5.48,0,0,1,3-.83c2.19,0,3.27,1,3.27,1.66,0,.29-.19.4-.5.4l-.69,0a9.75,9.75,0,0,0-3.21,1.16Z"/><path class="cls-2" d="M719.68,18.11A17.33,17.33,0,0,0,723.62,17c2.21-.9,4-2.13,4-4.17a2.8,2.8,0,0,0-3-2.81c-3.25,0-6.5,2.69-7.37,4.1-.2.29-.26.42-.45.42-.57,0-1-1.12-1-1.62a9.88,9.88,0,0,1,.22-1.15,28.18,28.18,0,0,0,.47-4.6c0-1.62,0-1.79.35-2.29.52-.75.82-.81,3.49-1.33.09,0,.2,0,.2-.17s-.11-.14-.39-.29c-.46-.25-1.76-1.1-1.72-2.1a11.13,11.13,0,0,0,3.15,1.69c1.28.54,1.43,1.41,1.43,1.68,0,.42-.22.44-.41.44a2,2,0,0,1-.94-.29,7.05,7.05,0,0,0-1.93-.21c-.84,0-2.6,0-2.6,1.35a3.12,3.12,0,0,0,.22,1,5.19,5.19,0,0,1,.24,1c0,.08-.15.77-.18.92a17.76,17.76,0,0,0-.43,3.28c0,.25.09.48.28.48s.11,0,.26-.12a12,12,0,0,1,7.18-2.81,3.8,3.8,0,0,1,4.1,3.62c0,2.12-1.93,3.52-3,4a15.59,15.59,0,0,1-6.17,1.22Z"/><path class="cls-2" d="M734.33,15.74a3.09,3.09,0,0,1,3.14-3,3.13,3.13,0,0,1,3.17,3,3.16,3.16,0,0,1-6.31,0Zm5.7,0a2.56,2.56,0,1,0-2.56,2.45A2.51,2.51,0,0,0,740,15.74Z"/></g></g></svg>