<svg xmlns="http://www.w3.org/2000/svg" viewBox="0 0 37.85 245.19"><defs><style>.cls-1{fill:#fff;}.cls-2{fill:none;stroke:#fff;stroke-miterlimit:10;stroke-width:0.75px;}</style></defs><g id="レイヤー_2" data-name="レイヤー 2"><g id="レイヤー_1-2" data-name="レイヤー 1"><path class="cls-1" d="M28.29,1.34l.76.3c.13.05.23.11.23.26s0,.14-.45.4L28,4h1.13l.47-.45c.08-.07.12-.13.22-.13a.47.47,0,0,1,.26.14l.6.58c.06,0,.19.18.19.25s-.43.4-.53.44a9.94,9.94,0,0,1-5.37,7.6l-.07-.05A16.4,16.4,0,0,0,28.14,8a.54.54,0,0,1-.4.21c-.56,0-.6-.66-.62-.87a2.82,2.82,0,0,0-.39-1.2,9,9,0,0,1-2.4,2.48l-.06-.08c2-2.51,3.35-5.91,3.33-7.18h-1a8,8,0,0,0-1.53.1L24.84.92a18.89,18.89,0,0,0,2,.08h7.64l.69-.82c.12-.14.14-.18.21-.18s.12,0,.26.16l1,.83a.28.28,0,0,1,.14.21c0,.13-.12.14-.2.14H32.48v5a20.53,20.53,0,0,0,2.27-2.53,2.55,2.55,0,0,0,.34-.83L36.4,4a.38.38,0,0,1,.14.24c0,.26-.32.23-.59.2a12.11,12.11,0,0,1-3.47,2.05V9.63c0,.8,0,.92.73.92,2,0,2-.06,2.29-.27a5.66,5.66,0,0,0,.77-2.36h.17A8.53,8.53,0,0,0,36.92,10a3.11,3.11,0,0,1,.34.61,1.11,1.11,0,0,1-.49.7,6.39,6.39,0,0,1-2.66.4c-2.45,0-2.82-.16-2.82-2.12,0-2.3.06-6,.09-8.26Zm-.51,3c-.56,1-.67,1.23-.94,1.63.68.34,1.45.72,1.45,1.54,0,0,0,.2,0,.25a8.84,8.84,0,0,0,.92-3.42Z"/><path class="cls-1" d="M36.93,20.62c-.71,2.8-2.1,4.74-4,4.74-1.64,0-1.78-1.17-1.89-2.23S30.82,21,29.87,21c-1.58,0-2.52,2.3-3,3.47-.34.82-.45,1.07-.89,1.07s-.55-.61-.55-1,.07-.52.56-1.21a38.59,38.59,0,0,0,2.92-5.09A13,13,0,0,0,30,15.91c0-.4-.3-.54-.93-.85a.9.9,0,0,1,.71-.25,1.76,1.76,0,0,1,1.71,1.38c0,.28-.07.35-.68,1.12A31.75,31.75,0,0,0,28,21.38a4.24,4.24,0,0,1,2.4-1c1.31,0,1.48.92,1.72,2.19.17.87.29,1.52,1.07,1.52,1.1,0,2.62-1.52,3.59-3.52Z"/><path class="cls-1" d="M35.44,30.71a9.83,9.83,0,0,0-2.54.21,4.83,4.83,0,0,0-3,4.4A2.77,2.77,0,0,0,32.08,38c.3.09,1.68.36,1.92.5a.8.8,0,0,1,.48.73c0,.54-.44.54-.7.54a7.29,7.29,0,0,1-2.49-.68,3.59,3.59,0,0,1-2.17-3.46c0-2.17,1.3-3.52,2.85-4.83-.76-.07-3.35,1-4.57,1.52-.7.33-.79.36-1,.36a1.29,1.29,0,0,1-1.12-1.34,1.45,1.45,0,0,1,.31-.89c.3.63.64.83,1.13.83s7-1.55,7.29-1.65a3.51,3.51,0,0,1,1.09-.28c.66,0,1.32.42,1.32.84S36,30.71,35.44,30.71Zm-.39,3.55c-.37,0-.48-.21-.75-.76A9.19,9.19,0,0,0,33.21,32c.83.24,2.3.66,2.3,1.68C35.51,34,35.4,34.26,35.05,34.26Zm1.62-.65c-.31,0-.44-.21-.76-.82a4.12,4.12,0,0,0-1.23-1.24c1,.06,2.48.66,2.48,1.54A.5.5,0,0,1,36.67,33.61Z"/><path class="cls-1" d="M31.51,54.61c-2.13,0-3.05-1.06-3.05-2.72a6.11,6.11,0,0,1,.2-1.45c-1.31-.51-1.79-1-1.79-1.54s.22-.78,1.18-1.69c.17-.16.54-.5.54-.61s-.07-.18-.19-.22c-.94-.41-1.67-.75-1.72-1.88a4.85,4.85,0,0,0,2.84,1.3,19.38,19.38,0,0,0,.25-2c0-.86-.49-1-1.07-1.25a.87.87,0,0,1,.78-.31c.66,0,1.76.55,1.76,1.14a2.73,2.73,0,0,1-.26.82A10.81,10.81,0,0,0,30.31,46c.32.17.65.46.65.73,0,.47-.51.45-.95.44-.07.31-.32,1.39-.51,2.44a9,9,0,0,1,1.43.11c.24.08.69.55.69.79s-.64.35-.89.35a4.54,4.54,0,0,1-1.39-.24,5.79,5.79,0,0,0-.08.93,1.92,1.92,0,0,0,2.13,2.19,2.13,2.13,0,0,0,2.36-2.09,5.83,5.83,0,0,0-2.41-4.12l0-.07c.39.16,3.67,1.43,3.67,4.16S32.37,54.61,31.51,54.61Zm-4.06-6c0,.57.88.83,1.36,1l.44-2.35A1.87,1.87,0,0,0,27.45,48.6Z"/><path class="cls-1" d="M29,60.24a14.55,14.55,0,0,1-1,4.68c1,.55,1,1.1,1,1.19a.55.55,0,0,1-.53.56c-.24,0-.4-.13-.62-.55a4.06,4.06,0,0,0-.26-.4,8.91,8.91,0,0,1-2.82,2.82l0-.09A11.13,11.13,0,0,0,26.85,65a2.63,2.63,0,0,0-.63-.44c-.09.49-.14.76-.86.76a.36.36,0,0,1-.42-.38,1.92,1.92,0,0,1,.07-.38,47.48,47.48,0,0,0,1-4.82,6.15,6.15,0,0,0-1.19.1l-.22-.53c.46,0,.86.07,1.48.09a15.43,15.43,0,0,0,.32-2.57,2.25,2.25,0,0,0-.13-.75l1.5.54c.17.06.27.1.27.24s-.3.3-.51.41c-.1.44-.33,1.61-.41,2.13h.63l.46-.31c.12-.09.15-.1.22-.1a.39.39,0,0,1,.24.13l.52.48a.31.31,0,0,1,.14.24C29.36,60,29.29,60,29,60.24Zm-1.91-.49c-.12.66-.69,3.87-.83,4.61a4.68,4.68,0,0,1,.78.18,16.23,16.23,0,0,0,.84-4.79ZM36.55,68A6.77,6.77,0,0,1,34,64.62c0,.68,0,1.06,0,1.65s.1,1.43.1,2c0,.3-.11.68-.76.68-.44,0-.45-.27-.45-.45,0-.65,0-3.54,0-4.13H32c0,1,0,2.54,0,3.51,0,.7,0,1-.71,1-.4,0-.42-.21-.42-.4,0,0,.06-2.79.06-3a8,8,0,0,1-3.5,2.78l0-.11a13.53,13.53,0,0,0,3.08-3.77,6,6,0,0,0-.84.09l-.23-.52c.54.05.92.07,1.48.08l0-1.71h-.33a7,7,0,0,0-1.52.1l-.24-.52c.82.07,1.75.09,2.09.09,0-.3,0-.41,0-1.43a8.11,8.11,0,0,0-1.18.09l-.23-.51c.35,0,.66,0,1.41.07V59a8.91,8.91,0,0,0-1.75.1L29,58.58c.84.08,1.84.08,2,.08h.35c-.24-.07-.32-.27-.52-.8A3.11,3.11,0,0,0,30,56.59l.07-.1c.9.24,2.1.54,2.1,1.58a.55.55,0,0,1-.5.59h1.38a8,8,0,0,0,.87-2.47l1.44.79a.27.27,0,0,1,.17.26c0,.12-.06.14-.57.28-.54.39-1.14.82-1.64,1.14h2.08L36,58c.15-.16.16-.17.22-.17s.11,0,.28.15l.7.62a.29.29,0,0,1,.14.21c0,.15-.11.16-.21.16h-3.2v1.18h.75l.31-.24c.2-.15.22-.17.32-.17a.45.45,0,0,1,.26.12l.53.42c.14.11.2.16.2.27s-.13.25-.47.48V62l.43-.5c.12-.15.15-.17.21-.17s.1,0,.3.17l.62.47a.26.26,0,0,1,.14.21c0,.13-.12.15-.21.15H35.83c0,.29.05,1.54.05,1.8a.67.67,0,0,1-.74.78c-.35,0-.35-.21-.35-.4v-.13H34a6.78,6.78,0,0,0,3.82,2.52V67A3.06,3.06,0,0,0,36.55,68Zm-3.66-9H32v1.18h.92Zm0,1.52H32V62h.92Zm0,1.76H32c0,.24,0,1.44,0,1.71h.9Zm1.9-1.76h-.86V62h.86Zm0,1.76h-.86c0,.1,0,1.46,0,1.71h.84Z"/><path class="cls-1" d="M35.44,73a9.83,9.83,0,0,0-2.54.21,4.84,4.84,0,0,0-3,4.4,2.77,2.77,0,0,0,2.22,2.68A17.94,17.94,0,0,1,34,80.8a.82.82,0,0,1,.48.73c0,.54-.44.54-.7.54a7.06,7.06,0,0,1-2.49-.68,3.59,3.59,0,0,1-2.17-3.45c0-2.17,1.3-3.53,2.85-4.84-.76-.07-3.35,1-4.57,1.53-.7.32-.79.35-1,.35a1.29,1.29,0,0,1-1.12-1.34,1.45,1.45,0,0,1,.31-.89c.3.63.64.83,1.13.83s7-1.55,7.29-1.65a3.84,3.84,0,0,1,1.09-.28c.66,0,1.32.42,1.32.85S36,73,35.44,73Zm-.39,3.55c-.37,0-.48-.21-.75-.76a9.19,9.19,0,0,0-1.09-1.47c.83.24,2.3.67,2.3,1.68C35.51,76.26,35.4,76.57,35.05,76.57Zm1.62-.65c-.31,0-.44-.21-.76-.82a4.12,4.12,0,0,0-1.23-1.24c1,.06,2.48.67,2.48,1.54A.5.5,0,0,1,36.67,75.92Z"/><path class="cls-1" d="M36.41,88.21s-2-.21-2.18-.24a7.93,7.93,0,0,0-.89,0,13.72,13.72,0,0,0-1.61.1c0,.16,0,.42,0,.8a8.55,8.55,0,0,0,.05,1,4.3,4.3,0,0,1,.75,2.48,5.43,5.43,0,0,1-4.13,5l-.07-.11a6.27,6.27,0,0,0,2.9-4.08c-.36.41-.6.65-1,.65-.87,0-1.58-1-1.58-2.14s.61-2.26,1.61-2.26a3.29,3.29,0,0,1,.8.14,2.3,2.3,0,0,0,0-.37c0-.15,0-.87,0-1a12,12,0,0,0-4.66,1.41.82.82,0,0,1-.41.13c-.56,0-1.19-.92-1.19-1.57a.68.68,0,0,1,.16-.46,1.34,1.34,0,0,0,1,.64c.24,0,.73-.08.82-.09,2.77-.5,3.07-.55,4.23-.69-.09-2.11-.2-2.25-1.38-2.63a1.35,1.35,0,0,1,1-.41c.45,0,1.52.41,1.52.86,0,0-.11.55-.13.61a10,10,0,0,0-.22,1.48l3.82-.46c.46,0,1.35.26,1.35.8C37,88.05,36.74,88.21,36.41,88.21Zm-6.29,1.85c-.45,0-.9.53-.9,1.33s.45,1.37,1,1.37.94-.63.94-1.39S30.75,90.06,30.12,90.06Z"/><path class="cls-1" d="M32.76,100.79a2.09,2.09,0,1,1,2.09,2.1A2.09,2.09,0,0,1,32.76,100.79Zm3.67,0a1.58,1.58,0,1,0-1.58,1.58A1.57,1.57,0,0,0,36.43,100.79Z"/><path class="cls-1" d="M11.55,47.62l-1.34,0C6,47.6,5,49.65,5,50.75,5,52.3,6.47,52.59,8.28,53c.32.07.84.16.84.81s-.35.57-.67.57c-1.16,0-4.11-.85-4.11-3.27,0-1.4.81-2.15,2.47-3.37a12.74,12.74,0,0,0-4.64,1.74,2,2,0,0,1-.84.33A.8.8,0,0,1,.51,49c0-.4.18-.47,1-.79,1.37-.53,2.43-1.16,5.12-3.91a5.07,5.07,0,0,0,.82-1c0-.08-.06-.14-.17-.14a6.31,6.31,0,0,0-2.16,1.1,1.27,1.27,0,0,1-.65.28,1.34,1.34,0,0,1-1-1.32.83.83,0,0,1,.27-.67c.47.6.48.63.79.63.47,0,3.09-.77,3.31-.77A1.43,1.43,0,0,1,9,43.67c0,.27-.15.37-1.43,1.18L7.4,45a41.1,41.1,0,0,1-4.11,2.82s-.12.07-.12.12,0,.06.09.06,3.35-.85,4-1l2.56-.64a3.54,3.54,0,0,1,.71-.11c.59,0,1.49.52,1.49,1A.42.42,0,0,1,11.55,47.62Z"/><path class="cls-1" d="M13,65c-1.23,1.66-2.12,2.26-3.2,2.26A1.72,1.72,0,0,1,8,65.29a20,20,0,0,1,.36-3,16.51,16.51,0,0,0,.19-1.93c0-.21,0-.91-.68-.91-.86,0-3,2-3.95,3.28,0,.75.14,3.2.14,3.26s.09,1.13.09,1.15c0,.3-.13,1.19-.61,1.19-.32,0-.44-.2-.54-.71A5.11,5.11,0,0,0,2.47,66l.07,0a5.57,5.57,0,0,0,.59.4c.06,0,.06-.09.06-.17s-.06-1.88-.07-2.23c-.55.94-1.24,2.31-1.37,2.58-.24.51-.34.72-.65.72s-.48-.55-.48-.73a1.62,1.62,0,0,1,.63-1.15,13.35,13.35,0,0,0,1.91-3.51c0-.46,0-.52.07-1a12.92,12.92,0,0,0-1.28.8.91.91,0,0,1-.51.22c-.45,0-.85-.75-.85-1.25a1.1,1.1,0,0,1,.14-.49c.38.35.58.51.92.51a9.24,9.24,0,0,0,1.65-.52c0-.36.14-1.5.14-1.78,0-.92-.49-1-1.16-1.08a1.35,1.35,0,0,1,1-.53c.5,0,1.55.55,1.55,1.08a1.24,1.24,0,0,1-.18.57,4.5,4.5,0,0,0-.45,1.26c.07,0,.68.39.68.6s-.06.15-.51.84a3.79,3.79,0,0,0-.42.81c0,.07,0,.17,0,.23,1.07-1.38,3-3.36,4.27-3.36A1.51,1.51,0,0,1,9.7,60.41c0,.37-.14,1.37-.28,2.35a23,23,0,0,0-.3,2.3c0,.73.26.9.75.9a7,7,0,0,0,3-1.11Z"/><path class="cls-1" d="M10.76,73a9.83,9.83,0,0,0-2.54.21,4.83,4.83,0,0,0-3.05,4.4A2.79,2.79,0,0,0,7.4,80.31a17.94,17.94,0,0,1,1.92.49.82.82,0,0,1,.48.73c0,.54-.44.54-.71.54a7.07,7.07,0,0,1-2.48-.68,3.59,3.59,0,0,1-2.17-3.45c0-2.17,1.3-3.53,2.85-4.84-.76-.07-3.36,1-4.57,1.53-.7.32-.79.35-1,.35A1.29,1.29,0,0,1,.62,73.64a1.45,1.45,0,0,1,.31-.89c.3.63.63.83,1.13.83S9,72,9.35,71.93a3.8,3.8,0,0,1,1.08-.28c.67,0,1.33.42,1.33.85S11.32,73,10.76,73Zm-.4,3.55c-.36,0-.48-.21-.74-.76a9.84,9.84,0,0,0-1.09-1.47c.83.24,2.3.67,2.3,1.68A.49.49,0,0,1,10.36,76.57ZM12,75.92c-.31,0-.43-.21-.76-.82A4,4,0,0,0,10,73.86c1,.06,2.48.67,2.48,1.54A.5.5,0,0,1,12,75.92Z"/><path class="cls-1" d="M6.82,96.92c-2.13,0-3-1-3-2.72A5.65,5.65,0,0,1,4,92.75c-1.32-.51-1.79-1-1.79-1.54s.22-.77,1.18-1.69c.17-.15.54-.49.54-.61s-.08-.18-.19-.22C2.78,88.28,2,87.94,2,86.81a4.79,4.79,0,0,0,2.84,1.3,19.53,19.53,0,0,0,.25-2c0-.86-.49-1-1.07-1.26a.87.87,0,0,1,.77-.31c.67,0,1.77.55,1.77,1.14a2.73,2.73,0,0,1-.26.82,10.6,10.6,0,0,0-.67,1.89c.32.17.64.47.64.73,0,.47-.5.46-.94.44-.07.31-.32,1.4-.51,2.44a10.37,10.37,0,0,1,1.43.11c.24.09.69.55.69.79s-.64.35-.89.35A4.26,4.26,0,0,1,4.65,93a6.22,6.22,0,0,0-.07.94,1.91,1.91,0,0,0,2.13,2.18A2.13,2.13,0,0,0,9.07,94a5.82,5.82,0,0,0-2.42-4.11l0-.07c.39.15,3.66,1.42,3.66,4.16S7.68,96.92,6.82,96.92Zm-4.06-6c0,.56.89.83,1.37,1l.44-2.36A1.88,1.88,0,0,0,2.76,90.92Z"/><path class="cls-1" d="M12.48,110.32H1.75a7,7,0,0,0-1.52.1L0,109.9c.86.07,1.85.08,2,.08H5.88c0-.53,0-3.68,0-3.9H4a7.79,7.79,0,0,0-1.52.1l-.23-.52c.86.08,1.85.08,2,.08H5.89l0-3.36H3.16a9.92,9.92,0,0,1-3,4.32l-.09-.1c1.49-2.65,2.57-5.63,2.57-7a1.1,1.1,0,0,0-.05-.29l1.71.65a.2.2,0,0,1,.16.19c0,.23-.5.36-.55.37-.29.78-.43,1.14-.61,1.57H5.91a11.38,11.38,0,0,0-.26-3.61l1.72.48c.13,0,.2.09.2.19s0,.14-.41.48c0,.47,0,.67-.07,2.46H9.54l.55-.82c.05-.07.12-.17.22-.17a.52.52,0,0,1,.26.14l1,.78c.05,0,.14.12.14.21a.2.2,0,0,1-.22.19H7.09c0,.94,0,2.43,0,3.36H8.81l.65-.85c.07-.08.14-.17.23-.17a.42.42,0,0,1,.25.15l1.1.84a.33.33,0,0,1,.14.23c0,.12-.13.14-.21.14H7.06c0,.62,0,3.35,0,3.9h3.23l.79-.83c.11-.11.15-.17.21-.17s.13.06.25.16l1,.82c.1.08.16.12.16.21S12.58,110.32,12.48,110.32Z"/><path class="cls-1" d="M9.46,122.33c-.2,0-.25-.06-.8-.54a9.23,9.23,0,0,0-3.92-1c-.36,0-1.89,0-1.89,1.34,0,1.55,2.2,1.55,2.72,1.55.34,0,.82,0,1.08,0l.79-.07c.4,0,1.06.2,1.06.65,0,.65-.76.65-.91.65-2,0-5.43,0-5.43-2.53,0-1.94,2.06-2,3.1-2a11.18,11.18,0,0,1,3,.32l.14,0c.06,0,.12,0,.12-.09a.78.78,0,0,0-.16-.35L7,118.41a13.25,13.25,0,0,1-3.11.6,2,2,0,0,1-1.86-1.24,4.29,4.29,0,0,0,1.85.44,7.38,7.38,0,0,0,2.61-.54c-.16-.25-.37-.62-.78-1.43a8.63,8.63,0,0,1-1.82.38c-.21,0-1.39-.09-1.66-1.08a2.6,2.6,0,0,0,1.33.33,5,5,0,0,0,1.83-.34c0-.07-.06-.14-.27-.69a1.44,1.44,0,0,0-1.45-1.13l-.31,0c.05-.21.22-.85,1.28-.85a1.91,1.91,0,0,1,1.17.34c.16.16.16.34.16.61a4,4,0,0,0,.21,1.35,4.24,4.24,0,0,0,.83-.51c.49-.36.55-.4.77-.4s.7.21.7.45c0,.46-1.43,1-2,1.25a8.42,8.42,0,0,0,.74,1.37,9.42,9.42,0,0,0,1.2-.65c.45-.3.5-.32.76-.32s.72.21.72.46-.2.37-.4.48a15.07,15.07,0,0,1-1.72.82c.24.31,1,1.15,1.72,2,.56.62.56.87.56,1.07S10,122.33,9.46,122.33Z"/><path class="cls-1" d="M10.84,129.41a10.13,10.13,0,0,0-2.52.21A4.82,4.82,0,0,0,5.26,134a2.79,2.79,0,0,0,2.23,2.7,15.55,15.55,0,0,1,1.93.49.86.86,0,0,1,.48.72c0,.55-.45.55-.72.55a6.93,6.93,0,0,1-2.48-.69,3.57,3.57,0,0,1-2.17-3.44c0-2.17,1.29-3.54,2.84-4.84-.74-.07-3.31.95-4.56,1.51-.71.33-.78.37-1,.37A1.39,1.39,0,0,1,1,129.14c.3.64.63.83,1.11.83s7-1.56,7.29-1.66a3.62,3.62,0,0,1,1.1-.28c.66,0,1.31.42,1.31.86S11.42,129.41,10.84,129.41Z"/><path class="cls-1" d="M5.3,148.28a16.22,16.22,0,0,0-.8,2c0,.12.14.73.14.86a.55.55,0,0,1-.54.62c-.38,0-2.56-.71-2.79-4.94,0-.31-.06-1.66-.1-1.93a4.56,4.56,0,0,0-.58-1.71c.71.05,2,.51,2,1.7a3,3,0,0,1,0,.32,20.25,20.25,0,0,0-.29,2.28c0,1.47.84,2.37,1.13,2.37.13,0,.26-.18.34-.29.76-1.1,1.54-2.2,2.26-3.36l.09,0C6,146.4,6,146.6,5.3,148.28Zm6,1.15c-.24,0-.45-.22-.84-.69a3,3,0,0,0-1.44-.6v-.07c.08,0,1.18-.07,1.22-.09a.35.35,0,0,0,.26-.36,4.47,4.47,0,0,0-.76-1.85,6.89,6.89,0,0,0-1.61-1.6c1.44-.15,3.79,1.82,3.79,4.11C11.87,148.93,11.56,149.43,11.25,149.43Z"/><path class="cls-1" d="M9.46,164.64c-.2,0-.25-.06-.8-.54a9.38,9.38,0,0,0-3.92-1c-.36,0-1.89,0-1.89,1.34,0,1.56,2.2,1.56,2.72,1.56.34,0,.82,0,1.08,0l.79-.07c.4,0,1.06.2,1.06.65,0,.65-.76.65-.91.65-2,0-5.43,0-5.43-2.52,0-1.95,2.06-2,3.1-2a11.18,11.18,0,0,1,3,.33H8.4c.06,0,.12,0,.12-.08a.76.76,0,0,0-.16-.36L7,160.72a13.42,13.42,0,0,1-3.11.61,2,2,0,0,1-1.86-1.25,4.29,4.29,0,0,0,1.85.44A7.5,7.5,0,0,0,6.53,160c-.16-.26-.37-.62-.78-1.44a8.63,8.63,0,0,1-1.82.38c-.21,0-1.39-.09-1.66-1.07a2.59,2.59,0,0,0,1.33.32,5,5,0,0,0,1.83-.34c0-.07-.06-.14-.27-.69A1.44,1.44,0,0,0,3.71,156l-.31,0c.05-.21.22-.84,1.28-.84a1.91,1.91,0,0,1,1.17.34c.16.15.16.33.16.6a3.93,3.93,0,0,0,.21,1.35,4.23,4.23,0,0,0,.83-.5c.49-.37.55-.41.77-.41s.7.21.7.45c0,.46-1.43,1-2,1.25a8,8,0,0,0,.74,1.37,8.27,8.27,0,0,0,1.2-.65c.45-.29.5-.32.76-.32s.72.21.72.47-.2.36-.4.47a13.53,13.53,0,0,1-1.72.82c.24.31,1,1.16,1.72,2,.56.62.56.88.56,1.08S10,164.64,9.46,164.64Z"/><path class="cls-1" d="M10.28,172c-.41.16-2.53.58-3.23.71,0,.7,0,1,0,1.85.29-.07,1.72-.55,1.87-.55s.92.14.92.57a.35.35,0,0,1-.28.36c-.13,0-1.48.38-2.5.56a9.67,9.67,0,0,0,.42,3,4.86,4.86,0,0,1,2.51,1,1,1,0,0,1,.43.78.56.56,0,0,1-.51.62c-.24,0-.35-.08-.76-.39a7.55,7.55,0,0,0-1.62-1c-.09.5-.3,1.82-2.54,1.82-1.47,0-2.5-.79-2.5-1.6,0-1.41,2.17-1.55,3-1.55.35,0,.59,0,.85,0a10.24,10.24,0,0,1-.23-2.6c-.24,0-.9.09-1.69.09-1.1,0-1.74-.16-1.74-.71s.65-.88,1.15-.88c-.19.27-.26.37-.26.55s.1.21.47.21a14.31,14.31,0,0,0,2.06-.17c0-.73,0-.74,0-1.89a15.09,15.09,0,0,1-2,.16c-1.66,0-2-.28-2.51-1.27a4.62,4.62,0,0,0,2.08.44,16.09,16.09,0,0,0,2.48-.26c0-.15,0-1,0-1.1,0-.53-.08-.83-1.12-1.14a1,1,0,0,1,.9-.42c.53,0,1.65.32,1.65,1,0,.13,0,.19-.24.72a4,4,0,0,0-.21.72,11.13,11.13,0,0,0,1.17-.34,9.74,9.74,0,0,1,1.23-.4c.41,0,1,.28,1,.64A.37.37,0,0,1,10.28,172Zm-5.56,7c-.7,0-1.79.28-1.79.79,0,.19.3.63,1.43.63a3.44,3.44,0,0,0,1.49-.32,1.07,1.07,0,0,0,.47-.93A5.31,5.31,0,0,0,4.72,179Z"/><path class="cls-1" d="M11.73,186.94l-2.19-.24a7.68,7.68,0,0,0-.88,0,13.61,13.61,0,0,0-1.61.1c0,.17,0,.42,0,.8a8.55,8.55,0,0,0,0,1A4.36,4.36,0,0,1,7.84,191a5.43,5.43,0,0,1-4.13,5l-.07-.11a6.31,6.31,0,0,0,2.9-4.08c-.36.41-.6.65-1,.65-.88,0-1.58-1-1.58-2.14s.61-2.26,1.61-2.26a3.29,3.29,0,0,1,.8.14,2.23,2.23,0,0,0,0-.36c0-.16,0-.88,0-1a12,12,0,0,0-4.65,1.41.73.73,0,0,1-.41.13c-.56,0-1.2-.92-1.2-1.57a.68.68,0,0,1,.17-.46,1.35,1.35,0,0,0,1,.65,7.37,7.37,0,0,0,.81-.1c2.78-.5,3.08-.55,4.23-.69-.08-2.1-.19-2.25-1.38-2.63a1.38,1.38,0,0,1,1-.4c.45,0,1.52.4,1.52.86,0,0-.11.54-.13.6a10,10,0,0,0-.22,1.48l3.82-.46c.46,0,1.35.26,1.35.8C12.28,186.79,12.05,186.94,11.73,186.94Zm-6.29,1.85c-.45,0-.9.53-.9,1.34s.45,1.36,1,1.36,1-.63,1-1.39S6.06,188.79,5.44,188.79Z"/><line class="cls-2" x1="6.25" y1="245.19" x2="6.25" y2="201.37"/></g></g></svg>