<svg xmlns="http://www.w3.org/2000/svg" viewBox="0 0 301.67 53.86"><defs><style>.cls-1{fill-rule:evenodd;}.cls-2{fill:#fff;}</style></defs><g id="レイヤー_2" data-name="レイヤー 2"><g id="レイヤー_1-2" data-name="レイヤー 1"><path class="cls-1" d="M33.19,50.34c-.36-.16.12-.34.16-.56-.57,0-.85.25-1.42.07.28-.65,1-.27,1.51-.53,0,.19-.06.25-.08.37.5.13.5-.34,1-.27-.05.09-.1.17,0,.19C34.22,50.2,33.68,50.24,33.19,50.34Z"/><path class="cls-1" d="M34.93,50.17c.15-.38.37-1,.8-.73A2.23,2.23,0,0,1,34.93,50.17Z"/><path class="cls-1" d="M82.14,50.26a.78.78,0,0,1,.56-.36C82.78,50.34,82.44,50.27,82.14,50.26Z"/><path class="cls-1" d="M79.46,49.94c.36.09.45-.15.71-.18v.37C79.91,50.16,79.49,50.38,79.46,49.94Z"/><path class="cls-1" d="M78.82,50.21a.47.47,0,0,0,.09-.28c.24-.06.23.16.47.1C79.28,50.38,79.06,50,78.82,50.21Z"/><path class="cls-1" d="M45.28,49.41c.56,0,1.45-.58,2.22-.34a2,2,0,0,0-.64.55C46.35,49,45.53,50.06,45.28,49.41Z"/><path class="cls-1" d="M84.43,50.11c.09-.24.66.1.56-.36.23.08.09.14.08.37C84.78,50.15,84.68,50.26,84.43,50.11Z"/><path class="cls-1" d="M83.73,50c0-.21.15-.13.16-.28.08,0,0,.19.15.19S83.74,50.23,83.73,50Z"/><path class="cls-1" d="M67.07,49.84c-.13-.21-.2-.35-.47-.19,0-.11,0-.17-.08-.19a.36.36,0,0,1,.4-.18c0,.15.07.16.07.28.18,0,.18-.23.17-.46.23.13,0,.43.39.47a.08.08,0,0,1-.16,0C67.34,49.72,67.15,49.71,67.07,49.84Z"/><path class="cls-1" d="M58.86,49.43c0-.13.13-.23.17-.36.23.58.89,0,1-.36.39.37.34-.08.79-.08-.14.08-.28.34.07.28C60.55,50.19,59.87,49.44,58.86,49.43Z"/><path class="cls-1" d="M70.23,49.8c0-.29.28-.23.48-.27A.38.38,0,0,1,70.23,49.8Z"/><path class="cls-1" d="M64.07,49.7c.06-.61.62-.64,1.12-.73v.38C64.66,49.14,64.56,49.63,64.07,49.7Z"/><path class="cls-1" d="M63.13,49.59c.19-.13.32-.36.63-.36C63.61,49.55,63.47,49.73,63.13,49.59Z"/><path class="cls-1" d="M61.39,49.66a1.3,1.3,0,0,0,0-.65c.1.12.29.13.31-.09s-.17-.17-.31-.19a1.1,1.1,0,0,1,1.35-.35A3.41,3.41,0,0,1,61.39,49.66Z"/><path class="cls-1" d="M95.49,49.91a7.51,7.51,0,0,1-2.13.06c-.2,0-.13-.12,0-.09a1.46,1.46,0,0,0,.87-.18C94.58,50.2,95.22,49.52,95.49,49.91Z"/><path class="cls-1" d="M87.83,50c.37-.22.8-.47,1.19-.17C88.79,50,88.36,49.92,87.83,50Z"/><path class="cls-1" d="M67.86,49.67a1.74,1.74,0,0,1,1-.73c.1,0,.06.23.07.37h.24C68.7,49.36,68.36,49.61,67.86,49.67Z"/><path class="cls-1" d="M51.36,49.41c0-.58.31-.24.64-.27A1.2,1.2,0,0,1,51.36,49.41Z"/><path class="cls-1" d="M105.91,50.16c-.14-.73.85-.17,1.11-.44.53.47,1.82-.16,2.21.31a.64.64,0,0,1,.79-.17c-.12.46-.6.25-.79.27C108.21,50.2,107.11,50,105.91,50.16Z"/><path class="cls-1" d="M91.3,49.94c.32-.2,1.16-.5,1.11-.08C92.18,50.05,91.67,49.9,91.3,49.94Z"/><path class="cls-1" d="M54.44,49.37c.22-.16.21-.56.64-.46C54.9,49.09,54.77,49.36,54.44,49.37Z"/><path class="cls-1" d="M102.83,50c0-.34.45-.09.4-.46.7.4,1.24-.37,1.74.39A11.83,11.83,0,0,1,102.83,50Z"/><path class="cls-1" d="M81.12,49.69c-.14-.07,0-.17,0-.28.38.21,1-.61,1.66-.35A3.6,3.6,0,0,1,81.12,49.69Z"/><path class="cls-1" d="M70.15,49.24c.16,0,.48-.12.4.19C70.36,49.49,70.14,49.61,70.15,49.24Z"/><path class="cls-1" d="M62.73,49.31c.05-.14.12-.24.17-.37.07.1.29,0,.23.28C63,49,63,49.36,62.73,49.31Z"/><path class="cls-1" d="M22.71,48.59c0-.26.15-.39.4-.36C23.09,48.49,23,48.62,22.71,48.59Z"/><path class="cls-1" d="M75.52,49.32c-.17,0,0-.33-.07-.47.22.09.21-.12.4-.08s0,.25.15.28C76,49.3,75.6,49.13,75.52,49.32Z"/><path class="cls-1" d="M86.89,49.31a1.48,1.48,0,0,1,1.27-.44C87.72,49.06,87.48,49.54,86.89,49.31Z"/><path class="cls-1" d="M80.5,49.31c0-.26.16-.18.24-.28a1.23,1.23,0,0,0-1.34.07c0-.08.09-.07.16-.09-.91,0,1.41-1.18,1.5-.44.41-.27.61-.22,1.19-.26,0,.22.14.21.07.47-.4.32-.9-.06-1.34.16,0,.1.18.1.15.28C80.85,49,80.75,49.23,80.5,49.31Z"/><path class="cls-1" d="M78.68,49.28c-.16,0-.15-.26-.31-.29.08-.12.22-.18.25-.36.14.17.2,0,.39,0C79,48.94,78.77,49,78.68,49.28Z"/><path class="cls-1" d="M107.26,49.63c-.12-.46.41-.13.32-.55C107.79,49.28,107.51,49.67,107.26,49.63Z"/><path class="cls-1" d="M95.82,49.36c-.35-.39.53-.16.87-.36C96.61,49.37,96,49.15,95.82,49.36Z"/><path class="cls-1" d="M68.51,48.75c.08-.25.41-.56.47-.09C68.74,48.59,68.75,48.82,68.51,48.75Z"/><path class="cls-1" d="M74.82,48.75c0-.26.14-.39.4-.36C75.19,48.63,75,48.7,74.82,48.75Z"/><path class="cls-1" d="M73.24,48.73c-.16,0-.21-.07-.31-.1,0-.31.23-.35.48-.37C73.37,48.44,73.18,48.43,73.24,48.73Z"/><path class="cls-1" d="M72.22,48.71c0-.3.32-.52.48-.36A.71.71,0,0,1,72.22,48.71Z"/><path class="cls-1" d="M94.8,48.79c.12-.27,1.4-.82,1.66-.26C96.05,49.11,95.44,48.84,94.8,48.79Z"/><path class="cls-1" d="M82.56,48.78V48.5c.16,0,.25,0,.24-.18.12.08.25.14.24.38C82.79,48.63,82.74,48.78,82.56,48.78Z"/><path class="cls-1" d="M31.17,47.89c0-.44.42-.37.49-.73.33.26.52-.1.87-.08.53,0,1.09.54,1.64.57s.87-.39,1.36-.43c.33,0,.7.22,1,.2.68,0,1.56-.47,2.21,0-1.27.86-3.14.08-4.9.3A5.89,5.89,0,0,1,31.17,47.89Z"/><path class="cls-1" d="M44.76,47.17c-.09.21-.49,0-.71.08C44.15,46.86,44.48,47.23,44.76,47.17Z"/><path class="cls-1" d="M184.76,46.93c0-.28.28-.41.4-.27A.44.44,0,0,1,184.76,46.93Z"/><path class="cls-1" d="M290.93,23.14c.08-.32.83-.2.95-.17C291.67,23.15,291.19,23,290.93,23.14Z"/><path class="cls-1" d="M288.76,20.88c.13-.21.6,0,.87-.08C289.27,21,289.13,20.93,288.76,20.88Z"/><path class="cls-1" d="M279.2,16c0-.27.45-.09.72-.27C279.85,16,279.41,16.24,279.2,16Z"/><path class="cls-1" d="M15,53.49c0,.16.09.19.07.37-.11,0-.2-.14-.31-.19.11-.15.21-.32.4-.37C15.17,53.46,15.08,53.48,15,53.49Z"/><path class="cls-1" d="M18.84,49a1.44,1.44,0,0,1,.06,1c-.27,0-.38-.24-.71-.2-.13.12-.12.41-.24.56-.38-.29-.5.1-.56.45h-.48a2.5,2.5,0,0,0,0,.83c-.1.13-.34.09-.55.08-.14.35,0,.15.07.47-.62-.06-.81.41-1.12.72-.42-.27-.69,0-1.11.17A2.76,2.76,0,0,0,13.28,51c.11-.27,0-.33,0-.74-1.36-.94-1.11,2-2.17,2.11-.48.07-.71-.49-1.33-.49-.14-.63-.12-.75-.22-1.3-.11-.71-.92-.9-.68-2-.09-.13-.34-.1-.55-.1a2,2,0,0,1,.17-.84,13.74,13.74,0,0,0-1.37-3.27c-.45-2-.8-4.07-2.13-5.05a17,17,0,0,0-1.3-2.71c-.24.07-.23-.16-.47-.1C2.88,35.4,1.38,34.76,2,33.32c0-.19-.21-.18-.31-.28a17.43,17.43,0,0,0-.9-3.36,7.09,7.09,0,0,0,0-2.32c.84-2.11-.46-5.09,0-7.7A6.27,6.27,0,0,1,.31,16.3c-.13-.77-.4-1-.28-1.76H.34a3.62,3.62,0,0,1,0-2.88C.15,10.22.93,9.32,1.54,8.34c0-.9.48-1.57.52-2.5.33,0,.4-.32.72-.36A4.82,4.82,0,0,0,3,4.55c1.16-.88,1.38-2.42,2.5-3.39.2,0,.28,0,.23.28C6.35,0,7.75,1,8.55,0c1,.37,2.49.22,3.22,1,.15-.1.4,0,.24-.09a1.06,1.06,0,0,1,1.09.76,2.07,2.07,0,0,1,1.72.86c.62-.3,1,.56,1.5.12.46.51,1.13-.16,1.49.58.83-.25,1.4.45,2.14-.06.86.32,2.22.79,2.76.32.22.11.55.09.7.29,1.43-.26,3.05.19,4.35-.3,3.8.57,9.6-.28,13.35-.35.14,0,.16-.09.31-.09,3.28,0,6.34.47,9.79.33.19,0,.24.15.31.29.06-.19.47.06.4-.28a1.61,1.61,0,0,1,.47.29c.84-.55,2,.23,2.69-.24.09.14.29.15.39.29,4.36-.27,7.9.52,13.1,0a4,4,0,0,0,2.76-.06,3.21,3.21,0,0,0,2.61,0c.28,0,.34.34.55.47.1,0,.06-.23.08-.37a2.25,2.25,0,0,0,1.82-.07,3.6,3.6,0,0,0,2.68.14,34.47,34.47,0,0,1,4.73.45c.12,0,0-.28.17-.28a9.86,9.86,0,0,0,3.94.25c.07.07,0,.25.15.28,1.67-.14,3.25.3,4.74.07a1.65,1.65,0,0,0,1.66.12A3.28,3.28,0,0,0,96.74,5c.57.51,1.11.15,1.74.12a2.86,2.86,0,0,1,1,.3c.07,0,.07-.19.08-.19a6.39,6.39,0,0,0,1.1.39,5.69,5.69,0,0,1,.63-.08c.21,0,.4.31.55.28,2-.34,3.57.58,5.61,0,0,.17.22.17.15.46a10.76,10.76,0,0,1,3.78.25c3,0,5.41.23,8.06.22s5.45,0,8.36-.06c1.57.45,4.1,0,5.92.46.09-.13.3-.14.4-.27,3.82.55,7.24.12,11,.64,5.74-.29,11.71.39,16.73-.12,2.7.32,5.84,0,9.16.05a41.35,41.35,0,0,0,5.61.18c3.34-.4,7,.19,10-.22a63.54,63.54,0,0,0,8,.22c.19,0,.19-.23.4-.27s1,.22,1.34.21,1-.26,1.42-.26c1,0,1.89.4,2.92,0A17.32,17.32,0,0,0,205,7.14c2.19-.1,4.45.19,6.08-.28a32.91,32.91,0,0,0,6.48-.36,19,19,0,0,0,5.53-.2A35.48,35.48,0,0,0,230.64,6c1.38.33,3.19-.11,4.74-.21.68,0,1.42.25,1.9-.25.7.48,2.37,0,3.4,0,.28,0,.45.17.71-.08,1.72.34,4.1,0,6.39.1.13.18,0,.12,0,.37,1.67.28,3.57.36,5.6.55a4.57,4.57,0,0,0,.94.67c.28-.27.42-.05.71,0a26.71,26.71,0,0,0,3.79.06c.72,0,1.49.51,2.28.59a8.33,8.33,0,0,1,2.6.23,17,17,0,0,1,3.87.33,15.88,15.88,0,0,1,3,.05c.24.06.34.4.71.2.86,1,2.89.71,3.93,1.54-1.24.57-2.09,0-3.33.32,0,.36.46.09.47.38,1.18-.21,2.95-.38,4.1.34.47.3,1.23,1.12,2,1.15-.77.62-2.09.31-3,.51,2,.58,3.87.46,6.06,1.21-.54.44-2,.11-2.53.61.06.25.27-.16.39.1-.26.35-1,.15-1.35.35.2.2.8.09,1,0-.7.7-2.36.23-3,1,1.15.26,2.29-.69,3,0a15.55,15.55,0,0,1-3,.89c.19.86.91.24,1.33.11a7.67,7.67,0,0,1,2.69-.24c0,.46-.36-.1-.47.18,1.1.18,2.28.25,3.23.42-.61.17-1.45.08-2.06.25.39.16.17.52-.08.46.62.35,1.68-.23,2,.59,1.19-.14,1.85.33,2.84.42-.14.16-.51.37-.72.17,0-.1.16-.06.16-.18a4.86,4.86,0,0,1-1.74.62c1.46.84,3,.13,4.72.82,0,.26-.14.39-.4.36a1.59,1.59,0,0,1,.94.67c-.4.14-.66.46-1.19.44.82.31,2.42.36,3.46.7-.27.68-1.3.29-1.75.53.27.36.65,0,1.11.11.15.22,0,.11-.08.28a9.15,9.15,0,0,1,2.61-.05,8.51,8.51,0,0,1-2.86.42c-.06.29.27.12.16.47-.37,0-.51.34-1,.26a20.08,20.08,0,0,0,2.61,0c-.45.47-1.52.18-2,.62.25.25.48.1.86.29,0-.15-.06-.17-.16-.19.09-.36.32,0,.48.11.66-.1,1.81-.07.31.09.93.52,2.4.18,3.55.33-.53.46-2.27.18-3.17.7a46.66,46.66,0,0,0-5.86,1c-1.71.4-3.91.55-5.94,1a17.81,17.81,0,0,1-3.24.59c.17.22.75.1.87-.07.77.63,1.86.4,2.91.41s2.31.44,3.32.15a24,24,0,0,0,5.76.18c.63,0,1.27.54,1.81,0,.42.24,1,.38,1.34,0,.82.59,2.08.23,3,.32.55.06,1,.35,1.57.4-.77.71-2.43.32-3.17,1.06,0,.1.18.1.15.28-.23.24-.63.24-.95.36.24.2.47.36.71.1.52.66,2.11.55,3,1.07a1.71,1.71,0,0,0-.95.17,7.36,7.36,0,0,0,2,.68,17.54,17.54,0,0,0-2.14.81c.16.45,1,.18.85.94-.35-.08-.47.12-.79.08.39.26.93.35,1.17.76.72-.43,1.07.55,1.73.68.23,0,.48-.17.71-.18s.21.24.39.29.27-.19.32-.18a2.72,2.72,0,0,1,1.65.67c-.14.47-1.48.45-2.07.71-.3.14-.53.24,0,.28-.73.08-1.19-.06-1.75.53-1.48-.35-3.36.16-5.05.2a44.25,44.25,0,0,0-7.2.63c-.31-.15-.62-.31-.79.08-.1-.15-.44,0-.55-.19-.17.11-.44.09-.55.27-1.82-.11-3.26.35-5.3.29-.17.1-.43.1-.48.36a4.84,4.84,0,0,0-2.84.14c-.74,0-1.93-.17-2.54.34-2.62-.21-5.72.54-8.93.78a25.94,25.94,0,0,0-4.58.4c-1.37-.27-2.39.4-3.72,0-2.26.66-5.46.44-7.91,1.09a41.63,41.63,0,0,0-6.32.64.54.54,0,0,0-.79,0c-2.27.09-4.66.24-7.12.35-2.76.14-5,.38-7.82.62-2.17.2-4.74.14-7.27.26a61.92,61.92,0,0,1-7.18-.11c-.81-.05-1.83.35-2.69.33-3.37-.07-6.8.28-9.79.31-2.24,0-3.79.22-5.53-.45a.94.94,0,0,0-.64.45c-2.53,0-4.67,0-7,.08a1.07,1.07,0,0,1,.79-.18,2.39,2.39,0,0,0-2.61.24c-.14-.07,0-.17,0-.28-.87-.08-1,.11-2,.06,0,.21.33.05.47.11-.2.34-.64.15-.87.26.07-.14.07-.36.32-.27-.18-.23-.72.07-1.11-.12-.06.38.52,0,.39.48a6.53,6.53,0,0,1-3.55-.34c-.31,0,.06.29-.16.37-2.61.57-4.08-.77-5.69.1,0-.26.14-.19,0-.37-.35.18-.59.07-1,.07.06.18.23.07.07.28-1-.93-1.86.23-3.08.33a.3.3,0,0,1-.15-.47c-.48.21-.81.6-1.59.44,0-.21.16-.13.17-.27-.24.17-1,0-1.35.25-.63,0-1.71-.59-1.73.07-.25,0-1.23.25-1.43.07s.27,0,.24-.28c-.29-.25-.57,0-.86-.19-.2.11-.44.17-.48.45-2,.27-3.17.16-4.82.39-.75.1-1.22-.07-1.9,0-3.18.21-6.71.53-9.49.88a5.06,5.06,0,0,0-3.16.32c.09-.46-1.17-.2-1.42.06l-.24-.27c-.28,0-.54,0-.63.26-.21,0-.24-.28-.47-.28-3.69.15-7,.07-10.75.39-.2,0-.09-.07-.08-.19a10.76,10.76,0,0,1-3.08.42c-.19-.22.09-.21.16-.37-.5-.07-.42.56-1,.35,0-.17.26-.05.24-.27s-.38,0-.55-.1.11.25-.08.37c-.38.08-.41,0-.79.08-.11-.35.35,0,.24-.36a8.61,8.61,0,0,0-2.37,0,.48.48,0,0,0,.08-.29,2,2,0,0,0-1.26.36c1,.43,2.3-.18,3.07.23-3,.26-7.84.22-11.38.48,0-.06.33-.28.09-.37a65.73,65.73,0,0,0,7.11-.36c-.17-.61-1.34.47-1.81-.21-1.24.48-2.14,0-3.4.41.25-.1.23-.54.56-.55-.13-.26-.36.13-.63,0-.22.09.11.25-.09.37a1.5,1.5,0,0,0-.87.27c-.34-.42.59-.33.8-.64a2,2,0,0,0-1.74.34c.47-.49-.38-.15-.08-.56-.33-.12-.31.19-.4.37,0-.14-.08-.49.09-.65-.22.13-.39-.26-.47,0-.2-.07.15-.25.09-.47s-.35-.24-.63-.19a1.91,1.91,0,0,0,0,1.11c0,.19.35,0,.31.28.27,0,.13-.4.48-.27-.11.12,0,.44-.17.56-.38.1-.2-.43-.62-.29.05.31-.45.45-.8.55-.06-.36.1-.45.09-.75-.27-.19-.56,0-1,.17,0-.2.15-.13.16-.27-.49,0-.53.49-.88.63a4,4,0,0,1-1-.1c-.25.25.25.4,0,.65A.63.63,0,0,1,105,50c-.06-.29.27-.12.24-.36-.2,0-.49.08-.39-.29-.57,0-1.19.43-1.65-.12a8,8,0,0,1-.79.36c-.16-.28.11-.48,0-.74-.73-.22-.8.85-1.83.71.37.57,1.53.09,2.05.22-.19.52-.65.18-1,.17-.89,0-2,.12-3.24.05a3,3,0,0,1,2-.25c.14-.16,0-.36-.23-.38.2-.44.79-.14,1-.45-.45-.24-.87-.1-1.34-.21-.27.09,0,.18-.08.47-.3,0-.14-.52-.55-.38-.24.11.29.09.15.37a3.31,3.31,0,0,1-1,.36c.14-.42.39-.46.56-.64a1.5,1.5,0,0,0-1.66.44c-.28-.29.19-.46-.31-.57.55-.78,1.32-.28,2.22-.61a31.32,31.32,0,0,0-4.74,0c-.26-.09.09-.19.08-.28-.15-.27-.48,0-.7,0,0,.11.14.08.23.1-.2.59-.73-.07-1,.17.08.43.7.24,1.11.29,0,.38.17.65.54.66-.64.79-1.83.33-3,.42v-.56c.21.39,1.36.11,2-.06-1.08-.19-2.1-.14-3.31-.24,0,.15.07.16.07.28.21.12.56-.22.87,0-.37.47-1.15.36-1.66.44,0-.24.17-.3-.16-.28.1-.28.28.11.48,0s-.23-.44.17-.37c-.12-.28-.36.07-.56,0,.6-1.13,2.31.24,2.85-.51-.91-.4-2.37-.12-3.71-.15-1.13,0-2.32-.35-3,.14.57.28,1.28,0,2,0a3.22,3.22,0,0,1,1.5.3c-2,.18-4.18.33-5.7.38-.08-.14-.22-.23-.22-.47.39-.06.34.4.7.38a3.72,3.72,0,0,0,1.43-.63c-1.33-.48-2.42,0-4-.15v-.28a1.46,1.46,0,0,0-.87.17c-.23-.55-1.31,0-1.58.25-.93-.62-1.62-.47-2.76-.5-.48,0-1-.12-1.49-.12s-.81.24-1.19.26-.57-.18-.87-.2a21.51,21.51,0,0,0-3.79.23c-.54.06-1.18-.21-1.82-.13s-1.51.75-2.37.43c-1.42-.92-3.35-.09-5-.17-.2-.81-1.52-.34-2.05-.78-.48.73-1.46,0-2.2,0,.16-.4-.1-.53.16-.74-.1-.24-.48,0-.62,0a.22.22,0,0,0,.23.19c0,.16-.14.21-.32.18.11.54-.57.77-1,1-1.14-1.18-2.81.36-4.42-.43-.65.6-1.57.09-2.44,0,.55-.26,1.62-.73,2.29-.25a9.09,9.09,0,0,1,2.45-.52c.44,1,1.76,0,2.85,0-2.56-.39-5.47-.05-8-.13-.23.13-.16.63-.56.55-.14-.14.12-.36-.07-.56-4.42.39-9.21-.1-14,.53-1.46-.39-2.89,0-4.26-.44-.75.42-1.89-.3-2.92.14,2,.85,4.26.13,6.14,1a13.1,13.1,0,0,1-4.74.12c-.3.08-.37.43-.72.45.07.26.28-.16.39.1-.13.18,0,.12,0,.37-.24.15-.8-.09-.79.36.82-.1,1.76.26,2-.43.42.09-.19.26-.17.46s.34.1.55.1c.11-.3-.25-.07-.15-.37.29.07.35-.14.32-.46.33-.07.69-.29,1-.08-.06.56-.65.47-.88.82.58.11,1.23.47,1.89.22.14.07,0,.17,0,.28a1.42,1.42,0,0,0,.64-.55c.14.35.16.25.47.47-.77.33-2.32,1-3.09.23-1.92.51-3-.32-4.82.11-.15,0-.05-.36-.31-.28s-.41.51-.87.45c-.12-.46.29-.27.4-.46-.07-.21-.45.14-.47-.29.51-.65,2,.19,2.23-.89.23.07.23-.15.47-.08.15.35-.14.64.3.65,0-.1.17-.6,0-.84-1.06.25-2.1-.41-2.7.61-.37,0-.54.16-.95.08A.55.55,0,0,1,21,49c.12.28.35-.34.56,0-.27.66-1.31.37-1.53,1.09a2,2,0,0,0-.94,0,2.11,2.11,0,0,1,.41-1c0-.08,0-.09-.08-.09C19.17,49.35,19.4,48.54,18.84,49Zm1.9-.16c-.22-.08-.73-.11-.88.18C20.16,48.82,20.5,49.18,20.74,48.84Zm83.37.09c.1-.31-.53-.24-.55-.1C103.86,48.75,103.93,49.14,104.11,48.93Zm17.37.08a.25.25,0,0,0-.15-.28c0,.22-.37.05-.32.37C121.2,49.11,121.39,49.12,121.48,49Zm-19.18-.39c-.14-.36.46-.32.17-.55-.8.16-2.27-.22-2.84.14C100.49,48.37,101.71,47.84,102.3,48.62Zm2-.43c-.21,0-.45,0-.55-.1,0,.23.17.23.23.37C104,48.27,104.31,48.45,104.28,48.19Zm9.88-.5c-.41.31-.65-.14-.87.18C113.52,48.07,114.09,48.18,114.16,47.69ZM23.61,46.38c.11.34.59.25.95.29C24.52,46,23.85,46.58,23.61,46.38ZM118,47.85c-.06-.6-.32,0-.63-.11C117.42,48.19,117.78,47.73,118,47.85Zm-53-1a36.71,36.71,0,0,0,3.94.06c.19,0,.7.3.71-.18a7.85,7.85,0,0,1-1.42-.3c-.32,0-.25.45-.63.36-.67-.47-2.11-.19-3.08-.05C64.63,47.12,64.77,46.82,65,46.84Zm-2.93-.14c.1.13.37.06.47.19C62.57,46.58,62.08,46.41,62.06,46.7Zm-4.33-.26c-.48-.26-.86-.06-1.5-.11-.09.12-.09.34-.17.46C56.7,46.23,57.21,47.13,57.73,46.44Zm23.35.46c-.48.17-.82-.21-1,.08A1.11,1.11,0,0,0,81.08,46.9Zm-4.18,0c-.08-.25-.75-.29-.86,0C76.39,46.71,76.58,47.16,76.9,46.93Zm-17.2-.36c-.6,0-.94-.2-1.42,0C58.52,46.75,59.47,46.93,59.7,46.57Zm25.42.3c-.08-.1-.43,0-.56.08A.36.36,0,0,0,85.12,46.87Zm-.79,0h-.48C83.81,47.22,84.31,47,84.33,46.86ZM82.67,47c.19-.06.57.13.63-.08C83.14,46.76,82.81,46.9,82.67,47Zm-19-.39c-.35.06-.55-.25-.71.08C63.12,46.68,63.83,46.81,63.64,46.63Zm96.08.75a7.42,7.42,0,0,0-1.89,0c.32.32,1.28-.06,1.18.3A.87.87,0,0,0,159.72,47.38ZM187,46.69h.39C187.44,46.3,187,46.37,187,46.69Zm98.6-24.93c-.55.1-.63-.22-1.1.08C284.59,22.44,285.35,21.88,285.58,21.76Zm-18.87-4.57a.33.33,0,0,0-.64,0C266.34,17,266.46,17.43,266.71,17.19Zm10.46-2.43c-.39.28-1,.19-1,.63a1.8,1.8,0,0,1,1,0C277.24,15.17,277.4,14.9,277.17,14.76Z"/><path class="cls-1" d="M39.35,50.06c-.22-.33.55-.27.49-.73.27.07.3-.14.55-.09C40.35,49.89,39.69,49.77,39.35,50.06Z"/><path class="cls-1" d="M48.52,49.37a.59.59,0,0,1,.56-.46c0,.09.09.07.15.09C49.21,49.38,48.72,49.2,48.52,49.37Z"/><path class="cls-1" d="M97.71,49.67c.24,0,.22.29.54.19a7.41,7.41,0,0,1-2.44.15C96.44,49.39,97.22,50.14,97.71,49.67Z"/><path class="cls-1" d="M65.65,49.63c.1-.23.4-.21.56-.36C66.35,49.41,66,49.71,65.65,49.63Z"/><path class="cls-1" d="M78.06,49c.26.2,0,.27,0,.56-.32-.07-.45.08-.71.08s-.06-.48-.32-.47c0-.14.48-.13.09-.18,0-.21.28,0,.39-.09,0,.29-.21.24-.24.46C77.5,49.57,77.83,49.1,78.06,49Z"/><path class="cls-1" d="M86.26,49.3c-.05-.34.14-.41.4-.36,0,.41.23,0,.32,0S86.57,49.26,86.26,49.3Z"/><path class="cls-1" d="M66.29,49c-.11,0,0-.08,0-.18s-.55,0-.79-.11a1.22,1.22,0,0,1,.87-.17A.66.66,0,0,1,66.29,49Z"/><path class="cls-1" d="M56.65,49.49c-.09,0-.07-.17-.08-.28.17-.05.24-.22.48-.18a4.06,4.06,0,0,1,.17-.83c.19.3,1-.41,1.34.21,0,.34-.42-.13-.32.46.07.25.15-.25.39-.09C58.33,49.45,57.27,49.2,56.65,49.49Z"/><path class="cls-1" d="M52.08,49.24c0-.1.09-.08.15-.1s.07-.16.09-.27c.24-.06.22.16.47.1,0,.12-.14.14-.16.28.34,0,.41-.26.71-.27C53.15,49.66,52.61,49.32,52.08,49.24Z"/><path class="cls-1" d="M74.59,48.94c0,.08.09.07.15.09,0,.38-.37.3-.41.64a1,1,0,0,0-1.1-.1c.24-.63.87-.77,1.13-1.38a.44.44,0,0,0,.39.09c0,.3-.15.45-.4.47,0,.29.65-.14.55.28C74.76,49,74.73,48.92,74.59,48.94Z"/><path class="cls-2" d="M43.7,30A2.46,2.46,0,0,1,45,31.69a.48.48,0,0,1-.51.48c-.32,0-.54-.21-1.2-.81-1.76-1.61-4.4-2.61-7.51-3.42A16,16,0,0,1,43.7,30ZM37.77,19.3a14.43,14.43,0,0,1,5.47,1.19,1.65,1.65,0,0,1,.9,1.16.38.38,0,0,1-.39.42,2.51,2.51,0,0,1-.86-.39c-1.89-1.21-2.42-1.44-6-2.34A7.34,7.34,0,0,1,37.77,19.3Zm.33,4.41a12.84,12.84,0,0,1,4.71.93,1.52,1.52,0,0,1,1,1.17.39.39,0,0,1-.44.42c-.28,0-.55-.21-1-.56-.73-.53-1.85-1-4.84-1.92A4.25,4.25,0,0,1,38.1,23.71Z"/><path class="cls-2" d="M51.88,31.36c4.07-1.64,8.33-6.13,10-10.61-.57.11-3,.51-3.52.62a9.32,9.32,0,0,0-2.11.68c-.26.14-.34.18-.45.18s-.55-.42-.77-.72a1.42,1.42,0,0,1-.33-.85,2.6,2.6,0,0,1,.17-.77,2.9,2.9,0,0,0,.38.58,1,1,0,0,0,.9.46,36.1,36.1,0,0,0,5.09-.71,4.14,4.14,0,0,0,.73-.4c.15-.11.2-.11.26-.11s1.43.92,1.43,1.2-.11.25-.7.42c-.09,0-.14.14-.2.25a21.78,21.78,0,0,1-2.59,4.23c2.41,1.11,5.4,3.05,5.4,4.79,0,.12,0,.69-.55.69-.28,0-.4-.18-.53-.39A14,14,0,0,0,60,26.09c-1.14,1.39-3.82,4.55-8.06,5.41Z"/><path class="cls-2" d="M72.89,32.68c3.29-2.18,4.68-6.91,4.68-7.84a.79.79,0,0,0-.38-.67c-3.16.35-3.77.53-4.46.81a1.85,1.85,0,0,1-.54.18,1.91,1.91,0,0,1-1.28-1.78,4.57,4.57,0,0,1,0-.52A2.25,2.25,0,0,0,72.74,24c.72,0,5.18-.51,6.15-.59s2.13-.2,3.2-.27a1.56,1.56,0,0,0,.69-.16.84.84,0,0,1,.28-.09,4.21,4.21,0,0,1,1.54.64.49.49,0,0,1,.19.42c0,.2-.08.39-.33.39s-1.22-.16-1.42-.18A25.07,25.07,0,0,0,80.29,24a20.84,20.84,0,0,0-2.24.11c.26.18,1,.69,1,.86s-.31.43-.35.5a1.94,1.94,0,0,0-.2.51c-.9,2.87-2.48,5.83-5.58,6.85ZM76,20.1a12.07,12.07,0,0,0,3.32-.39,3,3,0,0,1,.92-.19c.44,0,1.47.1,1.47.61,0,.32-.22.32-.88.36-2.63.1-2.9.15-5.32.37h-.21a1.69,1.69,0,0,1-1.19-.41,1,1,0,0,1-.37-.95A3.76,3.76,0,0,0,76,20.1Z"/><path class="cls-2" d="M93.11,25.56v.56c0,.25,0,1.15-.51,1.15s-.64-1-.64-1.41a7.47,7.47,0,0,1,.11-.92,11,11,0,0,0,.07-1.67A11.67,11.67,0,0,0,92,20.91c-.12-.3-.23-.34-1.23-.62a1.58,1.58,0,0,1,1-.4c.31,0,1.67.24,1.67.75,0,.11-.19.62-.19.73-.09.6-.13,2.36-.13,3.75Zm1.36,7.3c3.62-2.63,4.32-4.92,4.32-10.51a10,10,0,0,0-.22-2.52c-.22-.35-1.07-.44-1.38-.47a1.54,1.54,0,0,1,1.1-.53,3.61,3.61,0,0,1,1.73.53.36.36,0,0,1,.12.3,6,6,0,0,1-.22.83,10.09,10.09,0,0,0-.07,1.07c-.11,4.32-.15,5-.57,6.52A7.11,7.11,0,0,1,94.53,33Z"/><path class="cls-2" d="M110.38,32.66a15.55,15.55,0,0,0,3.91-8.7c0-.58-.86-.88-1.15-1a2.14,2.14,0,0,1,.82-.23c.7,0,1.67.53,1.67.88a2.64,2.64,0,0,1-.13.5,16.69,16.69,0,0,0,3.66-3.35c0-.11-.11-.12-.35-.12-2,0-7.77.79-7.82.81a3.93,3.93,0,0,0-1.2.4.81.81,0,0,1-.33.09c-.18,0-.38-.14-.66-.39-.62-.54-.77-.84-.77-1.27a4.24,4.24,0,0,1,.11-.81,1.88,1.88,0,0,0,1.82,1.2c1.3,0,8.43-.65,8.92-.74a2.66,2.66,0,0,0,.62-.21c.21-.12.23-.14.3-.14s.62.51.81.72.66.72.66.92-.19.28-.81.32c-.31,0-.5.14-1.32.7-1.53,1.06-2.15,1.48-2.7,1.81a7.53,7.53,0,0,1-1.08.53c-.11.34-.52,1.82-.61,2.12a11.43,11.43,0,0,1-2.66,4.77,8.23,8.23,0,0,1-1.63,1.31Z"/><path class="cls-2" d="M125.28,31.36c4.08-1.64,8.34-6.13,10-10.61-.56.11-3,.51-3.52.62a9.49,9.49,0,0,0-2.11.68c-.26.14-.33.18-.44.18s-.55-.42-.77-.72a1.36,1.36,0,0,1-.33-.85,2.93,2.93,0,0,1,.16-.77,3,3,0,0,0,.39.58,1,1,0,0,0,.9.46,36.16,36.16,0,0,0,5.08-.71,4.49,4.49,0,0,0,.74-.4c.14-.11.2-.11.25-.11s1.43.92,1.43,1.2-.11.25-.69.42c-.1,0-.15.14-.2.25a21.78,21.78,0,0,1-2.59,4.23C136,26.92,139,28.86,139,30.6c0,.12,0,.69-.55.69-.27,0-.4-.18-.53-.39a14,14,0,0,0-4.53-4.81c-1.14,1.39-3.82,4.55-8.06,5.41Z"/><path class="cls-2" d="M149.6,19.16c0-.21-.26-.6-1.1-.79a.8.8,0,0,1,.69-.28,2.54,2.54,0,0,1,1.62.74.53.53,0,0,1,.22.42c0,.12-.06.18-.42.65a7.9,7.9,0,0,0-.86,1.31,13.4,13.4,0,0,0,1.63-.6c.57-.25.68-.3.9-.3s1,.18,1,.46-.35.35-.38.37a33.84,33.84,0,0,1-3.62.91c-.4.73-2.26,4.46-2.44,4.76s-1.29,2.17-1.4,2.26a.41.41,0,0,1-.31.14c-.11,0-.35-.07-.35-.55s.15-.67.53-1.12A24.68,24.68,0,0,0,147.45,24c.31-.58.68-1.32.88-1.7a7.86,7.86,0,0,1-1.87.28c-1.63,0-1.8-1.11-1.84-1.39a2.14,2.14,0,0,0,1.62.65,13.43,13.43,0,0,0,2.48-.34A18.33,18.33,0,0,0,149.6,19.16Zm4.75,3.46c2.1,0,3.67,1.72,3.67,2.5a.34.34,0,0,1-.36.35,1.25,1.25,0,0,1-.46-.14,2.33,2.33,0,0,0-1.42-.39,3.49,3.49,0,0,0-2.2.66,1.47,1.47,0,0,0-.37,1.14c0,.48.22,2.22.3,2.72,1.76.38,3.47,1.18,3.47,2.08,0,.33-.2.49-.41.49a.91.91,0,0,1-.4-.16,8,8,0,0,0-2.61-1.48c-.05,2.31-2.48,2.43-2.92,2.43-1.37,0-2.62-.72-2.62-1.73,0-1.18,1.6-1.86,3.32-1.86a8.78,8.78,0,0,1,1.14.07c-.09-1.43-.09-1.59-.09-2,0-1.81,1.15-2.36,3.15-2.89.15,0,.37-.09.37-.33s-.44-.5-.7-.66a8.24,8.24,0,0,0-1.83-.72A3.6,3.6,0,0,1,154.35,22.62ZM151.25,30c-.7,0-2.53.21-2.53,1.16,0,.72,1.12.87,1.65.87s2.26-.22,2.18-1.86A4.7,4.7,0,0,0,151.25,30Z"/><path class="cls-2" d="M177.59,25.42h-6.17c0,.44-.09,5.23-.09,5.87,0,.35,0,.67.25.81a8.47,8.47,0,0,0,2.24.19c1.54,0,1.89,0,2.28-.83a10.49,10.49,0,0,0,.64-2.78h.15c.05,2.29.4,2.84.48,2.91.31.26.36.32.36.49a1,1,0,0,1-.66.74,6.29,6.29,0,0,1-2.72.34,19,19,0,0,1-3.26-.2c-.7-.23-.7-.76-.7-1.18s0-2,0-2.31c0-1.9,0-2.11,0-4h-3.28l1.06.51c.17.07.26.16.26.28s-.09.16-.17.2a3.61,3.61,0,0,1-.44.21A7.22,7.22,0,0,1,166.37,31a7.53,7.53,0,0,1-5.16,2.59V33.4c2.63-.95,4.57-2.27,5.21-4.33a8.59,8.59,0,0,0,.43-2.63,3.86,3.86,0,0,0-.13-1H164a16.53,16.53,0,0,0-2.37.21l-.42-.76c1.37.11,2.7.13,3.05.13H169V21.45h-4a16.16,16.16,0,0,1-2.15,2.82l-.15-.05a26.24,26.24,0,0,0,2.45-5.5,4.28,4.28,0,0,0,0-.95l1.53.71s.26.12.26.28-.15.23-.83.42a10.69,10.69,0,0,1-.86,1.85H169V18.49a9.87,9.87,0,0,0-.2-1l1.7.44c.15,0,.26.09.26.23s-.48.47-.72.63c0,.35,0,1.9,0,2.22h3.61l.66-.76c0-.05.19-.21.3-.21a1.06,1.06,0,0,1,.35.18l1,.77a.38.38,0,0,1,.16.27c0,.16-.15.17-.27.17H170V25h5.36l.71-.76c.19-.2.21-.23.28-.23s.33.18.35.19l1,.76a.38.38,0,0,1,.18.28C177.86,25.4,177.71,25.42,177.59,25.42Z"/><path class="cls-2" d="M195.86,31.61h-7.61c0,.24,0,1.41,0,1.51a.79.79,0,0,1-.72.41c-.35,0-.35-.21-.35-.36s.08-1.34.08-1.56H182.3a15,15,0,0,0-2.35.21l-.44-.76c1.37.1,2.71.12,3,.12h4.7c0-.19,0-1.16,0-1.28h-3.39c.09.51-.44.63-.65.63s-.42-.05-.42-.28.06-.48.07-.57c0-.81.06-1.79.06-2.6a7.26,7.26,0,0,0-.07-1.08l1.08.44h3.32v-1H183a13.94,13.94,0,0,0-2.37.22l-.42-.76c1.36.1,2.7.12,3,.12h4.06c0-1.5,0-1.62-.26-2.08l1.35.28c.14,0,.29.09.29.25s-.26.37-.42.48,0,.33,0,1.07h5l.46-.65c0-.05.18-.25.29-.25a.6.6,0,0,1,.33.18l.85.69a.34.34,0,0,1,.18.28c0,.16-.17.17-.28.17h-6.84v1h3.32l.33-.37c.13-.14.17-.17.22-.17a.61.61,0,0,1,.28.14l.6.38a.38.38,0,0,1,.15.25c0,.14-.31.34-.5.46.06.41.11,2,.11,2.4,0,.28,0,.4-.14.52a.73.73,0,0,1-.54.25c-.34,0-.33-.28-.31-.4h-3.5l0,1.28h5.65l.59-.76c.09-.12.18-.24.31-.24s.15.05.31.19l.84.76c.17.16.19.25.19.3S195.94,31.61,195.86,31.61Zm-9.41-13.2c0,2.09-.32,5.48-4.26,6.32l-.08-.12A5.53,5.53,0,0,0,185,21.79c-2.28.7-2.5.77-3.78,1.09,0,.14-.11.37-.37.37s-.28-.28-.31-.37l-.5-1.09,1.16,0c.22,0,3.71-.17,3.87-.21a4.39,4.39,0,0,0,.26-1h-1.78a15.06,15.06,0,0,0-2.37.2l-.42-.76c1.37.11,2.7.14,3,.14h1.58c0-.6.06-.77.06-1h-2.19a13.85,13.85,0,0,0-2.35.21l-.44-.77c1.38.12,2.72.14,3.05.14h1.91a3.08,3.08,0,0,0-.24-1.38l1.51.34c.11,0,.25.09.25.23S186.65,18.3,186.45,18.41Zm.84,8.46h-3.45v1h3.45Zm0,1.41h-3.45v1.19h3.45Zm4.46-1.41h-3.54v1h3.54Zm0,1.41h-3.54c0,.21,0,.79,0,1.19h3.52Zm3.43-5.73h-4.66c0,.31,0,.88,0,1,0,.63-.68.65-.77.65-.28,0-.33-.14-.33-.28s0-.13,0-.3,0-1.13,0-5.17a5.2,5.2,0,0,0-.11-1l1.33.33c.12,0,.25.07.25.2s-.2.3-.53.47v.32h2.7l.49-.6c.13-.16.21-.25.3-.25s.27.15.33.2l.75.6a.46.46,0,0,1,.18.3c0,.16-.13.17-.27.17h-4.48l0,1.29H193l.33-.49c.09-.14.17-.21.26-.21s.15,0,.37.17l.66.49a.36.36,0,0,1,.18.27c0,.16-.16.19-.27.19h-4c0,.2,0,1.08.05,1.25h3.1l.34-.45c.07-.11.16-.25.27-.25s.11,0,.35.19l.72.48a.33.33,0,0,1,.18.26C195.46,22.53,195.31,22.55,195.18,22.55Z"/><path class="cls-2" d="M198.48,30.44a2.62,2.62,0,0,1,2.66-2.57,2.65,2.65,0,0,1,2.68,2.57,2.67,2.67,0,0,1-5.34,0Zm4.83,0a2.13,2.13,0,0,0-2.17-2.08,2.08,2.08,0,1,0,2.17,2.08Z"/></g></g></svg>