<svg xmlns="http://www.w3.org/2000/svg" viewBox="0 0 439.29 31.62"><defs><style>.cls-1{fill-rule:evenodd;}.cls-2{fill:#fff;}</style></defs><g id="レイヤー_2" data-name="レイヤー 2"><g id="レイヤー_1-2" data-name="レイヤー 1"><path class="cls-1" d="M424.17,24.82c-1,.13-2.19-.06-3.15,0V25c2.8.45,6.71.57,9.37,1.27a14.84,14.84,0,0,0-3.16.1c2.2.73,5.92.39,8.55,1.1a3.46,3.46,0,0,1,1.75.16c.69.1,1.53,0,1.76.22a7.18,7.18,0,0,1-1.76-.1c-2.83.45-6.85-.05-9.34.18a129.16,129.16,0,0,0-14.13-.31,53.82,53.82,0,0,0-8.29.28c-.35,0-.45-.12-.7-.17-.75.32-2.1,0-3.5,0-.87,0-1.6.22-2.1.2s-1.36-.29-1.64.21c-.23,0-.27-.18-.46-.24-3.58,0-6.55.24-9.46.18-.36,0-.22.17-.58.12a12.39,12.39,0,0,0-3.5.11c0-.21-1-.23-.71-.05-.62,0-1.91-.28-2.45.09-2.88-.24-6.59.44-8.87.17-.44,0-.74.18-1.16.25a3.78,3.78,0,0,1-.7-.17c-1.83.4-4,0-6.07.44-1.65-.15-3.94.24-5.6.13-1.66.24-3.77-.06-5.37.24-.06,0-.12-.1-.12-.18-1.37.25-2,0-3.15.22.32-.17-.17-.05-.24-.18a50.18,50.18,0,0,1-7.23.09c-.44-.06-.19.23-.59.19a22,22,0,0,0-4.9.12,2.78,2.78,0,0,0-1.64,0c-.36,0-.31-.16-.58-.18-3.19.26-6.9-.23-10.16.13-.37-.15-.73,0-1.05-.11s-.41.16-.7.19c0-.13-.08-.16-.12-.24-2.68,0-4.44.23-7.24.33-.91,0-1.58,0-2.21,0s-1.4.19-2.1.21c-.95,0-2-.12-3-.09-3.86.14-8.05,0-11.79.21-.31,0-.36-.18-.7-.18a3.1,3.1,0,0,1-1.76,0c-1.81.25-3.55-.15-4.66.11-4.61-.17-8.35-.14-12.27,0a22.16,22.16,0,0,0-4.32-.07c-2.75-.28-6.58,0-9.23-.43a1.42,1.42,0,0,0-.82.25c-.29-.12-.85-.1-1-.28a77.35,77.35,0,0,1-7.94.27c-.84.06-2.62.34-3.27,0-1.57.35-3.21-.14-5.25.19a5.54,5.54,0,0,0-2.57,0c-1.29-.05-2.41-.4-3.38-.08a8.54,8.54,0,0,0-2.81-.14c-2.75-.28-5.87,0-8.41-.26-.81.36-1.93-.19-2.8.09-.38.06-.25-.15-.47-.18-4.14.19-8.39-.12-12.61.28l-.35-.18a69.85,69.85,0,0,1-8.64.17c-3.33.35-6.36,0-9.92.42-.21,0-.27-.1-.24-.23a3,3,0,0,1-1.75,0,62.63,62.63,0,0,1-7.24,0,18.5,18.5,0,0,1-4.43.11c-.36,0-.6.06-.7.19-1.84-.41-4,.13-6.19-.23-.32.09-.76.1-.82.31-.35-.07.17-.23-.12-.3-.41.11-.56.16-.82-.05-.27,0-.5.07-.58.19-2.86-.32-5.6.06-8.53-.2a2.61,2.61,0,0,0-.81.19c-.37,0-.39-.15-.82-.11s-.57,0-.58.13c-1-.29-2.11.08-3.15,0-.19,0-.29-.15-.47-.17-.51-.07-1.59,0-2.11,0-1,0-2.06.15-3,.16a18.29,18.29,0,0,0-4.32.11,3.08,3.08,0,0,0-1.75,0,1.77,1.77,0,0,1-.94-.23c-3.41.14-5.86,0-9.22-.06-.31.37-1.61-.11-1.75.26-2.91-.42-5.55.15-9.58-.07-.56.23-1-.06-1.51.21-.14-.08,0-.1,0-.19-3.09,0-6.22.41-9.1.24-1.66.05-2.71.39-4.09.1-.86.19-2.13.07-2.8.22-2.32-.22-4.89.19-7.12,0-.75.34-2.66-.11-3.62.22a8.27,8.27,0,0,0-3.15.16c-.7.07-1.87-.28-2.57,0a59.47,59.47,0,0,0-8.51.35c-.24,0-.24-.16-.47-.18a62.71,62.71,0,0,1-6.54.08,18.56,18.56,0,0,1-4.55.18c-.37,0-.71,0-.82.13a19.56,19.56,0,0,0-3.74-.2,22.23,22.23,0,0,0-3.38.23c-.17-.07-.16-.24-.47-.24a37,37,0,0,1-5.37,0c-.27,0-.44,0-.47.12a30,30,0,0,0-4.09-.07c-1,0-1.9-.16-2.92-.14-.67,0-1.33.11-2,.08s-1.19-.23-1.76-.22c-1.08,0-2.7.26-3.62-.13A32.15,32.15,0,0,1,34,30.62c-1.13.28-1.9-.15-2.69.21a6.78,6.78,0,0,0-3.27-.32c-.46,0-.64-.23-1.06-.29a4,4,0,0,0-1,.26A9.53,9.53,0,0,1,24.42,30c-.82.11-2.14.62-2.45,0,.09,0,.32.09.35,0S22,29.8,22,29.62c-.46.15-.66.62-1.51.38.1-.24.37-.17.34-.37a9,9,0,0,0-2,.09c0-.12-.34-.11-.24-.3-.35,0-.6-.15-.7.07-.35,0-.15-.28-.35-.36a9,9,0,0,0-1.75.26A8.4,8.4,0,0,1,14,28.75c-1.1.25-3.74.08-3.28-.68a2.32,2.32,0,0,0-1.29.08c0-.47-.95-.47-1.53-.65-.49.05.12.27-.34.31-.54-.13-1.28-1-1.76-.53a2.66,2.66,0,0,0-1.53-.46c-.07-.19.22-.19,0-.3s-.44.09-.7.07c-.14-.8-1.95-1.18-2.6-1.9C.16,25-.24,24.49.15,24c.69-.1,1.14-.31,1.28-.68.31-.05.23.11.47.11.79-.36,2.52-.4,2.9-1.12.49,0,.46-.23.7,0,.67-.17,1.23-.77,2-.38a11.65,11.65,0,0,1,4.42-.66c.44.05.23-.21.47-.25.64-.08.71.15,1.05.23.25-.17-.07-.25.11-.43a4.15,4.15,0,0,1,1.41.29c.16,0,.09-.15.11-.24a1.24,1.24,0,0,1,.59.23c.42-.05,0-.24.11-.48.38,0,1,0,.93.23.4-.14.86.13.82-.2.37,0,.46.09.7.12.34-.17.37-.5.81-.62.53,0,.62.32,1.06.41,1.1-.23,1.73-.16,2.56-.39.14.18.64.11.36.36a3.27,3.27,0,0,0,2.67-.64c1.87.44,2.59.11,4.79.18.44-.05,0-.21.23-.3.81.33,1.37-.16,2.34.09.25,0,.22-.09.23-.18,1.06.06,2.09.06,2.44-.45.47-.05.72,0,.71.23.91-.1,1.65.3,2.33-.15.75.33,2-.05,2.81.21.64-.61,3.19.25,4.31-.48a14.37,14.37,0,0,0,4.2-.17,5,5,0,0,0,2.33-.09,7.21,7.21,0,0,0,3.27.08c3.31.11,5.76-.39,9-.23.26,0,.17-.12.35-.12,1.29-.13,2.75.12,4-.05.24,0,.35-.18.58-.19,2.79-.15,5.88-.16,8.87-.29a26.72,26.72,0,0,1,4.32-.11c.35-.26,1.25.08,1.28-.26,6,.13,12.64-.3,18.91-.35,4.16,0,9.74-.22,13.89-.41,5-.24,9.78.18,14-.11,4.12,0,7,.24,11.21,0,1.18-.06,1.6-.28,2.33,0,3,0,5.76-.09,9.11-.11.28,0-.07-.28.35-.19v.24c6.62-.14,12,.29,18.1,0,3.4.29,7.61-.67,11.09-.13.2,0,.22-.05.23-.12a54.71,54.71,0,0,0,10.16,0,60.83,60.83,0,0,0,7-.08c5.23.14,11.6-.18,16.81-.21a3.33,3.33,0,0,0,.81-.19c5.44.19,12.06-.18,17.52,0,5.68.15,11.1,0,17.4.34.6-.08,1.54-.37,2.1-.09,2.61-.11,5.5,0,8.18,0a1.27,1.27,0,0,0,.58-.19c.87.29,1.87-.18,2.92-.1.33,0,.58.21.93.23,1.48.1,3.46-.07,5.14,0,1.34.06,2.4.4,3.51.08,2.15.3,3.4-.1,4.9.18.28,0,.22-.21.58-.19,2.91.2,4.1.16,6.9.34.43.06.23-.2.46-.25a8,8,0,0,0,2.92.09c3.45.14,7.19.21,10.51.05.78.35,2.63,0,3.51.26.51,0,.9-.18,1.4-.2,1.23,0,2.59.31,3.86.32,3.5,0,7.49,0,11,.22a46.42,46.42,0,0,1,7.36,0c.7.06,1.26.37,1.87.39a10.2,10.2,0,0,1,3.15.15,8.3,8.3,0,0,1,3.4.26c.34-.06-.36-.05-.12-.24a50.64,50.64,0,0,0,6.55.76c.23,0,.56.12.82.11a2.52,2.52,0,0,1,.93.05c.42.07.88,0,1.29,0a37.4,37.4,0,0,0,7.36.33,53.22,53.22,0,0,0,6,.41c2.55.08,4.94.25,7.48.27,1.22.54,3,0,3.74.37,5.53.14,10.63.91,14.85,1,1.34.22,3.89.32,5.38.66.36,0,.34-.11.7-.07,2,.19,4.53.23,6.43.4,3.48.57,7.76.49,12.05,1.24A55.34,55.34,0,0,1,420,24.45c.29,0,.26-.12.59-.07C421.41,24.84,423.07,24.54,424.17,24.82Z"/><path class="cls-2" d="M26.22,11v1.32H.77V11Z"/><path class="cls-2" d="M51.68,11v1.32H26.23V11Z"/><path class="cls-2" d="M64.21,2.25,62.48,5.91l.71.39c.2.12.38.22.38.37s-.08.24-.76.73c-.13,3.93.12,10.24.12,14.17a1.17,1.17,0,0,1-1.19,1.22c-.49,0-.54-.39-.54-.66,0-.12,0-.19,0-.54.21-2.29.23-4.25.23-13.75a22,22,0,0,1-3.94,5.38l-.13-.1A50.57,50.57,0,0,0,63,.56l2,.88a.37.37,0,0,1,.23.29C65.15,2,65.05,2,64.21,2.25ZM80.62,7.33H74.31l1.1.73c.1.07.22.15.22.29,0,.32-.68.37-.84.4a13.81,13.81,0,0,1-1.73,1.63h3.72l.79-.78c.25-.27.3-.32.41-.32s.25.13.45.3l.95.75c.15.15.25.22.25.39s-.2.25-.38.25H71.84c0,.54,0,.83,0,1.81H75.2l.66-.71c.26-.27.28-.32.38-.32a1.05,1.05,0,0,1,.49.27l.81.71c.16.12.26.22.26.36s-.23.27-.41.27h-5.6c-.05.93-.13,1.54-.18,2.08h6.14l.73-.81c.26-.27.28-.29.39-.29a1,1,0,0,1,.48.24l1.09.81c.13.1.26.22.26.37s-.23.27-.38.27H72.25c.81,1.83,4.12,4.64,8.6,4.61v.25a2.83,2.83,0,0,0-1.63,1.51A10.14,10.14,0,0,1,71.89,16h-.35a6.94,6.94,0,0,1-.39,1.39c-1.32,2.66-4.27,4.1-7.43,4.62v-.3c3.41-1.12,5.93-3.22,6.42-5.71H67.72a21.88,21.88,0,0,0-3.26.26l-.61-1c1.91.15,3.77.2,4.22.2h2.17c.07-.56.13-1.15.18-2.08h-.89a21.5,21.5,0,0,0-3.26.27l-.61-1.05c1.91.15,3.76.2,4.22.2h.56V11H68.1a22.17,22.17,0,0,0-3.28.29l-.59-1c1.91.15,3.74.17,4.23.17H69a2.5,2.5,0,0,1-.49-1.32,3.21,3.21,0,0,0-1.09-1.73,18.84,18.84,0,0,0-2.9.27l-.61-1c1.9.14,3.76.19,4.25.19h1.09c0-.53,0-2.86,0-3.32A10.41,10.41,0,0,0,69,.78l1.88.49c.3.07.36.2.36.34s-.16.32-.69.61c0,.3,0,4.13,0,4.52h2c0-.49,0-2.64,0-3.08a7.57,7.57,0,0,0-.3-2.88L74,1.34c.25.08.41.13.41.32s-.08.2-.77.64c0,.34,0,.56,0,2.49v2H78.1l.69-.88c.13-.17.23-.29.36-.29s.45.24.48.24l1.15.88c.1.08.25.2.25.37S80.8,7.33,80.62,7.33ZM67.29,5.59c-.74,0-.87-.66-1-1.56a5.45,5.45,0,0,0-.84-2l.2-.1c.94.49,2.44,1.59,2.44,2.72C68.07,5,67.87,5.59,67.29,5.59ZM68,7.33c.71.27,2.24,1.05,2.24,2.39a.85.85,0,0,1-.21.66h2.45A9.7,9.7,0,0,0,73.7,7.33Zm9.64-3.42a24.16,24.16,0,0,1-3,2.39l-.15-.14c.28-.42,1.09-1.64,1.6-2.59a8.81,8.81,0,0,0,.59-1.49l1.73,1c.15.09.23.19.23.29C78.64,3.71,78.26,3.79,77.59,3.91Z"/><path class="cls-2" d="M89.71,11.92c-.28,1.2-1.07,4.79-1.22,5.69,0,.22-.1,1-.1,1.25s.1,1.27.1,1.49a.52.52,0,0,1-.56.56c-1.58,0-2.11-4.52-2.11-6a46.89,46.89,0,0,1,1.25-8.57,7,7,0,0,0,.2-1.45,2,2,0,0,0-1.1-2,1.9,1.9,0,0,1,.54-.07,2.6,2.6,0,0,1,2.34,2c0,.27,0,.36-.41,1.27A20.16,20.16,0,0,0,86.94,14a13.74,13.74,0,0,0,.33,3.25.14.14,0,0,0,.1.05c.18,0,.25-.35.28-.42l1.73-4.81a.51.51,0,0,0,.08-.17Zm9.52-8c0-1.29-.43-1.44-1.76-1.76A3,3,0,0,1,99,1.73a2.63,2.63,0,0,1,1.58.71c.2.17.3.27.3.49s-.18.86-.2,1a19.44,19.44,0,0,0-.23,3.37c.53-.09,2.8-.7,3.28-.7.31,0,1.22.31,1.22.7s-.45.52-.63.54c-1.51.32-3.77.56-3.87.59,0,2.64.13,5.52.38,7.89a23,23,0,0,1,3.26,1.49,2,2,0,0,1,1,1.39.65.65,0,0,1-.63.66c-.23,0-.39-.1-.85-.39-1-.64-2.41-1.51-3-1.81a3.76,3.76,0,0,1-3.94,2.76c-2.19,0-4-1.12-4-2.51a2.22,2.22,0,0,1,1.45-1.86,7,7,0,0,1,2.59-.39,18.22,18.22,0,0,1,2.78.22c0-.73-.18-6.16-.21-7.33a19.92,19.92,0,0,1-2.31.2,7.37,7.37,0,0,1-3.62-.91A1.45,1.45,0,0,1,92.72,7a8.73,8.73,0,0,0,3.74.69,19.18,19.18,0,0,0,2.85-.2C99.28,6.94,99.26,4.45,99.23,3.93ZM96.61,16.56c-1.12,0-3,.37-3,1.32,0,.78,1.22,1.37,2.7,1.37,2.54,0,3-1.64,3.13-2.13A7.62,7.62,0,0,0,96.61,16.56Z"/><path class="cls-2" d="M124.28,8c.36-.12.51-.22.51-.58a1.08,1.08,0,0,0-.15-.59,1.83,1.83,0,0,1,1.9,1.81c0,.46-.3.56-.68.58a20.85,20.85,0,0,0-5.5,1.67c-5.19,2.27-6.19,4.76-6.19,5.86,0,2.61,3.75,2.78,5.12,2.78a40.59,40.59,0,0,0,5.65-.49,8.07,8.07,0,0,1,1.17-.17c.66,0,1.5.25,1.5.76,0,1.08-4.25,1.08-6.56,1.08-2.73,0-4.51,0-6.21-1.2a3.34,3.34,0,0,1-1.45-2.81c0-2.66,3-4.76,4.88-5.94-1.12-1.44-1.12-1.9-1.22-5.93,0-2.35-.48-2.79-1.78-3.45a1.22,1.22,0,0,1,1-.29c.84,0,2.46,1,2.46,1.51a3,3,0,0,1-.12.69,11.05,11.05,0,0,0-.31,2.88,8.26,8.26,0,0,0,.84,4.1A26.15,26.15,0,0,1,124.28,8Zm3.92-2.56c2.11.58,2.59,1.29,2.59,2.29,0,.22-.07.32-.28.32s-.25,0-1.12-.76a12.75,12.75,0,0,0-3.2-2.1A5.29,5.29,0,0,1,128.2,5.45Zm.58-2.69c1.81,0,3.57,1.05,3.57,2.39,0,.13,0,.47-.26.47a2.53,2.53,0,0,1-.84-.56,10.93,10.93,0,0,0-3.43-2.2A3.92,3.92,0,0,1,128.78,2.76Z"/><path class="cls-2" d="M143.83,23.13c3.16-2.59,5.9-5.71,5.9-10.45a6.28,6.28,0,0,0-1-3.79A2.49,2.49,0,0,0,147,8.06a6.34,6.34,0,0,0-4.05,2.2c-.84.9-1.37,1.49-2,1.49a2.48,2.48,0,0,1-2.49-2.47c.71.54,1.07.83,1.63.83.33,0,.51-.09,2.08-.95,2.32-1.27,3.26-1.78,4.92-1.78,3.53,0,4.2,3.12,4.2,5.1a11.11,11.11,0,0,1-3.26,8,15.34,15.34,0,0,1-4,2.84ZM144,5c1.25-1.17,1.4-1.29,1.4-1.58s0-.3-1.3-.91a8.29,8.29,0,0,1-1.85-1.39,1.41,1.41,0,0,1-.56-1.1,9.92,9.92,0,0,0,4.48,1.91c1.24.29,2.72,1,2.72,2,0,.44-.36.44-.51.44s-1.43-.17-1.68-.17a6.26,6.26,0,0,0-2.62.93Z"/><path class="cls-2" d="M166.84,22.82c4.33-2.76,4.84-5.26,5.09-6.84a3,3,0,0,1-1.5.51c-1.2,0-3-1.66-3-3.79a3.11,3.11,0,0,1,3-3.12A3.6,3.6,0,0,1,172,10c0-.39,0-.54,0-.71V7a28.55,28.55,0,0,0-8.61,1.75,8,8,0,0,1-1,.37,3,3,0,0,1-2-2.3,1.91,1.91,0,0,1,.07-.53c.74.92,1.25,1.17,1.89,1.17a10.09,10.09,0,0,0,1.4-.2c1.17-.19,5.77-.88,8.22-1.07a17.58,17.58,0,0,0-.36-3.76,3.07,3.07,0,0,0-1.68-1.2,2.5,2.5,0,0,1,1.2-.39,4.58,4.58,0,0,1,1.88.73.75.75,0,0,1,.41.66,5.21,5.21,0,0,1-.16.73A26.61,26.61,0,0,0,173,6.16c1-.08,5.27-.22,6.13-.3l1.15-.1c1,0,1.81.69,1.81,1.08s-.33.46-.61.46a1.23,1.23,0,0,1-.44-.07,23.84,23.84,0,0,0-4.71-.39c-1.12,0-2.26,0-3.38.12,0,1.08,0,2,0,2.37s0,.86,0,1.49a6.1,6.1,0,0,1,.82,3.28,8.88,8.88,0,0,1-3.54,7.13A12.06,12.06,0,0,1,166.92,23Zm1.4-10.19a2.69,2.69,0,0,0,2.32,2.66c1.4,0,1.4-1.81,1.4-2.07,0-2-.72-2.69-2-2.69A2.09,2.09,0,0,0,168.24,12.63Z"/><path class="cls-2" d="M209,16.17a11.87,11.87,0,0,1-2.72,2.52,5.78,5.78,0,0,1-2.9.93,3.14,3.14,0,0,1-2.55-1.4,4.89,4.89,0,0,1-.58-2.66c0-.63.2-2.32.41-4s.4-3.37.4-3.93c0-.71-.23-1.51-1.19-1.51-1.79,0-5.17,3.25-7.49,6.4a36.48,36.48,0,0,0,.23,5.08,15.49,15.49,0,0,1,.1,1.64,6.41,6.41,0,0,1-.35,2.12.46.46,0,0,1-.41.29c-.46,0-.61-.58-.74-1a13.1,13.1,0,0,0-1-2.47l.13-.07a4.5,4.5,0,0,0,1.12.93c.17,0,.2-.2.2-.3,0-.78-.2-4.15-.2-4.86-.49.71-3.13,4.84-3.41,5.3-.13.2-.31.52-.62.52s-.53-.37-.53-1a1.59,1.59,0,0,1,.61-1.34,25.7,25.7,0,0,0,4-6.7c.05-.78.08-1,.18-2.05l-2.47,1.27c-.71.37-.81.39-1,.39-.86,0-1.47-1.29-1.47-2a.76.76,0,0,1,.05-.34,2,2,0,0,0,1.47.83,19.86,19.86,0,0,0,3.57-1.22c.05-.56.33-3.15.33-3.52,0-1.27-.69-1.49-2-1.86a4,4,0,0,1,1.48-.31,2.18,2.18,0,0,1,2.24,1.63,4,4,0,0,1-.33,1.18A19.9,19.9,0,0,0,193,6.94c.28,0,.91.58.91.88s0,.17-.56,1a9.11,9.11,0,0,0-.76,1.49c0,.41-.08,1.07-.08,1.34,2.27-3.08,5.73-6.35,7.82-6.35a2.21,2.21,0,0,1,2.19,2.44,13.33,13.33,0,0,1-.18,1.84,47.81,47.81,0,0,0-.74,6.2c0,1.74.33,2.37,1.81,2.37a11.6,11.6,0,0,0,5.52-2.08Z"/><path class="cls-2" d="M216.71,11.9c-.18.83-1,4.47-1.15,5.22a8.27,8.27,0,0,0-.2,1.42c0,.27.15,1.52.15,1.79a.56.56,0,0,1-.61.58c-1.09,0-2-2.71-2-5.91a24.83,24.83,0,0,1,.51-5.08c.18-.91.86-4.2.86-4.94a2.09,2.09,0,0,0-1-2,1.2,1.2,0,0,1,.46-.1A2.47,2.47,0,0,1,216,4.86a2.26,2.26,0,0,1-.25.86,22.66,22.66,0,0,0-1.86,8.5c0,.36.07,3,.51,3,.1,0,.15-.1.17-.17.51-1.47,1.38-3.82,1.91-5.28ZM230,6.64a2.86,2.86,0,0,1,.61-.14c.51,0,1.22.27,1.22.73,0,.29-.28.42-.46.49a35.25,35.25,0,0,1-4.07.63c.05,1.25.38,6.75.43,7.87,1.86.66,4.36,1.69,4.36,3a.52.52,0,0,1-.56.51c-.34,0-.59,0-1.84-.93a9.38,9.38,0,0,0-2.06-1.2c-.41,1.13-1,2.69-4,2.69-2.12,0-4-1-4-2.39,0-.52.33-2.3,4.22-2.3a11.35,11.35,0,0,1,2.73.29v-.61c0-2.27-.23-5.15-.28-6.81-.51,0-2,.19-2.72.19-1.25,0-3.37-.39-4-1.73a6.3,6.3,0,0,0,2.8.73c.69,0,2.16-.1,3.87-.29a29.13,29.13,0,0,0-.23-4.3c-.16-.54-.61-.66-1.66-.93,1.05-.44,1.15-.49,1.4-.49.44,0,2,.54,2,1.27a2.18,2.18,0,0,1-.17.78,11.23,11.23,0,0,0-.33,3.52A21.79,21.79,0,0,0,230,6.64Zm-6.52,9.87c-1.47,0-3,.59-3,1.49s1.5,1.2,2.79,1.2c2.63,0,3-1.49,3.11-2.12A6.5,6.5,0,0,0,223.5,16.51ZM232.36,5.4c0,.1-.05.54-.46.54-.25,0-.46-.2-.86-.74a35.69,35.69,0,0,0-2.73-2.78C229.89,2.56,232.36,3.79,232.36,5.4Zm2.39-1.61c0,.29-.12.58-.48.58s-.56-.27-1.07-.9a13.77,13.77,0,0,0-3-2.57C232.16.78,234.75,2.37,234.75,3.79Z"/><path class="cls-2" d="M247.38,10.28c-.36.69-3,6-3.16,6.26a2.86,2.86,0,0,0-.17.9c0,.17.17.95.17,1.13s-.17.53-.63.53-3.18-.19-4.46-5.32c-.23-.88-.23-1.3-.51-5.08a6.56,6.56,0,0,0-1.22-4.08c1.35,0,2.83,1.44,2.83,2.51a3.91,3.91,0,0,1-.15,1,10.59,10.59,0,0,0-.18,2.08c0,1.37.33,4.81,1.91,6a1.12,1.12,0,0,0,.56.27.77.77,0,0,0,.61-.37c1.88-2.83,2.08-3.1,3.92-5.67a3.42,3.42,0,0,1,.23-.34Zm5.78,3c.35,0,2-.29,2.34-.34a.64.64,0,0,0,.66-.61,7.87,7.87,0,0,0-4.71-5.79,2.49,2.49,0,0,1,.79-.14,4.38,4.38,0,0,1,2.9,1.51,10,10,0,0,1,2.75,5.77c0,.73-.33,1.46-.71,1.46-.18,0-.26,0-.89-.56-.87-.71-1.43-.81-3.13-1.12Z"/><path class="cls-2" d="M272.83,10.28c-.35.69-3.05,6-3.15,6.26a2.88,2.88,0,0,0-.18.9c0,.17.18.95.18,1.13s-.18.53-.64.53-3.18-.19-4.45-5.32c-.23-.88-.23-1.3-.51-5.08a6.56,6.56,0,0,0-1.22-4.08,3.16,3.16,0,0,1,2.82,2.51,3.91,3.91,0,0,1-.15,1,11.42,11.42,0,0,0-.18,2.08c0,1.37.33,4.81,1.91,6a1.17,1.17,0,0,0,.56.27.75.75,0,0,0,.61-.37c1.88-2.83,2.09-3.1,3.92-5.67,0,0,.15-.24.23-.34Zm5.78,3c.36,0,2-.29,2.34-.34s.67-.12.67-.61a7.87,7.87,0,0,0-4.71-5.79,2.43,2.43,0,0,1,.79-.14,4.4,4.4,0,0,1,2.9,1.51,10.08,10.08,0,0,1,2.75,5.77c0,.73-.33,1.46-.72,1.46-.17,0-.25,0-.89-.56-.86-.71-1.42-.81-3.13-1.12Z"/><path class="cls-2" d="M299.16,20.23c7.6-2.52,8-7.77,8-9,0-4.28-4.22-6.57-8-6.57a2.82,2.82,0,0,0-1,.12c1.25,1,1.25,1.73,1.25,1.86,0,.29-.08.39-.61,1.46-3.11,6.26-3.38,6.87-4.84,8.94-.12.17-.94,1.32-1.45,1.52a1.18,1.18,0,0,1-.48.1c-.59,0-.76-.27-1.48-1.25a3.07,3.07,0,0,0-.68-.66c-1-.78-1.33-1.64-1.33-3.3,0-4.91,4.3-9.53,10.82-9.53,4.66,0,9.26,2.54,9.26,7.6,0,4.47-3.74,8.48-9.46,9Zm-2.88-9.51a11.47,11.47,0,0,0,1.5-4.25,2.24,2.24,0,0,0-.71-1.56c-2.85.22-7.15,3.84-7.15,8.62,0,1.86,1.22,3.5,2.21,3.5a.68.68,0,0,0,.48-.17,9.91,9.91,0,0,0,1.48-2.15Z"/><path class="cls-2" d="M324.41,5.06c.45-.27.48-.3.84-.3s1,.22,1,.59-.2.39-.4.51a27.62,27.62,0,0,1-4.51,1.69c-2.39,6.3-3.84,10.14-5.14,12.53-.28.51-.41.81-.81.81s-.72-.54-.72-.93,0-.34.79-1.66a60.63,60.63,0,0,0,4.69-10.43,14.89,14.89,0,0,1-3.31.41c-1.81,0-2.29-.73-2.57-1.24a7,7,0,0,0,2.21.31,17.58,17.58,0,0,0,4.05-.61,20,20,0,0,0,1-3.66c0-.69-.5-1-1.29-1.44a3,3,0,0,1,1.06-.17,1.87,1.87,0,0,1,2,1.58c0,.15,0,.25-.3.81a22.11,22.11,0,0,0-1.09,2.47A19.76,19.76,0,0,0,324.41,5.06Zm4.25,14.51a26,26,0,0,0,3.69-.3c.43,0,.48-.07.58-.07.44,0,1.17.51,1.17.88,0,.78-3,.81-4.45.81a8.6,8.6,0,0,1-5.32-1.35,2.7,2.7,0,0,1-1-2.15,3.08,3.08,0,0,1,.4-1.56C323.87,17.88,324.38,19.57,328.66,19.57Zm.15-8.38c.58-.44,2.06-1.61,2.06-2s-.94-.52-4.2-.59a6.91,6.91,0,0,1,3.56-.9c1.61,0,3.75.61,3.75,1.76,0,.61-.44.61-1.17.61-1,0-1.68.17-3.95,1.27Zm4.3-6.06c0,.15-.05.61-.48.61-.28,0-.36,0-1.33-1a15.06,15.06,0,0,0-2.69-1.93C330.29,2.83,333.11,3.47,333.11,5.13ZM331.48.9a6.68,6.68,0,0,1,3.39,1,1.35,1.35,0,0,1,.53,1.07c0,.27-.1.56-.48.56a1.13,1.13,0,0,1-.79-.44,9,9,0,0,0-3.59-2A3.56,3.56,0,0,1,331.48.9Z"/><path class="cls-2" d="M346.81,20.72a18,18,0,0,0,6.33-1.84c2.17-1.05,3.16-2.34,3.16-4.3,0-2.27-2.14-3.49-4.35-3.49-3.31,0-7.53,1.93-9.39,4.45a6.22,6.22,0,0,1-1,1.22A.75.75,0,0,1,341,17c-.33,0-.58-.24-.58-.71a2.58,2.58,0,0,1,.84-1.78,22.65,22.65,0,0,0,2.19-2,65.3,65.3,0,0,0,6.18-7.57c.1-.15.13-.2.13-.25s-.1-.24-.36-.24A10.35,10.35,0,0,0,346,5.47c-.82.49-.92.54-1.17.54A2.38,2.38,0,0,1,343,3.83a.87.87,0,0,1,.23-.56,1.82,1.82,0,0,0,1.56,1.1,28.18,28.18,0,0,0,4.86-1.1,12.36,12.36,0,0,1,1.19-.44c.44,0,1.73.79,1.73,1.37,0,.32-.15.44-.56.64-1.12.51-3,2.76-6.51,6.89a3.74,3.74,0,0,0-.54.78c3.06-1.59,4.92-2.18,7.13-2.18,4.2,0,5.93,2.25,5.93,4.35,0,2.74-2.32,4.35-3.59,4.91A18.15,18.15,0,0,1,347.75,21a5,5,0,0,1-.94-.05Z"/><path class="cls-2" d="M369.36,23.13c3.16-2.59,5.91-5.71,5.91-10.45a6.27,6.27,0,0,0-1-3.79,2.49,2.49,0,0,0-1.76-.83,6.34,6.34,0,0,0-4.05,2.2c-.84.9-1.37,1.49-2,1.49a2.49,2.49,0,0,1-2.49-2.47c.71.54,1.07.83,1.63.83.33,0,.51-.09,2.09-.95,2.31-1.27,3.25-1.78,4.91-1.78,3.54,0,4.2,3.12,4.2,5.1a11.11,11.11,0,0,1-3.26,8,15.34,15.34,0,0,1-4.05,2.84ZM369.51,5c1.25-1.17,1.4-1.29,1.4-1.58s-.05-.3-1.29-.91a8.11,8.11,0,0,1-1.86-1.39A1.41,1.41,0,0,1,367.2,0a10,10,0,0,0,4.48,1.91c1.24.29,2.72,1,2.72,2,0,.44-.36.44-.51.44s-1.42-.17-1.68-.17a6.37,6.37,0,0,0-2.62.93Z"/><path class="cls-2" d="M387.87,9.94h1c1.91,0,3.64-1,3.64-3.1a3.2,3.2,0,0,0-3.18-3.35c-1.83,0-1.91.88-2,1.66a1,1,0,0,1-1.07.91.9.9,0,0,1-1-1c0-1.54,1.94-2.39,3.64-2.39a4.42,4.42,0,0,1,4.71,4.49c0,.66,0,4.18-4.83,4.4v3.91h-.89ZM387,20.13a1.29,1.29,0,0,1,2.57,0,1.27,1.27,0,0,1-1.3,1.25A1.24,1.24,0,0,1,387,20.13Z"/></g></g></svg>