<svg xmlns="http://www.w3.org/2000/svg" viewBox="0 0 445.15 51.29"><defs><style>.cls-1{fill-rule:evenodd;}.cls-2{fill:#fff;}</style></defs><g id="レイヤー_2" data-name="レイヤー 2"><g id="レイヤー_1-2" data-name="レイヤー 1"><path class="cls-1" d="M334.89,4.76c-1.39,0-2.58-.21-3.45.53-.88-.21-2.44.11-2.64-.66-1.3-.07-2.44.89-4,.27-.11-.6.39-.59.53-.93C328.33,4.36,331.58,3.85,334.89,4.76Z"/><path class="cls-1" d="M368.55,5.7c1.15.39,1.92-.16,3.44.13-.1,1.3-2,.86-3.05,1.19.31-.19-.25-.42.27-.4,0-.1-.13-.12-.13-.27-.44-.16-.1.43-.53.27C368.94,6.29,368.21,6,368.55,5.7Z"/><path class="cls-1" d="M382.86,6.5A24,24,0,0,1,374,6.35C376.86,5.61,380.48,6.65,382.86,6.5Z"/><path class="cls-1" d="M398.64,7.82a6.23,6.23,0,0,0-2.26-.27C397.11,7.13,398.55,7.08,398.64,7.82Z"/><path class="cls-1" d="M404.2,7.55c-.59.53-2.34.46-3.45.4-.63,0-1.59-.15-1.85-.53C400.84,7.14,402.61,7.59,404.2,7.55Z"/><path class="cls-1" d="M411.75,8c-1,1-3.48-.12-5.17,0-.57,0-.86.58-1.32.26V7.82A42.71,42.71,0,0,1,411.75,8Z"/><path class="cls-1" d="M416.65,8.08c-.81.94-2,.24-3,.4C414.22,7.89,415.65,8,416.65,8.08Z"/><path class="cls-1" d="M383.39,8.34c0,.14-.16.11-.27.14-.29.07.17.21-.13.39-.41-.14-1.19.16-1.59-.26A2.33,2.33,0,0,1,383.39,8.34Z"/><path class="cls-1" d="M386,8.21h.8c-.06.59.41.43.13.93-.55-.25-1.59,0-1.72-.66.5-.19.25.36.66.26C386.11,8.63,385.87,8.54,386,8.21Z"/><path class="cls-1" d="M423.41,8.48c-.67.45-1.43,0-2.52.26C421.4,7.86,422.45,8.34,423.41,8.48Z"/><path class="cls-1" d="M426.06,8.74c-1.1.53-1.16-.56,0,0Z"/><path class="cls-1" d="M429.78,8.74c-.09.6-1.48.49-1.47.13C428.61,8.63,429.29,8.79,429.78,8.74Z"/><path class="cls-1" d="M397.57,8.87a.82.82,0,0,1,.8.67c-.42.14-.31,0-.8,0C397.65,9.12,397.32,9.13,397.57,8.87Z"/><path class="cls-1" d="M405.26,9.14c.16.62.64.14.92.53-.27.18-1.69.38-1.59-.26A.65.65,0,0,0,405.26,9.14Z"/><path class="cls-1" d="M8.88,10.6c-.45.64-1.34.25-2,.26-2.08,0-4.29.52-6.49.27C2.84,10.49,6.08,10.74,8.88,10.6Z"/><path class="cls-1" d="M429.51,12.58c1.12-.63,1.36.76,2.38.66-.58.54-1.06-.41-1.59,0C430.25,12.9,430.2,12.58,429.51,12.58Z"/><path class="cls-1" d="M430,13c-.61.28-1.23-.11-2,.13C428.41,12.28,429.38,12.73,430,13Z"/><path class="cls-1" d="M426.19,12.85c.1-.17,1.3-.33,1.2.13C426.85,13.08,426.63,12.86,426.19,12.85Z"/><path class="cls-1" d="M437.06,13.65c-.26.71-1.36-.29-1.72.12C435.05,13.22,436.65,13.64,437.06,13.65Z"/><path class="cls-1" d="M437.86,15.11c-1.62-.25-2.83,0-4.38-.14.13.22.57.15.8.26-1.09.08-2.6.78-3.44,0-.48-.06-.34.48-.8.4.14-.34-.45-.67.13-.66a3.09,3.09,0,0,0-2.26-.4c0,.24.24.31.54.27,0,.29-.47.06-.67.13.13-.51-.51-.55-.13-.93,2.36.15,5.25-.09,7.56.27A8.05,8.05,0,0,1,437.86,15.11ZM431.1,15c.32,0,.82.22,1.19,0C431.89,14.86,431.29,14.57,431.1,15Z"/><path class="cls-1" d="M442.1,14.31c.1-.3.74-.05,1.06-.14C443,14.71,442.62,14.16,442.1,14.31Z"/><path class="cls-1" d="M440,15.11c.81-.15,1.89.13,3.58.12-.55.54-2.3-.2-3.32.4C440.77,15.35,440.57,15.18,440,15.11Z"/><path class="cls-1" d="M436,15.23c0,.41-.66.23-1.05.27C435,15.1,435.83,15.1,436,15.23Z"/><path class="cls-1" d="M430.57,16.16a1.55,1.55,0,0,1-1.46.27C429.24,15.87,430.09,16.53,430.57,16.16Z"/><path class="cls-1" d="M419,17.22c.48.09,1.18,0,1.19.53C420,17.46,419,17.84,419,17.22Z"/><path class="cls-1" d="M426.73,17.62c-.19.3-.93.05-1.34.13C425.64,17.33,426.32,17.55,426.73,17.62Z"/><path class="cls-1" d="M418.9,19.08c.31-.28.47.06.93-.13,0,.13-.16.1-.26.13a.37.37,0,0,1,0,.53C419,19.55,419.55,19.1,418.9,19.08Z"/><path class="cls-1" d="M418.24,19.61c-.15.89-1,0-1.45,0C417.24,18.8,417.61,20.17,418.24,19.61Z"/><path class="cls-1" d="M437.33,19.74c-1.65.41-1.93-.15,0,0Z"/><path class="cls-1" d="M404.72,24.12a4.12,4.12,0,0,1,1.73.26C406,24.6,404.67,24.92,404.72,24.12Z"/><path class="cls-1" d="M408.3,24.25c-.16.61-.67.08-1.19.39C407.11,24.12,407.8,24.28,408.3,24.25Z"/><path class="cls-1" d="M408.84,24.51c.13-.3.82-.05,1.19-.13C409.84,24.86,409.09,24.47,408.84,24.51Z"/><path class="cls-1" d="M413.61,26.1c0,.43.22.45.39.93-1.27-.21-3.86.54-4.63-.4-1.05.73-1.86,0-2.66-.13,0,.58-.25.1-1,.13,0-.3,0-.5-.28-.53C408.13,25.27,411,26.39,413.61,26.1Zm-1.33.53c.31-.07,1,.16,1.06-.13C412.78,26.54,412.58,26.15,412.28,26.63Z"/><path class="cls-1" d="M416,26.24c-.36.3-1.28,0-1.85.13C414.61,26,415.26,26.25,416,26.24Z"/><path class="cls-1" d="M417.58,26.24c.45.23.68-.1,1.32,0C418.63,26.49,417.84,26.83,417.58,26.24Z"/><path class="cls-1" d="M422.22,26.63c-.45,0-1,.08-1.73.14.1.13.32.13.27.39a2.09,2.09,0,0,1-.93,0c0-.3.39-.15.4-.39s-.81,0-.93-.27A3.84,3.84,0,0,1,422.22,26.63Z"/><path class="cls-1" d="M422.35,26.5c1.15-.49,1,.35,0,0Z"/><path class="cls-1" d="M416.39,27c-.6-.14-1.83.32-2-.26C414.89,26.75,416.05,26.53,416.39,27Z"/><path class="cls-1" d="M416.52,26.77c.32,0,.4.22.79.13C417.18,27.22,416.51,27.25,416.52,26.77Z"/><path class="cls-1" d="M400,28.89a5.82,5.82,0,0,1,3.44-.14c-.08.12-.16.24,0,.27C402.24,29.66,401.43,28.92,400,28.89Z"/><path class="cls-1" d="M407.51,28.89c0,.34-.74-.13-.53.4-1.11-.1-1.32.12-2.52,0,0-.16,0-.25-.13-.27A4.23,4.23,0,0,1,407.51,28.89Z"/><path class="cls-1" d="M411.63,28.89c-1.08.56-1.38,0-2.53.52A2.18,2.18,0,0,1,411.63,28.89Z"/><path class="cls-1" d="M408.17,28.75c.18,0,.11.34.13.54h-.53C407.82,29,408.13,29,408.17,28.75Z"/><path class="cls-1" d="M414.93,29.15c-.84-.25-2.28.53-3.18-.13A3.89,3.89,0,0,1,414.93,29.15Z"/><path class="cls-1" d="M406.32,29.55c.23,0,.3.22.26.52-.29-.25-1.31.4-1.32-.39C405.57,29.6,406.22,29.85,406.32,29.55Z"/><path class="cls-1" d="M401.94,29.68h.66c.14.45-.41.2-.66.27Z"/><path class="cls-1" d="M407.91,29.68c0,.44-.8.48-1.06.27C407.15,29.57,407.36,29.86,407.91,29.68Z"/><path class="cls-1" d="M410.69,29.68c-.14.68-.88.43-1.46.39C409.32,29.54,410.11,29.72,410.69,29.68Z"/><path class="cls-1" d="M439.44,29.68H440c.06.42-.12.6-.54.53C439.67,30,439.43,30,439.44,29.68Z"/><path class="cls-1" d="M418,30c-.08.43-.51.19-.8.12C417.26,29.64,417.68,29.88,418,30Z"/><path class="cls-1" d="M422.22,30.87c-.14.39-.6.46-.92.66-.06.23.09.26.25.27-.13.32-1.62.51-1.72,0h1.33c-.51-.84-1.33,0-2.26-.14C419.33,30.72,420.87,30.9,422.22,30.87Z"/><path class="cls-1" d="M425.93,32.73c-.5.54-.88.47-1.86.39C424.17,32.42,425.43,32.24,425.93,32.73Z"/><path class="cls-1" d="M427.52,32.86c.14-.3.84,0,1.19-.13-.32.25-.79.35-1.06.66C427.64,33.19,427.72,32.89,427.52,32.86Z"/><path class="cls-1" d="M410.29,34.19c-.64.47-1.06.35-1.85.66A1.38,1.38,0,0,1,410.29,34.19Z"/><path class="cls-1" d="M428.31,34.32a.88.88,0,0,1-1.05.53C427.67,34.73,427.76,34.3,428.31,34.32Z"/><path class="cls-1" d="M405.26,34.72c-.26.31-.89.27-1.46.27C404.06,34.59,405,34.36,405.26,34.72Z"/><path class="cls-1" d="M413.07,35.38c.24.08.79-.17.8.13C414,36,413,35.7,413.07,35.38Z"/><path class="cls-1" d="M416.52,35.38c0,.46-.73.24-1.06.4C415.59,35.41,416.13,35.48,416.52,35.38Z"/><path class="cls-1" d="M14.45,38c-1.95,0-2.87.39-5.17.4,1.29-1,3.14-.56,4.9-.93C14,37.93,14.61,37.6,14.45,38Z"/><path class="cls-1" d="M33.13,38c.2.11.43.2.4.53-.69-.33-1.36.13-2.25,0C31.63,37.86,32.84,38.55,33.13,38Z"/><path class="cls-1" d="M9.15,38.43A5.85,5.85,0,0,1,6,38.69,4.84,4.84,0,0,1,9.15,38.43Z"/><path class="cls-1" d="M30.08,38.56c-3.79.94-8.77.87-12.45,1.59-1.07,0-2.79,0-4.24.13,1-.84,3.47-.33,4.64-1.05,2.41.52,5.37-.9,7.55-.27A10.12,10.12,0,0,1,30.08,38.56Z"/><path class="cls-1" d="M414.79,40.28a.77.77,0,0,1-1.05.26C414,40.33,414.45,40.37,414.79,40.28Z"/><path class="cls-1" d="M369.21,40.81c.28.08.29.21.13.4.44,0,1.09-.31,1.46,0-.32.85-1.21.42-1.86.8-.36-.12-.47-.49-.92-.54C368.09,40.93,369.29,41.52,369.21,40.81Z"/><path class="cls-1" d="M399.69,41.21c0,.22-.13.23-.13.4.35,0,.66,0,.52-.4,1.08.36-.51.68-.65,1.06-.23,0-.35-.22-.4,0-.47-.22.3-.29.4-.39C399,41.54,399.09,41.37,399.69,41.21Z"/><path class="cls-1" d="M28.63,44.92c-.76.16-2.55.59-2.92.13C26.53,45.23,27.45,44.78,28.63,44.92Z"/><path class="cls-1" d="M24.79,45.32a7,7,0,0,1-2,.27A2,2,0,0,1,24.79,45.32Z"/><path class="cls-1" d="M18.82,45.72a38.36,38.36,0,0,1-6.09.4c.61-.54,2.54,0,3.18-.67C16.77,46.41,18.36,44.71,18.82,45.72Z"/><path class="cls-1" d="M32.74,46.38c-1-.09-1.31.22-1.86,0,.29-.37,1-.36,1.46-.53C32.39,46.11,32.85,46,32.74,46.38Z"/><path class="cls-1" d="M30.48,46.25a5.6,5.6,0,0,1-2.51.66c-3.16.25-7.5.71-10.74.66A91.45,91.45,0,0,1,28,46.25,5.9,5.9,0,0,1,30.48,46.25Z"/><path class="cls-1" d="M409.1,46.12a.49.49,0,0,1,.53.52c-.31,0-.39.23-.79.14C408.72,46.35,409,46.36,409.1,46.12Z"/><path class="cls-1" d="M117.15,48c.26.05.57.05.53.39C117.34,48.41,117,48.41,117.15,48Z"/><path class="cls-1" d="M173.87,1.72a68.43,68.43,0,0,1,13.12,0,49,49,0,0,1,7.95,0c.19,0,.05-.4.27-.4,2.07.77,3.44-.39,5.56.53,3-.49,7.32,0,10.87-.26,1.88.37,4.27.63,5.84,0,1.5.83,3,.13,4.76.66.41,0,.52-.28.8-.4.39.06.45.44.8.53,6.39-.21,12.68.57,18.28-.13v.39c3.3-.3,4.9.17,8.09-.12,1.76.82,4.58-.4,6.09.53,2.24-.8,6.68.47,10.07-.41,6.92.84,13.9.06,20.28.53.34-.4,1,.07,1.06-.39,4,1,8.83.05,13.25,1.06.48,0,1.52-.22,1.33.27,2.08-1,5.31-.21,7.42-.67,4,.68,8.71,0,13.12.8-.44.35-1,1.16-1.73.79.47.87,2.81.85,3.58.26,3.62.63,8.73-.11,11.8,1.33a5.89,5.89,0,0,1,3.71-.79c-.11-.48-1.2-.15-1.46-.8,2.37-1.2,5.06-.25,7.82-.27-.33.58-1.48.38-2.52.53.34.39,1.47.32,2,.14.23.27-.1.26.13.53a8.62,8.62,0,0,0,6.23,0c0-.16-.24-.11-.39-.13,1.8.18-.55-.8-.8.13a7.15,7.15,0,0,0-1.46-.26c0-.21.07-.51-.14-.53C351,4.6,352.87,5,354,5.29c.39,0,.4-.29.8-.26,3,1.09,8.19-.39,10.73.93-.82-.07-.92.3-1.59,0,.67.57.09,1.47.67,2-.16.28-.91,0-.94.39,1.65.75,4.78.23,6.63.8-.23-.39,2.09-.69,2.12.13.42,0,.45-.35.93-.26.25.53,1.63.88,1.86.26.58.18,1.12.84,1.71.27.1-.16-.31-.62.28-.8-2.89-.46-6.1-.11-8.09-.92.17-.66,1.22-.28,1.59,0,.86-.57,2-.25,3,.13,1.74-.31,3.37.26,5.17,0,.56.68,1.81.24,2.39.66-1.45.36-3-.16-3.71.93.52.44,2.08.32,2.38-.27.37,0,.24.56.54.67.59-.07.9-.43,1.46-.53.21.4,1.38.76,1.72.13a13.18,13.18,0,0,0,3.18.66c.44,0,.94-.53,1.32-.53s.81.49,1.2.53c.55.07.89-.56,1.31,0,.11-.21.43-.2.41-.53.28.15.73.15.79.53.56-.33,1.64-.13,2.12-.53.28.5,1.55,1,1.86.27,1.32,1.06,3.67.13,5,.79.27,0,.42,0,.4-.27,1.08.26,3.09.8,4.51.14.46.24,1.32.57,1.72.13,2.83.8,7.52.25,11.66.8,1.58.21,3.37.77,4.77.79.76,0,1.44-.29,1.72.66-.34.44-1,0-1.32.54.43.61,2.69-.35,2.78.92-1.17-.52-2.5,0-3.71-.13-.7-.06-1.38-.58-2.11-.54s-1.1.57-1.86.4a5.47,5.47,0,0,0,2.11.27.62.62,0,0,0-.12.4c1-.72,2.77-.23,3.84-.27-.09.8-1.77,0-2,.66-.39-.3-1.46-.7-1.73,0-1.3-1.14-3.48.31-4.37-.92-1.15,0-2,.37-3.44.4.18,1.51,2-.17,2.38,1a3.74,3.74,0,0,0,2.12-.39c.61.4,1.25.7,1.85.13a.39.39,0,0,0,.27.4c1.92-.1,3.19.32,5.44.26a49.64,49.64,0,0,1-7.56.67c-.57.19.31.63-.26.92a41.94,41.94,0,0,0-10.87.53c1.78.84,3.78.48,5.7.14,1.09.69,3,.1,4.11.53-.18.37-.82,0-.8.79-2.83.47-4.66-.16-7.15.53-.81-.64-1.57.05-2.39.14-1.15.12-2.37-.17-3.58-.14-.91,0-1.85.5-2.78.54-.53,0-1.08-.29-1.58-.27s-.86.39-1.47.52c-1.2.27-2.26,0-3.05.54.21.89-.24.92.14,1.72,2,.33,5.51.39,7.29.66v.53c-2.73.21-5.46-.07-8.62.27.59.95,2.83.26,3.71.92,2.68-.16,4.35.18,7.29.27-.33.63-1,.14-1.72.4a1.75,1.75,0,0,1-.27.79c-2,0-4.22-.25-6.23.79,1.1,1,2.89,0,4.12.94-.16.46-1.1.14-1.33.52.61.4,1.32-.08,1.72.41-1.93.82-2.77,0-5,.52.32.4,1,.12,1.46.13.24,0,.22.27.26.27a2.46,2.46,0,0,1,.8,0,14.55,14.55,0,0,0,2.13-.13c2.57,0,5.58.65,7.68,0,3.9.72,6.67.32,10.47.39-.09.67-.74.78-1.06,1.2a37.26,37.26,0,0,0,5.43.4,5.37,5.37,0,0,1-3.71.26c-.49.26-.8.65-1.46.4-.33,0-.16-.1-.12-.27a9.4,9.4,0,0,1-2-.26,3.85,3.85,0,0,1-2.38.79c-.09-.31-.58-.22-.4-.79a10.81,10.81,0,0,0-1.59.66c.08-.34-.05-.48-.4-.4s.45.62-.26.66c-.4,0-.28-.49,0-.66-.64-.06-.55.61-1.33.4-.23-.12.11-.58-.13-.27-.5-.36.72-.57.13-1.06-.9.17-.38.65-.53,1.2-1.24-.12-3,.69-4.24-.27-3.54,1.35-6.93.77-10.73,1.2a49.35,49.35,0,0,0,9.54.13c.1.36-.27.26-.27.53.66.21.42-.46.93-.4-.35,1.29-1.83-.11-2.65.8,3.17.48,8.26.13,11.53.26a4.87,4.87,0,0,0-1.19.66c-1.06-.52-1.62-.06-2.39.54-.67.18-.25-.72-.93-.54.17.19-.84.8-1.72.93-2,.3-5.52.13-6.49.26-.5-.09-.29.51-.66.54-3.15-.06-5.48.83-8.35,1.19,0,.2-.18.24-.4.53a21.27,21.27,0,0,0,4.11-.13c-.07.38-.57.31-.66.66-.43.16-.11-.43-.53-.26-.26,0-.11.51-.54.39.37.42,1.18.4,1.73.41,1.87,0,4-.13,5.82-.15a8.19,8.19,0,0,1-5.29,1.34c2.07,1.09,6.08.85,9.27.79-.05.47-.68.37-1.19.39.18.81.85,1,1.85.93,3-.1,8.38.36,10.74-.39,1.28.49,3-.64,4.24,0,.05.29-.38.14-.4.39.4.47.75-.75,1.19-.26a2.7,2.7,0,0,1-1.05.79c.07-.29-.26-.18-.27-.39-.4.08.12.28,0,.52-.47,0-.69-.26-.66.4-.52-.61-1.12.18-1.33.67-.29-.06,0-.71-.26-.8s-.57.6-.53-.13c-.86,1.15-2.41.81-3.84,1.33-.07-.43.66-.06.52-.53a6.37,6.37,0,0,1-1.85.13c-.12-.43.2-.41.26-.67a22.74,22.74,0,0,0-3.57,1.46c-.14-.44.18-.44.53-.39-1.17-.46-3-.37-4.24-.67-.05.22.1.25.26.27-1.11,1-3.37,0-4,1.58-2.38,0-5.32,1.78-7.55,1.46a12.53,12.53,0,0,1-3.18.93,24.44,24.44,0,0,1-6.89,1.19c0-.31-.58-.13-.67-.39-6.32.14-11.07.7-16.69,0-.15,0-.07.13,0,.13-3.89-.14-7.64.29-11.67-.13-.43,0-.27-.51-.66-.54-.84.11-1.47.43-2.11-.12-.95.53-2.6,1.08-3.45.12-.71.27-2.74.95-3.05,0-.8.53-1.66,0-2.38.54-.28-.25-.88-.18-1.06-.54-.71.83-1.82.37-3.05.14a9.35,9.35,0,0,0-2.79-.26c-2,.15-4.35.06-6.48,0a3,3,0,0,0-2,.39c-.4.1-.48-.13-.79-.13s-.3.23-.27.53c-1.62-1-4.14.33-6.49,0a29.94,29.94,0,0,1-3.84-.27c-3.08.73-6,0-9.15.67-1.57-.72-2.46.26-3.71-.53-.34.18-.84.22-1.06.53-5.23-.55-11.11.43-15.77,0-.38,0-.41.3-.79.27-.78-.55-2,.14-2.92-.27a.14.14,0,0,0,0,.27c-9.4-.46-19.21-.18-29.16-.54,0,.24.17.29.14.54-.23,0-.3-.23-.27-.54-7.77-.58-13.92-.09-21.2-.66-.23,0-.3.23-.27.53-.29-.77-1.68-.8-1.85,0-.28-.2-.31-.67-.79-.67-.33.69-1.23,0-1.46.67-.5,0-.58-.48-.93-.67,0,.15,0,.24-.13.27-.35.15.54.16.26.66-.49-.75-1.18.23-1.46-.53-.52,0-.72.43-1,.67-.44-.06-.35-.63-.53-.93a30.85,30.85,0,0,1-4.25-.53c-.28,0-.42.11-.4.39a14,14,0,0,0-4.77-.26c-.52-.61-1.66-.4-2.25,0,0-.37-.37-.33-.53-.53-.37.61-1.31,0-1.46.67a.78.78,0,0,0-1.19-.14c-.33,0-.32-.3-.53-.4-3,.27-4.59-.83-7-.26-1.24-1.06-4.1.37-5.17-.67-.23.18-.2.59-.39.8-.24,0-.31-.23-.27-.53a.64.64,0,0,0-.67.27c-.44-.34-.7-.34-.93-.67-.71.23.29.74-.12,1.06-.85-.33-1.32-.19-1.72-.93-.46.16,0,.52-.27.67-.73,0-.82-.69-1.2-1.06-1.08.07-2.53.31-3.44-.13-.44,0-.28.51-.66.52-1.26-.54-2.69-.06-3.85-.65-.43.61-1.41-.11-1.59.79-1.25.07-2-.9-3-1.06-.56.63-1.1-.12-1.46.53a7.23,7.23,0,0,0-1.72-.4c-1.69.42-3.82-.45-5,.14-.25,0-.09-.44-.4-.41-1.56.13-2.91-.22-4.24-.12a18,18,0,0,1-2.52.39c-.34,0-.21-.29-.52-.39a7.9,7.9,0,0,0-3.59.39c-1.82-.06-3-.46-4.24,0-.46-.43-1-.16-1.46-.66-.9.2-2.47.83-3.18.39-1.72.6-3.6-.19-5,.67a2.36,2.36,0,0,0-.93-.53c-.24.21.09.42-.27.66s-.32-.47-.52-.66a11.71,11.71,0,0,1-4.91.13,2.25,2.25,0,0,1-2.65-.13c-1.06.46-2.81-.13-3.84.66-.18,0-.11-.33-.14-.53-5.16.23-10.41.08-14.7-.13-.19,0,0,.23.13.27-.62.48-1.84.23-1.59-.41-1.86.85-2.54-.47-4.77.14-.5-.88-2.94.56-4-.4-1.35.65-3,.26-4.64-.13a3.4,3.4,0,0,1-2.65-.13c-1.85.95-4.79-.79-6.49.26a61,61,0,0,0-8.74-.66c-.15,0-.53-.27-.67-.26s-.29.35-.53.39c-.58.11-1.28-.35-2-.39-.27,0-.29.25-.39.26s-.81-.13-1.2-.13c-1,0-2-.49-3-.53-.51,0-1.07.27-1.59.26-2.33,0-4.33-.57-6.75-.66-3.31.27-6.88,0-10.87.13-2.15.08-4.35-.17-6.23,0-2.72.26-6.09.43-9.15.53-2.24.07-4.62.35-6.62.27-.58,0-1.38.4-1.72-.4,4.15-1.33,8.31-.52,12.85-1.33a12.29,12.29,0,0,0,1.2-.53c.25,0,1.43.53,2.38.14-5.51-.44-11.54.7-17.36.52,0-.34-.52-.1-.4-.52a28.76,28.76,0,0,0,5-.8c-.54-.49-1.19.3-1.59,0a14.76,14.76,0,0,1,6-.4c1.37-1,4.87-.35,6.23-1.19.36-.09.25.28.39.4.85-.06,1.27-.74,2.13-.4.16,0,.11-.24.13-.4.23,0,.3.23.27.54,2.68-.13,3.66-.55,6.22-.41.29,0,.43-.1.4-.39.36.13.68.29,1.06.39a34.74,34.74,0,0,1,6,.14c3.63-.83,7.5.42,11.39-.4,3.53.58,6.44-.17,9.54.13.16,0,.11-.24.14-.4.74.77,1.44-.09,2.11.53a2.22,2.22,0,0,1,2.39,0c.16,0,.12-.24.14-.39,2,.71,4.36,0,6.89.39.35,0,.28-.41.66-.39-.36.68,1-.69,1.19.13,1.08-.73,2.63.32,3.71-.67A9.3,9.3,0,0,0,98.34,40c-.39,0-1-.13-.93.39-3.53-.31-7.18-.8-10.74-.92-.75,0-1.39.21-2.12.13-.45,0-1-.37-1.45-.39a30.46,30.46,0,0,1-3.31.12c-1.3-.18-4,.28-5.3-.26-.44.39-.89-.06-1.2.4-3,0-6.43-.1-9.41,0-2,.06-4.13.2-5.57-.53,1.22-.42,1.34-.16,2.92-.14.16,0,.45-.38.13-.39.17-.24.55.34.93,0,0,.14-.27.09-.27.26.43.36.42-.26.93-.39-.22.26,0,.16,0,.52.82-.06,1.14.37,2,.27.25-.6-.53-.18-.4-.66.54-.14.77.09,1.33-.13.15.6,1.61-.6,2.38.26.24-.22-.09-.43.27-.66-3.09.11-6.48-.39-9.94-.4-.13-.14-.27-.27-.4-.4-1.83.39-3.82.71-5-.13a5,5,0,0,1,2.52-.26c-.67-.66-1.56-.11-2.78-.27-.25.24.1.33,0,.79-4.66.27-7.84.42-12.33.53,1.45-.62,4.08-.18,5.18-.79a44.74,44.74,0,0,0-5.83-.13c-.15,0-.56-.28-.67-.27-.28,0-.53.35-.8.4a14.16,14.16,0,0,1-2.11.13c-1,0-2.08-.07-3,0a14,14,0,0,1-4.78-.39,13.09,13.09,0,0,1-5.16.26c-.55.75-1.48.34-2.26.39-1.5.11-3.39.74-5,.27-.21.48-.54.08-1.06.13A5.58,5.58,0,0,1,18,36.84c3.32-.29,7-.32,10.33-.4s5.73-.42,9-.53c2.34.28,5.55-.1,8.62-.13.35.09.26-.28.39-.4,1.3.57,3,.14,4.51.13,2.53,0,5.24.31,7.29-.26a25.13,25.13,0,0,0,6.89.13c-.8.19-1.79-.52-2.65-.27-.16-.17-.05-.21,0-.39-4-.15-9.37-.55-14.05.27-.68-.36-2.46-.28-2.78.26-.68-.64-2.67-.15-3.44.13-.75-.8-2.4-.37-2.92.4-.28,0,.19-.36-.13-.53-3.19.18-8.36,0-12.33.79-2.68-.45-5.36.31-7.82.4-2.15.07-4.64-.37-6.89.4-.23,0-.25-.11-.27-.27-3.23.65-7.12.72-10.33,1.06A2,2,0,0,0,0,37.1c2.92-1.18,5.49-.5,8.35-1.59,1.43.38,2.68-.4,4-.52,1-.12,2.46.4,3.44-.41.59.63,1.42-.32,1.86.27.73-.41,1.29-.16,2-.53,6.47.23,13.68-1.43,20.4-1.86,2.59-.17,5.83,0,8.22-.53a10.79,10.79,0,0,0,1.33.27c.15,0,.07-.14,0-.14,5.93-.13,11.65-.86,17.76-.4.48-.18.59.09.92-.25a4.57,4.57,0,0,0,1.33.12c0-.41-.54-.25-.66-.53-3.6.41-5.64-.26-9.15.14-.34,0-.16-.1-.13-.27-.66.37-1.15-.19-1.19.4-2-.69-4.39,0-6.23-.66-.33.07-.47.32-.67.53a66.54,66.54,0,0,0-10.2-.4c-.25,0-.08.45-.27.53-.81-.78-2.79-.56-3.57-.13-.48-.85-2.22.19-2.78-.8-.51.28-.62.24-1.46.27-.08-.52.72-.16,1.06-.27a1.44,1.44,0,0,0-1.86-.13c.32-.34-2-.22-1.85.53-.55.06.1-.33-.27-.53-1.19.28-3.37.25-4-.26-.13.32-.82,0-1.45,0-2.31.05-5.65.62-8,.79-1.77-.07-3.73-.54-5.43-.53a13.43,13.43,0,0,1,5.3-2.12c1.15.53,2.37,0,3.83-.14,2.14-.19,4.57.23,6.77-.12,1.79-.29,4-.54,5.43-.8.19,0,.4.26.4.27.34-.1.34-.67.93-.67,1,0,2.51.35,3-.26,3.73-.66,8.36-.09,11.93-.27.36.1.25-.27.4-.4.31.05.57.15.66.4,1.32-.76,2.49.35,3.44-.4.2.06-.05.18,0,.4a.86.86,0,0,1,.67.14c2.09-.7,3.92,0,5.3-.67.7,0,1.68.82,2.25.13,3.62.19,7.63.21,11.13.27a23.79,23.79,0,0,1,2.65-.27,44.18,44.18,0,0,0,9.55,0c4.25.42,9.46-.38,13.51,1.07,1.43-1.5,3.84-1.18,6.1-1.33,1.3.65,2.49-.29,3.85.26.23,0,.3-.22.26-.53,2.59,1,7.45-.36,9.94.4.23,0,.3-.23.26-.53,1.38.62,3.76.53,4.5-.13-1,0-2.55-1.19-4-.4a3.79,3.79,0,0,0-2.91-.13c-1.47-.43-3.2-.69-4.24,0-1-.77-1.79-.22-2.79-.26-.45,0-.8-.33-1.19-.27-2.32.34-6.06-.42-9.28-.92,0-.37.22-.27,0-.54-.56.22-2.15-.43-3,.27-3.48-.64-6.83.56-10.87-.53-.69.08-1.46.5-2,0-.51.67-1.64-.09-2.65,0-.2,0-.36.26-.53.26A21.08,21.08,0,0,0,78.06,22c-2.75.21-5.73,0-8.08.13-.8,0-1.5-.27-2.26.12-5.56-1-13.57-.18-19.35-1.19-.18-.17-.08-.62-.26-.79-1.63.21-3.74-.61-5.17.14,0-.77-1.93-.6-2.78,0-.12-.43.43-.19.39-.54-1.2-.24-2.35-.07-3.44-.26-.15,0-.47-.38-.66-.4-1.1-.09-1.84,0-2.79-.13-.16,0,0-.26,0-.26-1.54,0-2.74.37-3.58-1.33a3.06,3.06,0,0,1-1.32,0c0-.69.39-.2.93-.4.08-.36.77-.81.53-1.06.57-.18,1-.57,1.85-.8.38.25.3.33.4.67a2.84,2.84,0,0,1,2.13.4,6.38,6.38,0,0,1,3.83,0c2.78-1,7.54-.17,9.81-.93.21-.4-.86-.4-.66,0a5.1,5.1,0,0,0-4.24-.93c-.52,0,0-.2-.27-.4-1.39.11-2.88-.27-4,0-.25,0-.09-.45-.27-.52a24.94,24.94,0,0,1-4.23-.14c-.29-.06-.26.19-.27.39-.31-.08-.36-.43-.67-.53-4.3.06-8.29-.18-12.45-.52-.31,0-.15.38-.4.39-1.32-.37-2.41.1-3.58-.39-3.22-.19-5.46,0-8.88,0-.31.11-.61-.19-.13-.14h.66c1.75-.5,4.26.11,5.84-.79-1.63-.92-3.89-.64-5.57-1.06a28.21,28.21,0,0,1,6.36-.79c.2-.55,1.56-.27,2.12-.67-4.94-1-9.69-.29-15.37-.66C2.42,7.48,3.82,8,4.51,8c.87-.07,1.9,0,2.65-.13.5-.07.94-.43,1.46-.54,2.1-.43,4.12-.16,5.56-.66.37-.09.27.26.54.27,2.63-.73,6.31.16,9-.54.41-.09.25.37.66.27.68-.37,1.95,0,3.05-.27.38-.08.67-.35,1-.39,1.6-.16,3.3-.14,4.52-1.72.34-1.15-1-.6-1.07-1.33a10.81,10.81,0,0,1-4.5-.53c-5.53-.54-10.75.11-14.85-1.06,1.29-.83,4-.68,5.57-.66C20,0,22.76.53,24.52.13c.39.67,1.27.25,2,0,.43-.12.18.44.53.4,1.73-.52,3.53,0,5.43-.14C33,.35,33.61,0,34.2,0c1.08,0,2.26.49,3.44.53,2.73.07,5.25-.24,8,0,.3-.11.72-.08.79-.4,2.12.59,4.92,1,6.76.26.74,1.09,2.2.25,3.19.27,1.61,0,3.47,1,4.9,0,.24,0,.08.45.27.53,2.56-.41,4.64.54,7,.13.81.66,2.06-.34,3.18.4,5.19-.4,10.26.63,15.9.53,3.85-.08,8.4.93,12.59.27,1.43.53,2.8.1,4,.53,5.89-.27,11.71,0,17.75-.14.26-.06.11-.51.53-.39.12.1.08.36.26.39,5.38-.24,11.54-.1,16-.53A145.05,145.05,0,0,0,156,1.85c1.15.79,2.4-.22,3.44-.26a18,18,0,0,0,2.52.26c3-.25,6.26-.41,9.42-.4.6,0,2,.42,2.11,0S173.84,1.6,173.87,1.72ZM327.2,7c.74.12,2.3.81,3.18,0C329.39,7,327.92,6.51,327.2,7Zm7.29.13c-.49-.38-1.07.09-1.86.13.41.88,1,.2,1.73.14.27,0,2.09.08,1.85,0,.35.12,0,.36.4.4a21.6,21.6,0,0,0,3.58-.4,18.91,18.91,0,0,0-5.57-.67C334.62,6.92,334.45,6.94,334.49,7.15Zm10.73.53c0-.08,0-.15.13-.13.62.41,1.63.16,2,.53.86-.68,3.55.57,4-.53C349.77,7.21,346.6,7,345.22,7.68ZM93.83,21.06c.61.13.8-.17,1.19-.25,1,1.27,3.19.21,4.38,0,.54-.1,1.2.57,1.59,0C99,20.4,95.59,19.38,93.83,21.06Zm31,3.72c1,.6,1.72,0,2.78.53-.1-.41.37-.26.27-.67C127.08,24.88,125.8,24.12,124.84,24.78Zm268,.26c-.43.12-.42-.21-.53-.4-.57.14-1.33,0-1.86.4A8,8,0,0,0,392.8,25Zm20.41,6.89c.24,0,.31.13.26.4a31.37,31.37,0,0,0,3.32-.13c-.41-.13.15-.36.13-.54C415.46,31.85,414.33,31.43,413.21,31.93ZM66.26,35.51c.3.08.74.19.8-.26C66.7,35.25,66.28,35.17,66.26,35.51ZM57,36.57c-.1-.22-1.1-.22-1.19,0C56,36.77,56.46,36.45,57,36.57Zm1.85-.13c-.43.21-.5,0-1.05,0C57.88,37,58.68,36.82,58.84,36.44Zm-9.53.27c-.5.07-1.37-.22-1.46.26C48.25,36.75,49.27,37,49.31,36.71ZM46,37.1c.55-.23.9.13,1.19-.26C46.81,37,45.93,36.56,46,37.1Zm23.19,1.46c-.16-.43.43-.1.26-.53-.23,0-.65-.37-.79,0C69.33,38,68.68,38.48,69.18,38.56Zm304.27.93c-.12.39.57.65.26.79-.54,0-1.12,0-1.32-.39.05-.26.51-.11.39-.54a40.33,40.33,0,0,1-7,.27c.07.6-.87.19-.93.66,1.39.2,3.18-.23,4.24.26a8.37,8.37,0,0,0-3.05.54c.55.08.66-.11,1.59,0a2,2,0,0,1,.26,1.06c-1.29.63-2.24.49-4.1.53-.12.13-.7.43-.27.66,3.24-.3,6.61,0,9.94-.13.55,0,1-.24,1.59-.27,1.29-.06,2.72.64,3.84-.13-2-.3-3.42-1.2-5.17-.79,0-.25.16-.3.14-.54-.5-.1-.29.52-.67.54,0-.18-.18-.26-.12-.54-.55.11-.86.22-1.33-.13.62-.1.28-.48.66-.65a2.46,2.46,0,0,0,1.72.39c0-.19,0-.49.14-.54.6.15.1.53.26.67.31-.47.59.19.8.26a.58.58,0,0,1,.52-.26c0-.32-.25-.42.14-.52.17,0,.17.76.39.25-.1,0-.15-.1-.12-.25.94.37,2.05-.83,2.51-.41.34,0,.46-.23.67-.39-.62.12-.81-.17-1.2-.27.09.36-.27.26-.4.4-.11-.2-.19-.42-.53-.4C376,40.86,374.66,40,373.45,39.49Zm1.19-.14c-.17,0-.18-.17-.39-.12C374.34,40,376.76,39.14,374.64,39.35Zm6.89.4c-.13.46,1,.32,1.06.14A.81.81,0,0,0,381.53,39.75Zm3.59.27a4.47,4.47,0,0,0,3-.13C386.7,40.11,386.13,39.26,385.12,40Zm-3.06,2.65h-1.19C380.75,43.29,382,43,382.06,42.67ZM56.33,43.73a.77.77,0,0,0,1.32-.13A1.53,1.53,0,0,0,56.33,43.73Zm1.46.26c1.15-.12,1.79.14,2.38-.26C59.38,43.68,58.47,43.24,57.79,44Zm2.51-.26a2.75,2.75,0,0,1,1.2.66c2.26-.81,4.52-.16,6.89-.53C66.17,43.67,63.24,43.18,60.3,43.73Zm-6,.4c.45-.26,1.51.1,1.72-.4C55.35,43.62,54.05,43.44,54.34,44.13ZM70.77,44c0-.39-.46-.32-.79-.39C69.9,44.07,70.36,44,70.77,44Zm-18.69-.26H50.23C50.26,44.2,51.88,44.3,52.08,43.73Zm2,0c-.27.08-.87-.17-.93.13C53.47,44,53.94,44.07,54.07,43.73Z"/><path class="cls-1" d="M386.44,7.55c-.34-.47-.91-.26-1.32-.4.08-.76,1-.65,1.58-.65a15.1,15.1,0,0,1,4.51.52c.24-.08.55-.07.66-.27A5.28,5.28,0,0,0,393.6,7c.26.12.26.45,0,.13-2.15.06-4.69,0-6.76,0C386.48,7.06,386.58,7.42,386.44,7.55Z"/><path class="cls-1" d="M387.49,8.87c1.11-1,2.41.07,4,0-.05-.17-.33-.11-.53-.13.09-.3.74-.05,1.05-.13,0,.15-.24.11-.4.13,2,.42,2.7-.12,4.78,0,.24.24-.11.34,0,.8-1.33.07-2.48-.45-3.71-.13-1.58-.3-3.35-.84-4.51-.14C388.05,9,387.69,9,387.49,8.87Z"/><path class="cls-1" d="M398.24,9c.06-.1,1.06,0,1.05.4a6.09,6.09,0,0,1,4.38.13c-.87.54-2.51-.09-3.19.4C400.07,9.17,398.68,10,398.24,9Z"/><path class="cls-1" d="M415.72,9.8c.32.15-.35.84-.66.4C415.12,9.9,415.79,10.22,415.72,9.8Z"/><path class="cls-1" d="M443.43,10.07c.2-.54,1.26-.17,1.72-.13A11.61,11.61,0,0,1,443.43,10.07Z"/><path class="cls-1" d="M433.22,13.11c.22.05,1.51.17,1.86.54C434,13.4,432.94,14,433.22,13.11Z"/><path class="cls-1" d="M414.14,24.78c.68-.37,1.4-.14,2.25-.14C415.66,25,414.87,24.6,414.14,24.78Z"/><path class="cls-1" d="M39.49,37.76a31.83,31.83,0,0,1-4.63.54c-.34,0-1.8-.06-.53-.14C36,37.61,37.56,37.84,39.49,37.76Z"/><path class="cls-1" d="M403.4,41.47c-.39-.08-.65-.46-.93,0C402.08,41.14,403.49,40.61,403.4,41.47Z"/><path class="cls-1" d="M10.34,48.9c-.22.25-.81.58-1.19.26C9.34,48.59,10,49.15,10.34,48.9Z"/><path class="cls-1" d="M412.68,9.54c.07.47-.8,0-.66.53-1.4-.64-3.6.66-4.78-.8C409.31,8.85,410.75,9.55,412.68,9.54Z"/><path class="cls-1" d="M414.53,9.67c-.25.25-.24.11-.13.53a1.67,1.67,0,0,1-1.46-.4C413.65,9.47,413.75,9.64,414.53,9.67Z"/><path class="cls-2" d="M167.31,23.22h-3.84c0,.85.09,4.55.09,5.31,0,.51-.38.74-.9.74-.33,0-.31-.29-.25-.87h-3.12c0,.73.07,1.24-.78,1.24-.4,0-.42-.16-.42-.41s.13-1.46.15-1.74c0-1,0-1.31.07-4.27h-3.25c0,.23,0,1,0,1.29,0,3.13,0,3.49,0,6.66H164l1-1c.18-.2.2-.21.29-.21a1,1,0,0,1,.33.17l1,1c.13.1.18.15.18.28s-.15.17-.27.17H155.1v.5a.8.8,0,0,1-.75.61c-.26,0-.57-.1-.57-.45,0-.13.07-.69.09-.82.2-1.88.24-6.2.26-8.21h-.7a14.08,14.08,0,0,0-2.37.21l-.42-.75c1.38.1,2.7.12,3.05.12h.46c0-1.61,0-2.47-.08-3.91a2.29,2.29,0,0,0-.38-1.4l1.85.55c.13,0,.28.07.28.23s-.06.14-.7.58c0,.78,0,3.07-.06,3.95h3.25c0-1.53,0-3.3-.07-4.53a3.13,3.13,0,0,0-.2-1.06l1.63.43c.15.05.29.15.29.28s-.05.14-.62.56c-.07,1.06-.07,3.19-.07,4.32h3.14V21.11c0-.51,0-2.44,0-2.77a2.3,2.3,0,0,0-.28-.85l2,.64c.07,0,.22.1.22.23s-.54.51-.76.65c0,.6,0,3.26-.07,3.79h1.47l.72-.81c.18-.2.2-.21.29-.21a.8.8,0,0,1,.33.17l1.12.81a.38.38,0,0,1,.18.29C167.58,23.2,167.42,23.22,167.31,23.22Zm-4.9,0h-3.14V28h3.14Z"/><path class="cls-2" d="M176.06,19v2c0,.18.09,1.67.09,1.83a.71.71,0,0,1-.73.73c-.43,0-.37-.36-.35-.52h-3.38c0,1,0,6,0,7.07,0,.23,0,1.31,0,1.55s0,1.18-.8,1.18c-.48,0-.48-.31-.48-.45s.05-.59.05-.6c.13-1.38.17-5.26.17-8.08,0-.61,0-4.67,0-4.95a9.52,9.52,0,0,0-.18-1.25l1.45.67h3l.31-.37c.11-.1.15-.18.22-.18a.74.74,0,0,1,.22.13l.83.51c.09.07.14.1.14.19S176.57,18.59,176.06,19Zm-1-.43h-3.39v1.75h3.39Zm0,2.17h-3.39v1.85h3.39ZM180,25.41c0,.67,0,2.13,0,3.38,0,.16.09.92.09,1.08a.77.77,0,0,1-.71.81c-.5,0-.42-.64-.41-.87H175.2c.11,1.11-.65,1.13-.74,1.13a.32.32,0,0,1-.37-.37c0-.16.08-.85.08-1,.05-.79.07-3,.07-3.87a7,7,0,0,0-.15-1.68l1.2.6H179l.26-.3c.22-.21.23-.24.33-.24a.48.48,0,0,1,.25.12l.65.51c.12.11.16.14.16.21S180.28,25.27,180,25.41Zm-1-.36h-3.85v1.89H179Zm0,2.31h-3.85v2H179ZM184.08,19c0,2.15,0,4.37,0,6.43,0,.74.05,4,.05,4.67,0,1.54,0,1.92-.73,2.4a4.17,4.17,0,0,1-1.21.46,1.17,1.17,0,0,0-.44-.83,4.53,4.53,0,0,0-1.47-.74v-.14c.35,0,1.87.09,2.18.09s.65,0,.65-.48c0-1,0-2.89,0-3.74,0-.65,0-3.82,0-4.16h-3.8c0,.22,0,.34-.08.43a.87.87,0,0,1-.55.26c-.31,0-.31-.3-.31-.37s0-.33,0-.39c0-.3,0-1.39,0-1.74a20.15,20.15,0,0,0-.13-3.68l1.21.63H183l.4-.46c.15-.16.19-.21.28-.21a.36.36,0,0,1,.27.14l.79.64a.28.28,0,0,1,.13.24C184.83,18.6,184.74,18.69,184.08,19Zm-1-.48h-3.8v1.75h3.8Zm0,2.17h-3.8v1.85h3.8Z"/><path class="cls-2" d="M195,18.23c0-.38-.33-.52-1.12-.81a.92.92,0,0,1,.75-.24c.9,0,1.63.56,1.63.95,0,.09,0,.21-.25.56l-1,1.41a12.89,12.89,0,0,0,2.13-.7,1.38,1.38,0,0,1,.49-.13c.28,0,.94.14.94.51s-.3.39-.72.5c-1.26.3-1.94.42-3.45.69a32.92,32.92,0,0,0-2.17,3.2,3.47,3.47,0,0,1,1.84-.58,2.18,2.18,0,0,1,2.26,1.85c.88-.47,1.85-1,3.94-1.9.24-.11.39-.21.39-.46s-.22-.4-.51-.63a.86.86,0,0,1,.29,0c.39,0,1.82.44,1.82,1.38,0,.37-.2.38-.92.49a25.48,25.48,0,0,0-4.87,1.78,10,10,0,0,1,.23,2.2c0,.18,0,1.45-.61,1.45s-.53-.74-.53-.95,0-1.17,0-1.4a7.29,7.29,0,0,0,0-.83c-1.42.89-2.76,2.3-2.76,3.28,0,1.31,2.28,1.34,2.92,1.34a16.36,16.36,0,0,0,2.85-.31,2.65,2.65,0,0,1,.59-.07c.56,0,1.06.28,1.06.61,0,.11-.07.35-.51.44A16.86,16.86,0,0,1,197,32c-2.79,0-3.46-.3-4-.67a1.84,1.84,0,0,1-.89-1.43,3,3,0,0,1,.65-1.64,11.2,11.2,0,0,1,2.7-2.32c-.21-1-.52-1.82-1.69-1.82a3.24,3.24,0,0,0-2.39,1.39c-.72,1-.81,1.11-1,1.11-.44,0-.45-.51-.45-.63,0-.41.14-.51.42-.71a17.83,17.83,0,0,0,3.15-4.16,10.45,10.45,0,0,1-1.92.25c-1.47,0-1.64-.95-1.71-1.39a2.74,2.74,0,0,0,1.74.6,14.24,14.24,0,0,0,2.37-.25A11,11,0,0,0,195,18.23Z"/><path class="cls-2" d="M208.91,29.8a4.31,4.31,0,0,0-.45.1,10.85,10.85,0,0,1-3.19,2.79l-.07-.15c1-1,2.49-2.85,2.57-3.93l1.28.76a.21.21,0,0,1,.09.18C209.14,29.72,209.05,29.76,208.91,29.8Zm2.36-11.14c0,1.07-.05,3.31,0,6.54,0,.37,0,2,0,2.32s0,.81-.7.81c-.29,0-.31-.23-.31-.44h-2.59c0,.39-.5.51-.64.51-.41,0-.42-.28-.42-.47,0-.57.05-1.47.07-2,0-1.32,0-2.64,0-4a34.66,34.66,0,0,0-.2-4.66l1.2.49h2.31l.33-.39c.07-.1.09-.14.16-.14a.46.46,0,0,1,.17.09l.88.67s.15.1.15.19S211.42,18.53,211.27,18.66Zm-.93-.48h-2.61v2.66h2.61Zm0,3.09h-2.61v2.92h2.61Zm0,3.34h-2.61v2.86h2.61Zm.53,6.28c-.31,0-.35-.09-.68-.94a2.69,2.69,0,0,0-.77-1.12l.05-.16c.61.1,1.91.72,1.91,1.65A.53.53,0,0,1,210.87,30.89Zm10.61,1.25a6.81,6.81,0,0,1-2.41-2.4c-.45.32-4,2-4.62,2.22-.2.46-.22.51-.35.51a.21.21,0,0,1-.2-.1L213.07,31a1.13,1.13,0,0,0,.44.07,15,15,0,0,0,1.58-.31V24H214c-.17,4.19-.43,6.45-3.75,8.65v-.09c2.39-2.43,2.79-4.49,2.79-10.26,0-.86,0-3.35-.09-4.07l-.13-.81,1.43.69h5.62l.57-.67c.18-.21.24-.21.28-.21a.8.8,0,0,1,.36.21l.63.6c.2.19.2.26.2.3s-.15.19-.28.19H214c0,.55.09,1.68.09,3.14,0,.3,0,1.5,0,1.9h6.15l.56-.69c.16-.21.2-.21.29-.21a.5.5,0,0,1,.31.18l.73.67c.15.14.19.21.19.28s-.2.2-.28.2H217.5a11.38,11.38,0,0,0,.75,2.59,5.75,5.75,0,0,0,1.89-2l1.16,1s.07.09.07.14-.2.26-.4.26a1.16,1.16,0,0,1-.41-.07c-.35.14-1.85.71-2.15.85l0,0a7.49,7.49,0,0,0,4.81,4.4v.13A2.62,2.62,0,0,0,221.48,32.14Zm-1-10.89h-3.18a18.61,18.61,0,0,0-2.57.21l-.42-.76c1,.07,2.09.12,3,.12h1.36l.55-.65a.47.47,0,0,1,.31-.21c.09,0,.15,0,.33.23l.64.56c.15.14.22.22.22.32S220.56,21.25,220.47,21.25ZM217.22,24H216.1v6.46A26.28,26.28,0,0,0,219,29.6,13,13,0,0,1,217.22,24Z"/><path class="cls-2" d="M232.6,30.73a9.36,9.36,0,0,0,4.57-2.12,3.89,3.89,0,0,0,1.67-3.29,2.9,2.9,0,0,0-2.94-2.8c-1.65,0-4.18,1.23-6,2.83,0,.73.24,3.92.24,4.57s-.27,1.87-.77,1.87c-.22,0-.29-.11-.38-.64a4.84,4.84,0,0,0-.74-2l.08-.05a5.41,5.41,0,0,0,.9.49c.14,0,.16-.19.16-.3v0c0-.9-.09-2.42-.11-3.3a27.92,27.92,0,0,0-2.81,3.58c-.27.39-.31.44-.48.44s-.36-.4-.36-.63a1.08,1.08,0,0,1,.57-1.06,16.42,16.42,0,0,0,3.12-4.58c0-.21.07-1.11.09-1.29a5.15,5.15,0,0,0-1.76.85c-.43.31-.55.38-.81.38-.7,0-1.27-1.14-1.27-1.67a.64.64,0,0,1,.06-.28,1.43,1.43,0,0,0,1.19.79,7.86,7.86,0,0,0,2.66-.92c0-.37.19-2,.19-2.29,0-.84-.15-1.16-1-1.65a1.17,1.17,0,0,1,.55-.11c1,0,1.71.72,1.71,1.11,0,.11,0,.16-.24.65a8.13,8.13,0,0,0-.37,1.87.65.65,0,0,1,.33-.1c.18,0,1.08.24,1.08.56s-.47.72-.75,1a5.46,5.46,0,0,0-1,1.58c0,.36,0,.48,0,.71,2.08-1.83,4.13-3,6.23-3A3.61,3.61,0,0,1,240,25.5c0,2.41-2,3.73-3.34,4.38a8.83,8.83,0,0,1-4,1Z"/><path class="cls-2" d="M247.63,33c3.12-2,3.48-3.79,3.67-4.94a2.09,2.09,0,0,1-1.09.37,2.75,2.75,0,0,1-2.16-2.73,2.24,2.24,0,0,1,2.18-2.25,2.66,2.66,0,0,1,1.1.28c0-.28,0-.39,0-.51V21.65a20.82,20.82,0,0,0-6.21,1.27,5.15,5.15,0,0,1-.71.27A2.19,2.19,0,0,1,243,21.53a1.2,1.2,0,0,1,.06-.39c.53.67.9.85,1.36.85.27,0,.91-.13,1-.14.84-.14,4.16-.64,5.93-.78a12.72,12.72,0,0,0-.26-2.71,2.24,2.24,0,0,0-1.21-.87,1.85,1.85,0,0,1,.86-.28,3.28,3.28,0,0,1,1.36.53.53.53,0,0,1,.29.48,4.52,4.52,0,0,1-.11.53,18.31,18.31,0,0,0-.18,2.27c.7-.05,3.8-.16,4.42-.21l.83-.07c.71,0,1.3.49,1.3.77s-.24.34-.44.34a.78.78,0,0,1-.31-.06,17.77,17.77,0,0,0-3.4-.28c-.8,0-1.63,0-2.44.09,0,.78,0,1.41,0,1.71s0,.62,0,1.08a4.37,4.37,0,0,1,.59,2.36,6.42,6.42,0,0,1-2.55,5.14,8.55,8.55,0,0,1-2.37,1.25Zm1-7.35a1.94,1.94,0,0,0,1.67,1.92c1,0,1-1.3,1-1.5,0-1.41-.52-1.94-1.42-1.94A1.5,1.5,0,0,0,248.64,25.69Z"/><path class="cls-2" d="M269,25h-2.92l0,1.4a6.07,6.07,0,0,1,2.16.7,1.56,1.56,0,0,1,.74,1.11.57.57,0,0,1-.53.58c-.33,0-.48-.21-.88-.79a4.52,4.52,0,0,0-1.49-1.45v.73c0,.86,0,.95,0,1.2,0,1,.09,2.55.09,3.54,0,.74-.49.88-.73.88a.39.39,0,0,1-.44-.39c0-.09,0-.53,0-.63.13-1.59.15-3,.15-5.22a15.07,15.07,0,0,1-4.57,4.2l-.07-.11A29.22,29.22,0,0,0,263,28.07,13.81,13.81,0,0,0,265,25h-1.12a16.4,16.4,0,0,0-2.37.22l-.42-.76c.95.07,2.09.12,3,.12h1.09V22.9a8.13,8.13,0,0,0-.15-1.11l1.29.44c.25.09.29.16.29.23s-.39.37-.51.44,0,.34,0,1.66h1.32l.38-.56s.17-.23.3-.23.27.14.33.17l.68.59s.18.15.18.28S269.08,25,269,25Zm-.7-3c-.37,0-.59-.28-1.12-.95A8.7,8.7,0,0,0,266,20a14.69,14.69,0,0,1-5.38,3.51v-.11a17.83,17.83,0,0,0,4.67-3.93,10.92,10.92,0,0,0-3.27-1.62l.05-.09a10.52,10.52,0,0,1,3.69,1.15,4.93,4.93,0,0,0,1.12-2l1.34.85c.11.07.15.14.15.21a.23.23,0,0,1-.18.23c-.11,0-.61.1-.7.12-.3.37-.48.58-.88,1a10.05,10.05,0,0,1,1.54,1.11,1.46,1.46,0,0,1,.59,1A.48.48,0,0,1,268.31,22Zm8.07,10.19a9.81,9.81,0,0,1-3.91-2.77,10.63,10.63,0,0,1-5.72,3.21v-.07a12.42,12.42,0,0,0,5.19-3.84,8.1,8.1,0,0,1-1.32-3.69l-.68.11-.42-.76c1.38.11,2.7.13,3.05.13H274l.49-.43c.13-.12.22-.19.33-.19a.5.5,0,0,1,.26.12l.75.58a.48.48,0,0,1,.22.34c0,.12-.09.21-.27.26s-.59.2-.68.21A15.17,15.17,0,0,1,273,28.88l.11.1a9.62,9.62,0,0,0,4.9,2.07v.1A3.35,3.35,0,0,0,276.38,32.21Zm.54-10a2.1,2.1,0,0,1-1.34.32c-1.84,0-2.28-.12-2.28-.92s0-2.27,0-3h-2c-.05,3.35-2,4.25-3.06,4.66l-.08-.09c1.34-.76,2.13-2.49,2.13-4.74a2.81,2.81,0,0,0-.14-.95l1.54.7h1.45l.35-.42c.11-.11.15-.16.25-.16a.47.47,0,0,1,.24.11l.68.47c.13.09.22.18.22.28s-.14.2-.27.27l-.42.19c0,.46-.06,1.89-.06,2.31s0,.41,1,.41a.94.94,0,0,0,1-.52,8.61,8.61,0,0,0,.46-1.63h.12a2.84,2.84,0,0,0,.39,1.65c.26.2.27.21.27.34A.9.9,0,0,1,276.92,22.18ZM272.31,25c-.46,0-.9,0-1.36.07a8.64,8.64,0,0,0,1.42,3.15,15.24,15.24,0,0,0,1.7-3.22Z"/><path class="cls-2" d="M296,31.43a3,3,0,0,0-2,.94c-5.1-3.42-6-8.78-6.22-13.89a1.58,1.58,0,0,0-.29.05c-.32,5.13-.9,11.23-7.82,14l0-.14a13.71,13.71,0,0,0,5.78-7.19,23.51,23.51,0,0,0,.88-6.12c0-.26,0-.51,0-.79a2.58,2.58,0,0,0-.11-.93l1.95.42c.27.05.36.09.36.25s-.29.3-.47.35a18.68,18.68,0,0,0,2.66,9,9.17,9.17,0,0,0,5.27,3.91Z"/><path class="cls-2" d="M314.32,27h-2.85c0,.39.09,2.12.09,2.47,0,.62-.66.71-.79.71a.36.36,0,0,1-.36-.41c0-.07,0-.51,0-.62h-4.07a23.55,23.55,0,0,1,0,2.52c-.07.64-.64,1.13-1.8,1.55-.27-.7-.73-1.14-2.31-1.67v-.16c1.34.13,2,.16,2.2.16.57,0,.77-.07.85-.35s.09-1.66.11-2.05H302a16,16,0,0,0-2.35.21l-.44-.75c1.37.1,2.71.12,3,.12h3.11c0-.49,0-1.15,0-1.73h-5.32a14.92,14.92,0,0,0-2.35.2l-.44-.76c1.38.1,2.72.14,3.05.14h5.06V24.83h-3.54a15,15,0,0,0-2.35.21l-.44-.76c1.38.11,2.72.12,3.05.12h3.28V22.76h-3.85a1.13,1.13,0,0,1-.07.39.87.87,0,0,1-.66.37c-.23,0-.35-.09-.35-.32s.05-.58.05-.68c0-.29.06-.71.06-1.31a5.43,5.43,0,0,0-.13-1.46l1.14.51h3.83c0-.21,0-1.14,0-1.34h-4.68a15.16,15.16,0,0,0-2.37.2l-.42-.76c1.38.1,2.7.14,3.05.14h4.4a8.72,8.72,0,0,0-.29-2l1.65.48a.28.28,0,0,1,.24.27c0,.22-.18.29-.59.45,0,.37,0,.43,0,.78h4.74l.7-.74c.18-.2.2-.21.27-.21s.15,0,.35.17l1,.74a.34.34,0,0,1,.18.27c0,.16-.14.19-.27.19h-7c0,.21,0,1.16,0,1.34h3.8l.33-.3a.36.36,0,0,1,.25-.14.45.45,0,0,1,.22.09l.66.54c.17.15.17.22.17.25s-.17.25-.55.39a3.54,3.54,0,0,0,0,.67c0,.16.07.95.07,1,0,.44-.46.61-.71.61s-.33-.23-.33-.6h-3.91V24.4h3.83l.44-.42c.19-.18.21-.21.28-.21a.5.5,0,0,1,.31.19l.57.53c.11.11.18.19.18.27s-.07.19-.55.49c0,.21,0,1.13,0,1.32h1l.62-.78c.15-.17.19-.21.28-.21s.2.07.31.18l.74.77c.16.16.16.22.16.27S314.44,27,314.32,27Zm-8.91-6.31h-3.87v1.66h3.87Zm5,6.31h-4.09v1.73h4.09Zm-.15-6.31h-3.92v1.66h3.92Zm.15,4.15h-4.07v1.74h4.07Z"/><path class="cls-2" d="M319.83,21.42c.08.06.21.13.21.27s-.28.37-.46.54c0,.71,0,1.29,0,2.35s.11,6.4.11,7.47c0,.35,0,.48-.2.64a1.07,1.07,0,0,1-.68.28c-.42,0-.44-.3-.44-.48s0-.39,0-.58c.19-2,.19-3.19.19-9.59a13.44,13.44,0,0,1-2.77,2.91l-.13-.12a30.5,30.5,0,0,0,4.13-7.35,3.91,3.91,0,0,0,.24-1.11l1.5.91a.36.36,0,0,1,.15.27c0,.21-.19.23-.66.26a30.77,30.77,0,0,1-1.69,3.1Zm3.44.29a12.9,12.9,0,0,1-2.22,3.13l-.13-.08a35.17,35.17,0,0,0,2.26-5.43,4.35,4.35,0,0,0,.16-.95l1.4.63a.34.34,0,0,1,.25.32c0,.16-.07.17-.75.35a15.38,15.38,0,0,1-.73,1.6h2.88a24.54,24.54,0,0,0-.33-4.39l1.67.45c.13,0,.22.1.22.24a.26.26,0,0,1-.17.25c-.11.1-.33.26-.45.37v3.08h1.89l.62-.79c.05-.07.2-.21.29-.21a1,1,0,0,1,.35.17l1,.8a.38.38,0,0,1,.18.28c0,.16-.14.18-.27.18h-4.07c0,2.73,0,3,.05,4.54h2.79l.7-.86c0-.07.18-.23.27-.23a.76.76,0,0,1,.35.19l1.08.87c.1.09.19.16.19.28s-.15.18-.28.18h-5.1c0,.89.16,4.79.16,5.6,0,.65-.71.71-.84.71-.49,0-.49-.3-.49-.71,0-.18,0-1,0-1.2,0-.69.08-3.77.09-4.4h-2.77a13.9,13.9,0,0,0-2.37.21l-.44-.76c1.38.11,2.72.12,3.07.12h2.53c.06-2.13.06-2.34.06-4.54Z"/><path class="cls-2" d="M334.83,29.9a2.61,2.61,0,0,1,2.66-2.57,2.57,2.57,0,1,1-2.66,2.57Zm4.82,0A2.17,2.17,0,1,0,337.49,32,2.13,2.13,0,0,0,339.65,29.9Z"/></g></g></svg>