<svg xmlns="http://www.w3.org/2000/svg" viewBox="0 0 527.5 57.12"><defs><style>.cls-1{fill-rule:evenodd;}.cls-2{fill:#fff;}</style></defs><g id="レイヤー_2" data-name="レイヤー 2"><g id="レイヤー_1-2" data-name="レイヤー 1"><path class="cls-1" d="M72.42,13.07c2.24,1.35,6.54-1.6,8.57-.14,2.21-.7,4.38,0,6.53-.88.07-.56-.68-.16-.75-.58-3.39.78-11.71.07-14,.58-.58-1.34-3.18-.69-4-1-.27.19-.7.19-.52.83a1.61,1.61,0,0,1-1.11-.77c-4.73,0-9.61.22-13.88.17-2.32,0-4.52-.07-6.94-.32-4.83-.48-11.57-.06-15.54-.78,8.17-.7,16.39-1.43,24.94-2,6.28-.44,12.22-.41,17.28-1.52.06.42.81,0,.92.37a9.19,9.19,0,0,1,3.26-.73c5.43-.3,12.08-.93,17.89-.14,4.42-1.06,10.71-1,15.41-2.64,1,.73,2.61.32,3.83-.16,3,.77,5.5-.5,8.75-.16.4.1.24-.39.53-.41,5.88,1,11.28-.79,17.16-.11C145,1,148.81,2.3,153.21,1.11c1.54.92,3.72-.23,4.77.6a136.8,136.8,0,0,1,15.67-.64c.19-.05.11-.41.35-.42,6.86-.94,13.13-.57,20.23-.62,1.24,0,2.61-.06,3.84.05A103.53,103.53,0,0,0,209.76.4c2.83-.08,6.06-.32,8.93-.17.67,0,1.31.48,2,.53,3.24.24,6.07-.61,8.94.44C244.2.81,262.16.57,278,1c.59-.2.4.52.76.58A20.61,20.61,0,0,1,289,2.39c3.67-.74,7,.16,10.22,0,1.19-.07,2.22-1,3.28.06.36-.82,1.8-.32,2.37-.1,3-1.79,6.76.48,8.54-.75,1.77.58,4,.9,5.48,0-.07.19-.15.39-.35.43,1-.09,3,.87,3.27-.54.45.37,1.73-.24,1.67.74.19-.45.78-.49,1.25-.65-.65.62.22,1.77,1,2-.15,0,0-1.08,0-1.21.69-.29,1-.06,1.43-.85,7.43,1,13.32-1.36,20.09.57.35-.09-.32-.55.54-.42.43.14.33.47.92.75,1.21-1,3,.71,3.64-.74.92.09,2.17-.21,2.56.5a2.31,2.31,0,0,0-2.33,1.11c-.41-.67-4.36-.91-3.1-.27-.62.63-1.51-.18-2.38.09,0,.77,5.16,1.27,5.33,1.19s.26-.81.16-.81c.37,0,0,.68.21.79.76.43,1.71-.81,2.18-.09.3-.15-.67-.59-.76-1,.21-.84,2.1-.46,1.6-1.47,6.61-.15,12.13,1.51,19.38,1.22.67-.17.16,1.07.93.77.65-.05-.4-.65.17-.6,3.58.37,5.61.6,9.15.82.55-.64,3.34-1,4,0,.48-.1.54-.63,1.08-.64l.56.57A26.63,26.63,0,0,1,402.23,5c4.17-1.06,7.44,1.43,11,1.56-.23-.28-.71-.28-.94-.57,3.12,0,5.73,1.25,9.16.84.46,0,.23.14.19.39a5.49,5.49,0,0,1,4.56,0c1.76-.38,4.05.29,5.86.38.91,0,2.11-.69,2.75.48-1.83.07-4.26-.6-5.65.23.24.83.93.15,1.28-.05.18.35.09,1,.4,1.19-1.41.72-2.47-1.19-4.05-.83,0,.78.65.77.6,1.58,5.52-.47,11.34,1,16.26.34.86,1,2.09.51,3.14,1.09.26-.06,0-.62.34-.63.67-.23.37.67.76.78.59.16.23-.67.52-.82.54,1.27,2.67,1,2.94.67.66,0,2.8-.12,2.7-1.31a2,2,0,0,0,2.16-.49c-.05-.25-.55-.24-.54,0-.39-.94.72-1,1.8-.88.25,1.38-1.48.7-1.21,2.06-.68.18-.89-.2-1.47-.14,1.61,1.39,7.4.37,10.26,1-.1.49-1.13,0-1.27.46.79.29,1.39-.07,2.37-.1,0-.54-1,.23-.75-.58.48,0,1.14-.23.94.57a14.39,14.39,0,0,1,2.52-.9c.83.2-.3.59.21,1,2.74-.17,6.43,0,7.85-.33a15.1,15.1,0,0,0,6.91-.07,1.16,1.16,0,0,1,.22.79c7.16-.83,13.38,1.08,19.42,2.23a1,1,0,0,0-.17.62,4.44,4.44,0,0,1,2.57.3c.66.08,0-1.21.69-1.05.85,0-.18.3,0,.81.41-.1.58-.46.9-.65a2.39,2.39,0,0,0,2.22.93c.5-.29-.59-.41-.39-1,.24.26.79.17,1.28.15.37.39-.08.39-.15.81.9-.24,1.71.72,2.19.31.53.09-.27.33-.17.61,1.1.14,2.09.15,2.53-.9.81.23,1.07-.18,1.83.13-.13.61-.34.65-.89.42.72.62,2,.47,2.92.28-.37-.7-.71-.37.15-.81.91,0-.39.48.22.8a13.09,13.09,0,0,0,5.63-.82c-.55.34-.52,1.26-1.23,1.45.56,1.68,2.84-.11,3.87.84-6.27,1.89-12.73.61-18.19,2,.4.72.85.09,1.65.34-.59.8-1.6.26-2.2-.32a10,10,0,0,0-3.25.94c-.48-.06-.56-.57-1.12-.56-8.32.88-12.91.6-21.31.87-1.88.08-3.44-.34-5.46.43-6.71,0-13.12.82-20,1.62,6.7.67,12.74-.26,19.69-.4-4.71,2.82-12.45,1.12-17,3.93,0-.37.2-.44.15-.81-.69-.13-.38.77-.89.83-.94-.14-1.42.06-2-.72a21.46,21.46,0,0,0-10.15,2.22c8.83-.08,16.76.67,25.76.76-.18.79-1,.95-1.61,1.28a1.72,1.72,0,0,0,2-.29c.69.32.58.45,1.09.16.27-.15.93.57.93.57.21,0,.27-.6.53-.62.08,0,.53.59.93.56a.93.93,0,0,0,.53-.42c.64.12.49.56.93.55.73,0,1.57-.49,2.36-.49s1.67.61,2.57.71a26.16,26.16,0,0,0,7.84-.32c.39.09.61.4.93.55,6.75,0,13.43.83,19.88-.39.22.24.09.31,0,.59.72-.23.84-1.08,2-.88-1,.8-1.14,1.13-2.34,1.1.74,1.2,2.44.45,4,.23.1.71-.89.28-.89.85.95.51,1.69-.06,3.3.26-1.59,1.21-3.84.65-5.81.85-3.1.3-6.47,1.23-9.66.59-.9.59-1.7.41-3.09.32-.83-.13-.4,1-1.06,1.06,0-.23,0-.36.17-.41-3-.58-5.51.32-8.55.75-.06,1.55-1.3,1.11-1,2.25-1.13-1.26-2.46.72-3.66-.24-4.12,1.44-8,.14-12.53,1.51-1.73-1.13-4.24.74-5.68-.36-4.88.61-11.78,1.78-17.05,2.92-.16.67.58.28.92.36-1.29,1.57-3.58.46-4.69,1.61-.54-.12-.31-1.18-.77-1.39-1.71.36-2.92.32-4.72.8.19.62,1,.49,1.13,1.16-1.29-.68-3.12,1.41-4.21-.64,1.23-.08,2.22.1,2.9-.51-2.42.28-4.51-.36-6.75.27.79.54,2.31.18,3.31.47-3.78,1.88-8.51-.28-11.81,1.69,1.44,1,4.26-.82,5.32.79,2.72,0,6.2.09,9,.24.12-.32.89,0,.71-.63,3.83.92,7.2-.41,11.28-.87-.29.73.14.5.22,1.2,1.17.65,2.06-1.69,2.75.09-.22.84-1.84.73-2.54.5,0,.15,0,.27,0,.41a50.63,50.63,0,0,0,12-.69,3,3,0,0,0,2.55.1c-.24.56-.66.94-1.25.65a1.77,1.77,0,0,1,0,1.41c-1.23.27-3.14-.13-4,1a2.8,2.8,0,0,0-3.64.54c-.64,0,0-.36-.56-.57-.89-.06-.82,1.07-1.46.25-.48.2.36.7-.14,1-2.92.59-6.47,1.63-8.89,1.57-1.27,0-2.44.88-3.8,1.16-4.87,1-10.87-.74-16,.46-1.93.45-3.3,1.47-5.26,1.22-3.94,2-10,.31-13.87-.23-3-.42-6-.22-8.6-.66-1.41-.25-3.08-.26-5.31-.79-3.64.88-7.62-.47-11.7-.53-1.85,0-3.67.22-5.47,0-2.09-.24-4.12-.94-6.24-1.17s-5.27.37-7.48.51c-.82.07-1.59-.4-2.35.5-1-.47-1.77.1-2.58-.5-4.4.64-11.37,0-16.61-.52-.9-.09-2-.94-2.74-.08-4.92-.33-10-1-15.17-.6-3.13.22-6.16.94-9.27,1-5.71.1-11.41-.09-18.45-.64-2.23-.19-4.66.14-6.74.06-1,0-1.94-1-3.66-.05-8.35-.13-14.26.5-23.2-.66a1.69,1.69,0,0,0-.34.62c-1.42-.91-3.57-.79-5.7-1.18-2.57-.45-5.69-1.21-7.65.11-1.25-1.11-3.36-.54-4.76-.2,0-.29,0-.57-.21-.59-1.4.69-3.18-.84-4.36.37-2-1.2-3.65.08-6.23-1-2.57.89-8.2-.74-10.22,0a9.3,9.3,0,0,0-1.29-.56c-1.81.53-3.49-.33-4.94-.2-1.76.16-2.38.92-3.82.56-.66-.17-.86-.5-1.84-.52-2,0-3.3-.64-5.11,0-9.53-.61-16.94-2.8-27.08-2.32,0-.54-.4-.49-.75-.57s-.24.4-.53.43c-2.48-.85-5.3,1-8.38.54-2.79-.38-6.71-.26-9.71-1-.22.2-.66.22-.89.43-3.74-.37-9.13-1.38-13.33-.47-5-.67-9.19,0-12.76.32A94.82,94.82,0,0,0,121,45.53c-2.41-.09-5-.93-6.75.27-2-1-3.84.69-5.65,0-.48-.05-.12.78-.71.63-3.71-.78-7.91.05-12.23-.1-3.2-.12-6.46-.76-9.51-.83-2.54,0-5,.52-7.14-.5-.68-.2-.26.75-.89.63-2.49-.89-6,.1-8.23-.67-3.54,1.1-6.45-.72-9.31,0-3.56-.79-7.66-.44-12.61-.71-3.29-.17-6.72.56-11.49.28,5-1,13.75-.91,18.72-2.39.7.83,1.88-.18,2.93.29-.92-1.15-3,.13-4.23-.83,3.51-1.18,9.09.89,13.13-.54,2.11.78,3.6-.58,5.26-.62S77,41.1,78.62,40c2.09.91,5.68-.43,7.68.69,2-1.08,3.94.6,5.8-1,1,1,2,.37,2.78,1.09,3.69-1.37,6.45,0,9.47-.58.51-.06.77-.38.69-1,1.7,1.25,4.11.41,5.83-.44.19.26.49.38.57.78a4.43,4.43,0,0,1,2-.68,6,6,0,0,0,4.73-.19c1.7.58,4.85.5,6.59.73s2.89-.32,4.74-.4c.71,0,1.79.73,2.37-.09,1.26,1,2.65-.39,3.49.65,1-.89,2.28-.43,3.27-.33.64.08,1.22-.54,2-.68,1.09-.18,2.49,0,3.46-.14s3.06.81,4,.84c2.47.06,4.68-.7,7.13.31,1.33-.78,2.11.22,3.26-.74,1.69.75,2.73.1,4.75.21-2.22-1.4-5-.79-7.33-.91-1.37-.07-2.85-.85-4.2-.43-1.48-1-4.77-.14-6.42-.74-10.27,1.48-20.19-1-29.92,0-.74.06-1.46.21-2.36.29-.57.05-1.14-.75-1.83.07a3.87,3.87,0,0,0-4,1c-.25-.11-.35-.41-.39-.79-11.66,0-20.73-.86-31.57.09-.55,0-1-.33-1.46-.34-.77,0-1.65,1.08-2.38-.1-.38.2-.87.28-.89.83-.3-.47-.9-.58-1.31-1-.23.21-.33.56-.7.63-1.19-.22-2.71-1.19-3.85-.23-1.12-.77-3.5-.82-5.67-.39a.55.55,0,0,1-.38-.58c-2.88.89-5.41-.82-7.45.7-.14-.53-.67-.6-1.13-.76-4.85.75-9.94-.05-15.71-.56-6.12-.54-12.8-.73-18.82-.84-1.31,0-2.58.32-3.67-.66,4-.28,5.43-.77,9.28-.77a6.25,6.25,0,0,0-2.2-.32c1.7-1.17,5.46-.41,8.38-.35.08.83-.26,0-.72.23,1.53.33,2.79-1.23,4.72-.59.25.65-.58.18-.34.81,1-.15.69-.42,1.07-1,1.44-.07,4.59-.57,5.45-.44,2.52.43,7.31-.22,10.39-.42.95-.06,2.27-.74,2.92.29a7.68,7.68,0,0,0-2.35.29c.22,1.27,1.74,0,2.36-.1s1,1.15,1.28.15c.15-.73-.72-.25-1.1-.35.41-1.19,2-1.59,2.86-1.73,3.11-.47,6.31,0,8.71-1.36.39.32,1.35-.08,1.66.33.64,0,.58-.71,1.07-.86s.27.66.74.59c1.58-.4,3.78-.47,5.63-1,1.4-.43,3.17-.17,4.74-.39,1.28-.2,3,.22,3.83,0,.2-.05.35-.61.51-.64,1.83-.23,3.66-.13,5.84-.23.75,0,1.61.5,2.39.5,1.69,0,3.49-1,5.09-.4.55,0,.61-.55,1.08-.65,1.91.25,4.8.93,6.54-.67.4.61,2.11.93,2.37-.1,2.68-.32,5.79.49,7.44-1.31,1.62,1.45,3.57-.48,5.12.39.69.19.51-.52,1.08-.44,1.25.3,3.3.5,4.19-.17,4.63.55,8.9-.54,12.75-.73,1.28-.06,2.88.85,4-.36-5.9-1.29-12.88.36-19.37-.82-.79.68-2.93-.4-4,.77-.81-.39-1.12-.31-1.64.26-.53-.7-1.25-.3-2-.31-2.41-.08-5.52,0-8.2.13-.57,0-1.12.47-1.64.47-1,0-1.66-.95-2.38-.31-.45,0-.57-.29-.74-.57-5.78,1-11.56.16-17.34-.09-.72,0-1.54.77-2-.33,1.2-.31,2.77,0,4.54-.38-.77-1-3-.69-3.82,0-1.81-.25-4.24-.85-5.65.22-.41-.07-.6-.4-.93-.56-.24.2-.34.56-.7.63a11.69,11.69,0,0,0-5.85-.17c-1.92-.73-4-.24-5.86-.35a53.39,53.39,0,0,0-5.68-.59c-.93.05-1.77.79-2.71.72-.4,0-.53-.47-.93-.56s-1.08.32-1.81.28a38,38,0,0,0-4.21-.44c-1.28,0-2.53-.39-3.67-.46-6.49-.36-11.94,1.24-18.61,0a4.6,4.6,0,0,1-1.44.47c-.57.12-.5-.52-.94-.57-5.87.44-14-.68-21-.55,6.34-.88,12.72-1.16,18.56-1.57.14-.2,1.16-.46.7-.63.37-.56.89.47,1.48.34,8.17-.82,17.62-1.1,27.14-1.31,0-.24-.05-.35-.2-.4,1.07-.18,3.74.27,4.54-.79,1.14,1.23,3.39-.15,5.66-.22a39,39,0,0,0,5.28-.22,21.58,21.58,0,0,1,2.91-.12c.7,0,1.32-.64,2-.69,1.2-.08,2.33.77,3.47.27C72.21,14,71.91,13.13,72.42,13.07ZM321.86,2.26a2.94,2.94,0,0,1,1.46.14C323.25,1.84,321.86,1.64,321.86,2.26ZM89.89,12a1.72,1.72,0,0,1-1.64-.14C88,12.64,90,12.65,89.89,12Zm1.83-.08c-.49.15-1.46-.2-1.64.27C90.3,12.32,91.84,12.64,91.72,11.88ZM381.26,5.06c.55.61,1.93.32,2.37.11A2.09,2.09,0,0,0,381.26,5.06ZM86.37,21c-.46-.37-1.47-.07-2.19-.11C84.56,21.55,85.93,21.36,86.37,21Zm333.87-12c.66.14,1.77.56,2.38.09C422.37,8,420.59,8.4,420.24,8.91ZM139.71,22.61c.69.11,1,.2,1.07-.65a1.06,1.06,0,0,0-.92-.16A1.25,1.25,0,0,1,139.71,22.61Zm4.18-.38c1,.5,2.78.07,3.83.05C146.81,21.48,144.56,21.17,143.89,22.23Zm6.93-.08c1.29.36,3.43,0,5.12.19C155.14,21,152.3,21.91,150.82,22.15Zm6,.15c1.07.72,2.56-.15,2.91-.51C158.56,21.89,157.52,21.41,156.84,22.3Zm4.2,0c0-.39,1.51-.1.72-.64-.15.7-1.76-.34-1.28.27C160.84,21.88,160.85,22.2,161,22.33ZM463.61,12.16c-.59.23-1.57,0-1.28.26C462.73,13,463.23,12.61,463.61,12.16Zm-417,20.1c.29,0,.64-.06.57.38A1.78,1.78,0,0,0,48.24,32C47.93,31.73,46.61,31.63,46.6,32.26Zm7.11-.09c-.33-.83-.77-.31-1.48-.54C52.14,32.5,53.1,32.14,53.71,32.17Zm-20.58,1c.32-.14,1.08.19,1.09-.26-.55.17-.37-.53-.93-.36A1,1,0,0,1,33.13,33.22Zm13.29-1c-.61.29-1.29-.4-1.46.06C45.44,32.53,46.14,32.93,46.42,32.26Zm-21.68,1.1a5.56,5.56,0,0,0-3.28.12C22.24,33.71,23.51,33.25,24.74,33.36Zm10.4,0a.86.86,0,0,0,.9-.43C35.76,32.58,35,32.64,35.14,33.33Zm6.55-.87c-.9.38-2.93-.43-3.64.55C39.8,32.61,41,33.4,41.69,32.46Zm.91.36c2.63-.08.85-.84-.73-.17A1.29,1.29,0,0,0,42.6,32.82Zm11.67-.48c.36-.36,2,.28,2.72-.51C55.94,32.16,54.22,31.64,54.27,32.34ZM447.86,43.22c.67-.21,1.65-.13,2.17-.49C449.05,42.58,448,42.58,447.86,43.22Zm-.19-.19c-.5-.53-.63.17-1.09.25,0-.12-.16-.22-.18,0C446.75,43.63,447.43,43.35,447.67,43Zm-16.55,1.68c.77-.07,1,.31,1.45-.25C432.09,44.28,431.34,44.15,431.12,44.71Z"/><path class="cls-2" d="M174.19,18.9a3.33,3.33,0,0,0,.88-.19,23,23,0,0,1,3.41-.76c.53,0,1.38.69,1.38,1.24,0,.22-.06.26-.54.54s-.53.35-.84.58a52.22,52.22,0,0,1-5.45,4c-.15.09-.61.39-.61.46a.1.1,0,0,0,.11.1,5.36,5.36,0,0,0,.68-.16,57.44,57.44,0,0,1,7.57-1.6,11.58,11.58,0,0,1,1.52-.28c.46,0,1.39.49,1.39.93,0,.27-.2.36-.47.36S181.6,24,181.33,24a7.61,7.61,0,0,0-5.91,2.73,2.57,2.57,0,0,0-.67,1.71c0,1.89,2.26,2.86,4.32,3a.88.88,0,0,1,.84.81c0,.29-.2.43-.69.43a11.44,11.44,0,0,1-2.92-.85A3.5,3.5,0,0,1,174,28.7c0-.81.39-2.87,4-4.54a20.92,20.92,0,0,0-7.34,2.15,2.45,2.45,0,0,1-.92.28.65.65,0,0,1-.73-.64c0-.38.27-.46.8-.58,1.69-.4,3.2-1.62,6.08-3.95,1.25-1,2.46-2.32,2.46-2.68a.21.21,0,0,0-.22-.21,14.27,14.27,0,0,0-2.26.69,4.75,4.75,0,0,0-1,.65,1,1,0,0,1-.66.3A1.55,1.55,0,0,1,173,18.59a1.71,1.71,0,0,1,.07-.46A1.53,1.53,0,0,0,174.19,18.9Z"/><path class="cls-2" d="M201.88,28.3a8.72,8.72,0,0,1-7.34,4,4.28,4.28,0,0,1-2.72-.81c-.61-.67-.75-1.78-.75-3.56,0-.26.09-3.75.11-4.3s.11-2.92.11-3.42c0-1.48-.53-1.65-1.29-1.94a1,1,0,0,1,.81-.28c.77,0,1.8.85,1.8,1.31a9.07,9.07,0,0,1-.15,1,49.91,49.91,0,0,0-.66,7.93,6.4,6.4,0,0,0,.37,2.71,2.17,2.17,0,0,0,1.78.63c2.29,0,6.28-1.83,7.87-3.34Z"/><path class="cls-2" d="M213.27,20.1c.52-.12,4.43-.86,4.63-.9a4.15,4.15,0,0,1,.88-.16c.68,0,1.36.46,1.36.83s-.4.48-.64.48-1.42-.07-1.66-.07c-3.58,0-6.14,3.59-6.14,6.29s2.56,3.61,4.6,4c.5.09,1.25.23,1.25.92,0,.3-.31.38-.59.38a10.24,10.24,0,0,1-3.1-.89,5.05,5.05,0,0,1-3-4.37c0-1.64.95-4,4.29-6.31a34.87,34.87,0,0,0-7.26,2.08c-.57.26-.65.3-.74.3a1.51,1.51,0,0,1-1.23-1.57,1.29,1.29,0,0,1,.15-.66,1.46,1.46,0,0,0,1.39.92,4.48,4.48,0,0,0,.81-.1Z"/><path class="cls-2" d="M239.83,31A3.1,3.1,0,0,0,239,32.1a2.72,2.72,0,0,0-.13.37A36,36,0,0,1,232,32a7.44,7.44,0,0,1-5.07-4,7.73,7.73,0,0,1-4.38,5l-.06-.16a9.74,9.74,0,0,0,3.84-7.27,6.52,6.52,0,0,0-.13-1.1l1.67.53c.15.05.28.07.28.25s-.06.19-.68.56a11.61,11.61,0,0,1-.41,1.82,6.83,6.83,0,0,0,4,3.24V23.19h-3.58a.42.42,0,0,1-.07.35.7.7,0,0,1-.57.28c-.52,0-.52-.37-.52-.55,0-1,.15-2.53.15-3.5a10.38,10.38,0,0,0-.22-2.42l1.51.76h7.45l.38-.42a.44.44,0,0,1,.28-.16.54.54,0,0,1,.22.1l.79.53a.3.3,0,0,1,.16.23c0,.2-.6.62-.68.65,0,1.27,0,2.4.08,3.32,0,.14.07.77.07.91,0,.48-.61.69-.83.69s-.33-.26-.31-.77H232v3.56h3.14l.44-.76c.09-.16.13-.25.27-.25s.21.07.35.2l1,.77c.14.18.16.21.16.27s-.18.19-.28.19H232v3.95a13.4,13.4,0,0,0,3,.26,19.6,19.6,0,0,0,4.93-.53A1.71,1.71,0,0,1,239.83,31Zm-4.48-12.5h-7.91v4.23h7.91Z"/><path class="cls-2" d="M257.48,19.34h-7.74v2.91c.75.16,4.68,1,4.68,3a.69.69,0,0,1-.61.67c-.35,0-.49-.23-1-.94a8.18,8.18,0,0,0-3.08-2.52c0,3.56,0,4.05.11,8.51,0,.29,0,.39,0,.81s0,.53-.17.64a1,1,0,0,1-.64.23c-.52,0-.52-.32-.52-.5s0-.61,0-.72c.13-3.05.13-3.82.13-8.35V19.34h-4.35a16.17,16.17,0,0,0-2.37.22l-.44-.76c1,.07,2.11.12,3.07.12h10.5l.75-.77c.18-.2.22-.23.29-.23a1,1,0,0,1,.35.19l1.07.78c.07.07.18.15.18.26S257.56,19.34,257.48,19.34Z"/><path class="cls-2" d="M267.26,18.36c0-.39-.33-.53-1.12-.81a.93.93,0,0,1,.75-.25c.9,0,1.64.56,1.64.95,0,.09,0,.21-.26.57l-1,1.41a13,13,0,0,0,2.13-.71,1.66,1.66,0,0,1,.5-.12c.27,0,.93.14.93.51s-.29.39-.71.49c-1.27.3-1.95.42-3.45.69a30.25,30.25,0,0,0-2.17,3.21,3.33,3.33,0,0,1,1.84-.58,2.17,2.17,0,0,1,2.25,1.85c.88-.48,1.86-1,3.95-1.91.24-.1.39-.21.39-.46s-.22-.4-.52-.63a.91.91,0,0,1,.3,0c.38,0,1.81.45,1.81,1.38,0,.37-.2.39-.92.49a26.11,26.11,0,0,0-4.86,1.78,10.89,10.89,0,0,1,.22,2.21c0,.17,0,1.44-.61,1.44s-.53-.74-.53-.95.06-1.16.06-1.39a5.92,5.92,0,0,0-.06-.83c-1.41.88-2.75,2.29-2.75,3.28,0,1.3,2.28,1.34,2.92,1.34a15.3,15.3,0,0,0,2.84-.32,3.55,3.55,0,0,1,.59-.07c.57,0,1.07.28,1.07.61,0,.11-.08.36-.52.44a16.76,16.76,0,0,1-2.68.18c-2.79,0-3.45-.3-4-.67a1.84,1.84,0,0,1-.88-1.43,3,3,0,0,1,.64-1.63,11.2,11.2,0,0,1,2.7-2.33c-.2-1-.51-1.82-1.69-1.82a3.22,3.22,0,0,0-2.38,1.4c-.72,1-.81,1.11-1,1.11-.44,0-.46-.51-.46-.64,0-.4.15-.51.42-.7.92-.64,2.24-2.7,3.16-4.16a11.34,11.34,0,0,1-1.93.24c-1.47,0-1.63-.95-1.7-1.39a2.65,2.65,0,0,0,1.74.6,13.26,13.26,0,0,0,2.37-.25A11.43,11.43,0,0,0,267.26,18.36Z"/><path class="cls-2" d="M280.34,24.09c-.29,0-.36-.11-.69-.67a4,4,0,0,0-1.36-1.31l0-.12a5.92,5.92,0,0,1,1.9.44,1.21,1.21,0,0,1,.73,1A.65.65,0,0,1,280.34,24.09Zm.87,2.74a6.85,6.85,0,0,0-.57,2.28,6.57,6.57,0,0,0,.18,1.3,6.9,6.9,0,0,1,.31,1.68.73.73,0,0,1-.68.82c-.6,0-.69-.77-.69-1.23,0-.16.05-.85.05-1,0-1.42-.11-2-1.12-2.39v-.13c.5,0,.92-.05,1.38-.91,1.43-2.73,1.49-2.82,2.95-6.07l.15,0C282.53,23.12,281.81,25.11,281.21,26.83Zm1-7.08c-.31,0-.37-.09-.86-.86a3.94,3.94,0,0,0-1.29-1.2l0-.09c.94,0,2.74.48,2.74,1.5A.62.62,0,0,1,282.16,19.75Zm5.07,5.06c-.09.07-.53.28-.61.33-1.26,4.07-3,5.71-4.75,6.82l-.09-.07a13.89,13.89,0,0,0,3.78-7.26,12.25,12.25,0,0,0-2.1.21l-.44-.77c1.29.1,2.3.12,2.46.12l.43-.35c.2-.18.23-.2.29-.2s.29.16.35.2l.66.53c.07.07.15.14.15.24A.25.25,0,0,1,287.23,24.81Zm2.2-3.62c-.07.06-.42.3-.48.36V26.5c0,.67.05,4.12.05,4.25,0,1.41-.09,1.94-1.85,2.45a2.91,2.91,0,0,0-1.84-1.55l.06-.13c.86,0,1.57.05,1.78.05.73,0,.86-.07.86-.79,0-1.53,0-8.25,0-9.62l0-.12H286.7a15.94,15.94,0,0,0-2.35.19l-.44-.76c1.37.11,2.71.14,3,.14h.85l.31-.33a1.5,1.5,0,0,1,.27-.23c.08,0,.11,0,.24.12l.68.48c.13.09.28.19.28.32S289.47,21.16,289.43,21.19Zm-.7-1.88c-.38,0-.51-.21-.93-.81a4.37,4.37,0,0,0-1.51-1.41l0-.11c2.83.37,3.1,1.31,3.1,1.66A.68.68,0,0,1,288.73,19.31Zm6.7,11.54c-1.36.2-1.69.57-1.92.81A13.43,13.43,0,0,1,289.36,22l.14-.05a11.48,11.48,0,0,0,.61,2.85,11,11,0,0,0,1.17-1.39,4.29,4.29,0,0,0,1-2l1.34,1.24a.28.28,0,0,1,.14.23c0,.26-.23.28-.93.33a13.44,13.44,0,0,1-2.65,1.78,9.38,9.38,0,0,0,5.29,5.8Z"/><path class="cls-2" d="M305.27,17.44A1.81,1.81,0,0,1,307,19.06c0,.35-.08.41-.7.92-.2.16-1,1-1.19,1.14-.41.37-2.19,2-2.54,2.37a10.31,10.31,0,0,0-1.23,1.32,1,1,0,0,0-.11.44c0,.19,0,.4.87,1.23,0,0,0,0,0,0,3.35,2.91,4.29,3.73,5.08,4.84a1.28,1.28,0,0,1,.31.83c0,.51-.31.81-.59.81s-.42-.19-.75-.83c-.9-1.72-1.71-2.46-4.62-5.19-.17-.16-.24-.23-.87-.9a1.14,1.14,0,0,1-.38-.81c0-.41,0-.52,2.07-2.61a25.8,25.8,0,0,0,3.14-3.42,1.3,1.3,0,0,0,.24-.65c0-.5-.5-.92-.72-1.11A1,1,0,0,1,305.27,17.44Zm5,2.7a1.27,1.27,0,0,1,.5,1.13c0,.35-.2.56-.42.56s-.22,0-.44-.58a8.9,8.9,0,0,0-1.75-2.31A5.6,5.6,0,0,1,310.22,20.14Zm2.08-.51a1.36,1.36,0,0,1,.55,1.12c0,.11,0,.55-.39.55s-.37-.28-.46-.53a6.62,6.62,0,0,0-1.89-2.36A4.62,4.62,0,0,1,312.3,19.63Z"/><path class="cls-2" d="M330.52,31.54H317.27c0,.92,0,1-.06,1.18a.87.87,0,0,1-.77.44c-.31,0-.44-.26-.44-.62a2.24,2.24,0,0,1,0-.35c.14-1.81.18-5.13.2-7,0-.6,0-1.2,0-1.8,0-.28,0-4.07-.09-5,0-.32-.1-.53-.13-.72l1.56.72h10.19l.75-.9c.05-.05.18-.21.27-.21s.19.05.37.2l1.21.88c.08.07.19.16.19.28s-.17.17-.3.17h-13v3.41h9l.44-.57a.36.36,0,0,1,.24-.12.44.44,0,0,1,.28.14l.86.69a.35.35,0,0,1,.17.26c0,.23-.08.27-.76.6,0,1.09,0,1.5,0,2.17,0,.32,0,1.73,0,2s0,.61-.2.82a.68.68,0,0,1-.54.23c-.33,0-.49-.17-.49-.46,0-.05,0-.54,0-.65h-9.05v3.83h11l.63-.85c.09-.12.18-.25.31-.25s.15,0,.37.22l1.08.84c.09.07.18.14.18.27S330.65,31.54,330.52,31.54Zm-4.2-9h-9.05v4.3h9.05Z"/><path class="cls-2" d="M348.23,32.77A21.62,21.62,0,0,1,344.81,30a12.16,12.16,0,0,1-3.32-7.42h-.15c-.58,4.78-2.18,6.86-3.61,8.23a10,10,0,0,1-4.08,2.45l-.09-.12a13,13,0,0,0,5.51-6,16.1,16.1,0,0,0,1.23-4.59h-4.43a16,16,0,0,0-2.36.2l-.45-.76c1.38.11,2.72.14,3.07.14h4.2a15.25,15.25,0,0,0,.11-1.94,14.49,14.49,0,0,0-.2-2.39A2.08,2.08,0,0,0,340,17l1.92.47c.22.06.35.11.35.29s-.26.37-.68.63c0,.56,0,1.67-.18,3.77h5.76l.61-.79c.11-.14.18-.21.27-.21s.15,0,.35.17l1.16.8a.31.31,0,0,1,.18.26c0,.16-.14.19-.27.19h-7.68a11.55,11.55,0,0,0,5.31,7.81,12.48,12.48,0,0,0,3.12,1.22v.14A3.35,3.35,0,0,0,348.23,32.77Z"/><path class="cls-2" d="M358.21,18.74c0-.21-.26-.59-1.1-.79a.8.8,0,0,1,.69-.28,2.54,2.54,0,0,1,1.62.74.53.53,0,0,1,.22.42c0,.13-.06.18-.42.66a8,8,0,0,0-.87,1.3,13.46,13.46,0,0,0,1.64-.6c.57-.25.68-.3.9-.3s1,.18,1,.46-.35.35-.39.37a30.44,30.44,0,0,1-3.61.92c-.41.72-2.26,4.45-2.44,4.75s-1.29,2.17-1.4,2.26a.41.41,0,0,1-.31.14c-.11,0-.35-.07-.35-.55s.15-.67.53-1.12a24.53,24.53,0,0,0,2.17-3.56c.31-.58.68-1.32.88-1.71a7.86,7.86,0,0,1-1.87.28c-1.64,0-1.8-1.11-1.84-1.39a2.14,2.14,0,0,0,1.62.65,13.55,13.55,0,0,0,2.48-.34A18.33,18.33,0,0,0,358.21,18.74ZM363,22.2c2.09,0,3.67,1.73,3.67,2.5a.34.34,0,0,1-.36.35,1.25,1.25,0,0,1-.46-.14,2.33,2.33,0,0,0-1.42-.38,3.48,3.48,0,0,0-2.2.65,1.48,1.48,0,0,0-.37,1.14c0,.48.22,2.22.3,2.72,1.76.39,3.47,1.18,3.47,2.08a.44.44,0,0,1-.41.49.87.87,0,0,1-.4-.16A8,8,0,0,0,362.17,30c-.05,2.31-2.48,2.43-2.92,2.43-1.37,0-2.62-.72-2.62-1.72,0-1.18,1.6-1.87,3.32-1.87a8.78,8.78,0,0,1,1.14.07c-.09-1.43-.09-1.59-.09-2,0-1.81,1.15-2.36,3.15-2.89.15,0,.37-.09.37-.33s-.44-.5-.7-.65a7.66,7.66,0,0,0-1.83-.73A3.6,3.6,0,0,1,363,22.2Zm-3.1,7.33c-.7,0-2.53.21-2.53,1.16,0,.73,1.12.87,1.65.87s2.26-.21,2.18-1.85A4.61,4.61,0,0,0,359.86,29.53Z"/><path class="cls-2" d="M383.85,22.25l-.48.32c0,.16.07,3.88.13,5,0,.12.07.7.07.83,0,.4-.44.65-.79.65s-.38-.35-.37-.55H374a.6.6,0,0,1-.65.69c-.33,0-.45-.17-.45-.51s.07-1.09.07-1.27c.07-1.78.09-4.26,0-5.3a21.77,21.77,0,0,1-2.22,2.18,6.73,6.73,0,0,1-1.19.81l-.07-.09a22.9,22.9,0,0,0,5.08-7,2.57,2.57,0,0,0,.29-1.18l1.53.92s.18.12.18.23a.26.26,0,0,1-.22.26l-.59.09c-.09.14-.25.39-.35.53h3.33l.57-.46a.69.69,0,0,1,.31-.17.78.78,0,0,1,.38.15l.74.48a.35.35,0,0,1,.18.28c0,.28-.22.32-1.1.53-.31.32-1.65,1.75-1.95,2h4.12l.49-.41c.13-.1.22-.17.31-.17a.56.56,0,0,1,.32.12l.62.51c.16.12.2.2.2.27A.34.34,0,0,1,383.85,22.25Zm-13,10.7a.64.64,0,0,1-.62-.53c0-.35.42-.62,1.14-1.06a3.7,3.7,0,0,0,1.52-1.74h.09C372.87,31.91,371.71,33,370.81,33Zm4.37-13.68c-.29.43-.94,1.34-1.49,2l.61.39h3.41a22.37,22.37,0,0,0,1-2.42Zm2.41,2.84H374v2.64h3.58Zm0,3.07H374v2.87h3.58ZM376,32.83a.57.57,0,0,1-.6-.6c0-.11.11-.8.13-.95a4.79,4.79,0,0,0,0-.66,3.12,3.12,0,0,0-.09-.89l.09,0a3.39,3.39,0,0,1,1.25,2.18A.86.86,0,0,1,376,32.83Zm6.37-10.72h-3.89v2.64h3.89Zm0,3.07h-3.89v2.87h3.89Zm-1.85,7.52c-.5,0-.57-.31-.72-1.07a4.08,4.08,0,0,0-.82-1.92l.09-.07c1.56.75,2.13,1.85,2.13,2.25A.72.72,0,0,1,380.56,32.7Zm4.66.07c-.35,0-.46-.21-.84-.91a9.34,9.34,0,0,0-2-2.28l0-.08c1.19.15,3.43,1.35,3.43,2.5A.71.71,0,0,1,385.22,32.77Z"/><path class="cls-2" d="M398.49,23.86H391.2a14.85,14.85,0,0,0-2.37.19l-.44-.76c1,.09,2,.14,3.07.14h1.81c0-.17,0-.44,0-.61s-.17-.87-.19-1l1.29.43c.25.09.31.1.31.23s-.22.28-.51.35v.63h2.73l.44-.53c.15-.17.2-.26.31-.26s.22.11.37.23l.57.53c.13.1.18.16.18.26S398.56,23.86,398.49,23.86Zm-6.12,6.2-.49,0a15.08,15.08,0,0,1-1.51,1.37,7.91,7.91,0,0,1-1.72,1.11l-.08-.14a11.32,11.32,0,0,0,2.69-3.56l1.23.76a.21.21,0,0,1,.14.21A.27.27,0,0,1,392.37,30.06Zm4.21-11.6c0,.09,0,.25,0,1.71,0,.21.06,1.18.06,1.4,0,.54-.66.59-.72.59a.27.27,0,0,1-.27-.31s0-.14,0-.18h-4.32v.41c0,.17-.44.38-.75.38s-.31-.1-.31-.31c0-.58.09-3.19.09-3.74a7.21,7.21,0,0,0-.15-1.3l1.16.61h4.08l.31-.35c.11-.12.16-.18.27-.18s.17.07.3.16l.55.43a.4.4,0,0,1,.18.28C397.11,18.22,397,18.3,396.58,18.46Zm.24,7.44c0,.3.07,1.67.07,2,0,.49-.55.56-.68.56S396,28.35,396,28h-1.69c0,.83,0,1.2,0,2.38,0,.24,0,1.28,0,1.49,0,.43,0,1-1.45,1.41a1.65,1.65,0,0,0-1.12-1.3l0-.09c1.59.09,1.59-.07,1.59-.39,0-.56,0-3,0-3.5h-2c0,.3-.07.53-.6.53-.37,0-.39-.16-.39-.36s.07-1.46.07-1.71c0-.05,0-.91-.11-1.92l1.05.58h4.46l.26-.26a.33.33,0,0,1,.24-.14.37.37,0,0,1,.23.12l.57.44c.08.06.17.13.17.23S397.29,25.72,396.82,25.9Zm-1.12-7.75h-4.32v1.32h4.32Zm0,1.74h-4.32v1.36h4.32Zm.27,5.66h-4.59v2H396Zm.81,5.62c-.4,0-.5-.19-.75-.79a4,4,0,0,0-1-1.52l.09-.09c1,.37,2.15.81,2.15,1.85A.49.49,0,0,1,396.78,31.17Zm8-3.07a1.09,1.09,0,0,1-.42-.1,15.58,15.58,0,0,1-7.53,4.74l0-.11a22.72,22.72,0,0,0,6.5-5.16,3,3,0,0,0,.42-1.06l1.3,1.16c.11.11.15.16.15.27C405.19,28.1,404.89,28.1,404.8,28.1Zm-1.19-9.78a1.48,1.48,0,0,1-.37-.07,16.23,16.23,0,0,1-5.14,3.65l-.11-.14a27.7,27.7,0,0,0,3.49-3.14c.94-1,1-1.37,1.16-1.81l1.24,1A.28.28,0,0,1,404,18C404,18.22,403.85,18.32,403.61,18.32Zm.48,5a3.56,3.56,0,0,1-.54-.05,15.75,15.75,0,0,1-5.25,3.21l-.11-.16a18.37,18.37,0,0,0,3.67-2.84,6.38,6.38,0,0,0,1.29-1.74l1.19,1c.11.09.19.16.19.3S404.21,23.29,404.09,23.29Z"/><path class="cls-2" d="M407.75,25.09a1,1,0,1,1,1,1A1,1,0,0,1,407.75,25.09Zm6.11,0a1,1,0,0,1,1-1,1,1,0,1,1-1,1Zm6.14,0a1,1,0,0,1,2,0,1,1,0,0,1-1,1A1,1,0,0,1,420,25.09Z"/><path class="cls-2" d="M426.1,25.09a1,1,0,1,1,1,1A1,1,0,0,1,426.1,25.09Zm6.12,0a1,1,0,0,1,1-1,1,1,0,0,1,1,1,1,1,0,0,1-2,0Zm6.13,0a1,1,0,0,1,2,0,1,1,0,0,1-1,1A1,1,0,0,1,438.35,25.09Z"/></g></g></svg>