<svg xmlns="http://www.w3.org/2000/svg" viewBox="0 0 381.53 211.41"><defs><style>.cls-1{fill:#fff;}</style></defs><g id="レイヤー_2" data-name="レイヤー 2"><g id="レイヤー_1-2" data-name="レイヤー 1"><path class="cls-1" d="M13.26,160.24H4.81a9.18,9.18,0,0,0-1.54.14L3,159.86c.9.07,1.76.1,2,.1H7.9a9.24,9.24,0,0,0-.05-1.2c0-.1-.15-.52-.17-.6l1.16.36c.11,0,.17.08.17.16s-.07.21-.42.34V160h3.23l.47-.59c0-.06.13-.16.19-.16s.19.11.21.13l.62.57c.09.09.13.14.13.2S13.34,160.24,13.26,160.24Zm-.55,4.48c0,.48,0,2.63,0,3.08s0,1-1.31,1.41a.81.81,0,0,0-.22-.5,2.34,2.34,0,0,0-.82-.53v-.08l1.3,0c.37,0,.39-.16.39-.33,0-.49,0-2.65,0-3.1a.58.58,0,0,0,0-.15H4.53c0,.65,0,1.65,0,2.29,0,0,0,1,0,1.33,0,.55,0,.62-.1.7a.58.58,0,0,1-.45.24c-.25,0-.25-.22-.25-.3a.49.49,0,0,1,0-.12c.07-.82.09-1.93.09-3,0-.25,0-1,0-1.17-.06-.61-.07-.68-.07-.77l.9.48h7.16l.32-.39c.08-.09.11-.14.18-.14a.64.64,0,0,1,.15.06l.49.36c.13.1.14.13.14.18S12.87,164.6,12.71,164.72Zm-1.86-3.21c0,.1,0,.17,0,.83,0,.09,0,.66,0,.69a.4.4,0,0,1-.4.45c-.28,0-.28-.09-.28-.3,0,0,0-.08,0-.09H6.08a.51.51,0,0,1-.08.36,1,1,0,0,1-.49.17.15.15,0,0,1-.16-.17v0a10.7,10.7,0,0,0,.06-1.24,10.55,10.55,0,0,0-.1-1.52l.82.42h4l.19-.25a.19.19,0,0,1,.16-.1.31.31,0,0,1,.15.06l.45.31s.09.06.09.13S11,161.44,10.85,161.51Zm-.63,4.26c0,.42,0,1.11,0,1.52,0,.13,0,.2-.09.28a.45.45,0,0,1-.33.14c-.23,0-.23-.11-.22-.4H6.77c0,.27,0,.66-.49.66-.18,0-.18-.18-.18-.27s0-.62,0-.73,0-.55,0-.87a3.6,3.6,0,0,0-.09-1l.78.38H9.52l.2-.29c0-.06.07-.11.16-.11s0,0,.14.07l.42.29a.13.13,0,0,1,.08.13C10.52,165.64,10.43,165.68,10.22,165.77Zm0-4.42H6.08v1.45h4.14Zm-.6,4.37H6.77V167H9.62Z"/><path class="cls-1" d="M19,161.44H17.47v1.3c.66.09,1.67.6,1.67,1.17a.37.37,0,0,1-.36.41c-.23,0-.29-.11-.55-.59s-.55-.78-.76-.86c0,.44,0,2.39,0,2.78,0,.82.05,2.11.05,2.93,0,.19,0,.6-.51.6a.25.25,0,0,1-.26-.29c0-.3.07-.77.08-1.06,0-.63,0-1.05.06-4.9a10.42,10.42,0,0,1-2.4,3.62l-.08-.06a15.94,15.94,0,0,0,2.35-5.05h-.2a9.88,9.88,0,0,0-1.54.13l-.29-.51c.66.06,1.33.09,2,.09H17a7.26,7.26,0,0,0-.32-2.93l1.14.34a.19.19,0,0,1,.14.17c0,.12-.11.18-.4.33,0,1,0,1.73,0,2.09h.64l.18-.27c.07-.12.12-.16.18-.16s.07,0,.24.13l.38.28a.2.2,0,0,1,.12.18C19.21,161.42,19.12,161.44,19,161.44ZM24.87,169a7.38,7.38,0,0,1-3.17-2.28A7,7,0,0,1,18,168.89v-.12a8.61,8.61,0,0,0,3.35-2.53,8.14,8.14,0,0,1-1-3.25h.16a8.75,8.75,0,0,0,1.09,2.85c1.13-1.8,1.11-2.49,1.1-2.92l1,.53c.06,0,.16.09.16.17s-.28.22-.48.26A11.37,11.37,0,0,1,22,166.36a6.3,6.3,0,0,0,4,1.79v.1A1.84,1.84,0,0,0,24.87,169Zm-3.62-6.87-.27,0a7.71,7.71,0,0,1-1.92,1.27l0-.09a7.6,7.6,0,0,0,1.68-2l.72.54c.07.06.11.09.11.15S21.3,162.15,21.25,162.15Zm4-1.46H20.94a9,9,0,0,0-1.55.14l-.27-.53c.66.06,1.32.1,2,.1h.54a4.91,4.91,0,0,0-.32-2.11l1.11.25c.12,0,.23.05.23.18s-.21.25-.38.34c0,.12,0,.24,0,1.34h1.86l.37-.42c.12-.13.14-.16.2-.16s.13.06.22.15l.42.41c.07.07.12.1.12.19S25.38,160.69,25.29,160.69Zm-.49,2.61c-.21,0-.26-.07-.68-.69a5.51,5.51,0,0,0-1.27-1.38l0-.08c1.49.52,2.29,1.23,2.29,1.72A.4.4,0,0,1,24.8,163.3Z"/><path class="cls-1" d="M35.61,163.39l.56-.65c.08-.11.14-.16.2-.16s.1,0,.2.15l.71.7c.06.06.12.11.12.19s-.11.13-.18.13H28.74a9,9,0,0,0-1.53.13l-.29-.59c.89.06,1.61.1,2,.1Z"/><path class="cls-1" d="M49.33,165.81H44.81c0,.91,0,1,0,1.32s.05,1.35.05,1.57a.53.53,0,0,1-.55.6c-.27,0-.27-.15-.27-.42,0,0,.06-2.23.06-2.32s0-.22,0-.75H40.67a10.46,10.46,0,0,0-1.55.13l-.29-.52c.9.08,1.78.1,2,.1h.48v-.72c0-1.38,0-1.71,0-1.86,0-.31-.09-.67-.12-.93l1,.58h2v-2.32H42a8.43,8.43,0,0,1-3,2.85l-.07-.07a12.14,12.14,0,0,0,2.7-3.35,3.51,3.51,0,0,0,.61-1.6l1,.56a.2.2,0,0,1,.12.18c0,.23-.48.25-.57.26-.23.36-.39.59-.59.88H47.1l.47-.55c.12-.13.13-.16.19-.16a.42.42,0,0,1,.21.13l.69.56a.22.22,0,0,1,.12.19c0,.1-.1.12-.18.12H44.8v2.32h1.88l.38-.51s.11-.15.17-.15.2.11.23.12l.66.53a.23.23,0,0,1,.12.18c0,.11-.1.12-.18.12H44.8v.42c0,1,0,1.1,0,2.22h3l.52-.58c.12-.13.13-.14.18-.14s.2.11.23.12l.68.58a.21.21,0,0,1,.11.18C49.51,165.78,49.41,165.81,49.33,165.81ZM42,162.88v2.64h2.19c0-.6,0-2.12,0-2.64Z"/><path class="cls-1" d="M61.35,168.31H52.59a9.4,9.4,0,0,0-1.55.14l-.28-.52c.9.07,1.77.1,2,.1h3.11v-3.22h-1.6a8.33,8.33,0,0,0-1.53.15l-.29-.52c.9.07,1.78.08,2,.08h1.43c0-.8,0-1,0-2.68H53.16a9.27,9.27,0,0,1-2.2,3.68l-.1-.07A16.45,16.45,0,0,0,53,159.51a1.34,1.34,0,0,0,0-.23l1.15.58a.22.22,0,0,1,.11.18.23.23,0,0,1-.19.21c-.05,0-.29.11-.34.13-.12.37-.23.69-.42,1.17h2.58c0-.35,0-1.89,0-2.21a4,4,0,0,0-.27-1.05l1.26.35c.07,0,.19.08.19.18a.31.31,0,0,1-.11.19c0,.06-.27.26-.32.31,0,.35,0,1.92,0,2.23H59.1l.38-.52c.06-.08.11-.14.17-.14a.51.51,0,0,1,.23.12l.68.52a.23.23,0,0,1,.12.19c0,.11-.11.12-.18.12H56.56c0,.86,0,1.86,0,2.68h1.93l.38-.51c.09-.14.12-.14.18-.14s.09,0,.22.11l.63.52c.06.06.12.11.12.19s-.11.12-.19.12H56.54c0,.52,0,2.76,0,3.22h3.35l.51-.55c.11-.13.12-.14.18-.14a.4.4,0,0,1,.23.12l.62.54c.07.06.12.1.12.18S61.44,168.31,61.35,168.31Z"/><path class="cls-1" d="M63.15,167.07a1.74,1.74,0,0,1,1.74-1.75,1.75,1.75,0,1,1,0,3.49A1.74,1.74,0,0,1,63.15,167.07Zm3.15,0a1.42,1.42,0,1,0-1.41,1.41A1.4,1.4,0,0,0,66.3,167.07Z"/><path class="cls-1" d="M12.75,189.93a8.94,8.94,0,0,1-4.35-2.46,2.5,2.5,0,0,1-.22.24,10,10,0,0,1-5.1,2.54v-.14a9.14,9.14,0,0,0,4.86-3.17A9.38,9.38,0,0,1,6.19,182H4.77a10.46,10.46,0,0,0-1.55.13l-.28-.51c.9.07,1.77.09,2,.09h3a5.19,5.19,0,0,0-.31-2.48l1.27.28c.09,0,.17,0,.17.15a.28.28,0,0,1-.15.23l-.29.2c0,.35,0,1.23,0,1.62H12.2l.45-.56s.12-.14.2-.14a.47.47,0,0,1,.2.12l.66.56c.06.06.11.09.11.18s-.1.13-.18.13h-3.4l.7.37c.06,0,.12.09.12.15s-.26.26-.54.32A9.85,9.85,0,0,1,8.81,187a7.33,7.33,0,0,0,5,1.92V189A1.69,1.69,0,0,0,12.75,189.93ZM6.47,182a8,8,0,0,0,1.83,4.44A8.82,8.82,0,0,0,9.8,182Z"/><path class="cls-1" d="M25.33,185.63H20.06c-.12.18-1.4,2.17-1.91,2.88,1.75-.11,3.26-.23,4.55-.41a7.91,7.91,0,0,0-1.56-1.42v-.06c1.53.38,3.23,1.63,3.23,2.54,0,.29-.17.47-.38.47s-.4-.23-.5-.4a5.31,5.31,0,0,0-.62-.92,35.82,35.82,0,0,1-3.56.66l-3,.42-.13.22c0,.11-.07.17-.14.17s-.07,0-.16-.23l-.47-1.07a1.4,1.4,0,0,0,.62.09c.66,0,1.09,0,1.71,0,.11-.23.55-1.22.65-1.42a13.91,13.91,0,0,0,.61-1.47H16.59a9.16,9.16,0,0,0-1.54.15l-.29-.52c.63.05,1.37.08,2,.08H24l.34-.47c.05-.08.11-.17.19-.17a.53.53,0,0,1,.25.14l.58.47a.27.27,0,0,1,.12.19C25.51,185.63,25.39,185.63,25.33,185.63Zm-.13-4.41H22c0,.17,0,1,0,1.05s0,.27-.15.34a.55.55,0,0,1-.33.12.23.23,0,0,1-.24-.25c0-.11,0-.57,0-.65s0-.41,0-.61H19.07c0,.12,0,1.09,0,1.14s0,.24-.13.31a.86.86,0,0,1-.31.08.19.19,0,0,1-.22-.21c0-.11,0-.59,0-.69s0-.31,0-.63H17a8.83,8.83,0,0,0-1.55.13l-.28-.51c.66.06,1.32.09,2,.09h1.34a3.68,3.68,0,0,0-.22-1.61l1.05.32s.13,0,.13.12,0,.14-.36.39v.78h2.28a4.32,4.32,0,0,0-.21-1.65l1.05.31a.15.15,0,0,1,.13.17c0,.12,0,.15-.34.36,0,.45,0,.5,0,.81h1.76l.47-.54c.07-.08.13-.14.19-.14s.18.09.23.13l.63.52c.09.07.13.13.13.19S25.27,181.22,25.2,181.22Zm-1.13,2.42H17.81a9.17,9.17,0,0,0-1.55.15l-.27-.52c.66,0,1.32.08,2,.08h4.81l.39-.48c.05-.06.12-.15.19-.15a.34.34,0,0,1,.22.12l.53.48c.05.05.13.11.13.19S24.15,183.64,24.07,183.64Z"/><path class="cls-1" d="M33.14,184.61h-4.4a9,9,0,0,0-1.53.15l-.29-.53c.66.06,1.33.1,2,.1h1.22a7.8,7.8,0,0,0,.71-2.75l.94.43c.08,0,.15.1.15.18s-.13.22-.47.37c-.39.6-.89,1.37-1.18,1.77H32l.31-.41c.06-.07.13-.17.19-.17s.13.05.23.13l.44.42a.24.24,0,0,1,.12.19C33.32,184.6,33.22,184.61,33.14,184.61Zm-.31-3.26H29.08a10,10,0,0,0-1.55.14l-.29-.51c.67.05,1.33.08,2,.08h.37a5,5,0,0,0-.21-1.75l1.05.29c.18.05.25.1.25.19s-.12.17-.41.34a7.71,7.71,0,0,0-.05.93h1.53l.3-.37c.07-.09.13-.17.19-.17s.11,0,.24.16l.38.35a.28.28,0,0,1,.12.2C33,181.33,32.92,181.35,32.83,181.35Zm-.83,5c0,.22,0,.41,0,.88,0,.29,0,1.55,0,1.81,0,.6-.47.6-.51.6s-.19-.06-.18-.26c0,0,0-.2,0-.33H28.68c0,.07,0,.24,0,.31a.51.51,0,0,1-.53.51.21.21,0,0,1-.23-.24c0-.06.05-.67.05-.79s0-.81,0-1.54a13.78,13.78,0,0,0-.1-1.91l.87.46h2.38l.22-.23c.11-.11.14-.14.2-.14s.09,0,.19.11l.36.26c.09.07.15.11.15.2S32.22,186.23,32,186.36Zm-2.92-2.54c-.35,0-.39-.29-.46-.74a2.32,2.32,0,0,0-.43-1.14l.06,0c.56.24,1.24.79,1.24,1.42C29.49,183.69,29.25,183.82,29.08,183.82Zm2.29,2.33h-2.7v2.62h2.7Zm4.39,2.78a1.73,1.73,0,0,0-.84-1v-.11a4.21,4.21,0,0,0,.83.08c.92,0,1.19-.31,1.19-.9a4.06,4.06,0,0,0-1.79-3.15c.09-.3.59-1.82.6-1.88s.08-.29.41-1.53H34.33c0,1.65,0,3.67,0,5.51,0,1,.07,2.65.07,3.66,0,.14,0,.36-.11.45a.67.67,0,0,1-.42.16c-.23,0-.22-.17-.21-.69,0-2.35,0-4.71,0-7.07a24.2,24.2,0,0,0-.11-2.75l.84.45h1.6l.27-.27a.33.33,0,0,1,.23-.12.29.29,0,0,1,.2.1l.53.42c.1.08.14.14.14.23s-.08.18-.43.32c-.18.28-.85,1.53-1,1.79s-.57,1-.65,1.15a5.36,5.36,0,0,1,1.48,1.29,3.76,3.76,0,0,1,.82,2.14C37.65,188.37,36.56,188.71,35.76,188.93Z"/><path class="cls-1" d="M44.5,188.93c3.58-1.23,3.75-3.81,3.75-4.44,0-2.1-2-3.22-3.75-3.22a1.14,1.14,0,0,0-.45.06c.59.49.59.85.59.91s0,.19-.29.72a27.86,27.86,0,0,1-2.28,4.39c-.06.08-.44.65-.68.74a.48.48,0,0,1-.23,0c-.27,0-.36-.13-.69-.61a2,2,0,0,0-.33-.33,1.78,1.78,0,0,1-.62-1.62,4.85,4.85,0,0,1,5.1-4.67c2.19,0,4.36,1.24,4.36,3.73a4.62,4.62,0,0,1-4.46,4.42Zm-1.36-4.66a5.86,5.86,0,0,0,.71-2.09,1.11,1.11,0,0,0-.34-.77,4.4,4.4,0,0,0-3.37,4.23c0,.92.58,1.72,1,1.72a.29.29,0,0,0,.22-.08,4.76,4.76,0,0,0,.7-1.06Z"/><path class="cls-1" d="M61.47,184.65h-4c0,.3-.06,3.56-.06,4,0,.24,0,.46.17.55a4.9,4.9,0,0,0,1.46.14c1,0,1.24,0,1.49-.57a7,7,0,0,0,.42-1.89H61c0,1.56.26,1.93.31,2,.2.18.24.21.24.33a.68.68,0,0,1-.43.51,4.11,4.11,0,0,1-1.78.22,12.19,12.19,0,0,1-2.13-.13c-.46-.15-.46-.51-.46-.8s0-1.34,0-1.57c0-1.3,0-1.44,0-2.76H54.67l.7.35c.11,0,.17.1.17.19a.16.16,0,0,1-.11.13,1.55,1.55,0,0,1-.29.14,5.11,5.11,0,0,1-1,3,4.91,4.91,0,0,1-3.37,1.76v-.11c1.71-.65,3-1.54,3.4-3a6.09,6.09,0,0,0,.28-1.79,2.37,2.37,0,0,0-.09-.69H52.62a10.37,10.37,0,0,0-1.54.14l-.28-.51c.9.07,1.76.08,2,.08h3.05V182H53.2a11.31,11.31,0,0,1-1.41,1.92l-.09,0a18.09,18.09,0,0,0,1.59-3.74,3,3,0,0,0,0-.65l1,.48s.17.09.17.2-.1.15-.54.28a7.48,7.48,0,0,1-.56,1.26h2.47v-1.72c0-.11-.06-.38-.14-.68l1.12.3c.1,0,.17.06.17.16s-.31.32-.47.43c0,.24,0,1.3,0,1.51h2.36l.43-.51s.12-.15.19-.15a.72.72,0,0,1,.23.12l.65.53a.25.25,0,0,1,.11.18c0,.11-.1.12-.18.12H56.5v2.41H60l.47-.51c.12-.14.13-.16.18-.16s.21.12.22.13l.66.52a.26.26,0,0,1,.12.19C61.65,184.64,61.56,184.65,61.47,184.65Z"/><path class="cls-1" d="M73.42,188.86h-5c0,.17,0,1,0,1a.52.52,0,0,1-.47.28c-.23,0-.23-.15-.23-.24s.05-.92.05-1.07H64.56A10.24,10.24,0,0,0,63,189l-.29-.51c.9.07,1.77.08,2,.08H67.8c0-.13,0-.79,0-.87H65.59c.06.34-.28.43-.42.43s-.27,0-.27-.19a2.6,2.6,0,0,1,0-.39c0-.55,0-1.22,0-1.77a4.76,4.76,0,0,0,0-.74l.71.3h2.17v-.67H65a8.19,8.19,0,0,0-1.54.15l-.28-.52c.89.07,1.76.09,2,.09h2.65c0-1,0-1.11-.17-1.42l.88.19c.1,0,.19.06.19.17s-.17.25-.27.32a5.53,5.53,0,0,0,0,.74H71.7l.3-.45s.12-.17.19-.17a.48.48,0,0,1,.22.12l.55.47c.07.06.12.11.12.19s-.11.12-.18.12H68.42v.67h2.17l.22-.25c.08-.09.11-.12.14-.12a.37.37,0,0,1,.18.1l.4.26a.27.27,0,0,1,.1.17c0,.1-.21.23-.33.31,0,.28.07,1.33.07,1.63s0,.28-.09.36a.46.46,0,0,1-.35.17c-.23,0-.22-.19-.2-.27H68.44v.87h3.69l.39-.51c.06-.09.12-.17.2-.17s.1,0,.2.13l.56.52c.1.1.12.16.12.2S73.47,188.86,73.42,188.86Zm-6.15-9c0,1.42-.2,3.73-2.78,4.3l0-.08a3.72,3.72,0,0,0,1.87-1.92c-1.48.48-1.63.53-2.47.74,0,.1-.07.25-.24.25s-.18-.19-.2-.25l-.32-.74.75,0c.14,0,2.42-.12,2.53-.14a3.1,3.1,0,0,0,.17-.66H65.37a10.46,10.46,0,0,0-1.55.13l-.28-.51c.9.07,1.77.09,2,.09h1c0-.41,0-.53,0-.71H65.17a8.17,8.17,0,0,0-1.53.15l-.29-.53c.9.08,1.78.1,2,.1h1.25a2.12,2.12,0,0,0-.16-.94l1,.23c.07,0,.16.06.16.15S67.4,179.8,67.27,179.88Zm.55,5.75H65.57v.67h2.25Zm0,1H65.57v.82h2.25Zm2.92-1H68.42v.67h2.32Zm0,1H68.42c0,.15,0,.54,0,.82h2.3Zm2.24-3.9h-3c0,.22,0,.6,0,.66a.46.46,0,0,1-.5.45c-.18,0-.22-.1-.22-.19s0-.09,0-.21,0-.77,0-3.51a4,4,0,0,0-.07-.69l.86.23c.09,0,.17,0,.17.13s-.13.21-.34.33v.21h1.76l.32-.4c.09-.11.13-.17.19-.17a.41.41,0,0,1,.22.13l.49.41a.3.3,0,0,1,.12.2c0,.11-.08.12-.18.12H69.88v.88h1.64l.22-.34c.06-.09.1-.14.16-.14s.1,0,.24.12l.44.33a.25.25,0,0,1,.12.18c0,.11-.11.13-.18.13H69.89c0,.14,0,.74,0,.86h2l.22-.32c0-.07.1-.16.18-.16s.07,0,.22.13l.47.32a.24.24,0,0,1,.12.18C73.16,182.68,73.07,182.69,73,182.69Z"/><path class="cls-1" d="M76.36,182.15a8.57,8.57,0,0,0,2-.44c1.78-.48,5.36-1.23,5.51-1.23s.86.21.86.56-.3.31-.46.31l-.72,0a3.54,3.54,0,0,0-2.69.93,4.39,4.39,0,0,0-1.6,3.22c0,2.1,2.12,2.69,3,2.86.33.06.51.08.67.3a.55.55,0,0,1,.14.32c0,.19-.17.23-.3.23-1.24,0-4-.91-4-3.59,0-2.06,1.53-3.28,2.79-4.28-.72.21-1.61.42-2.41.61a7.75,7.75,0,0,0-2.54,1,.8.8,0,0,1-.35.12,1,1,0,0,1-.79-1,.87.87,0,0,1,.08-.39C75.9,182.07,76,182.15,76.36,182.15Zm6.81.81c.8.5.9.8.9,1.08,0,.12,0,.37-.25.37s-.21-.12-.29-.26a5.14,5.14,0,0,0-1.48-1.59A2.65,2.65,0,0,1,83.17,183Zm2.29.57c0,.29-.15.33-.21.33s-.22-.13-.34-.3a6.26,6.26,0,0,0-1.56-1.43C84.14,182.25,85.46,182.75,85.46,183.53Z"/><path class="cls-1" d="M92.53,189.83a6.39,6.39,0,0,0,1.37-.48A3.17,3.17,0,0,0,96,186.51a2,2,0,0,0-1-1.82,3.28,3.28,0,0,0-1-.39,11.39,11.39,0,0,1-1,1.5,6.15,6.15,0,0,1-1.37,1.5,2.37,2.37,0,0,0,.14.3c.24.46.24.52.24.65a.28.28,0,0,1-.28.32c-.35,0-.64-.75-.67-.84A5.91,5.91,0,0,1,88.71,189c-.42,0-.52-.18-.69-.5l-.3-.39a.8.8,0,0,1-.15-.5c0-.7.84-2.29,3.09-3.22a15.64,15.64,0,0,1,.28-1.91,9.21,9.21,0,0,1-1.63.17,1.32,1.32,0,0,1-1.3-.7,4.13,4.13,0,0,0,1.37.23,8.26,8.26,0,0,0,1.65-.19c0-.13.18-.69.19-.79a7,7,0,0,0,.12-.88c0-.42-.43-.66-.66-.79a.48.48,0,0,1,.29-.07,1.35,1.35,0,0,1,1.33.74c0,.07,0,.1-.12.34a7.75,7.75,0,0,0-.5,1.29c.68-.18,1.06-.32,1.76-.57a.94.94,0,0,1,.29-.09c.22,0,.65.28.65.4s-.17.18-.73.33c-.82.22-1.91.44-2.11.48a10.22,10.22,0,0,0-.3,1.8,6.76,6.76,0,0,1,2.12-.28.93.93,0,0,0-.08-.28,3.63,3.63,0,0,1-.22-.42,1.09,1.09,0,0,1,1.06.77c1.24.23,2.72.86,2.72,2.61a3.22,3.22,0,0,1-1.87,2.8,4.56,4.56,0,0,1-2.44.61Zm-1.88-5c-1.38.67-2.5,1.94-2.5,2.86a.59.59,0,0,0,.6.67,5.76,5.76,0,0,0,2.19-1.06A8.19,8.19,0,0,1,90.65,184.82Zm.84,2a11,11,0,0,0,1.8-2.62,5.69,5.69,0,0,0-2.07.37A7.67,7.67,0,0,0,91.49,186.81Z"/><path class="cls-1" d="M102.3,180.81a14.38,14.38,0,0,0,2.2-.49,4.06,4.06,0,0,1,.62-.16,1,1,0,0,1,.79.77c0,.15,0,.16-.27.34a2.06,2.06,0,0,0-.53.49l-2.21,2.73c-.15.21-.33.43-.62.84a5.75,5.75,0,0,1,3-1c1.74,0,2.62,1,2.62,2.28,0,1.59-1.45,2.72-3.32,2.72-1,0-2.3-.4-2.3-1.31s.76-1,1.22-1c1,0,1.55.64,1.86,1.64a2.18,2.18,0,0,0,1.82-2.16,1.84,1.84,0,0,0-2-1.87c-2.27,0-4,2.17-4.13,2.38-.3.5-.44.74-.7.74s-.27-.12-.27-.39a.85.85,0,0,1,.39-.77c1.87-1.8,4.35-5.22,4.35-5.72a.15.15,0,0,0-.17-.17,6.83,6.83,0,0,0-1.81.61,1.49,1.49,0,0,1-.47.24,1.24,1.24,0,0,1-1-1.07.28.28,0,0,1,.12-.24A.79.79,0,0,0,102.3,180.81Zm1,6.71a.51.51,0,0,0-.58.49c0,.61,1.28.87,1.61.87a1.07,1.07,0,0,0,.41-.07A1.68,1.68,0,0,0,103.33,187.52Z"/><path class="cls-1" d="M121.14,182.21a2.58,2.58,0,0,1-.39,0c-.16.14-.86.79-1,.92l-.12-.08a5.33,5.33,0,0,0,.45-1.4h-3.78c0,.28,0,1.48,0,1.73s0,1.07,0,1.25a.52.52,0,0,1-.46.47.31.31,0,0,1-.3-.29c0-.06,0-.3,0-.35,0-.26.06-2.45.07-2.81h-3.58c0,1-.37,1.53-.88,1.53a.35.35,0,0,1-.38-.36c0-.19.1-.33.41-.6a1.63,1.63,0,0,0,.63-1.24H112a2.66,2.66,0,0,1,.07.39h3.6v-1h-1.74a10.57,10.57,0,0,0-1.55.13l-.27-.52c.9.08,1.76.1,2,.1H119l.23-.36c.11-.17.14-.18.19-.18a.53.53,0,0,1,.22.12l.51.4a.23.23,0,0,1,.12.18c0,.1-.09.13-.18.13h-3.81v1H120l.37-.21a.62.62,0,0,1,.19-.07c.08,0,.16.09.2.12l.52.59a.58.58,0,0,1,.15.29C121.38,182.21,121.2,182.21,121.14,182.21ZM120,185.92l-.29.23c0,.79,0,1.58,0,2.49,0,.27,0,.7,0,1a.52.52,0,0,1-.5.55c-.25,0-.26-.21-.26-.38s0-.4,0-.46h-5.35a8.46,8.46,0,0,0-1.55.15l-.27-.52c.9.07,1.76.09,2,.09h5.19v-1.5h-5a10.5,10.5,0,0,0-1.55.14l-.28-.51c.9.07,1.76.08,2,.08h4.86v-1.32h-5.2a10.24,10.24,0,0,0-1.55.13l-.29-.51c.9.07,1.78.09,2,.09h4.91l.27-.37c.06-.08.11-.16.2-.16a.21.21,0,0,1,.15.07l.53.35c.07.06.13.11.13.18S120.12,185.86,120,185.92Zm-5.19-1.41H113a3,3,0,0,0-.66.07l-.12-.4.85,0h1.11l.15-.24c0-.06.12-.17.18-.17s.18.14.2.14l.16.23a.33.33,0,0,1,.1.21C115,184.48,114.91,184.51,114.83,184.51Zm0-1.49h-1.6a2.9,2.9,0,0,0-.66.06l-.12-.4c.21,0,.67,0,.85,0h1l.13-.19c.06-.1.11-.17.17-.17s.17.13.19.17l.1.15c.07.12.08.16.08.2S114.88,183,114.79,183Zm4.19,0h-1.37a3.68,3.68,0,0,0-.66.06l-.12-.4c.22,0,.67,0,.85,0h.78l.09-.14c0-.05.09-.16.16-.16s.18.11.21.14l.12.14a.31.31,0,0,1,.12.18C119.16,183,119.07,183,119,183Zm.44,1.47h-1.77a4.91,4.91,0,0,0-.66.06l-.12-.38.85,0h1.15L119,184c0-.07.1-.15.16-.15s.16.11.18.14l.15.22a.46.46,0,0,1,.09.21C119.61,184.48,119.49,184.49,119.42,184.49Z"/><path class="cls-1" d="M133.1,183.7c-.06,0-.38.19-.45.22,0,.23,0,.41-.16,2-.28,3.45-1.54,3.92-3,4a1.31,1.31,0,0,0-.39-.76,3.55,3.55,0,0,0-1-.74l0-.11a7.86,7.86,0,0,0,2.22.48.94.94,0,0,0,.86-.48,9.68,9.68,0,0,0,.73-4.08c0-.14,0-.54,0-.69h-2.31c0,.31-.07.78-.53.78a.28.28,0,0,1-.31-.27s0-.07,0-.12c.07-.33.41-2.41.53-3.17a1.73,1.73,0,0,0,0-.33h-2.51c0,.3,0,1-.07,2-.11,1.66-.45,6-4.13,7.48l-.07-.09a8.56,8.56,0,0,0,2.76-3.54c.73-1.74.73-3.07.73-5.83h-.67a9,9,0,0,0-1.54.15l-.28-.52c.62,0,1.36.08,2,.08h3.61l.31-.31a.34.34,0,0,1,.24-.13c.05,0,.11,0,.24.11l.56.43a.21.21,0,0,1,.11.18c0,.12-.1.17-.59.42-.12.5-.28,1.81-.37,2.41h2.1l.36-.4s.13-.13.22-.13a.32.32,0,0,1,.21.1l.58.49s.13.11.13.19A.21.21,0,0,1,133.1,183.7Z"/><path class="cls-1" d="M138.24,184.72c-.08.36-.49,2-.57,2.28a6.18,6.18,0,0,0-.26,1.38c0,.13.06.83.06.84s0,.31-.22.31-.4-.23-.51-.41a5.62,5.62,0,0,1-.66-3.07,7.38,7.38,0,0,1,.09-1.14l.38-2.62a5.31,5.31,0,0,0,.07-.88,1.5,1.5,0,0,0-.37-1.09c.55-.08,1.2.65,1.2,1.09a4.58,4.58,0,0,1-.19.66,14.82,14.82,0,0,0-.69,4c0,1,.21,1.74.35,1.74s.13-.18.13-.19c.38-1.15.57-1.62,1.1-2.93Zm2.3,2.74a5.64,5.64,0,0,0,2,.33,7.46,7.46,0,0,0,1.27-.11h.2c.2,0,.84.16.84.46s-.41.33-1.15.33a9.43,9.43,0,0,1-3.26-.5,1.6,1.6,0,0,1-.84-1.4.9.9,0,0,1,.06-.36C139.88,186.81,140,187.22,140.54,187.46Zm.79-4.57a9.23,9.23,0,0,0,1.24-1.11c0-.09-.35-.09-.37-.09a8.56,8.56,0,0,0-2.33.51,4.07,4.07,0,0,1,2.68-1c.73,0,1.71.2,1.71.57,0,.21-.17.24-.61.33a5.94,5.94,0,0,0-2.25.92Z"/><path class="cls-1" d="M152.09,184.05c-.17.34-1.44,2.95-1.49,3.07a1.41,1.41,0,0,0-.08.44c0,.09.08.47.08.56s-.08.26-.3.26-1.5-.1-2.1-2.62a14.57,14.57,0,0,1-.24-2.49,3.35,3.35,0,0,0-.57-2,1.51,1.51,0,0,1,1.33,1.23,2.06,2.06,0,0,1-.07.52,5.08,5.08,0,0,0-.09,1c0,.67.16,2.36.9,3,0,0,.16.13.27.13a.35.35,0,0,0,.28-.18c.89-1.39,1-1.52,1.85-2.78A.94.94,0,0,1,152,184Zm2.72,1.46,1.1-.17a.31.31,0,0,0,.32-.3A3.86,3.86,0,0,0,154,182.2a1.2,1.2,0,0,1,.37-.07,2.06,2.06,0,0,1,1.37.74A5.06,5.06,0,0,1,157,185.7c0,.36-.15.72-.33.72s-.12,0-.42-.27a2.58,2.58,0,0,0-1.48-.55Z"/><path class="cls-1" d="M161.76,187.91a12.73,12.73,0,0,0,5-1.26,2.8,2.8,0,0,0,1.5-2.43,2.38,2.38,0,0,0-2.51-2.27,9.52,9.52,0,0,0-5.11,2.34c-.23.2-.32.27-.49.27a1.26,1.26,0,0,1-.95-1.07.87.87,0,0,1,.1-.38.92.92,0,0,0,.68.44,1.71,1.71,0,0,0,.79-.28c1.89-1,3-1.66,4.8-1.66,2.27,0,3.41,1.38,3.41,2.85,0,2-1.85,3-4,3.39a14.67,14.67,0,0,1-3.18.17Z"/><path class="cls-1" d="M176.89,184c1,.6,2.59,1.61,2.59,3.42a2.44,2.44,0,0,1-2.61,2.3,2.65,2.65,0,0,1-2-.83,2.53,2.53,0,0,1-.43-1.56,7.1,7.1,0,0,1,.13-1.19c-.77-.34-1.55-.83-1.55-1.53,0-.51.28-.73,1.29-1.52.09-.07.12-.12.12-.19s0-.11-.12-.18c-.88-.58-1-.65-1.1-.85a1,1,0,0,1-.13-.54,4.44,4.44,0,0,0,2.22,1.11,13.8,13.8,0,0,0,.37-2.15,1.29,1.29,0,0,0-.65-1,1.1,1.1,0,0,1,.35-.06,1.34,1.34,0,0,1,1.21,1c0,.11,0,.17-.2.6a12.88,12.88,0,0,0-.58,1.73.51.51,0,0,1,.33.46c0,.24-.16.23-.51.21-.06.26-.33,1.38-.52,2.44a4.8,4.8,0,0,0,.92.1c.44,0,.79.3.79.54s-.13.22-.54.22a4,4,0,0,1-1.28-.24,4.77,4.77,0,0,0-.06.81,2.29,2.29,0,0,0,.32,1.32,1.92,1.92,0,0,0,1.57.76,1.84,1.84,0,0,0,1.91-1.86,4.69,4.69,0,0,0-1.92-3.26Zm-2.43-.66a1.8,1.8,0,0,0-1,1.29c0,.55.63.81,1.17,1,.21-1.31.37-2,.47-2.38A1,1,0,0,0,174.46,183.35Z"/><path class="cls-1" d="M184.44,186.77l-.26,0a8,8,0,0,1-1.35,2.37l-.07,0a9.67,9.67,0,0,0,.79-3.15l.83.41c.09,0,.18.09.18.19A.17.17,0,0,1,184.44,186.77Zm2.64-1.46c-.21,0-.25-.06-.49-.6-.17,0-.43.12-1,.24v1.41c0,1.61,0,1.78,0,2.86,0,.09,0,.26,0,.27,0,.54-.4.57-.49.57s-.21-.22-.21-.27.06-.72.06-.86c0-.64,0-1,0-3.85l-1.11.24c-.09,0-.18,0-.35.08,0,.26,0,.33-.19.33s-.13-.06-.15-.17l-.32-1a3.65,3.65,0,0,0,1.58.12,13.29,13.29,0,0,0,1.51-2.95,1.46,1.46,0,0,0,.1-.72l.89.51c.13.07.18.11.18.19s-.11.18-.47.23a16.78,16.78,0,0,1-2,2.73l.55,0,1.28-.11a3,3,0,0,0-.59-.75v0c.9.22,1.52.67,1.52,1.15A.36.36,0,0,1,187.08,185.31Zm-1.51-5-.59.88c-.25.37-.45.64-.57.79.34.23.45.44.45.66a.36.36,0,0,1-.37.38c-.26,0-.32-.1-.55-.52a3.54,3.54,0,0,0-.86-1l0-.05a5.92,5.92,0,0,1,1.19.43,8.1,8.1,0,0,0,.68-2.34.68.68,0,0,0,0-.19l.93.49c.11.06.19.1.19.22S185.81,180.27,185.57,180.3Zm1.56,7.74c-.34,0-.4-.26-.53-.78a2.26,2.26,0,0,0-.55-1v0c1.15.38,1.45,1.12,1.45,1.47A.37.37,0,0,1,187.13,188Zm6-2.56a8.91,8.91,0,0,1-2.78-1.69,7.26,7.26,0,0,1-3.46,2.21v-.07a8.67,8.67,0,0,0,3.09-2.55,5.46,5.46,0,0,1-1-1.87,6.78,6.78,0,0,1-1.84,1.92l-.07,0a10.35,10.35,0,0,0,1.74-2.77c.42-.91.42-1.09.42-1.34l.88.5c.09.05.18.1.18.19s-.12.17-.48.24c-.16.28-.29.52-.54.9h2l.26-.25c.14-.14.15-.16.2-.16s.1.05.17.12l.43.42a.25.25,0,0,1,.1.18c0,.06,0,.11-.18.16l-.48.14a9.85,9.85,0,0,1-1.14,1.74,6.48,6.48,0,0,0,3.41,1.21v0C193.5,184.84,193.37,185.06,193.11,185.48Zm-1.09.8c0,1.28,0,2.3.09,3a2.5,2.5,0,0,1,0,.25.45.45,0,0,1-.43.42c-.25,0-.25-.14-.25-.72h-2.39a2,2,0,0,1,0,.55.56.56,0,0,1-.42.25c-.18,0-.23-.07-.23-.25,0,0,0-.23,0-.35,0-.33.05-2.09.05-2.48a11.06,11.06,0,0,0-.08-1.55l.84.39h2.13l.2-.24s.12-.16.21-.16.17.12.21.17l.3.3s.1.11.1.16S192.07,186.27,192,186.28Zm-.57-.2h-2.39v2.86h2.39Zm-2.35-4.68a4.18,4.18,0,0,0,1.07,1.69,9.69,9.69,0,0,0,1-1.69Z"/><path class="cls-1" d="M200.35,180.56c0-.5-.09-.55-.89-.92a.85.85,0,0,1,.6-.18c.63,0,1.13.43,1.13.72,0,0-.06.27-.12.52s-.09.53-.14.89a13,13,0,0,0,1.87-.55,1.32,1.32,0,0,1,.3-.07c.21,0,.65.21.65.38s-.16.22-.22.24a12.76,12.76,0,0,1-2.66.6c0,.5-.05,1.25,0,1.92a11,11,0,0,0,1.59-.49.51.51,0,0,1,.21-.06c.22,0,.62.14.62.35s-.14.25-.26.3-1.31.3-2.15.45c0,.49.14,2.15.17,2.75,1.37.32,2.56.9,2.56,1.49a.31.31,0,0,1-.27.33c-.09,0-.14,0-.55-.31a6.53,6.53,0,0,0-1.69-.79,1.27,1.27,0,0,1-.47,1.1,2.61,2.61,0,0,1-1.46.41c-1.22,0-2-.6-2-1.19a1,1,0,0,1,.6-.83,5,5,0,0,1,2.05-.37,5.48,5.48,0,0,1,.64,0c0-.4-.11-2.16-.12-2.52a13.92,13.92,0,0,1-1.81.14c-.72,0-1.17-.13-1.17-.55a.73.73,0,0,1,.59-.59.66.66,0,0,0-.19.37c0,.23.25.27.86.27a9.91,9.91,0,0,0,1.71-.17c0-.66,0-1,0-2-.48.05-2.07.22-2.42.22a1.74,1.74,0,0,1-1.58-.81,3.67,3.67,0,0,0,1.55.3,20.16,20.16,0,0,0,2.47-.26C200.32,181.53,200.35,180.73,200.35,180.56Zm-1.26,7.23c-.79,0-1.58.21-1.58.69s.53.62,1.44.62c.5,0,1.57-.15,1.44-1.19A5.13,5.13,0,0,0,199.09,187.79Z"/><path class="cls-1" d="M218,186.94a5.86,5.86,0,0,1-1.28,1.24,2.69,2.69,0,0,1-1.37.45,1.48,1.48,0,0,1-1.2-.68,2.52,2.52,0,0,1-.27-1.31c0-.31.09-1.14.19-2s.19-1.65.19-1.93-.11-.74-.56-.74c-.84,0-2.44,1.59-3.53,3.14a18.34,18.34,0,0,0,.11,2.5,7.37,7.37,0,0,1,.05.8,3.19,3.19,0,0,1-.17,1,.22.22,0,0,1-.19.15c-.22,0-.29-.29-.35-.51a6.19,6.19,0,0,0-.49-1.21l.06,0a2.24,2.24,0,0,0,.53.45c.08,0,.09-.09.09-.14,0-.39-.09-2-.09-2.39-.23.35-1.48,2.38-1.61,2.6s-.15.25-.29.25-.25-.17-.25-.46a.79.79,0,0,1,.29-.66,13.17,13.17,0,0,0,1.87-3.29c0-.38,0-.5.08-1l-1.16.63c-.34.18-.39.19-.48.19-.41,0-.7-.64-.7-1a.32.32,0,0,1,0-.17.93.93,0,0,0,.69.41,9.18,9.18,0,0,0,1.68-.6c0-.27.16-1.54.16-1.72,0-.63-.33-.74-1-.92a1.73,1.73,0,0,1,.69-.15,1,1,0,0,1,1.06.8,2,2,0,0,1-.16.58,10.06,10.06,0,0,0-.24,1.14c.14,0,.44.28.44.43s0,.08-.27.49a4.71,4.71,0,0,0-.36.73c0,.21,0,.53,0,.66,1.06-1.51,2.69-3.12,3.68-3.12a1.07,1.07,0,0,1,1,1.2,5,5,0,0,1-.09.9,25,25,0,0,0-.34,3.05c0,.85.15,1.16.85,1.16a5.38,5.38,0,0,0,2.6-1Z"/><path class="cls-1" d="M224.4,181.31c.34-.08,2.89-.58,3-.61a2.47,2.47,0,0,1,.58-.1c.44,0,.89.31.89.56s-.27.32-.42.32l-1.08,0c-2.34,0-4,2.44-4,4.28s1.68,2.46,3,2.72c.32.06.81.16.81.62,0,.21-.2.27-.38.27a6.28,6.28,0,0,1-2-.62,3.42,3.42,0,0,1-1.95-3c0-1.12.62-2.75,2.81-4.29a22.1,22.1,0,0,0-4.75,1.41c-.38.18-.42.21-.48.21a1,1,0,0,1-.81-1.07.88.88,0,0,1,.1-.45,1,1,0,0,0,.91.63,3.35,3.35,0,0,0,.53-.07Z"/><path class="cls-1" d="M236.09,184.05c-.17.34-1.44,2.95-1.49,3.07a1.41,1.41,0,0,0-.08.44c0,.09.08.47.08.56s-.08.26-.3.26-1.5-.1-2.1-2.62a14.57,14.57,0,0,1-.24-2.49,3.35,3.35,0,0,0-.57-2,1.51,1.51,0,0,1,1.33,1.23,2.06,2.06,0,0,1-.07.52,5.08,5.08,0,0,0-.09,1c0,.67.16,2.36.9,3,0,0,.16.13.27.13a.35.35,0,0,0,.28-.18c.89-1.39,1-1.52,1.85-2.78A.94.94,0,0,1,236,184Zm2.72,1.46,1.1-.17a.31.31,0,0,0,.32-.3A3.86,3.86,0,0,0,238,182.2a1.2,1.2,0,0,1,.37-.07,2.06,2.06,0,0,1,1.37.74A5.06,5.06,0,0,1,241,185.7c0,.36-.15.72-.33.72s-.12,0-.42-.27a2.58,2.58,0,0,0-1.48-.55Z"/><path class="cls-1" d="M246.3,180.81a14.38,14.38,0,0,0,2.2-.49,4.06,4.06,0,0,1,.62-.16,1,1,0,0,1,.79.77c0,.15,0,.16-.27.34a2.06,2.06,0,0,0-.53.49l-2.21,2.73c-.15.21-.33.43-.62.84a5.75,5.75,0,0,1,3.05-1c1.74,0,2.62,1,2.62,2.28,0,1.59-1.45,2.72-3.32,2.72-1,0-2.3-.4-2.3-1.31s.76-1,1.22-1c1,0,1.55.64,1.86,1.64a2.18,2.18,0,0,0,1.82-2.16,1.84,1.84,0,0,0-2-1.87c-2.27,0-4,2.17-4.13,2.38-.3.5-.44.74-.7.74s-.27-.12-.27-.39a.85.85,0,0,1,.39-.77c1.87-1.8,4.35-5.22,4.35-5.72a.15.15,0,0,0-.17-.17,6.83,6.83,0,0,0-1.81.61,1.49,1.49,0,0,1-.47.24,1.24,1.24,0,0,1-1-1.07.28.28,0,0,1,.12-.24A.79.79,0,0,0,246.3,180.81Zm1,6.71a.51.51,0,0,0-.58.49c0,.61,1.28.87,1.61.87a1.07,1.07,0,0,0,.41-.07A1.68,1.68,0,0,0,247.33,187.52Z"/><path class="cls-1" d="M255.15,188.07a1.74,1.74,0,0,1,1.74-1.75,1.75,1.75,0,1,1,0,3.49A1.74,1.74,0,0,1,255.15,188.07Zm3.15,0a1.42,1.42,0,1,0-1.41,1.41A1.4,1.4,0,0,0,258.3,188.07Z"/><path class="cls-1" d="M11.69,202.69c0,2.76,0,3.53,0,4.65,0,.47.08,2.54.08,3s0,.35-.13.47a.53.53,0,0,1-.37.16c-.24,0-.28-.1-.28-.38,0-.07,0-.37,0-.43H5.45a1.33,1.33,0,0,1,0,.59A.56.56,0,0,1,5,211c-.34,0-.34-.26-.34-.41s.1-2.13.1-2.17c0-.6,0-1.26,0-1.86,0-1.39,0-2.78,0-3.7a7.92,7.92,0,0,0-.13-1.24l1,.5H7.43a8.3,8.3,0,0,0,.35-1.73,1.33,1.33,0,0,0,0-.41l1.15.58a.14.14,0,0,1,.11.15c0,.19-.34.19-.47.21-.38.46-.75.93-.93,1.2h3.19l.3-.36a.23.23,0,0,1,.18-.12c.07,0,.1,0,.2.1l.56.39a.17.17,0,0,1,.1.14C12.13,202.41,12.08,202.44,11.69,202.69Zm-.65-.27H5.44v2.23H11Zm0,2.52H5.44v2.27H11Zm0,2.56H5.44v2.33H11Z"/><path class="cls-1" d="M18.36,201.94a11.39,11.39,0,0,1-3.62,4.18l-.05-.09a22.4,22.4,0,0,0,2.57-3.63,3,3,0,0,0,.5-1.49l.91.6c.12.07.17.11.17.17S18.54,201.91,18.36,201.94Zm4.74,3.59-.27.2c0,.44-.09,2.35-.13,2.74-.15,1.4-.33,2.54-2.2,2.67a1.21,1.21,0,0,0-.92-1.07V210l1,.1a2.25,2.25,0,0,0,.4,0c.2,0,.68,0,.83-.4a17.54,17.54,0,0,0,.4-4,3,3,0,0,0,0-.42H19.46a10,10,0,0,1-.34,2.18A5.23,5.23,0,0,1,15,211.24l0-.1a6,6,0,0,0,3.79-5.85h-.21a10.37,10.37,0,0,0-1.54.14l-.28-.51c.9.07,1.76.08,2,.08h3.36l.27-.25c.09-.07.12-.11.19-.11s.09,0,.15.1l.43.45a.3.3,0,0,1,.1.17C23.22,205.43,23.18,205.47,23.1,205.53Zm1.88.08a7.18,7.18,0,0,1-3.65-4.42H20.05a3,3,0,0,0-.66.07l-.12-.4.85,0h1.14l.28-.3c.12-.13.17-.13.21-.13a.3.3,0,0,1,.21.12l.42.39a.24.24,0,0,1,.09.18c0,.23-.33.28-.8.33a5.59,5.59,0,0,0,4.45,3.26v.1A2,2,0,0,0,25,205.61Z"/><path class="cls-1" d="M32.5,209.93c3.58-1.23,3.75-3.81,3.75-4.44,0-2.1-2-3.22-3.75-3.22a1.14,1.14,0,0,0-.45.06c.59.49.59.85.59.91s0,.19-.29.72a27.86,27.86,0,0,1-2.28,4.39c-.06.08-.44.65-.68.74a.48.48,0,0,1-.23,0c-.27,0-.36-.13-.69-.61a2,2,0,0,0-.33-.33,1.78,1.78,0,0,1-.62-1.62,4.85,4.85,0,0,1,5.1-4.67c2.19,0,4.36,1.24,4.36,3.73a4.62,4.62,0,0,1-4.46,4.42Zm-1.36-4.66a5.86,5.86,0,0,0,.71-2.09,1.11,1.11,0,0,0-.34-.77,4.4,4.4,0,0,0-3.37,4.23c0,.92.58,1.72,1.05,1.72a.29.29,0,0,0,.22-.08,4.76,4.76,0,0,0,.7-1.06Z"/><path class="cls-1" d="M48.85,202.22H41.39a7.65,7.65,0,0,1-2.82,3l-.08-.08a12.59,12.59,0,0,0,2.86-4.52,1.34,1.34,0,0,0,0-.6l1.07.47a.19.19,0,0,1,.13.16c0,.14-.1.17-.52.33-.16.3-.28.53-.51.92h5.78l.5-.57c.12-.14.14-.15.18-.15s.2.1.23.12l.66.58c.06.06.12.11.12.18S48.93,202.22,48.85,202.22Zm-4.31,4.41a11.94,11.94,0,0,1-1,1.33c.16.11,1.4,1,1.4,1.75a.33.33,0,0,1-.33.36c-.25,0-.35-.15-.61-.58a6.62,6.62,0,0,0-.89-1,8.58,8.58,0,0,1-4.42,2.71v-.09a12.93,12.93,0,0,0,4-3,9.18,9.18,0,0,0-1.94-1.31v-.08a7.7,7.7,0,0,1,2.27,1,4.31,4.31,0,0,0,1-2l.94.6c.07,0,.13.08.13.18S44.9,206.6,44.54,206.63Zm4.85,3.47a1,1,0,0,0,.12.47c.1.18.11.21.11.28a.33.33,0,0,1-.34.32A4,4,0,0,1,47,209a9.31,9.31,0,0,1-.51-3.65H41.63a8.67,8.67,0,0,0-1.54.14l-.28-.53c.62.06,1.36.1,2,.1h4.34l.5-.47c.12-.11.13-.12.17-.12a.32.32,0,0,1,.2.12l.5.46s.09.08.09.14-.14.17-.51.32c0,.22,0,.39,0,.65a4.83,4.83,0,0,0,.86,3.21c0,.08.32.41.54.41a.29.29,0,0,0,.26-.16,7.93,7.93,0,0,0,.84-1.42l.08,0A13.93,13.93,0,0,0,49.39,210.1Zm-2.27-6.27H43.24a8.24,8.24,0,0,0-1.54.14l-.29-.52c.9.08,1.78.09,2,.09h2.45l.41-.49s.12-.15.18-.15.21.12.23.12l.51.49c.09.08.12.11.12.2S47.21,203.83,47.12,203.83Z"/><path class="cls-1" d="M55.18,203.11H53.45v2.51c.28-.09,1.5-.47,1.74-.56l.05.09c-.46.27-1.19.66-1.78,1,0,.45,0,2.49,0,2.91,0,.12,0,.64,0,.74,0,.77-.24,1-1.18,1.31a1.31,1.31,0,0,0-1.1-1V210l1.2,0c.37,0,.4,0,.41-.72,0-.45,0-2.5,0-2.92l-.9.45-.28.14c-.07.31-.14.43-.29.43s-.12,0-.2-.19l-.46-1c.16,0,.58,0,.69-.05s1.12-.33,1.44-.43v-.35c0-.37,0-2,0-2.36a10.2,10.2,0,0,0-1.62.13l-.27-.52c.84.07,1.39.09,1.88.1V201.4a3.65,3.65,0,0,0-.21-1.14l1,.29c.09,0,.2.06.2.19s0,.11-.37.36c0,.18,0,.33,0,1.72h.7l.23-.36c0-.05.1-.17.19-.17s.16.09.2.12l.48.38c0,.05.11.1.11.18S55.26,203.11,55.18,203.11Zm6.54,1.47H56.09a10.46,10.46,0,0,0-1.55.13l-.29-.51c.9.07,1.78.09,2,.09h1.45a.66.66,0,0,1,0-.14v-1.73h-.52a8.36,8.36,0,0,0-1.54.15l-.28-.52c.9.07,1.77.09,2,.09h.33a10.77,10.77,0,0,0-.09-1.49,1.08,1.08,0,0,0-.18-.47l1.13.3c.09,0,.21.06.21.17s-.18.23-.42.38a9.15,9.15,0,0,0,0,1.11h1.46l.4-.5c.11-.13.14-.15.21-.15a.33.33,0,0,1,.2.12l.55.5c.06.06.12.12.12.19s-.11.12-.19.12H58.29c0,.46,0,1.49,0,1.87h2.09l.37-.48c.12-.14.15-.15.2-.15s.09,0,.21.12l.6.49c.05,0,.12.1.12.18S61.81,204.58,61.72,204.58Zm0,2.26H59.51c0,1.3,0,1.45,0,1.81s0,.78,0,1.06c0,.57,0,1.08-1.22,1.43-.09-.33-.18-.62-1-1v-.05l.75,0h.24c.4,0,.61,0,.61-.32,0-.61,0-1.6,0-2.21,0-.26,0-.64,0-.74H56.33a9.26,9.26,0,0,0-1.55.13l-.28-.52c.89.07,1.77.1,2,.1h2.38c0-.34-.05-1-.07-1.26a2.13,2.13,0,0,0-.08-.41l.92.21c.11,0,.18.07.18.2s-.16.22-.32.27v1h1l.4-.47c.12-.14.16-.14.18-.14a.45.45,0,0,1,.2.1l.52.48c.07.06.12.11.12.18S61.82,206.84,61.75,206.84Zm-4.69,2.29c-.35,0-.41-.23-.55-.73a2.61,2.61,0,0,0-.59-1l0-.08c1.4.56,1.52,1.18,1.52,1.4A.43.43,0,0,1,57.06,209.13Z"/><path class="cls-1" d="M67.12,210.58c3-.07,4.57-1.54,4.57-2.89a1.58,1.58,0,0,0-1.78-1.55,4.88,4.88,0,0,0-3.33,1.55c-.3.45-.34.5-.48.5s-.6-.41-.6-.61a8.25,8.25,0,0,1,.3-1c.06-.22.45-2.48.55-3a8.68,8.68,0,0,1-1.3.18,1.38,1.38,0,0,1-1.27-.72,2.09,2.09,0,0,0,1.07.24,6.39,6.39,0,0,0,1.58-.22c0-.23.23-1.41.23-1.69,0-.5-.16-.63-.66-.83a.52.52,0,0,1,.4-.12c.64,0,1.15.48,1.15.71a1.08,1.08,0,0,1-.13.37A6,6,0,0,0,67,203a12.41,12.41,0,0,0,1.93-.73.93.93,0,0,1,.44-.14c.23,0,.64.13.64.32s-.23.24-.27.25a21.21,21.21,0,0,1-2.86.85,24.14,24.14,0,0,0-.61,3.47c.18-.08.29-.13,1.3-.65a5.24,5.24,0,0,1,2.33-.57,2.24,2.24,0,0,1,2.42,2.1,2.55,2.55,0,0,1-1.32,2.2,5.92,5.92,0,0,1-3,.66,6.59,6.59,0,0,1-.91-.05Z"/><path class="cls-1" d="M79.7,201.13c0-.27-.21-.36-.73-.55a.59.59,0,0,1,.49-.17c.59,0,1.07.38,1.07.65,0,.06,0,.14-.17.38s-.56.83-.66,1a8.39,8.39,0,0,0,1.4-.48,1,1,0,0,1,.32-.08c.18,0,.61.09.61.34s-.19.27-.47.34c-.82.2-1.27.29-2.25.47a19.66,19.66,0,0,0-1.42,2.18,2.15,2.15,0,0,1,1.2-.4A1.44,1.44,0,0,1,80.57,206c.57-.32,1.21-.67,2.58-1.29.15-.07.25-.15.25-.31s-.15-.28-.34-.44l.19,0c.26,0,1.19.3,1.19.94,0,.25-.13.26-.6.33a17.14,17.14,0,0,0-3.18,1.21,7.52,7.52,0,0,1,.15,1.5c0,.12,0,1-.4,1s-.35-.51-.35-.65,0-.79,0-.95a4,4,0,0,0,0-.56c-.92.6-1.8,1.56-1.8,2.23,0,.89,1.49.91,1.91.91A9.58,9.58,0,0,0,82,209.7a2.91,2.91,0,0,1,.39,0c.37,0,.69.2.69.42s0,.24-.34.3a10.73,10.73,0,0,1-1.75.12c-1.82,0-2.25-.2-2.62-.45a1.27,1.27,0,0,1-.58-1,2.18,2.18,0,0,1,.42-1.12A7.75,7.75,0,0,1,80,206.37c-.13-.71-.33-1.24-1.1-1.24a2.12,2.12,0,0,0-1.56,1c-.47.67-.53.76-.68.76s-.3-.35-.3-.44a.5.5,0,0,1,.27-.48,12.12,12.12,0,0,0,2.07-2.83,6.92,6.92,0,0,1-1.26.17,1,1,0,0,1-1.12-.95,1.72,1.72,0,0,0,1.14.41,8.17,8.17,0,0,0,1.55-.17A7.58,7.58,0,0,0,79.7,201.13Z"/><path class="cls-1" d="M96.93,210.77a8,8,0,0,1-4.6-5.16A12,12,0,0,1,90.72,207v3a29.76,29.76,0,0,0,3.1-.9l0,.1a14.8,14.8,0,0,1-2.57,1.1l-2.37.84c0,.19,0,.34-.19.34s-.17-.11-.21-.16l-.61-.82a7.49,7.49,0,0,0,2.2-.36v-2.65a11.61,11.61,0,0,1-3.09,1.5l0-.09a15.2,15.2,0,0,0,4.32-3.27H88.79a10,10,0,0,0-1.54.15l-.28-.52c.62.05,1.36.09,2,.09h2.91v-1.54H90.13a10.79,10.79,0,0,0-1.54.13l-.28-.51c.61,0,1.37.09,2,.09h1.57c0-.2,0-1.15,0-1.37H89.4a10,10,0,0,0-1.55.14l-.27-.52c.62.05,1.37.09,2,.09h2.29c0-.3,0-.55,0-.63a1.7,1.7,0,0,0-.24-1l1.11.29c.05,0,.21.08.21.15s-.36.34-.44.36c0,.3,0,.36,0,.81h3.17l.32-.46c0-.05.1-.17.18-.17s.16.09.22.14l.54.46a.23.23,0,0,1,.12.2c0,.12-.13.12-.18.12H92.5v1.37h2.25l.29-.37c.06-.08.12-.17.19-.17s.16.08.23.12l.55.4a.25.25,0,0,1,.12.18c0,.12-.13.13-.18.13H92.5c0,.16,0,1.53,0,1.54h3.64l.37-.53c0-.06.11-.17.19-.17s.17.1.22.13l.63.54c.06.06.12.11.12.2s-.13.11-.18.11h-5a6.54,6.54,0,0,0,1.15,2,4.27,4.27,0,0,0,1.39-1.6l.84.65a.33.33,0,0,1,.11.16c0,.12-.21.12-.29.12a1.42,1.42,0,0,1-.33,0,7.07,7.07,0,0,1-1.63.8A7.68,7.68,0,0,0,98.07,210v.07C97.26,210.42,97.2,210.45,96.93,210.77Z"/><path class="cls-1" d="M102.24,205.72c-.08.36-.49,2-.57,2.28a6.18,6.18,0,0,0-.26,1.38c0,.13.06.83.06.84s0,.31-.22.31-.4-.23-.51-.41a5.62,5.62,0,0,1-.66-3.07,7.38,7.38,0,0,1,.09-1.14l.38-2.62a5.31,5.31,0,0,0,.07-.88,1.5,1.5,0,0,0-.37-1.09c.55-.08,1.2.65,1.2,1.09a4.58,4.58,0,0,1-.19.66,14.82,14.82,0,0,0-.69,4c0,1,.21,1.74.35,1.74s.13-.18.13-.19c.38-1.15.57-1.62,1.1-2.93Zm2.3,2.74a5.64,5.64,0,0,0,2,.33,7.46,7.46,0,0,0,1.27-.11h.2c.2,0,.84.16.84.46s-.41.33-1.15.33a9.43,9.43,0,0,1-3.26-.5,1.6,1.6,0,0,1-.84-1.4.9.9,0,0,1,.06-.36C103.88,207.81,104,208.22,104.54,208.46Zm.79-4.57a9.23,9.23,0,0,0,1.24-1.11c0-.09-.35-.09-.37-.09a8.56,8.56,0,0,0-2.33.51,4.07,4.07,0,0,1,2.68-1c.73,0,1.71.2,1.71.57,0,.21-.17.24-.61.33a5.94,5.94,0,0,0-2.25.92Z"/><path class="cls-1" d="M120.68,206.67c0,.77,0,2.55.06,2.9,0,.1,0,.55,0,.65,0,.32-.33.44-.52.44s-.28-.08-.26-.87h-7.42a3.69,3.69,0,0,1,0,.68c0,.37-.42.42-.52.42s-.26,0-.26-.29c0-.09,0-.49,0-.57,0-.91,0-1.85,0-2.76a4.92,4.92,0,0,0-.14-1.54l1.06.35c.14,0,.19.11.19.17s-.18.25-.42.41c0,.27,0,.51,0,.93s0,.71,0,1.91h3.33c0-1.51,0-3.08,0-4.59h-2.57a.43.43,0,0,1-.48.46s-.26,0-.26-.19,0-1.51,0-1.77,0-.53,0-.8a3.82,3.82,0,0,0-.17-1.51l1.07.38c.07,0,.17.06.17.15s-.28.3-.39.35,0,.26,0,.44c0,.51,0,.67,0,2.2h2.59c0-.46,0-2.47,0-2.88a4.58,4.58,0,0,0-.24-1.48l1.2.42c.12,0,.18.09.18.16s-.33.34-.42.37c0,.45,0,.73,0,3.41h2.71a12.37,12.37,0,0,0-.16-3.38l1.09.36c.09,0,.22.06.22.18s-.22.24-.43.34c0,.45,0,2.39,0,2.79s-.41.42-.58.42-.23-.08-.22-.42h-2.68v4.59H120c0-1,0-1.25,0-1.63a5.15,5.15,0,0,0-.19-2.06l1.08.34c.13,0,.18.06.18.16S120.91,206.55,120.68,206.67Z"/><path class="cls-1" d="M126.12,211.2c2-1.35,2.28-2.58,2.4-3.36a1.31,1.31,0,0,1-.71.26,1.86,1.86,0,0,1-1.41-1.86,1.5,1.5,0,0,1,1.42-1.54,1.74,1.74,0,0,1,.72.19c0-.19,0-.26,0-.34v-1.1a13.13,13.13,0,0,0-4,.87,4.52,4.52,0,0,1-.47.18,1.46,1.46,0,0,1-.93-1.13,1,1,0,0,1,0-.26c.35.45.59.57.89.57a5.57,5.57,0,0,0,.66-.09c.55-.1,2.72-.44,3.87-.53a8.26,8.26,0,0,0-.17-1.85,1.44,1.44,0,0,0-.79-.59,1.2,1.2,0,0,1,.57-.19,2.08,2.08,0,0,1,.88.36.38.38,0,0,1,.2.33,2.33,2.33,0,0,1-.08.36A15,15,0,0,0,129,203c.46,0,2.49-.11,2.89-.14l.54,0c.47,0,.86.34.86.53s-.16.23-.29.23a.71.71,0,0,1-.21,0,10.88,10.88,0,0,0-2.22-.19c-.52,0-1.06,0-1.59.06,0,.53,0,1,0,1.16s0,.42,0,.73a3.12,3.12,0,0,1,.38,1.61,4.43,4.43,0,0,1-1.67,3.5,5.33,5.33,0,0,1-1.54.85Zm.66-5a1.3,1.3,0,0,0,1.09,1.31c.66,0,.66-.89.66-1,0-1-.33-1.32-.92-1.32A1,1,0,0,0,126.78,206.2Z"/><path class="cls-1" d="M140.5,209.93c3.58-1.23,3.75-3.81,3.75-4.44,0-2.1-2-3.22-3.75-3.22a1.14,1.14,0,0,0-.45.06c.59.49.59.85.59.91s0,.19-.29.72a27.86,27.86,0,0,1-2.28,4.39c-.06.08-.44.65-.68.74a.48.48,0,0,1-.23,0c-.27,0-.36-.13-.69-.61a2,2,0,0,0-.33-.33,1.78,1.78,0,0,1-.62-1.62,4.85,4.85,0,0,1,5.1-4.67c2.19,0,4.36,1.24,4.36,3.73a4.62,4.62,0,0,1-4.46,4.42Zm-1.36-4.66a5.86,5.86,0,0,0,.71-2.09,1.11,1.11,0,0,0-.34-.77,4.4,4.4,0,0,0-3.37,4.23c0,.92.58,1.72,1.05,1.72a.29.29,0,0,0,.22-.08,4.76,4.76,0,0,0,.7-1.06Z"/><path class="cls-1" d="M149.91,208.54c1.12.77,1.24.86,1.55.86a.54.54,0,0,0,.48-.37,8.51,8.51,0,0,0,.86-3.74c0-.55,0-1.34-.82-1.34a3.66,3.66,0,0,0-1,.19,38.2,38.2,0,0,1-2.76,6,.31.31,0,0,1-.25.16c-.17,0-.28-.35-.28-.52s0-.2.42-.85a26.69,26.69,0,0,0,2.26-4.58,7.63,7.63,0,0,0-1.77.76.94.94,0,0,1-.45.2,1.21,1.21,0,0,1-1-1.13.63.63,0,0,1,.08-.29c.27.48.46.63.78.63a1.77,1.77,0,0,0,.55-.12c.55-.17,1.34-.37,2-.55a9,9,0,0,0,.61-2c0-.56-.8-.78-.92-.82a.62.62,0,0,1,.46-.16c.46,0,1.35.33,1.35.77a.79.79,0,0,1-.14.39,11.55,11.55,0,0,0-.75,1.66,3.26,3.26,0,0,1,.87-.13c1.42,0,1.42,1.25,1.42,1.9,0,1.16-.36,3.92-1.63,4.86a1.3,1.3,0,0,1-.61.26c-.17,0-.18,0-.29-.5a5.72,5.72,0,0,0-1-1.47Zm5-2.36a4.4,4.4,0,0,0,1.26-.22.42.42,0,0,0,.3-.36,5.51,5.51,0,0,0-2.34-2.37c1.05,0,3.26,1.59,3.26,3.09,0,.2,0,.53-.24.53s-.44-.23-.52-.25c-.26-.1-1.48-.29-1.72-.34Zm0-4.19c.57,0,2,.39,2,1.07,0,.09-.06.3-.25.3s-.48-.37-.57-.43a6.18,6.18,0,0,0-1.56-.87A1.24,1.24,0,0,1,154.89,202Zm1.23-.92c.54,0,1.86.18,1.86,1,0,.13,0,.26-.18.26s-.55-.42-.65-.49a5.73,5.73,0,0,0-1.67-.73A2.79,2.79,0,0,1,156.12,201.07Z"/><path class="cls-1" d="M169.35,205.22h-5c0,.29,0,1.58,0,1.84h2.11l.32-.31c.12-.09.17-.11.21-.11s.09,0,.21.12l.42.3a.26.26,0,0,1,.12.2c0,.13-.08.16-.44.32,0,0,0,.11,0,.11,0,1.29,0,1.46.13,2.94,0,0,0,0,0,.07a.44.44,0,0,1-.47.45c-.13,0-.3-.06-.3-.21v-.49h-5a.8.8,0,0,1,0,.31.47.47,0,0,1-.45.41.26.26,0,0,1-.28-.29c0-.09,0-.46,0-.54,0-.58,0-1.34,0-2a9.54,9.54,0,0,0-.09-1.73l.88.48h1.93c0-.58,0-1.27,0-1.84h-3.14a9.07,9.07,0,0,0-1.53.14l-.29-.51c.9.07,1.77.08,2,.08h3a5.35,5.35,0,0,0-.19-1.78l1,.27c.08,0,.18.06.18.15s0,.15-.34.35c0,.19,0,.67,0,1h3.67l.32-.5c.07-.11.11-.16.18-.16a.49.49,0,0,1,.23.13l.62.51a.24.24,0,0,1,.13.18C169.54,205.21,169.44,205.22,169.35,205.22Zm-.25-3.14h-3.22c0,.11,0,1.13,0,1.15a.4.4,0,0,1-.12.34.56.56,0,0,1-.39.15c-.24,0-.24-.19-.24-.28s0-.44,0-.53,0-.42,0-.83H163c0,.34,0,.5,0,.79,0,.08.05.48.05.56a.44.44,0,0,1-.45.41c-.28,0-.29-.16-.29-.3s0-1.25,0-1.46h-1.38a8.24,8.24,0,0,0-1.54.14l-.28-.52c.9.08,1.76.09,2,.09h1.21c0-1.2-.07-1.36-.2-1.61l1.14.29a.15.15,0,0,1,.14.15c0,.15-.25.26-.43.33v.84h2.26a4.05,4.05,0,0,0-.2-1.61l1.1.3c.08,0,.16.05.16.14s-.24.27-.4.38v.79h1.9l.39-.54c.08-.12.12-.15.18-.15s.1,0,.24.14l.58.52c.08.08.11.12.11.2S169.17,202.08,169.1,202.08Zm-2.35,5.27H161.7v2.81h5.05Z"/><path class="cls-1" d="M181.69,206.84h-5c0,.45,0,2.51,0,2.84a1.31,1.31,0,0,1-.35,1,1.57,1.57,0,0,1-1,.5c-.14-.36-.24-.61-1.26-1l0-.07,1.22,0c.48,0,.62-.07.62-.55,0-.79,0-1.93,0-2.74h-3.23a8.42,8.42,0,0,0-1.55.14l-.27-.53c.9.07,1.76.1,2,.1H176V206c0-.86,0-1,0-1.73h-2.38a9,9,0,0,0-1.53.14l-.29-.52c.9.07,1.77.1,2,.1H176V201.7a28.08,28.08,0,0,1-3.51.3c-.21,0-.52,0-.9,0v-.11a30.52,30.52,0,0,0,6.11-1.15c1.09-.29,1.21-.4,1.44-.66l1,.71a.17.17,0,0,1,.07.14.18.18,0,0,1-.2.19l-.49-.09a27.6,27.6,0,0,1-2.84.61V204h2.71l.43-.56s.12-.14.19-.14a.31.31,0,0,1,.19.11l.65.56c.07.06.12.11.12.18s-.1.13-.18.13h-4.11c0,1.36,0,1.52,0,2.32h3.54l.47-.6c0-.06.12-.16.19-.16s.18.1.21.12l.7.61c.07.06.12.11.12.18S181.77,206.84,181.69,206.84Z"/><path class="cls-1" d="M183.15,209.07a1.74,1.74,0,0,1,1.74-1.75,1.75,1.75,0,1,1,0,3.49A1.74,1.74,0,0,1,183.15,209.07Zm3.15,0a1.42,1.42,0,1,0-1.41,1.41A1.4,1.4,0,0,0,186.3,209.07Z"/><path class="cls-1" d="M12.05,117.49c-1.35,0-1.57-.62-1.57-2,0-.41.1-3,.1-3.43,0-.63-.15-.68-.65-.85a.76.76,0,0,1,.53-.2c.39,0,.87.38.87.61a3,3,0,0,1-.1.45,23.22,23.22,0,0,0-.29,3.65c0,.9,0,1.35.88,1.35a7.05,7.05,0,0,0,3.54-1.5l0,0A3.88,3.88,0,0,1,12.05,117.49Z"/><path class="cls-1" d="M20.6,112.5a8.54,8.54,0,0,1-1.32.48c-.47,1.29-.93,2.59-1.51,3.83-.18.4-.25.48-.42.48s-.26-.23-.26-.38,0-.15.32-.66a19.67,19.67,0,0,0,1.37-3,1,1,0,0,1,0-.11,5.16,5.16,0,0,1-1,.12.82.82,0,0,1-.8-.53,2.27,2.27,0,0,0,.76.13,4.71,4.71,0,0,0,1.21-.19,4.29,4.29,0,0,0,.26-1.11c0-.33-.44-.48-.5-.5a.43.43,0,0,1,.35-.12.84.84,0,0,1,.84.63c0,.09,0,.14-.15.32a4,4,0,0,0-.3.62,3.36,3.36,0,0,0,.6-.28c.25-.17.31-.2.46-.2a.3.3,0,0,1,.33.26C20.86,112.32,20.83,112.4,20.6,112.5Zm1.58,4.82c-.92,0-2.36-.11-2.36-1.17a1.07,1.07,0,0,1,.18-.61c0,1,.58,1.21,1.67,1.21a4.08,4.08,0,0,0,.79-.06,1.77,1.77,0,0,1,.33,0,.43.43,0,0,1,.43.38C23.22,117.32,22.46,117.32,22.18,117.32Zm.87-3.44-.41,0a2.94,2.94,0,0,0-1.2.4l0,0c.07-.07.39-.32.46-.37.24-.21.26-.22.26-.3,0-.24-.78-.24-.89-.24h-.44a1.89,1.89,0,0,1,1.15-.34c.89,0,1.33.43,1.33.7A.2.2,0,0,1,23.05,113.88Z"/><path class="cls-1" d="M28.08,117.47c-1.51,0-1.51-1-1.51-2.28,0-.47.1-2.54.1-3s0-.94-.66-1.06a.68.68,0,0,1,.54-.21c.25,0,.86.31.86.63a1,1,0,0,1-.06.32,27.29,27.29,0,0,0-.33,3.83c0,.72,0,1.24.86,1.24a6.52,6.52,0,0,0,3.6-1.51l0,0A4.05,4.05,0,0,1,28.08,117.47ZM29.41,113c-.05,0-.14,0-.25-.19a3.72,3.72,0,0,0-.87-1c.93.19,1.35.53,1.35.9A.25.25,0,0,1,29.41,113Zm.8-.68c-.11,0-.13,0-.38-.34a3.42,3.42,0,0,0-.79-.74c.21,0,1.38.22,1.38.81C30.42,112.18,30.37,112.33,30.21,112.33Z"/><path class="cls-1" d="M66.18,116.13a3.28,3.28,0,0,0,0,.44c0,.08,0,.45,0,.52,0,.24-.14.26-.23.26-.56,0-.72-1.42-.72-2a13.63,13.63,0,0,1,.26-2.22c.11-.63.17-.92.17-1a.73.73,0,0,0-.35-.64.54.54,0,0,1,.24,0,.86.86,0,0,1,.79.68c0,.1,0,.13-.13.4a6.62,6.62,0,0,0-.57,2.54c0,.13,0,.93.14.93s.09-.07.11-.14.53-1.41.58-1.57l.08,0S66.19,116.1,66.18,116.13Zm4.94.84a1.07,1.07,0,0,1-.48-.24,7.51,7.51,0,0,0-.69-.47,1.21,1.21,0,0,1-1.29.91c-.69,0-1.28-.37-1.28-.87s.51-.79,1.31-.79a5.6,5.6,0,0,1,.83.07c0-.36-.08-1.94-.09-2.27a4.21,4.21,0,0,1-.66.06c-.34,0-1.17-.11-1.38-.6a3.13,3.13,0,0,0,1.12.2,6.88,6.88,0,0,0,.91-.08c0-.5,0-1.2-.06-1.28s-.08-.25-.54-.37a.82.82,0,0,1,.52-.21c.27,0,.68.23.68.44,0,0-.08.45-.09.48a5.81,5.81,0,0,0-.06.86l.26-.07a3.7,3.7,0,0,1,.73-.16c.15,0,.42.12.42.27s-.51.3-1.41.41c0,.06,0,1.26.12,2.48.91.37,1.36.58,1.36,1A.25.25,0,0,1,71.12,117Zm-2.57-1.08c-.63,0-.88.23-.88.36s.3.44.82.44c.14,0,.85,0,1-.66A2.52,2.52,0,0,0,68.55,115.89Z"/><path class="cls-1" d="M76.39,117.34c-.77,0-1.56-.31-1.56-.93s.55-.7.88-.7A1.34,1.34,0,0,1,77,116.79a1.46,1.46,0,0,0,1.09-1.41,1.21,1.21,0,0,0-1.3-1.19,3.63,3.63,0,0,0-2.71,1.7c-.21.32-.28.44-.44.44s-.28-.06-.28-.34.07-.33.55-.79a19.43,19.43,0,0,0,2.6-3.49.07.07,0,0,0-.08-.08,4.62,4.62,0,0,0-1.15.43,3.84,3.84,0,0,1-.35.18.77.77,0,0,1-.65-.75.33.33,0,0,1,.09-.26c.18.3.33.37.55.37a6.85,6.85,0,0,0,1.47-.32c.06,0,.32-.1.36-.1a.7.7,0,0,1,.59.55c0,.13,0,.14-.29.35A22.81,22.81,0,0,0,75,114.52a3.73,3.73,0,0,1,1.92-.57c1.28,0,1.79.77,1.79,1.5A2.05,2.05,0,0,1,76.39,117.34ZM75.51,116a.36.36,0,0,0-.38.34c0,.41.82.6,1.06.6a.82.82,0,0,0,.28,0A1.2,1.2,0,0,0,75.51,116Z"/><path class="cls-1" d="M85.81,114.71a2.44,2.44,0,0,1-1.27-.33v0a1.62,1.62,0,0,0,.4,0c.56,0,1.88-.17,1.88-1.11a.77.77,0,0,0-.83-.76,6.53,6.53,0,0,0-2.91,1.18c1,1.51,1.79,2.8,1.79,3.5a.34.34,0,0,1-.32.38c-.2,0-.24-.11-.44-.76a13,13,0,0,0-1.38-2.89,5.66,5.66,0,0,0-.88.7.57.57,0,0,1-.35.16.76.76,0,0,1-.71-.72.37.37,0,0,1,0-.2c.08.08.28.28.45.28s.19,0,1.2-.58c-.07-.1-.38-.51-.44-.61a.75.75,0,0,1-.13-.37c0-.39.37-.43.7-.45l1.09-.1a.09.09,0,0,0,.05-.09c0-.23-.61-.51-.86-.64a1.55,1.55,0,0,1,.35,0c.52,0,1.34.34,1.34.91,0,.2-.13.26-.21.26a1.07,1.07,0,0,1-.35-.09,3.67,3.67,0,0,0-.86-.08c-.28,0-.73,0-.73.31,0,.12,0,.2.43.78a9.1,9.1,0,0,1,1.56-.72,5.29,5.29,0,0,1,1.57-.34,1.25,1.25,0,0,1,1.38,1.14C87.38,113.92,87,114.71,85.81,114.71Z"/><path class="cls-1" d="M19.86,124.35H10.48l0,3.8c3.34.49,5.71,2.08,5.71,3.92a1.12,1.12,0,0,1-1.15,1.24c-.88,0-1.27-.76-1.57-1.38a9.21,9.21,0,0,0-3-3.52c0,4.47,0,5.18,0,6.72,0,.79.12,4.61.12,5.49a1,1,0,0,1-.44.92,2,2,0,0,1-1.06.3c-.85,0-.85-.53-.85-.83,0-.46.18-4.24.2-5,0-1.52,0-6.06,0-11.64H2.86a13,13,0,0,0-2.49.16L0,123.66a29.81,29.81,0,0,0,3.27.14H15.81l1.56-1.38c.12-.1.26-.28.39-.28s.3.16.42.25l1.8,1.39a.49.49,0,0,1,.23.34C20.21,124.35,20,124.35,19.86,124.35Z"/><path class="cls-1" d="M25.06,139.58c-.14.3-.32.78-.64.78-.16,0-.3-.13-.42-.32l-1.36-2.33a4.37,4.37,0,0,0,.79.07,12.78,12.78,0,0,0,3-.59c0-4.45,0-4.94.07-7.65H26a12.84,12.84,0,0,0-2.49.16l-.39-.86c1.34.12,2.84.14,3.46.14,0-4.86-.05-5.41-.26-6.84l2.49.83c.16,0,.35.16.35.37,0,.37-.46.64-.76.8-.05,1-.05,3.23-.05,4.84l.85-.9c.26-.25.28-.3.37-.3s.35.19.42.26l.9.9c.18.18.2.23.2.37s-.2.23-.34.23H28.29c0,3,0,3.38,0,7.14,1.59-.46,2.05-.62,2.65-.85l.09.2A44.15,44.15,0,0,1,25.06,139.58Zm16.13,1.82c-.69.14-4.15.14-5.11.14-3.94,0-4.87-.32-4.87-3,0-1,.07-5.81.07-6.89a12.83,12.83,0,0,0-2.05,1.1l-.69-.59c.83-.3,1.38-.53,2.74-1.13,0-.72-.07-4.24-.07-5a12.69,12.69,0,0,0-.16-1.84l2.26.76c.37.12.44.23.44.37,0,.35-.44.58-.74.71,0,1-.07,2.19-.07,4.27l2.21-1a62,62,0,0,0-.2-7.56l2.28.79c.27.09.44.16.44.34s-.1.32-.74.78c0,1.32-.09,3.65-.07,4.87l1.8-.83.64-1.06c.25-.42.35-.49.46-.49a1.16,1.16,0,0,1,.58.28l1.15.76a.45.45,0,0,1,.28.39c0,.35-.35.67-.56.88.12,6.24,0,8.52-3,9.17A3.69,3.69,0,0,0,37,135.27c0,.28,0,1.64,0,1.82a1.27,1.27,0,0,1-1.32,1.25c-.41,0-.66-.14-.66-.81,0-.05,0-.28,0-.62,0-1.08.07-2.42.11-7.1l-2.21,1c0,1,0,6.06,0,7.19,0,.64,0,1.4.66,1.61.33.12,3.3.12,3.9.12,3,0,3.38,0,4.28-3.62l.14,0a8.2,8.2,0,0,0,.67,2.88c.07.12.58.58.58.72A2.32,2.32,0,0,1,41.19,141.4ZM39.3,127.9,36.86,129c0,1.63.07,4.91.09,6.08a5.41,5.41,0,0,0,1.82-.23c.58-.34.58-2.56.58-3.36C39.35,131.49,39.32,128.8,39.3,127.9Z"/><path class="cls-1" d="M67.82,127.48l.94-1.24c.14-.18.21-.3.35-.3s.35.19.41.25l1.36,1.25c.16.16.23.23.23.37s-.18.23-.34.23H66a15.26,15.26,0,0,0,1.72,2.49h3l1-1.39c.12-.16.21-.27.35-.27a.88.88,0,0,1,.44.25L74,130.48c.16.16.23.21.23.35s-.18.25-.34.25h-5.7a12.2,12.2,0,0,0,6.73,4.08v.09a5.89,5.89,0,0,0-2.56,1.87,13.82,13.82,0,0,1-5.55-6H61.55a16,16,0,0,1-1.75,2.4l1.5.69h4.58l.72-.86c.23-.27.27-.27.37-.27a.59.59,0,0,1,.41.23l1,.94s.21.19.21.35-.35.48-.46.6c0,1.61,0,3.87.09,4.81,0,.21.07,1.15.07,1.34,0,1-1.15,1-1.31,1-.51,0-.69-.21-.67-.92H61.23c0,.27,0,1.1-1.2,1.1a.75.75,0,0,1-.83-.78c0-.3.14-1.68.14-2,.07-1.52,0-3.94,0-5.8a15.58,15.58,0,0,1-6.19,3.89v-.14a22.39,22.39,0,0,0,6.38-6.61H56.23a12,12,0,0,0-2.49.16l-.39-.85c1.11.09,2.19.14,3.29.14h3.23A14.42,14.42,0,0,0,61,128H59.36a13.49,13.49,0,0,0-2.49.16l-.39-.85c1.11.11,2.19.13,3.3.13h1.47a15.53,15.53,0,0,0,.72-2.41H57.82a12.62,12.62,0,0,0-2.49.16l-.39-.86a30.17,30.17,0,0,0,3.29.14H62.1a12.16,12.16,0,0,0,.35-3.43l2.65,1c.25.1.41.16.41.37s-.71.51-1,.56c-.09.43-.16.8-.35,1.49h5.42l.85-1.24c.18-.28.3-.28.37-.28s.18.05.41.23l1.57,1.25a.42.42,0,0,1,.23.36c0,.21-.21.24-.35.24H64.06c-.32,1.12-.6,1.89-.8,2.41Zm-6.59,7.24v2.76H66.3v-2.76Zm0,3.32v2.79H66.3V138Zm1.82-10a19.22,19.22,0,0,1-1.18,2.49h4.64a15.13,15.13,0,0,1-1-2.49Z"/><path class="cls-1" d="M92.1,125.6l.73-1.18c.1-.14.17-.32.35-.32a1.17,1.17,0,0,1,.44.23l1.5.94c.13.1.25.19.25.37s-.14.39-1.08.83c0,2.07,0,4.72-.07,6.54-.07,1.23-.35,3.76-3.25,4-.12-.62-.25-1.54-2-2.67v-.16c.46.07,1.89.25,2.07.25,1.29,0,1.34-1.29,1.36-1.84,0-.74,0-5.21,0-6.52l-4.06,1.61c0,1.27.09,7.42.09,8.83a1.42,1.42,0,0,1-.32,1.13,1.63,1.63,0,0,1-1.18.55c-.69,0-.69-.51-.69-1,0-.3,0-1.22,0-1.68.07-1.82.09-2.47.16-7.1l-4,1.57v7.4c0,.87,0,1.82,2,1.82h7.32c2.54,0,3.5-.42,4-4.52H96a14,14,0,0,0,.63,3.5,6,6,0,0,1,.53,1.11c0,.3-.39.73-.74,1a4.73,4.73,0,0,1-2.35.74c-1.08.11-6.41.11-8,.11-3.64,0-5.18-.23-5.46-2.63,0-.27,0-6.93,0-7.76l-.89.37a11.85,11.85,0,0,0-2.26,1.06l-.67-.65a22.28,22.28,0,0,0,3.09-1.08l.73-.3c0-.6,0-3.57,0-4.24a8.31,8.31,0,0,0-.35-2.74l2.49.76c.37.11.69.25.69.55s-.23.46-.94.65v4.26l4-1.57c0-5.09-.21-6-.41-6.84l2.69.83c.21.07.51.16.51.46s0,.35-.9.72v4.07Z"/><path class="cls-1" d="M295.86,7V6.93a3.35,3.35,0,0,0,1.64-.84,1.67,1.67,0,0,0,.63-1.36,1.42,1.42,0,0,0-1.2-1.46,8.18,8.18,0,0,1-1.53,2l.07.15c.14.29.16.33.16.41s-.09.33-.25.33-.32-.22-.44-.51a3.55,3.55,0,0,1-1.57.78c-.25,0-.33-.14-.45-.35,0,0-.23-.31-.25-.34a.44.44,0,0,1-.08-.26c0-.62.71-1.6,2-2.18,0-.23,0-.6.14-1.2a5.33,5.33,0,0,1-1,.11.89.89,0,0,1-.94-.53,2.21,2.21,0,0,0,.87.14,6.54,6.54,0,0,0,1.11-.15c0-.06.06-.32.08-.38A2.84,2.84,0,0,0,295,.73c0-.34-.21-.47-.47-.62.06,0,.11-.08.34-.08.48,0,.87.35.87.51s0,.13-.19.48a3.83,3.83,0,0,0-.2.53,4.87,4.87,0,0,0,1-.37.48.48,0,0,1,.23-.07c.18,0,.49.18.49.31s0,.12-.37.24-1.12.28-1.52.36a6.32,6.32,0,0,0-.16,1.11,4.35,4.35,0,0,1,1.3-.2,1.2,1.2,0,0,0-.19-.45A.74.74,0,0,1,297,3a1.92,1.92,0,0,1,1.85,1.8C298.81,6.06,297.48,7,295.86,7Zm-1.24-3.4a2.83,2.83,0,0,0-1.57,2c0,.25.12.4.36.4a2.84,2.84,0,0,0,1.41-.69A5.67,5.67,0,0,1,294.62,3.6Zm.43-.19a4.38,4.38,0,0,0,.21,1.47,5.5,5.5,0,0,0,1.07-1.69A3.31,3.31,0,0,0,295.05,3.41Z"/><path class="cls-1" d="M303.77,6.31a1.22,1.22,0,0,1-.71.42c-.2,0-.21-.09-.24-.33a3.41,3.41,0,0,0-.57-1.07v0a3.8,3.8,0,0,0,1,.55c.56,0,.93-2.08.93-2.64s-.17-.83-.54-.83a3.6,3.6,0,0,0-.53.07l-.7,1.6c-.06.13-1,2-1.21,2.3-.08.1-.15.16-.25.16s-.25-.14-.25-.36.06-.31.33-.65a11,11,0,0,0,1.06-1.81c.18-.36.35-.73.5-1.11a4.91,4.91,0,0,0-1.11.49c-.19.12-.26.15-.34.15a.83.83,0,0,1-.67-.75.59.59,0,0,1,.09-.29c.2.36.4.4.54.4a1.68,1.68,0,0,0,.47-.08l1.18-.29A4.81,4.81,0,0,0,303.09,1c0-.32-.14-.4-.57-.61a1.38,1.38,0,0,1,.46-.1c.31,0,.82.35.82.57s0,.14-.2.46c-.05.08-.24.52-.36.79a4.13,4.13,0,0,1,.44,0c.76,0,.93.62.93,1.28A5.9,5.9,0,0,1,303.77,6.31Zm3.32-1.91a2.58,2.58,0,0,1-.44-.22,7.32,7.32,0,0,0-1.1-.29V3.84c.81-.08,1-.16,1-.39s-.26-.71-1.5-1.54A2.45,2.45,0,0,1,307.29,4C307.29,4.1,307.29,4.4,307.09,4.4Z"/><path class="cls-1" d="M309.74,5.17a3.44,3.44,0,0,0-.09.62c0,.09.06.52.06.61a.23.23,0,0,1-.25.25c-.43,0-.7-1-.7-2a9,9,0,0,1,.17-1.71c.05-.27.23-1.2.23-1.43a.74.74,0,0,0-.33-.67.56.56,0,0,1,.23-.06.84.84,0,0,1,.78.66.81.81,0,0,1-.09.33,7.78,7.78,0,0,0-.6,2.7c0,.29.06.82.15.82s.08,0,.16-.27.47-1.21.55-1.42h.05C309.94,4.21,309.92,4.3,309.74,5.17Zm4.88,1.07c-.11,0-.23,0-.53-.27a2.45,2.45,0,0,0-.63-.42,1.21,1.21,0,0,1-1.31.9c-.68,0-1.28-.37-1.28-.84,0-.18.15-.81,1.36-.81a3.14,3.14,0,0,1,.79.09c0-.17,0-.34-.07-1.86,0-.07,0-.37,0-.43a7.33,7.33,0,0,1-.77.06,1.45,1.45,0,0,1-1.29-.59,2.73,2.73,0,0,0,1,.18,9.28,9.28,0,0,0,1.06-.09c0-.26-.05-1.19-.09-1.31s-.15-.21-.53-.3a1,1,0,0,1,.52-.23c.11,0,.68.18.68.46a1,1,0,0,1-.06.32,4.39,4.39,0,0,0-.11,1c.25-.05.51-.1.8-.18l.2,0c.16,0,.42.09.42.28s-.09.15-.17.19a8.4,8.4,0,0,1-1.25.23c0,.39.14,2.11.16,2.46.64.27,1.36.56,1.36,1A.23.23,0,0,1,314.62,6.24ZM312,5.17c-.42,0-.88.15-.88.44s.5.39.9.39c.59,0,.86-.27.92-.68A2.64,2.64,0,0,0,312,5.17Zm2.68-3.53c-.12,0-.18-.09-.38-.34a3.9,3.9,0,0,0-.68-.72c.39,0,1.24.3,1.24.87A.19.19,0,0,1,314.71,1.64Zm.74-.48c-.11,0-.14,0-.39-.35a3.61,3.61,0,0,0-.8-.74c1.12,0,1.38.73,1.38.91A.18.18,0,0,1,315.45,1.16Z"/><path class="cls-1" d="M322.84,6.35c-.07,0-.17,0-.44-.29A4.73,4.73,0,0,0,322,5.7a1.58,1.58,0,0,1-1.27.56c-.87,0-1.12-.54-1.12-.81,0-.43.45-.73,1-.73a3.92,3.92,0,0,1,1.22.24A2.21,2.21,0,0,0,322,3.89c0-.45,0-1.89-1.1-1.89s-2.24,1.31-2.53,1.67a9.91,9.91,0,0,0,.05,1.44,8.65,8.65,0,0,1,.09,1c0,.14,0,.74-.33.74s-.23-.24-.26-.4a2.6,2.6,0,0,0-.27-.92v0a.83.83,0,0,0,.36.22c.05,0,.05-.12.05-.16,0-.23,0-1.24,0-1.45a9.66,9.66,0,0,0-1,1.63c-.13.24-.17.31-.27.31s-.29-.2-.29-.43.08-.29.3-.51a17.18,17.18,0,0,0,1.27-2.19c0-.06,0-.34,0-.4a3.65,3.65,0,0,0-.73.41c-.15.1-.19.12-.29.12s-.41-.24-.41-.61a.65.65,0,0,1,.06-.28.63.63,0,0,0,.48.26,3.19,3.19,0,0,0,.92-.27c0-.17.09-.92.09-1.07,0-.59-.13-.68-.48-.9a1,1,0,0,1,.36-.09c.29,0,.8.36.8.64,0,.09,0,.12-.13.39a3.65,3.65,0,0,0-.23.74,0,0,0,0,1,0,0s.34.13.34.28,0,.14-.2.4-.23.4-.36.66c0,0,0,.16,0,.18A7.7,7.7,0,0,1,320,2a2.14,2.14,0,0,1,1.11-.33c1.53,0,1.53,1.77,1.53,2.09a3.49,3.49,0,0,1-.25,1.42c.43.28.76.56.76.85C323.1,6.13,323.05,6.35,322.84,6.35Zm-2.29-1.26c-.45,0-.65.21-.65.39s.29.38.69.38a1.32,1.32,0,0,0,1-.48A2.18,2.18,0,0,0,320.55,5.09Z"/><path class="cls-1" d="M352.69,5.45l-.2,0a2.89,2.89,0,0,1-1.91,1.51l0,0A3.56,3.56,0,0,0,352,5.33c-.71-.21-1.33-1.09-1.31-2.52a4.7,4.7,0,0,0-.95,2.31v.49a.23.23,0,0,1-.25.2c-.12,0-.78-.16-.78-2,0-.27.09-1.47.09-1.71a1.87,1.87,0,0,0-.1-.72,1,1,0,0,1,.72.84,1.13,1.13,0,0,1-.1.41A5.33,5.33,0,0,0,349.07,4c0,.37.12.74.24.74s.09-.08.11-.13a5,5,0,0,1,1.3-2.16c.1-1,.55-2,1.15-2a1.16,1.16,0,0,1,1,1,1.75,1.75,0,0,1,1.9,1.88A2,2,0,0,1,352.69,5.45Zm-.34-3.62a3,3,0,0,0-1.4.74c-.09,1.41.59,2.16,1.23,2.32a7.62,7.62,0,0,0,.24-2A5.63,5.63,0,0,0,352.35,1.83Zm-.54-1c-.38,0-.7.64-.83,1.43a3.36,3.36,0,0,1,1.34-.67C352.29,1.21,352.11.82,351.81.82Zm1.06,1a6,6,0,0,1,.07,1.1A7.33,7.33,0,0,1,352.69,5a1.53,1.53,0,0,0,1.49-1.7A1.35,1.35,0,0,0,352.87,1.78Z"/><path class="cls-1" d="M361.6,5.41c-.08,0-.12,0-.46-.28a5.32,5.32,0,0,0-2.24-.52c-.31,0-1.11.07-1.11.83s1.17.9,1.71.9l.94-.06c.21,0,.51.09.51.32s-.31.3-.75.3c-.61,0-2.75,0-2.75-1.38,0-1.07,1.1-1.15,1.72-1.15a8.51,8.51,0,0,1,1.81.2h0s.07,0,.07,0a.34.34,0,0,0-.08-.18s-.24-.37-.82-1.19a6.88,6.88,0,0,1-1.82.37,1.08,1.08,0,0,1-1-.64,2.22,2.22,0,0,0,1,.24A5,5,0,0,0,360,2.79a9.47,9.47,0,0,1-.5-1,4.89,4.89,0,0,1-1.09.23,1,1,0,0,1-.9-.54,1.63,1.63,0,0,0,.73.17,3.31,3.31,0,0,0,1.1-.22c-.06-.12-.28-.67-.33-.77a.83.83,0,0,0-.83-.31A.62.62,0,0,1,358.8,0c.17,0,.67.06.71.34,0,.08,0,.47.05.54a3,3,0,0,0,.11.43,2.66,2.66,0,0,0,.52-.29c.29-.19.32-.21.46-.21s.33.1.33.22,0,.16-.2.25a4.92,4.92,0,0,1-1,.43,7.82,7.82,0,0,0,.49.94,6.44,6.44,0,0,0,.71-.39c.23-.14.27-.17.4-.17s.37.12.37.24-.12.19-.22.24a10.08,10.08,0,0,1-1,.45,12.45,12.45,0,0,0,1.07,1.31c.25.28.25.36.25.48S361.81,5.41,361.6,5.41Z"/><path class="cls-1" d="M367.77,6.36V6.3c1.71-.61,2.51-1.73,2.51-2.95a2.22,2.22,0,0,0-2.48-2.15.64.64,0,0,0-.33.05c.44.23.56.53.56.64s0,.14-.28.66a12.49,12.49,0,0,1-1.8,3.15.47.47,0,0,1-.26.09c-.18,0-.26-.1-.49-.44-.06-.08-.38-.38-.44-.45a1.54,1.54,0,0,1-.22-.81A3.25,3.25,0,0,1,367.94,1c1.55,0,2.95.9,2.95,2.51A3.09,3.09,0,0,1,367.77,6.36Zm-.63-5.06A2.9,2.9,0,0,0,365,4.05c0,.54.32,1.14.63,1.14s.52-.57.66-.84a7.85,7.85,0,0,0,1.06-2.54A.69.69,0,0,0,367.14,1.3Z"/><path class="cls-1" d="M289.46,22.05a17.21,17.21,0,0,1-5.28,6.4l-.16-.14c1.89-2.58,3.41-6.31,3.41-7.81,0-.16,0-.27,0-.48l2.37,1c.41.18.46.32.46.44C290.22,21.79,289.76,22,289.46,22.05Zm15.09-2.75h-7.23c0,.51.13,8.37.13,8.88,0,1,0,3.2-2.83,3.45a3.36,3.36,0,0,0-2.14-2.56v-.25a10.6,10.6,0,0,0,2,.23c.89,0,.89-.21.89-.76,0-1.17,0-7.81,0-9h-1.66c-.18,7.08-1.59,10-7.55,12l-.14-.18c4.33-2.67,5.6-6.25,5.6-10.44,0-.44,0-.87-.07-1.34H287a12.36,12.36,0,0,0-2.49.17l-.39-.86c1.36.14,2.9.14,3.29.14h5.76c0-.67.05-3.8.05-3.85h-4a14.13,14.13,0,0,0-2.49.14l-.39-.83c1.41.12,3,.14,3.29.14h3.6a9.56,9.56,0,0,0-.69-4.26l2.72.83c.25.07.62.2.62.46s-.32.44-.62.6c0,.39,0,2,0,2.37h4.08l1.13-1.47c.12-.17.23-.3.37-.3a.9.9,0,0,1,.41.25l1.52,1.47c.12.12.24.21.24.35s-.21.25-.35.25h-7.4c0,2.17,0,2.42,0,3.85h6l1-1.43c.1-.11.19-.27.35-.27a.64.64,0,0,1,.41.23l1.69,1.45c.11.09.23.18.23.34S304.69,19.3,304.55,19.3Zm-1.08,8.23c-1,0-1.48-1-1.61-1.31a14,14,0,0,0-3.35-4.87l.07-.11c4.15,1.13,5.83,3.87,5.83,5C304.41,26.65,304.18,27.53,303.47,27.53Z"/><path class="cls-1" d="M314.59,21.08a36.5,36.5,0,0,1-4.79,5.62c-.09.32-.26.88-.62.88-.16,0-.23-.1-.42-.3l-1.89-2.22a3.84,3.84,0,0,0,1.55-.13A41.69,41.69,0,0,0,314.48,21Zm-4.19-8a13.65,13.65,0,0,0-2.49.16l-.39-.85c1.4.14,3,.14,3.29.14h3.92l.67-.58a.59.59,0,0,1,.39-.2.94.94,0,0,1,.44.23l1,.87a.42.42,0,0,1,.19.33c0,.25-.07.32-.67.87,0,1.78,0,11,0,13.32,0,1.31,0,3-3.25,3.66a4.9,4.9,0,0,0-2.19-2.69v-.16c1,.11,2.3.13,2.33.13,1,0,1.06,0,1.06-.87,0-2,0-5.12,0-7.1V13.08ZM308.6,16c2.21.25,3.94,1.63,3.94,2.83,0,.37-.21,1.29-1.11,1.29s-1.35-1-1.56-1.59a7.48,7.48,0,0,0-1.34-2.44Zm15.65,5.07a45.85,45.85,0,0,1-4.59,5.39c-.21.53-.28.62-.48.62s-.3-.16-.37-.25l-1.73-2.26a3.61,3.61,0,0,0,2.28-.58c.76-.44,3.34-2,4.75-3Zm-3.32-7.88a12.69,12.69,0,0,0-2.49.16l-.37-.86c1.38.14,3,.14,3.27.14h2.81l.74-.64c.14-.12.23-.19.32-.19a.73.73,0,0,1,.44.21l1.18.85a.5.5,0,0,1,.2.37c0,.3-.43.67-.66.88-.05,2.26-.05,2.53-.05,6.89,0,2.67,0,3,0,3.84,0,.23.07,2.54.07,2.65,0,1.87-.18,2.77-3.32,3.74-.27-1.29-1-1.89-2.14-2.75v-.13c.35,0,1.84.16,2.14.16.67,0,1-.12,1.11-.35s.09-4.65.09-5v-10Zm-2.4,2.55c1,.19,4.06.76,4.06,2.77a1.14,1.14,0,0,1-1.2,1.24c-.79,0-1-.41-1.52-1.68a18.1,18.1,0,0,0-1.34-2.21Z"/><path class="cls-1" d="M357.28,16.59a2.58,2.58,0,0,1-.53-.07l-2.44,1.79-.14-.09a22.38,22.38,0,0,0,.78-3h-6.29c0,.86.14,4.66.14,5.42A1.29,1.29,0,0,1,347.53,22a.7.7,0,0,1-.8-.74c0-.25.09-1.66.09-2s0-3.2,0-4.1h-6.06c0,.14.05.35.05.63,0,1.38-.83,2.67-1.91,2.67a1,1,0,0,1-1-1c0-.5.18-.62,1-1.38A3.84,3.84,0,0,0,340,13.71h.12a2,2,0,0,1,.48.94h6.2V12.76h-3.57a14.29,14.29,0,0,0-2.49.14l-.39-.83c1.4.12,3,.14,3.29.14h9.06l.76-1c.12-.14.21-.28.35-.28s.27.12.43.25l1.27,1a.51.51,0,0,1,.23.35c0,.2-.21.25-.34.25h-6.8l0,1.89h6.15l1-.69a.58.58,0,0,1,.33-.12.57.57,0,0,1,.48.28l1.22,1.45a.93.93,0,0,1,.23.51C358.06,16.59,357.37,16.59,357.28,16.59Zm-1.68,6.77c-.19.16-.44.39-.63.58V27c0,.51.12,3.18.12,3.2a1,1,0,0,1-.39.92,1.6,1.6,0,0,1-.88.26c-.37,0-.78-.07-.78-1a3.07,3.07,0,0,1,0-.53H342.81a12,12,0,0,0-2.49.16l-.37-.85c1.41.11,3,.14,3.27.14h9.89V26.47h-9.68a13.73,13.73,0,0,0-2.49.16l-.37-.85c1.41.14,3,.14,3.28.14h9.26V23.41h-10a13.52,13.52,0,0,0-2.48.16l-.37-.86c1.38.14,3,.14,3.27.14h9.28l.77-1a.48.48,0,0,1,.39-.28c.16,0,.27.14.41.23l1.18.85a.42.42,0,0,1,.2.35A.51.51,0,0,1,355.6,23.36Zm-10-2.72h-3.48a7.76,7.76,0,0,0-1,.07l-.37-.69,1.84.07H344l.49-.58c.14-.16.2-.3.34-.3a.65.65,0,0,1,.44.28l.46.55a.55.55,0,0,1,.21.35C345.92,20.59,345.74,20.64,345.57,20.64Zm0-2.83h-3.16a7.53,7.53,0,0,0-1,.07l-.39-.7c.85.05,1.68.07,1.84.07h1.13l.55-.69c.14-.18.23-.3.42-.3a.47.47,0,0,1,.36.28l.42.62c.07.12.21.26.21.39S345.74,17.81,345.55,17.81Zm7.79,0h-2.56c-.09,0-.55,0-1,0l-.39-.69c.86.07,1.68.09,1.85.09h.43l.56-.55c.11-.11.27-.3.37-.3s.27.14.41.28l.51.5a.65.65,0,0,1,.2.37C353.68,17.76,353.5,17.81,353.34,17.81Zm.85,2.83h-3.41a7.72,7.72,0,0,0-1,.07l-.39-.69,1.85.07h1.29l.69-.67c.11-.09.23-.28.37-.28a.65.65,0,0,1,.43.3l.37.56a.75.75,0,0,1,.19.39C354.54,20.62,354.33,20.64,354.19,20.64Z"/><path class="cls-1" d="M374.32,18.68c-.07.74-.18,1.87-1.43,1.87-.48,0-.92-.23-.92-.76,0-.19.19-1,.21-1.15a34.55,34.55,0,0,0,.74-5.81H369c0,.35.07.85.07,1.61,0,4.91-.83,8.16-2.15,10.46-1.65,2.91-4.21,5.37-6.42,6.09l-.12-.14c6.36-5.28,6.59-11.38,6.59-16.08,0-.56,0-1.11-.07-1.94h-1.75a12.61,12.61,0,0,0-2.49.16l-.39-.85c1.11.11,2.19.14,3.29.14h7.31l.78-.79c.12-.11.19-.16.26-.16s.11,0,.36.19l1.52,1.19a.42.42,0,0,1,.17.33.55.55,0,0,1-.12.27,10.31,10.31,0,0,1-.92.67,31.7,31.7,0,0,0-.53,4.15h3.06l1.18-1A.53.53,0,0,1,379,17c.14,0,.21.07.32.17l1.41,1.31a.52.52,0,0,1,.21.32c0,.09-.1.46-1,.83-.44,9.31-1.78,11.68-6.48,11.52,0-1.06-.6-2-2.6-3.57v-.21a13.49,13.49,0,0,0,4.1,1.11,1.69,1.69,0,0,0,1.59-.76c.74-1.11,1.38-4.4,1.38-7.63,0-.55,0-.85,0-1.36Z"/><path class="cls-1" d="M328.15,47.36H319.7a10.44,10.44,0,0,0-1.54.13l-.28-.51c.9.07,1.76.09,2,.09h2.92a9.4,9.4,0,0,0-.05-1.2c0-.09-.15-.51-.17-.6l1.16.36c.11,0,.17.09.17.17s-.07.2-.42.34v.93h3.23l.47-.59c0-.06.13-.15.19-.15s.19.11.21.13l.62.56c.09.1.13.15.13.21S328.23,47.36,328.15,47.36Zm-.55,4.47c0,.48,0,2.64,0,3.09s0,1-1.3,1.41a.86.86,0,0,0-.23-.5,2.34,2.34,0,0,0-.82-.53v-.08l1.3,0c.37,0,.39-.17.39-.33,0-.5,0-2.65,0-3.1a.53.53,0,0,0,0-.15h-7.53c0,.64,0,1.65,0,2.29,0,0,0,1,0,1.33,0,.55,0,.62-.1.69a.56.56,0,0,1-.45.24c-.25,0-.25-.21-.25-.3a.57.57,0,0,1,0-.12c.08-.81.09-1.93.09-3,0-.25,0-1,0-1.17-.06-.62-.07-.69-.07-.77l.9.48h7.16L327,51c.08-.08.11-.13.18-.13a.37.37,0,0,1,.15.06l.49.36c.13.1.14.13.14.18S327.76,51.71,327.6,51.83Zm-1.86-3.2c0,.1,0,.17,0,.83,0,.08,0,.66,0,.68a.42.42,0,0,1-.41.46c-.28,0-.28-.1-.28-.3v-.1H321c0,.16,0,.28-.09.36a.91.91,0,0,1-.49.18c-.16,0-.16-.13-.16-.18v-.05a10.64,10.64,0,0,0,.06-1.23,10.47,10.47,0,0,0-.1-1.52l.82.42h4l.19-.26a.21.21,0,0,1,.16-.09.31.31,0,0,1,.15.06l.45.31s.09.06.09.13S325.87,48.56,325.74,48.63Zm-.63,4.26c0,.42,0,1.1,0,1.52a.35.35,0,0,1-.08.28.53.53,0,0,1-.34.14c-.23,0-.23-.12-.22-.41h-2.85c0,.28,0,.66-.49.66-.18,0-.18-.18-.18-.26s0-.62,0-.73,0-.55,0-.88a3.56,3.56,0,0,0-.09-1l.78.37h2.67l.2-.28c.05-.06.07-.11.16-.11s0,0,.14.07l.42.29a.13.13,0,0,1,.08.13C325.41,52.76,325.32,52.79,325.11,52.89Zm0-4.43H321v1.45h4.13Zm-.6,4.38h-2.85v1.3h2.85Z"/><path class="cls-1" d="M333.92,48.56h-1.56v1.29c.66.1,1.67.6,1.67,1.18a.37.37,0,0,1-.36.41c-.23,0-.29-.11-.55-.59s-.55-.78-.76-.86c0,.44,0,2.38,0,2.78,0,.81.05,2.11.05,2.93,0,.19,0,.59-.51.59a.25.25,0,0,1-.26-.28c0-.3.07-.77.08-1.06,0-.63,0-1.05.06-4.9a10.28,10.28,0,0,1-2.4,3.62l-.08-.06a15.94,15.94,0,0,0,2.35-5h-.2a9.88,9.88,0,0,0-1.54.13l-.29-.51c.66.06,1.34.09,2,.09h.2a7.33,7.33,0,0,0-.32-2.94l1.14.35a.17.17,0,0,1,.14.17c0,.12-.11.18-.4.32,0,1,0,1.74,0,2.1H333l.18-.27c.07-.12.12-.16.18-.16s.07,0,.24.13l.38.28a.19.19,0,0,1,.12.18C334.1,48.54,334,48.56,333.92,48.56Zm5.84,7.58a7.47,7.47,0,0,1-3.17-2.28A7,7,0,0,1,332.93,56v-.12a8.61,8.61,0,0,0,3.35-2.53,8.23,8.23,0,0,1-1-3.25h.16A8.75,8.75,0,0,0,336.55,53c1.13-1.8,1.12-2.49,1.1-2.93l1,.53c.06,0,.16.1.16.18s-.28.22-.48.25a11.71,11.71,0,0,1-1.43,2.49,6.28,6.28,0,0,0,4,1.78v.11A1.84,1.84,0,0,0,339.76,56.14Zm-3.62-6.87a1.7,1.7,0,0,1-.27,0A7.45,7.45,0,0,1,334,50.51l-.05-.08a7.67,7.67,0,0,0,1.68-2l.72.54c.07.06.11.1.11.16S336.19,49.27,336.14,49.27Zm4-1.47h-4.35a9.08,9.08,0,0,0-1.55.15l-.27-.53c.66.06,1.32.1,2,.1h.54a5.11,5.11,0,0,0-.31-2.12l1.1.26c.12,0,.23,0,.23.18s-.21.25-.37.33c0,.12,0,.24,0,1.35H339l.37-.42c.12-.14.14-.16.2-.16s.13.06.22.14l.42.41c.08.07.12.11.12.19S340.27,47.8,340.18,47.8Zm-.49,2.62c-.21,0-.26-.07-.68-.7a5.9,5.9,0,0,0-1.27-1.38l0-.07c1.49.52,2.29,1.22,2.29,1.72A.4.4,0,0,1,339.69,50.42Z"/><path class="cls-1" d="M350.41,54.21l.61-.72c.12-.13.16-.16.22-.16s.09,0,.2.15l.74.73a.31.31,0,0,1,.11.19c0,.11-.09.13-.18.13H343.6a10.35,10.35,0,0,0-1.55.13l-.29-.55c1,.09,1.94.1,2,.1Zm-.82-6.91.54-.6c.08-.07.13-.16.21-.16s.12.06.2.15l.6.62c.07.09.11.12.11.19s-.1.14-.18.14h-6.75a9.26,9.26,0,0,0-1.55.13l-.28-.55c1,.08,1.93.08,2,.08Z"/><path class="cls-1" d="M364.22,52.92H359.7c0,.92,0,1,0,1.32s0,1.36,0,1.57a.52.52,0,0,1-.55.6c-.26,0-.26-.14-.26-.41,0,0,.05-2.24.05-2.32s0-.23,0-.76h-3.47a9.3,9.3,0,0,0-1.55.14l-.28-.52c.89.07,1.77.1,2,.1h.48v-.72c0-1.38,0-1.72,0-1.86,0-.31-.09-.67-.12-.94l1,.59h2V47.38h-2.18a8.52,8.52,0,0,1-3,2.86l-.07-.07a12,12,0,0,0,2.7-3.35,3.53,3.53,0,0,0,.61-1.61l1,.57a.2.2,0,0,1,.12.18c0,.22-.48.25-.57.26-.23.36-.39.59-.59.88H362l.47-.56c.12-.13.13-.15.19-.15a.36.36,0,0,1,.21.13l.69.55a.25.25,0,0,1,.12.19c0,.11-.1.12-.18.12h-3.8v2.33h1.88l.38-.52s.11-.14.17-.14.21.11.23.12l.66.53a.2.2,0,0,1,.12.18c0,.11-.1.12-.18.12h-3.26v.42c0,1,0,1.1,0,2.22h3l.52-.58c.12-.13.13-.14.18-.14s.2.11.23.12l.68.57a.23.23,0,0,1,.11.18C364.4,52.9,364.3,52.92,364.22,52.92ZM356.84,50v2.64H359c0-.6,0-2.13,0-2.64Z"/><path class="cls-1" d="M376.24,55.43h-8.76a10.57,10.57,0,0,0-1.55.13l-.28-.51c.9.07,1.77.09,2,.09h3.11V51.93h-1.59a9.28,9.28,0,0,0-1.54.14l-.29-.51c.9.07,1.78.08,2,.08h1.43c0-.8,0-1,0-2.68h-2.69a9.35,9.35,0,0,1-2.2,3.68l-.1-.08a16.35,16.35,0,0,0,2.12-5.93,1.27,1.27,0,0,0,0-.23L369,47a.19.19,0,0,1,.11.18.23.23,0,0,1-.19.21,2.3,2.3,0,0,1-.34.12c-.12.37-.23.7-.42,1.18h2.58c0-.35,0-1.9,0-2.21a4,4,0,0,0-.27-1.06l1.26.35c.07,0,.19.09.19.18a.29.29,0,0,1-.11.19c0,.06-.27.27-.32.32,0,.34,0,1.91,0,2.23H374l.38-.52c.06-.08.11-.14.17-.14a.51.51,0,0,1,.23.12l.68.51a.26.26,0,0,1,.12.19c0,.11-.11.13-.18.13h-3.94c0,.86,0,1.85,0,2.68h1.94l.37-.51c.09-.15.12-.15.18-.15s.09,0,.23.12l.62.52c.06.06.12.11.12.19s-.11.12-.19.12h-3.27c0,.51,0,2.76,0,3.21h3.35l.51-.55c.11-.12.12-.13.18-.13a.4.4,0,0,1,.23.12l.63.54c.06.06.12.1.12.18S376.33,55.43,376.24,55.43Z"/><path class="cls-1" d="M378,54.18a1.74,1.74,0,0,1,1.74-1.75,1.76,1.76,0,0,1,1.75,1.75,1.75,1.75,0,0,1-3.49,0Zm3.15,0a1.42,1.42,0,1,0-1.41,1.42A1.41,1.41,0,0,0,381.19,54.18Z"/><path class="cls-1" d="M240.81,74.87a1.66,1.66,0,0,1,.86,1.17.32.32,0,0,1-.34.32c-.2,0-.35-.14-.78-.55a11.48,11.48,0,0,0-4.91-2.33A10.15,10.15,0,0,1,240.81,74.87Zm-3.87-7.27a9.12,9.12,0,0,1,3.57.81,1.11,1.11,0,0,1,.59.79.26.26,0,0,1-.25.29,1.51,1.51,0,0,1-.56-.27,9.75,9.75,0,0,0-3.89-1.59A4.23,4.23,0,0,1,236.94,67.6Zm.22,3a8.09,8.09,0,0,1,3.08.64,1,1,0,0,1,.62.79.27.27,0,0,1-.29.29c-.18,0-.36-.15-.68-.39a11,11,0,0,0-3.17-1.3A2.54,2.54,0,0,1,237.16,70.6Z"/><path class="cls-1" d="M246.17,75.81a13.44,13.44,0,0,0,6.55-7.22c-.37.07-2,.35-2.3.42a5.75,5.75,0,0,0-1.38.47c-.17.09-.22.12-.29.12s-.36-.29-.51-.5a.92.92,0,0,1-.21-.57,2,2,0,0,1,.11-.53,1.63,1.63,0,0,0,.25.4.64.64,0,0,0,.59.31,23.24,23.24,0,0,0,3.32-.48,2.93,2.93,0,0,0,.48-.28.23.23,0,0,1,.17-.07c.12,0,.93.62.93.82s-.07.16-.45.28c-.06,0-.1.1-.14.17A14.48,14.48,0,0,1,251.6,72c1.57.76,3.53,2.07,3.53,3.26,0,.09,0,.47-.36.47-.18,0-.27-.12-.35-.26a9.36,9.36,0,0,0-3-3.28,9.45,9.45,0,0,1-5.27,3.68Z"/><path class="cls-1" d="M259.91,76.71A8.62,8.62,0,0,0,263,71.37c0-.23-.11-.32-.26-.46a9.42,9.42,0,0,0-2.91.56,1.15,1.15,0,0,1-.35.12,1.3,1.3,0,0,1-.84-1.22c0-.12,0-.22,0-.34a1.45,1.45,0,0,0,1.16.75c.47,0,3.38-.35,4-.41s1.39-.13,2.09-.18a1,1,0,0,0,.45-.1.42.42,0,0,1,.18-.06,2.54,2.54,0,0,1,1,.43.34.34,0,0,1,.12.29c0,.13-.05.26-.22.26s-.79-.11-.92-.12a14.66,14.66,0,0,0-1.8-.11c-.71,0-1.23,0-1.46.07.17.12.66.47.66.59s-.21.29-.23.34a1.21,1.21,0,0,0-.13.35c-.59,2-1.62,4-3.65,4.66Zm2-8.57a7.66,7.66,0,0,0,2.17-.26,1.94,1.94,0,0,1,.6-.13c.29,0,1,.07,1,.42s-.15.21-.58.24c-1.71.07-1.89.11-3.48.25h-.13a1.08,1.08,0,0,1-.78-.28.7.7,0,0,1-.24-.64A2.4,2.4,0,0,0,262,68.14Z"/><path class="cls-1" d="M273.13,71.86v.39c0,.16,0,.78-.33.78s-.42-.68-.42-1a4.88,4.88,0,0,1,.07-.63,7.23,7.23,0,0,0,.05-1.14,8,8,0,0,0-.1-1.6c-.08-.21-.16-.23-.8-.42a1,1,0,0,1,.64-.28c.21,0,1.1.17,1.1.52,0,.07-.12.42-.12.49-.06.41-.09,1.6-.09,2.55Zm.89,5c2.36-1.79,2.82-3.35,2.82-7.15a6.64,6.64,0,0,0-.15-1.72c-.14-.24-.69-.3-.9-.32a1,1,0,0,1,.72-.36,2.28,2.28,0,0,1,1.13.36.23.23,0,0,1,.09.2,3.68,3.68,0,0,1-.15.57,4.91,4.91,0,0,0-.05.73,16.48,16.48,0,0,1-.37,4.44,4.76,4.76,0,0,1-3.1,3.33Z"/><path class="cls-1" d="M284.42,76.7A10.85,10.85,0,0,0,287,70.77c0-.4-.56-.6-.76-.68a1.34,1.34,0,0,1,.54-.16c.46,0,1.09.36,1.09.6a2.73,2.73,0,0,1-.08.34,11.08,11.08,0,0,0,2.39-2.28c0-.07-.08-.09-.23-.09-1.33,0-5.07.54-5.11.56a2.45,2.45,0,0,0-.78.27.51.51,0,0,1-.22.06c-.12,0-.25-.09-.43-.26-.4-.37-.5-.58-.5-.87a2.64,2.64,0,0,1,.07-.55c.42.78.88.82,1.19.82.85,0,5.5-.45,5.83-.51a1.7,1.7,0,0,0,.4-.14c.14-.08.15-.1.2-.1s.4.35.52.5.44.49.44.62-.12.19-.53.22c-.21,0-.33.09-.86.48-1,.71-1.41,1-1.77,1.23a6,6,0,0,1-.71.36c-.07.23-.33,1.24-.39,1.44a7.94,7.94,0,0,1-1.74,3.25,5.38,5.38,0,0,1-1.07.89Z"/><path class="cls-1" d="M294.17,75.81a13.44,13.44,0,0,0,6.55-7.22c-.37.07-2,.35-2.3.42a5.75,5.75,0,0,0-1.38.47c-.17.09-.22.12-.29.12s-.36-.29-.51-.5a.92.92,0,0,1-.21-.57,2,2,0,0,1,.11-.53,1.63,1.63,0,0,0,.25.4.64.64,0,0,0,.59.31,23.24,23.24,0,0,0,3.32-.48,2.93,2.93,0,0,0,.48-.28.23.23,0,0,1,.17-.07c.12,0,.93.62.93.82s-.07.16-.45.28c-.06,0-.1.1-.14.17A14.48,14.48,0,0,1,299.6,72c1.57.76,3.53,2.07,3.53,3.26,0,.09,0,.47-.36.47-.18,0-.27-.12-.35-.26a9.36,9.36,0,0,0-3-3.28,9.45,9.45,0,0,1-5.27,3.68Z"/><path class="cls-1" d="M310.07,67.51c0-.15-.17-.41-.72-.54a.52.52,0,0,1,.45-.19,1.61,1.61,0,0,1,1.06.5.35.35,0,0,1,.14.29c0,.08,0,.12-.27.44a5.23,5.23,0,0,0-.57.89,8.22,8.22,0,0,0,1.07-.41c.37-.17.44-.2.59-.2s.63.12.63.31-.22.24-.25.25a19.24,19.24,0,0,1-2.36.63c-.26.49-1.48,3-1.6,3.23s-.84,1.48-.91,1.54a.26.26,0,0,1-.2.09c-.07,0-.23,0-.23-.37s.1-.45.35-.76a17.59,17.59,0,0,0,1.41-2.43c.21-.39.45-.9.58-1.16a4.79,4.79,0,0,1-1.22.19c-1.07,0-1.18-.75-1.2-1a1.36,1.36,0,0,0,1.05.45,8.32,8.32,0,0,0,1.62-.23A13.39,13.39,0,0,0,310.07,67.51Zm3.1,2.35a2.5,2.5,0,0,1,2.4,1.7.23.23,0,0,1-.24.24,1.07,1.07,0,0,1-.3-.09,1.4,1.4,0,0,0-.92-.27,2.18,2.18,0,0,0-1.44.45,1,1,0,0,0-.24.78c0,.32.14,1.51.19,1.84,1.15.27,2.27.81,2.27,1.42,0,.23-.13.33-.27.33a.64.64,0,0,1-.26-.1,5.27,5.27,0,0,0-1.7-1,1.76,1.76,0,0,1-1.91,1.65c-.9,0-1.71-.49-1.71-1.17s1-1.27,2.17-1.27a7.32,7.32,0,0,1,.74,0c-.06-1-.06-1.07-.06-1.33,0-1.23.76-1.6,2.06-2,.1,0,.24-.06.24-.23s-.28-.34-.45-.45a5.81,5.81,0,0,0-1.2-.49A2.62,2.62,0,0,1,313.17,69.86Zm-2,5c-.46,0-1.66.14-1.66.79,0,.49.73.59,1.08.59s1.48-.15,1.43-1.26A2.91,2.91,0,0,0,311.15,74.85Z"/><path class="cls-1" d="M321.38,72.08a8.33,8.33,0,0,1-3.64,2.85l0-.07A11.35,11.35,0,0,0,320.63,72a3.57,3.57,0,0,0,.31-.74l.86.51c.1.06.14.08.14.14S321.54,72.05,321.38,72.08Zm6.72-3a2.45,2.45,0,0,1-.44,0,4.8,4.8,0,0,1-.74.45l-.27.17,0,0c.15-.29.43-.87.52-1.08h-3.78c0,.07,0,.45,0,.54s0,1.36,0,1.37a.42.42,0,0,1-.43.45c-.25,0-.25-.17-.25-.25s0-.41,0-.48c0-.38,0-1.08,0-1.63h-3.58c-.1,1.17-.61,1.59-1,1.59a.32.32,0,0,1-.35-.31c0-.26.16-.38.54-.71a2,2,0,0,0,.68-1.16h.09c0,.18,0,.21,0,.3h3.58c0-.12,0-.75,0-.88h-1.6a10.57,10.57,0,0,0-1.53.13l-.29-.51c.62,0,1.37.08,2,.08h4.39l.3-.33c.11-.12.14-.16.19-.16s.07,0,.23.13l.47.35s.12.11.12.18-.14.13-.2.13h-3.52v.88h3.73l.18-.16a.5.5,0,0,1,.23-.13c.07,0,.14.07.18.11l.56.59a.32.32,0,0,1,.12.21C328.34,69,328.15,69,328.1,69Zm-.35,5.81a4.5,4.5,0,0,1-1.8-1.09l-.33.18a7.86,7.86,0,0,0-.23,1.24c-.17,1.3-.55,1.92-1.81,2.1a1.55,1.55,0,0,0-.79-1v-.06a3.33,3.33,0,0,0,1,.17c.39,0,.6,0,.75-.46a11.69,11.69,0,0,0,.38-2.14h-2.14c-.43,1.87-1.78,3.2-4.3,3.56v-.11a4.63,4.63,0,0,0,3.56-3.45,8.61,8.61,0,0,0-1.43.14l-.27-.53c.9.09,1.76.1,2,.1h2.69l.22-.22c.09-.07.09-.08.12-.09a6.66,6.66,0,0,1-.76-1.29H324a3.52,3.52,0,0,0-.66.06l-.12-.39c.22,0,.68,0,.86,0h.36l.28-.26c.14-.1.16-.12.21-.12a.33.33,0,0,1,.18.1l.23.2c.14.12.16.15.16.22s-.24.24-.52.31a4.78,4.78,0,0,0,3.89,2.11v0A1.57,1.57,0,0,0,327.75,74.85Zm-5.65-5.27h-1.57a2.86,2.86,0,0,0-.66.06l-.12-.39.85,0h1s.17-.24.18-.26a.06.06,0,0,1,.05,0s.06,0,.15.12l.17.16c.07.08.09.09.09.15S322.21,69.58,322.1,69.58Zm0,1.14h-1.59a3.7,3.7,0,0,0-.66.07l-.12-.39.85,0h1.08l.17-.16c.1-.1.1-.1.13-.1s.06,0,.15.12l.09.16c.06.08.07.1.07.14S322.24,70.72,322.12,70.72Zm3.8-1.14h-1.26a4.49,4.49,0,0,0-.66.06l-.13-.39c.21,0,.68,0,.86,0h.74l.17-.15c.12-.11.15-.12.18-.12s.28.37.28.43S326,69.58,325.92,69.58Zm.34,1.14h-1.55a3.51,3.51,0,0,0-.66.07l-.12-.39.85,0h1l.17-.15c.07-.07.08-.09.13-.09s.05,0,.14.11l.16.15c.06.06.1.08.1.14S326.38,70.73,326.26,70.72Z"/><path class="cls-1" d="M340.12,67.48a2.9,2.9,0,0,1-.39.28s0,3.06,0,3.95c0,.67.12,4.84.12,5a.39.39,0,0,1-.09.3.74.74,0,0,1-.46.19c-.16,0-.23-.06-.23-.4,0,0,0-.18,0-.4h-7.9c0,.23,0,.38,0,.47a.5.5,0,0,1-.5.45c-.24,0-.24-.16-.24-.35,0-.47,0-1.24,0-1.72,0-1.94.05-3.27.05-4.73,0-1.06,0-2.17-.07-3.1a2.67,2.67,0,0,0-.07-.63l.8.34h7.71l.24-.28c.09-.09.14-.15.2-.15a.46.46,0,0,1,.19.09l.5.33c.09.06.15.09.15.18A.2.2,0,0,1,340.12,67.48Zm-1,0h-7.91v8.69h7.91Zm-.48,5H337c0,.43.08,2.34.08,2.72s-.49.46-.53.46c-.21,0-.21-.24-.21-.3s0-.95,0-1.11V72.5h-2a3.87,3.87,0,0,1-2.57,3.4l-.06-.06a4.31,4.31,0,0,0,2-3.34h-.21a10.1,10.1,0,0,0-1.54.14l-.29-.51c1,.08,1.79.08,2.08.08a20,20,0,0,0,.06-2,9.81,9.81,0,0,0-1.61.13l-.29-.51c.6,0,1.06.07,1.89.1a9.75,9.75,0,0,0-.21-2.16l1,.27c.15,0,.17.15.17.19s-.16.21-.33.27c0,.23,0,1.22,0,1.43h2c0-.19,0-1,0-1.14a3.39,3.39,0,0,0-.16-1.05l.94.29c.09,0,.17.06.17.17s0,.11-.32.29V69c0,.15,0,.74,0,.87h.49l.33-.33c.14-.14.15-.14.2-.14s.15.07.23.13l.33.31c.07.06.12.11.12.18s-.09.13-.18.13h-1.52c0,.45,0,1.75,0,2h.6l.34-.36c.08-.08.11-.16.19-.16s.15.08.24.16l.38.35c.07.06.12.11.12.18S338.71,72.5,338.62,72.5Zm-2.33-2.32h-2c0,.73,0,2,0,2h2C336.3,71.84,336.29,70.27,336.29,70.18Z"/><path class="cls-1" d="M351.74,68.34h-7.46a7.65,7.65,0,0,1-2.82,3l-.08-.08a12.61,12.61,0,0,0,2.86-4.53,1.31,1.31,0,0,0,.05-.59l1.07.46a.18.18,0,0,1,.13.17c0,.13-.09.17-.51.32-.17.3-.29.53-.52.93h5.78l.51-.58c.11-.13.13-.14.17-.14a.42.42,0,0,1,.23.12l.66.57c.06.06.12.11.12.18S351.82,68.34,351.74,68.34Zm-4.31,4.41a13,13,0,0,1-1,1.33c.16.11,1.4,1,1.4,1.75a.33.33,0,0,1-.33.36c-.25,0-.35-.15-.61-.59a7.13,7.13,0,0,0-.89-1,8.45,8.45,0,0,1-4.42,2.71V77.2a13.09,13.09,0,0,0,4-3,8.82,8.82,0,0,0-1.94-1.31v-.08a7.7,7.7,0,0,1,2.27,1,4.26,4.26,0,0,0,1-2l.94.6c.07.05.13.09.13.18S347.79,72.71,347.43,72.75Zm4.85,3.47a1,1,0,0,0,.12.46c.1.18.11.22.11.29a.32.32,0,0,1-.34.31,3.93,3.93,0,0,1-2.33-2.18,9.33,9.33,0,0,1-.51-3.66h-4.81a8.72,8.72,0,0,0-1.53.15l-.29-.53c.62.06,1.36.09,2,.09H349l.5-.46c.12-.11.14-.12.17-.12a.38.38,0,0,1,.21.12l.49.45s.09.09.09.15-.14.16-.51.32c0,.22,0,.38,0,.65a4.85,4.85,0,0,0,.86,3.21c0,.07.32.41.54.41a.28.28,0,0,0,.26-.17,7.84,7.84,0,0,0,.84-1.41l.08,0A14.05,14.05,0,0,0,352.28,76.22ZM350,69.94h-3.88a8.27,8.27,0,0,0-1.54.15l-.29-.52c.9.07,1.78.08,2,.08h2.45l.41-.49s.12-.14.18-.14.21.12.23.12l.51.49c.09.07.12.11.12.19S350.1,69.94,350,69.94Z"/><path class="cls-1" d="M359.29,68.6c.22-.13.23-.14.4-.14s.45.1.45.28A.32.32,0,0,1,360,69a12.41,12.41,0,0,1-2.12.82A60.39,60.39,0,0,1,355.4,76c-.13.25-.19.39-.38.39s-.33-.26-.33-.45,0-.17.37-.82a30.61,30.61,0,0,0,2.2-5.12,6.74,6.74,0,0,1-1.56.2c-.85,0-1.08-.36-1.21-.61a3,3,0,0,0,1.05.16,8.29,8.29,0,0,0,1.9-.3,10.54,10.54,0,0,0,.46-1.8c0-.34-.24-.48-.61-.71a1.42,1.42,0,0,1,.5-.08.89.89,0,0,1,.92.78c0,.07,0,.12-.14.39a10.55,10.55,0,0,0-.51,1.21A8.85,8.85,0,0,0,359.29,68.6Zm2,7.12a11.21,11.21,0,0,0,1.74-.14c.21,0,.23,0,.28,0s.55.26.55.44c0,.38-1.4.39-2.1.39a3.93,3.93,0,0,1-2.51-.66,1.37,1.37,0,0,1-.46-1,1.54,1.54,0,0,1,.19-.77C359,74.9,359.28,75.72,361.29,75.72Zm.08-4.11c.27-.22,1-.79,1-1s-.45-.25-2-.29a3.15,3.15,0,0,1,1.68-.44c.75,0,1.76.3,1.76.86,0,.3-.2.3-.55.3a3.78,3.78,0,0,0-1.86.63Zm2-3c0,.07,0,.3-.23.3s-.16,0-.62-.48a6.38,6.38,0,0,0-1.27-.95C362.06,67.51,363.39,67.82,363.39,68.64Zm-.77-2.08a3,3,0,0,1,1.6.47.66.66,0,0,1,.25.53c0,.13-.05.27-.23.27a.53.53,0,0,1-.37-.21,4,4,0,0,0-1.69-1A1.44,1.44,0,0,1,362.62,66.56Z"/><path class="cls-1" d="M368.8,74.66c1.12.76,1.24.86,1.56.86a.55.55,0,0,0,.47-.37,8.54,8.54,0,0,0,.86-3.74c0-.56,0-1.35-.82-1.35a3.66,3.66,0,0,0-1,.19,38,38,0,0,1-2.76,6,.31.31,0,0,1-.25.16c-.17,0-.28-.35-.28-.52s0-.2.42-.85a26.69,26.69,0,0,0,2.26-4.58,8.18,8.18,0,0,0-1.77.75,1,1,0,0,1-.45.21,1.21,1.21,0,0,1-1-1.13.62.62,0,0,1,.07-.29c.27.48.47.62.78.62a1.77,1.77,0,0,0,.55-.12l2-.55a8.82,8.82,0,0,0,.61-2c0-.55-.8-.78-.92-.81a.58.58,0,0,1,.46-.16c.46,0,1.35.32,1.35.77a.76.76,0,0,1-.14.38A11.68,11.68,0,0,0,370,69.8a3.33,3.33,0,0,1,.87-.13c1.42,0,1.42,1.24,1.42,1.89,0,1.17-.36,3.92-1.63,4.87a1.26,1.26,0,0,1-.61.25c-.17,0-.18,0-.29-.49a5.72,5.72,0,0,0-1-1.47Zm5-2.37a4.18,4.18,0,0,0,1.26-.21.42.42,0,0,0,.3-.36A5.5,5.5,0,0,0,373,69.34c1.05,0,3.26,1.6,3.26,3.1,0,.2,0,.53-.24.53a4.2,4.2,0,0,1-.52-.26c-.26-.09-1.48-.28-1.72-.33Zm0-4.18c.56,0,1.94.38,1.94,1.07,0,.09-.06.3-.25.3s-.48-.38-.57-.44a6.25,6.25,0,0,0-1.56-.86A1.1,1.1,0,0,1,373.79,68.11Zm1.22-.93c.54,0,1.86.18,1.86,1,0,.13-.05.26-.18.26s-.55-.42-.65-.49a5.45,5.45,0,0,0-1.67-.73A2.8,2.8,0,0,1,375,67.18Z"/><path class="cls-1" d="M378.1,74a4.78,4.78,0,0,1,2.25.93,1.79,1.79,0,0,1,.7,1.35.6.6,0,0,1-.55.63c-.2,0-.33-.16-.57-.64-.59-1.2-.85-1.72-1.86-2.15Z"/><path class="cls-1" d="M177.73,88.62a1.89,1.89,0,0,0,.58-.14,14.17,14.17,0,0,1,2.23-.51,1.09,1.09,0,0,1,.9.84c0,.15,0,.18-.35.37a4.56,4.56,0,0,0-.55.4A35.8,35.8,0,0,1,177,92.27c-.1.06-.4.27-.4.32a.08.08,0,0,0,.07.07,3.41,3.41,0,0,0,.45-.11A35.51,35.51,0,0,1,182,91.46a6.91,6.91,0,0,1,1-.19c.3,0,.91.33.91.63s-.13.24-.31.24-1-.08-1.23-.08a4.88,4.88,0,0,0-3.86,1.86,1.73,1.73,0,0,0-.44,1.16c0,1.28,1.48,1.94,2.82,2a.58.58,0,0,1,.55.55c0,.19-.13.29-.45.29a7.18,7.18,0,0,1-1.91-.58,2.39,2.39,0,0,1-1.49-2.08c0-.55.26-2,2.63-3.09a13.51,13.51,0,0,0-4.8,1.46,1.42,1.42,0,0,1-.6.2.44.44,0,0,1-.48-.44c0-.26.18-.31.53-.39,1.1-.28,2.09-1.11,4-2.69a5.84,5.84,0,0,0,1.61-1.82.14.14,0,0,0-.15-.15,9.09,9.09,0,0,0-1.47.47,3.32,3.32,0,0,0-.66.45.69.69,0,0,1-.43.2A1.05,1.05,0,0,1,177,88.4a1.18,1.18,0,0,1,0-.31A1,1,0,0,0,177.73,88.62Z"/><path class="cls-1" d="M191.39,97.05c3.58-1.24,3.75-3.82,3.75-4.44,0-2.1-2-3.23-3.75-3.23a1.36,1.36,0,0,0-.45.06c.59.5.59.86.59.91s0,.2-.29.72A27.35,27.35,0,0,1,189,95.46c-.06.09-.44.65-.68.75a.64.64,0,0,1-.23.05c-.27,0-.36-.14-.69-.62a1.69,1.69,0,0,0-.33-.32,1.8,1.8,0,0,1-.62-1.62,4.86,4.86,0,0,1,5.1-4.68c2.19,0,4.36,1.25,4.36,3.73a4.62,4.62,0,0,1-4.46,4.43ZM190,92.38a5.82,5.82,0,0,0,.71-2.08,1.11,1.11,0,0,0-.34-.77A4.4,4.4,0,0,0,187,93.76c0,.91.58,1.72,1.05,1.72a.3.3,0,0,0,.22-.09,4.68,4.68,0,0,0,.7-1Z"/><path class="cls-1" d="M207.82,98.11a8.37,8.37,0,0,1-1.88-.7,6.12,6.12,0,0,1-2.61-2.58h-.24c-.6,1.64-2,3-4.8,3.44l0-.12a6.44,6.44,0,0,0,4.12-3.32h-2.63a9.3,9.3,0,0,0-1.55.14l-.27-.51c.88.07,1.76.08,2,.08h2.56a6.3,6.3,0,0,0,.26-1.34h-1.24a10.57,10.57,0,0,0-1.55.13l-.27-.52c.9.08,1.76.1,2,.1h1.09c0-.26,0-.6,0-1.34h-1.54a9.26,9.26,0,0,0-1.55.13l-.27-.52c.89.07,1.76.1,2,.1h1.37a5.6,5.6,0,0,0-.17-1.63l1.1.26a.18.18,0,0,1,.17.18c0,.12-.08.19-.38.35,0,.16,0,.23,0,.84h1.93l.4-.45c.12-.13.13-.14.19-.14a.4.4,0,0,1,.22.12l.48.43c.06.06.12.12.12.19s-.1.14-.18.14h-3.17l-.05,1.34h1.84l.33-.4c.12-.13.14-.14.18-.14a.44.44,0,0,1,.22.12l.48.4a.22.22,0,0,1,.12.18c0,.1-.1.13-.18.13h-3a7.52,7.52,0,0,1-.24,1.34h3.69l.51-.46c.14-.11.14-.14.19-.14s.11,0,.22.13l.56.45a.23.23,0,0,1,.12.19c0,.11-.11.12-.18.12h-4.76a6,6,0,0,0,5.31,2.27v.09C208.29,97.38,208.18,97.47,207.82,98.11Zm.23-8.59-.53,0c-.22.12-1.21.65-1.42.75l-.07-.06a4.87,4.87,0,0,0,.65-1h-7.35c0,1-.26,2-1,2a.39.39,0,0,1-.4-.39c0-.24.06-.3.61-.82a2.14,2.14,0,0,0,.59-1.5h.11c0,.17,0,.25.08.45h3.49a3.36,3.36,0,0,0-.24-1.52l1.12.24c.07,0,.18,0,.18.18s-.09.21-.39.38v.72h3.13l.54-.44c.12-.09.13-.1.19-.1a.29.29,0,0,1,.22.08l.73.62a.27.27,0,0,1,.12.2C208.41,89.52,208.21,89.52,208.05,89.52Z"/><path class="cls-1" d="M212.65,93c-.13.59-.5,2.35-.57,2.79a5.56,5.56,0,0,0-.05.62c0,.12.05.62.05.73a.26.26,0,0,1-.27.27c-.74,0-1-2.22-1-2.92a24.35,24.35,0,0,1,.58-4.21,3,3,0,0,0,.1-.71,1,1,0,0,0-.51-1,.66.66,0,0,1,.25,0,1.24,1.24,0,0,1,1.1,1c0,.13,0,.18-.19.63a10.12,10.12,0,0,0-.81,3.87,6.62,6.62,0,0,0,.16,1.59,0,0,0,0,0,.05,0c.08,0,.12-.17.13-.21L212.5,93a.26.26,0,0,0,0-.08Zm4.49-3.92c0-.64-.21-.71-.83-.87A1.38,1.38,0,0,1,217,88a1.19,1.19,0,0,1,.75.35c.09.08.14.13.14.24s-.09.42-.1.49a10.6,10.6,0,0,0-.1,1.65c.25,0,1.31-.35,1.54-.35s.58.16.58.35-.22.26-.3.27c-.71.15-1.78.27-1.82.28,0,1.3.06,2.72.18,3.88a10,10,0,0,1,1.53.73,1,1,0,0,1,.49.68.32.32,0,0,1-.3.33c-.11,0-.18-.05-.39-.19-.47-.32-1.14-.75-1.42-.89A1.78,1.78,0,0,1,216,97.14c-1,0-1.89-.55-1.89-1.23a1.07,1.07,0,0,1,.68-.91,3.06,3.06,0,0,1,1.22-.2,8,8,0,0,1,1.31.11c0-.36-.08-3-.09-3.6a8.13,8.13,0,0,1-1.1.1,3.34,3.34,0,0,1-1.7-.44.79.79,0,0,1-.32-.41,3.89,3.89,0,0,0,1.76.34,8.44,8.44,0,0,0,1.34-.1C217.16,90.52,217.15,89.3,217.14,89.05Zm-1.24,6.2c-.52,0-1.4.18-1.4.65s.58.67,1.27.67a1.34,1.34,0,0,0,1.48-1A3.61,3.61,0,0,0,215.9,95.25Z"/><path class="cls-1" d="M224.5,90.75a2.17,2.17,0,0,0-.3.08,7.88,7.88,0,0,1-2.41,2.32l0-.05a10.36,10.36,0,0,0,1.73-2.67,1.7,1.7,0,0,0,.09-.54l.9.53c.06,0,.16.09.16.18S224.62,90.7,224.5,90.75Zm7.67-1.58h-3.56c0,.42.06,2.23.06,2.6,0,.71-.07,1-1.06,1.42a1.23,1.23,0,0,0-.76-.88v-.07a8.15,8.15,0,0,0,1,0c.09,0,.1-.15.1-.28,0-.77,0-2,0-2.78h-1.5a4.75,4.75,0,0,1-1.75,4,4.55,4.55,0,0,1-2.29,1.11v-.06A5.93,5.93,0,0,0,225.1,92a4.85,4.85,0,0,0,.64-2.8h-2a10.62,10.62,0,0,0-1.55.14l-.27-.51c.89.07,1.76.08,2,.08h2.86a5.24,5.24,0,0,0-.2-1.57l1.07.25c.13,0,.22.08.22.19a.21.21,0,0,1-.1.17,1.11,1.11,0,0,0-.26.18,5.73,5.73,0,0,0,0,.78h3.3l.42-.54c.06-.08.12-.16.18-.16a.48.48,0,0,1,.24.14l.63.55c.07,0,.12.09.12.18S232.26,89.17,232.17,89.17Zm-.35,8.8a12.23,12.23,0,0,1-4.25-1.43A8.93,8.93,0,0,1,222,98.22v-.06a9.86,9.86,0,0,0,5.09-2,4,4,0,0,1-1.32-1.55,10.38,10.38,0,0,1-3.34,2.28v-.05a10.57,10.57,0,0,0,2.72-2.41A3.58,3.58,0,0,0,226,93l.87.36c.08,0,.16.07.16.16s-.06.25-.52.23l-.23.27H229l.61-.43c.13-.1.15-.11.24-.11a.23.23,0,0,1,.14.06l.49.42a.24.24,0,0,1,.12.19.19.19,0,0,1-.1.17l-.69.13A9.85,9.85,0,0,1,228,96.21a8.27,8.27,0,0,0,3.61.81,7.26,7.26,0,0,0,1-.06v.09A1.77,1.77,0,0,0,231.82,98ZM226,94.35c0,.05,0,.05-.12.13a4.85,4.85,0,0,0,1.56,1.43,6.41,6.41,0,0,0,1.46-1.56Zm5.63-1.93c-.24,0-.28-.06-.63-.58a6.25,6.25,0,0,0-1.78-1.74l0-.08a7.79,7.79,0,0,1,1.73.67c.92.55,1,1.14,1,1.34A.37.37,0,0,1,231.66,92.42Z"/><path class="cls-1" d="M244.66,97.23a2,2,0,0,0-1.27.63c-3.33-2.32-3.93-6-4.06-9.45a.68.68,0,0,0-.2,0c-.2,3.49-.58,7.64-5.1,9.56l0-.1A9.28,9.28,0,0,0,237.79,93a16.76,16.76,0,0,0,.58-4.16c0-.18,0-.35,0-.54a1.78,1.78,0,0,0-.07-.64l1.27.29c.18,0,.24.06.24.17s-.19.2-.31.24a13.12,13.12,0,0,0,1.74,6.1,6,6,0,0,0,3.44,2.66Z"/><path class="cls-1" d="M256.53,93h-2.3c0,2.41,0,2.67,0,3.38,0,.11,0,.65,0,.78a.78.78,0,0,1-.4.76,2.67,2.67,0,0,1-.87.35.67.67,0,0,0-.2-.44,2.68,2.68,0,0,0-1-.56l0-.09a4,4,0,0,0,.79.06c1,0,1-.09,1-.36V93h-5.93a9.48,9.48,0,0,0-1.54.13l-.29-.52c.63.06,1.37.1,2,.1h7.26l.41-.56c.09-.15.12-.17.19-.17a.49.49,0,0,1,.23.13l.68.58a.24.24,0,0,1,.12.18C256.71,93,256.58,93,256.53,93Zm-.85-3.68h-4.75l-.2.48c2,.32,3.7,1.12,3.7,2a.36.36,0,0,1-.36.4c-.27,0-.44-.2-.67-.46a7.53,7.53,0,0,0-1.52-1.28,4,4,0,0,0-1.22-.47,4.49,4.49,0,0,1-3.42,2.49l-.05-.09a5.26,5.26,0,0,0,3.07-3h-1.9a8.17,8.17,0,0,0-1.54.14l-.28-.52c.89.08,1.76.09,2,.09h1.84a5,5,0,0,0,.25-1.31,2.7,2.7,0,0,0-.05-.41l1,.29c.06,0,.18.06.18.17s-.07.13-.42.3a9,9,0,0,1-.27,1h3.22l.45-.55s.12-.15.19-.15.18.1.23.15l.61.52c.07.08.12.11.12.2S255.76,89.34,255.68,89.34Zm-4.25,5.3s-.15.09-.28.19a6.43,6.43,0,0,0,0,1c0,.17,0,.9,0,1.06,0,.32-.41.37-.48.37-.22,0-.2-.13-.2-.37h-2.37a2.93,2.93,0,0,1,0,.4.42.42,0,0,1-.47.46c-.27,0-.26-.12-.24-.41s0-2.54,0-3.46l.82.39h2.05l.28-.3c.07-.08.09-.09.15-.09a.33.33,0,0,1,.17.08l.48.35c.07,0,.12.08.12.15S251.48,94.6,251.43,94.64Zm-.94,0h-2.38v2h2.38Z"/><path class="cls-1" d="M268.66,97.23a2,2,0,0,0-1.27.63c-3.33-2.32-3.93-6-4.06-9.45a.68.68,0,0,0-.2,0c-.2,3.49-.58,7.64-5.1,9.56l0-.1A9.28,9.28,0,0,0,261.79,93a16.76,16.76,0,0,0,.58-4.16c0-.18,0-.35,0-.54a1.78,1.78,0,0,0-.07-.64l1.27.29c.18,0,.24.06.24.17s-.19.2-.31.24a13.12,13.12,0,0,0,1.74,6.1,6,6,0,0,0,3.44,2.66Z"/><path class="cls-1" d="M274.59,88.24c0-.26-.21-.36-.73-.55a.64.64,0,0,1,.5-.17c.58,0,1.06.39,1.06.65,0,.06,0,.15-.17.39l-.66,1A9.5,9.5,0,0,0,276,89a.77.77,0,0,1,.32-.09c.18,0,.61.1.61.35s-.19.26-.47.34c-.82.2-1.27.28-2.25.46a21.31,21.31,0,0,0-1.42,2.19,2.15,2.15,0,0,1,1.2-.4,1.44,1.44,0,0,1,1.48,1.26c.57-.32,1.21-.67,2.58-1.3.15-.07.25-.14.25-.31s-.14-.27-.34-.43l.2,0c.25,0,1.18.3,1.18.93,0,.25-.13.27-.6.34a16.45,16.45,0,0,0-3.18,1.21,7.43,7.43,0,0,1,.15,1.5c0,.12,0,1-.4,1s-.34-.5-.34-.65,0-.79,0-.94a5.64,5.64,0,0,0,0-.57c-.93.6-1.8,1.56-1.8,2.23,0,.89,1.48.92,1.9.92a9.58,9.58,0,0,0,1.86-.22,1.84,1.84,0,0,1,.39,0c.37,0,.69.19.69.42,0,.07-.05.24-.33.3a10.87,10.87,0,0,1-1.76.12c-1.82,0-2.25-.2-2.62-.45a1.27,1.27,0,0,1-.58-1,2.16,2.16,0,0,1,.42-1.11,7.31,7.31,0,0,1,1.76-1.58c-.13-.71-.33-1.24-1.1-1.24a2.09,2.09,0,0,0-1.56,1c-.47.67-.53.75-.68.75s-.3-.34-.3-.43a.49.49,0,0,1,.27-.48,12.12,12.12,0,0,0,2.07-2.83,6.92,6.92,0,0,1-1.26.17,1,1,0,0,1-1.12-.95,1.72,1.72,0,0,0,1.14.41,8.17,8.17,0,0,0,1.55-.17A7.35,7.35,0,0,0,274.59,88.24Z"/><path class="cls-1" d="M286.09,91.63h-1.56c0,1.34,0,2.68,0,4,.32-.11,1.51-.48,1.69-.56l.05.1a13.2,13.2,0,0,1-1.82,1c-.89.4-1.19.55-1.49.7-.12.32-.15.36-.25.36a.19.19,0,0,1-.16-.11l-.55-.9a7.58,7.58,0,0,0,1.94-.39V91.63h-.17a8.17,8.17,0,0,0-1.54.14l-.28-.52c.73.06,1.37.09,2,.09,0-1.87,0-1.94,0-2.5a3.92,3.92,0,0,0-.18-1.08l1.09.4c.16.06.18.06.18.13s-.29.36-.42.47c-.05,1.21-.05,1.62-.05,2.58h.6l.28-.31c.07-.09.12-.15.18-.15s.17.09.21.12l.36.31a.3.3,0,0,1,.12.2C286.28,91.61,286.17,91.63,286.09,91.63Zm5.33,6.09c-.22,0-2.43,0-2.83,0-1.29,0-1.43,0-1.74-.14s-.38-.44-.38-.8c0-.66,0-3.54,0-4.13a9.18,9.18,0,0,0-1.29.72l-.46-.37c.24-.07.79-.26,1.75-.66,0-.34,0-1.83,0-2.13a4.78,4.78,0,0,0-.18-1.32l1,.37c.07,0,.16.06.16.14s0,.11-.4.43c0,.36,0,1.93,0,2.25l1.49-.65a14.49,14.49,0,0,0-.22-3.95l1.09.36c.07,0,.18.07.18.15s-.05.12-.12.19a2.8,2.8,0,0,1-.32.31c0,.5,0,.86,0,2.69l1.4-.61.24-.41c.09-.13.11-.15.14-.15a.38.38,0,0,1,.16.06l.53.32s.09.06.09.14,0,.13-.31.38a26.2,26.2,0,0,1-.18,3.66,1.42,1.42,0,0,1-1.1,1.15,1.14,1.14,0,0,0-.71-.75v-.1a2,2,0,0,0,.45.06c.52,0,.65-.25.71-.41a14.29,14.29,0,0,0,.21-3.06c0-.16,0-.45,0-.68l-1.6.71c0,.35,0,1.88,0,2.21s.07,1.93.07,2.09a.47.47,0,0,1-.53.54c-.14,0-.23,0-.23-.18s0-.64.05-.74c0-.59,0-1.33,0-3.67l-1.49.65c0,.5,0,4.32,0,4.44s.26.28.36.3h1.81c1.64,0,1.74,0,1.91-.11s.32-.26.49-.66c.08-.22.12-.31.39-1.14h.11c0,.14,0,.8,0,.95s0,.44.22.56.11.07.11.13S292.3,97.6,291.42,97.72Z"/><path class="cls-1" d="M295.25,90.27a8.57,8.57,0,0,0,2-.44c1.78-.48,5.36-1.24,5.52-1.24s.85.22.85.57-.3.31-.46.31l-.72,0a3.59,3.59,0,0,0-2.69.92,4.41,4.41,0,0,0-1.6,3.23c0,2.1,2.12,2.69,3,2.86.33.06.51.08.67.3a.51.51,0,0,1,.14.32c0,.19-.17.23-.3.23-1.24,0-4-.91-4-3.59,0-2.06,1.53-3.28,2.79-4.28-.72.2-1.61.42-2.41.61a7.57,7.57,0,0,0-2.54,1,.69.69,0,0,1-.35.12,1,1,0,0,1-.79-1,.92.92,0,0,1,.08-.4C294.79,90.19,294.85,90.27,295.25,90.27Zm6.81.8c.8.51.9.81.9,1.08,0,.12,0,.38-.25.38s-.21-.12-.29-.27A5.19,5.19,0,0,0,301,90.68,2.59,2.59,0,0,1,302.06,91.07Zm2.29.58c0,.29-.15.32-.21.32s-.22-.13-.34-.3a6.42,6.42,0,0,0-1.56-1.42C303,90.37,304.35,90.87,304.35,91.65Z"/><path class="cls-1" d="M309.49,90.63a8,8,0,0,1-.83,1.1l.15.1c.06,0,.15.1.15.18s-.24.28-.3.34c0,1-.08,2.67-.08,3.7,0,.27.05,1.43.05,1.69a.48.48,0,0,1-.53.53c-.29,0-.29-.17-.29-.27,0-.34.07-.86.09-1.18,0-1,.06-1.32.14-4.43a8.71,8.71,0,0,1-2.54,1.85v-.06a16.68,16.68,0,0,0,3.33-3.83,2.35,2.35,0,0,0,.3-.75l.8.68s.12.1.12.18S310,90.6,309.49,90.63Zm-.36-2.34a8,8,0,0,1-3.37,2.38l0-.07A13.41,13.41,0,0,0,308.44,88a1.86,1.86,0,0,0,.34-.72l.77.71a.18.18,0,0,1,.09.15C309.64,88.27,309.59,88.27,309.13,88.29Zm7.32,3.38H314.1c0,3.43,0,3.81,0,4.71,0,.12,0,.68,0,.81,0,.83-1.07,1-1.18,1.06-.13-.66-.86-.93-1.15-1v-.07c.35,0,.83,0,1.34,0,.13,0,.3,0,.3-.23s0-4.68,0-5.26h-1.84a8.81,8.81,0,0,0-1.54.15l-.29-.52c.67,0,1.33.09,2,.09h3.3l.42-.52c.06-.08.12-.17.19-.17s.18.1.23.15l.59.51c.07.06.12.11.12.19S316.5,91.67,316.45,91.67Zm-.67-3.08h-3.49a8.36,8.36,0,0,0-1.54.15l-.29-.53c.9.07,1.79.09,2,.09h2l.36-.46c.11-.15.15-.18.22-.18a.45.45,0,0,1,.21.12l.62.5a.27.27,0,0,1,.12.18C316,88.58,315.86,88.59,315.78,88.59Z"/><path class="cls-1" d="M320.86,93.68a1.28,1.28,0,0,1-.4-.76c0-.27.11-.43.42-.78a34.29,34.29,0,0,0,3-3.43.6.6,0,0,0,.11-.33c0-.2-.05-.26-.47-.82a2.15,2.15,0,0,1,.75.2,1.34,1.34,0,0,1,.56,1c0,.18-.05.21-.3.42-.53.41-2.47,2.37-3.25,3.24a.68.68,0,0,0-.23.49c0,.29.21.48.83,1.08l1.49,1.4c.52.49,1.78,1.74,1.78,2.23,0,.19-.15.62-.42.62s-.27-.14-.43-.48a10.89,10.89,0,0,0-1.76-2.38Z"/><path class="cls-1" d="M332.5,90.75a2.17,2.17,0,0,0-.3.08,7.88,7.88,0,0,1-2.41,2.32l0-.05a10.36,10.36,0,0,0,1.73-2.67,1.7,1.7,0,0,0,.09-.54l.9.53c.06,0,.16.09.16.18S332.62,90.7,332.5,90.75Zm7.67-1.58h-3.56c0,.42.06,2.23.06,2.6,0,.71-.07,1-1.06,1.42a1.23,1.23,0,0,0-.76-.88v-.07a8.15,8.15,0,0,0,1,0c.09,0,.1-.15.1-.28,0-.77,0-2,0-2.78h-1.5a4.75,4.75,0,0,1-1.75,4,4.55,4.55,0,0,1-2.29,1.11v-.06A5.93,5.93,0,0,0,333.1,92a4.85,4.85,0,0,0,.64-2.8h-2a10.62,10.62,0,0,0-1.55.14l-.27-.51c.89.07,1.76.08,2,.08h2.86a5.24,5.24,0,0,0-.2-1.57l1.07.25c.13,0,.22.08.22.19a.21.21,0,0,1-.1.17,1.11,1.11,0,0,0-.26.18,5.73,5.73,0,0,0,0,.78h3.3l.42-.54c.06-.08.12-.16.18-.16a.48.48,0,0,1,.24.14l.63.55c.07,0,.12.09.12.18S340.26,89.17,340.17,89.17Zm-.35,8.8a12.23,12.23,0,0,1-4.25-1.43A8.93,8.93,0,0,1,330,98.22v-.06a9.86,9.86,0,0,0,5.09-2,4,4,0,0,1-1.32-1.55,10.38,10.38,0,0,1-3.34,2.28v-.05a10.57,10.57,0,0,0,2.72-2.41A3.58,3.58,0,0,0,334,93l.87.36c.08,0,.16.07.16.16s-.06.25-.52.23l-.23.27H337l.61-.43c.13-.1.15-.11.24-.11a.23.23,0,0,1,.14.06l.49.42a.24.24,0,0,1,.12.19.19.19,0,0,1-.1.17l-.69.13A9.85,9.85,0,0,1,336,96.21a8.27,8.27,0,0,0,3.61.81,7.26,7.26,0,0,0,1-.06v.09A1.77,1.77,0,0,0,339.82,98ZM334,94.35c0,.05,0,.05-.12.13a4.85,4.85,0,0,0,1.56,1.43,6.41,6.41,0,0,0,1.46-1.56Zm5.63-1.93c-.24,0-.28-.06-.63-.58a6.25,6.25,0,0,0-1.78-1.74l0-.08a7.79,7.79,0,0,1,1.73.67c.92.55,1,1.14,1,1.34A.37.37,0,0,1,339.66,92.42Z"/><path class="cls-1" d="M347.18,96.75a6,6,0,0,0,3-1.44,2.69,2.69,0,0,0,1.09-2.24,1.93,1.93,0,0,0-1.92-1.91,6.75,6.75,0,0,0-3.88,1.93c0,.49.15,2.66.15,3.11s-.18,1.27-.5,1.27c-.15,0-.19-.07-.25-.43a3.37,3.37,0,0,0-.48-1.37l0,0A4.17,4.17,0,0,0,345,96c.1,0,.11-.13.11-.21v0c0-.61-.06-1.64-.07-2.24a17.71,17.71,0,0,0-1.84,2.43c-.18.27-.2.3-.31.3s-.24-.27-.24-.43a.74.74,0,0,1,.37-.72,10.9,10.9,0,0,0,2-3.12c0-.14.05-.75.06-.87a3.33,3.33,0,0,0-1.15.57c-.28.22-.36.27-.53.27-.45,0-.83-.78-.83-1.14a.53.53,0,0,1,0-.19.94.94,0,0,0,.78.53,5,5,0,0,0,1.74-.62c0-.25.12-1.34.12-1.56a1.06,1.06,0,0,0-.67-1.13.9.9,0,0,1,.36-.07,1.1,1.1,0,0,1,1.11.76c0,.07,0,.11-.15.44a5.79,5.79,0,0,0-.24,1.27.47.47,0,0,1,.21-.07c.12,0,.71.17.71.39s-.31.49-.49.67a3.58,3.58,0,0,0-.67,1.08c0,.24,0,.32,0,.48a6.26,6.26,0,0,1,4.06-2A2.4,2.4,0,0,1,352,93.19a3.41,3.41,0,0,1-2.18,3,5.62,5.62,0,0,1-2.63.65Z"/><path class="cls-1" d="M358.27,98.27a6.35,6.35,0,0,0,2.09-2.69,8.29,8.29,0,0,0,.56-3.32,6.63,6.63,0,0,0-.39-2.61.78.78,0,0,0-.59-.39.83.83,0,0,0-.54.22A8.38,8.38,0,0,0,357.7,93a9.94,9.94,0,0,0-.15,1.38c0,.08,0,.49,0,.57a.17.17,0,0,1-.18.19.56.56,0,0,1-.39-.24,4.09,4.09,0,0,1-.45-2c0-.74.32-2.76.45-3.6a3.72,3.72,0,0,0,.05-.54c0-.57-.35-.81-.75-1.11a1.87,1.87,0,0,1,.3,0c.38,0,1.14.21,1.14.8a1.93,1.93,0,0,1-.12.57,12.44,12.44,0,0,0-.62,3.38,3,3,0,0,0,.11.91s.05,0,.06,0,.09,0,.11-.12c.17-.73.85-3.17,2.21-4A1,1,0,0,1,360,89c1.44,0,1.59,2.34,1.59,3.44a6.25,6.25,0,0,1-1.95,5.06,4.41,4.41,0,0,1-1.4.86Z"/><path class="cls-1" d="M376.51,91.54h-4.26A19,19,0,0,1,370,93.4h3.35l.24-.31c.11-.14.12-.16.17-.16s.08,0,.17.1l.47.3c.15.1.17.16.17.2s-.25.3-.35.38c0,.87,0,2.31.06,3.14,0,.12.05.66.05.74a.5.5,0,0,1-.49.42c-.28,0-.28-.23-.28-.47h-4.15a1,1,0,0,1,0,.23.52.52,0,0,1-.49.32.24.24,0,0,1-.26-.28s0-.09,0-.12c.06-.89.11-2.91.09-3.67a11.88,11.88,0,0,1-3.16,1.33l-.05-.09a18,18,0,0,0,3.19-1.79,6.14,6.14,0,0,0-.08-.75l.61.37a19.94,19.94,0,0,0,2.11-1.75h-3.91a10.57,10.57,0,0,0-1.55.13l-.27-.51c.9.07,1.76.09,2,.09h2.12c0-.28,0-1.63,0-1.82h-1.24a8.27,8.27,0,0,0-1.54.15l-.28-.52c.9.07,1.76.08,2,.08h1.07a3.55,3.55,0,0,0-.25-1.8l1.11.28a.23.23,0,0,1,.21.2c0,.1-.19.24-.36.35,0,.16,0,.84,0,1h1l.46-.54c.07-.08.12-.14.18-.14s.2.12.22.12l.6.54s.12.11.12.19-.11.12-.2.12h-2.4c0,.79,0,1.3,0,1.82h1.24a13.38,13.38,0,0,0,2.35-3,.86.86,0,0,0,.08-.36l1,.61a.27.27,0,0,1,.13.21c0,.16-.2.2-.32.2a1.09,1.09,0,0,1-.24,0,19.6,19.6,0,0,1-2.12,2.41H375l.47-.63c0-.05.11-.14.18-.14s.19.1.22.12l.67.63c.07.06.12.11.12.18S376.58,91.54,376.51,91.54Zm-2.92,2.15h-4l-.18.12v1.62h4.15Zm0,2h-4.15v1.74h4.15Z"/><path class="cls-1" d="M378,96.18a1.74,1.74,0,0,1,1.74-1.75,1.76,1.76,0,0,1,1.75,1.75,1.75,1.75,0,0,1-3.49,0Zm3.15,0a1.42,1.42,0,1,0-1.41,1.42A1.41,1.41,0,0,0,381.19,96.18Z"/></g></g></svg>