<svg xmlns="http://www.w3.org/2000/svg" viewBox="0 0 138.97 91.56"><defs><style>.cls-1{opacity:0.88;}.cls-2{fill:#fff;}</style></defs><g id="レイヤー_2" data-name="レイヤー 2"><g id="レイヤー_1-2" data-name="レイヤー 1"><g class="cls-1"><path class="cls-2" d="M57,81a4.77,4.77,0,0,0-3.13.88,39.11,39.11,0,0,1-11.61-18.7A28.37,28.37,0,0,1,30.34,84.72l-.29-.35c7.6-6.53,9.72-13.06,10.59-17.94a27.94,27.94,0,0,0,.42-7,4.12,4.12,0,0,0-.43-1.66l.27-.25,2.47,1.65,0,.2c-1,.58-1,1-1.06,2.25a40.65,40.65,0,0,0,3.31,8.1c4.94,9.14,9.63,10.48,11.36,11Z"/><path class="cls-2" d="M90.06,49.64c0-.09.09-.17.2-.18s.17.07.29.14l1,.86c.09.07.09.1.09.16s-.85.78-.89,1-.31,2.18-.38,2.59A26.86,26.86,0,0,1,80.55,70l-.27-.33c6.29-5.73,9.16-12.62,9.34-18.4l-5.86.5a36.79,36.79,0,0,1-4.25,8.82l-.38-.24a39.75,39.75,0,0,0,4.61-12.72,7.13,7.13,0,0,0,0-1.79l.23-.13,1.73,1.68,0,.16c-.5.21-.64.22-.72.53-.3,1-.75,2.43-.92,3l5.54-.48ZM83.71,54c1.08.86,2.51,2,3.19,2.61a.48.48,0,0,1,.2.36c0,.17,0,2.07-.34,2.1-.08,0-.12,0-.38-.57a20.26,20.26,0,0,0-2.92-4.26Zm21.72,8.62c-1.62.2-2.1.34-2.59,1a30.21,30.21,0,0,1-7-5.2l.69,8.1c0,.46.28,3.3-.07,3.33s-1.29-2-1.52-2.54a1.77,1.77,0,0,0,.49-1.64L94.66,57a20.09,20.09,0,0,1-2.8-5.48l.37-.11a22.57,22.57,0,0,0,2.31,4.18l-.69-8.13a5.22,5.22,0,0,0-.75-2.76l.25-.3,2.29,1.39,0,.19c-.61.57-.83.88-.72,2.18l.76,8.89a16.14,16.14,0,0,0,9.7,5.29Z"/><path class="cls-2" d="M53.68,49.29a7.05,7.05,0,0,0-.53-.57,12.3,12.3,0,0,0-3.74-2.11l-.21-.09.37-.94.21.06c.72.24,2.54.81,3.61,1.1a1.86,1.86,0,0,0,.49.08l.11,0a4,4,0,0,0,0-1.14l-1.62-19-8.59.73L45,41.83c.13,1.52.23,2.72.25,3.56s-.06,1.5-.5,1.54h0c-.6,0-2-3.13-2-3.26l-.06-.13.09-.11a2,2,0,0,0,.4-1.7L42,27.54l-8.45.72,1.56,18.3c0,.43.13,1.55.15,2.59.05,1.82-.14,2.2-.49,2.23h0c-.32,0-.63-.45-1.73-3l-.22-.49.08-.11c.31-.43.47-.65.43-1.82-.11-2.84-.36-5.71-.52-7.61-.54-6.42-.87-10-1-10.56A5.52,5.52,0,0,0,31.3,26l-.09-.19.14-.16.49-.32L33.63,27l8.23-.7-.35-4.13L32.06,23a12.89,12.89,0,0,0-2.94.49l-.14,0-.14-.09,0,0a4.23,4.23,0,0,0-.38.31,85.47,85.47,0,0,0-13.2,14c-1.42,1.86-4.33,6.16-5.77,8.51A142.13,142.13,0,0,0,1,62.15a18.47,18.47,0,0,0-1,2.56c0,.15.3.12.41,0,.36-.54,4.45-2.79,7-3.86L8,60.58a28.2,28.2,0,0,1,3.72-1.34l.68-.2.09,0h0a46,46,0,0,1,6-1.21c4.66-.52,9-.08,9.87,1l.18.21.69-.45c5.08-3.25,14.34-6.6,24.76-9ZM36.26,30.36l.18.1a29.57,29.57,0,0,1,3.66,2.3l.08.07c.7.5.86.61.9,1.15,0,0,.12,2-.54,2h0c-.23,0-.5-.28-1.42-1.53-.14-.2-.26-.36-.33-.44a23.93,23.93,0,0,0-2.87-2.8l-.16-.14Zm4.29,11.69h0c-.24,0-.3-.1-.79-.93A18.54,18.54,0,0,0,36,36.94l-.15-.13.52-.8.38.24c2.71,1.76,4.3,2.89,4.34,3.47C41.13,39.74,41.21,42,40.55,42.05ZM45.4,30.52l.4-.58L46,30a29.57,29.57,0,0,1,3.66,2.3l.09.07c.69.5.85.62.9,1.15a4.19,4.19,0,0,1-.29,1.9.34.34,0,0,1-.25.14h0c-.23,0-.5-.28-1.42-1.53l-.32-.44a24.71,24.71,0,0,0-2.87-2.8l-.16-.13Zm.17,6-.15-.13.52-.8.38.24c2.71,1.76,4.3,2.89,4.35,3.47,0,0,.08,2.28-.58,2.33H50c-.24,0-.3-.1-.79-.93A18.76,18.76,0,0,0,45.57,36.52Z"/><path class="cls-2" d="M137,25.69c-11.44-7.61-19.7-12.29-28.43-15C101.76,8.5,92.89,6.25,84.46,6.06,78.86,5.94,69,5.64,60.74,7.44l-.37.07A1.69,1.69,0,0,1,58.49,6.4L57.65,4A20.83,20.83,0,0,0,56.15.05a2.22,2.22,0,0,0-1.64.4c-.1.14.08,1,.79,4.14.23,1,.43,1.91.58,2.61a1.67,1.67,0,0,1-1.09,1.94h0c-1.69.56-5.52,2.13-8.27,3.33a79.94,79.94,0,0,0-9,4.48,45,45,0,0,0-6.81,4.86l22.73-1.94.85-1.24c.21-.29.29-.4.5-.41h0c.17,0,.26.05.5.21l2,1.36.16.12c.2.14.31.22.32.4a.42.42,0,0,1-.09.31.89.89,0,0,1-.61.21L43.31,22l.35,4.13L52,25.42l.43-1,0-.06c.15-.32.22-.46.44-.48h.07c.18,0,.32.08.69.34l1.23.86c.26.18.5.35.52.58s-.13.32-.35.49l-.9.71c.14,1.79.71,7.8,1.18,12.66.31,3.27.58,6.11.66,7a5.77,5.77,0,0,1-.4,2.25c0,.13-.1.27-.16.41L56.88,49a51.74,51.74,0,0,1,8.82-1.13l.56,0a1.44,1.44,0,0,1,1.47,1L73.5,69.65c2.69,10.09,4.5,18.8,5.09,21.42a.63.63,0,0,0,.79.46L81,91.06a.61.61,0,0,0,.41-.81c-.87-2.39-4.06-10.79-6.77-21L69.46,48.7a.87.87,0,0,1,.83-1.08h.42l1.78,0h1.36l.42-.43a22.82,22.82,0,0,1,3.22-2.49,72.38,72.38,0,0,1,15-6.58,73.86,73.86,0,0,1,10.57-2.85,104,104,0,0,1,12.12-1.73l1.34-.11.44-.58a9.79,9.79,0,0,1,1.85-1.71l0,0,.38-.27.09-.06,0,0a17.37,17.37,0,0,1,1.78-1,7.56,7.56,0,0,1,.76-.38,29.67,29.67,0,0,1,8.25-2.31,25.06,25.06,0,0,1,7.79.32c.55.13,1.07.07,1.11-.14S138.43,26.67,137,25.69ZM61.59,42.74h0c-.19,0-.45,0-1.6-2.46l-.06-.14L60,40a1.36,1.36,0,0,0,.39-1.34l-.67-7.89a4.6,4.6,0,0,0-.65-2.44l-.1-.15.47-.55,2.38,1.44,0,.4-.08.08c-.51.48-.68.7-.59,1.82l.69,8C62.14,42.69,61.84,42.72,61.59,42.74ZM71.7,29.28l.68-.89c.16-.18.2-.24.32-.25h0a.65.65,0,0,1,.43.18l1.27.94c.27.18.36.28.37.44,0,.41-.39.44-.57.46l-6.64.56a9.31,9.31,0,0,0-2.3.4l-.13,0-.1-.1L64,29.94Zm3.8,10.51-7.57.64a9.86,9.86,0,0,0-2.3.39l-.14,0-.1-.1-1.08-1.12L73,38.91l.69-.89c.15-.18.2-.24.32-.25h0a.63.63,0,0,1,.42.18l1.28.94c.27.18.35.28.36.44C76.11,39.74,75.69,39.77,75.5,39.79Zm16.57-3.61a13.94,13.94,0,0,1-3.4.6h-.13c-1.31.11-2.36.19-3.16.19h0c-2.46,0-2.91-.72-3.1-3l-.92-10.79a4.2,4.2,0,0,0-.73-2.5l-.1-.14.4-.54,2.48,1.42,0,.41-.13.08c-.5.28-.63.39-.56,1.15l.93,11c.11,1.24.22,1.64,1.89,1.64.45,0,1,0,1.84-.1,3.31-.28,3.38-.66,3.45-1a50.48,50.48,0,0,0-.18-6.31l0-.23.86-.07,0,.23a36.24,36.24,0,0,0,1.14,6.44l.11.25a1.72,1.72,0,0,1,.21.52C93,35.76,92.64,36,92.07,36.18Zm19.46-5.27c-1.8.15-2.12.55-2.27.75l-.12.15-.17-.09c-6.44-3.32-7-8.2-7.29-11.53l-4.18.36a9.22,9.22,0,0,0-2.09.36l-.14,0-.13-.1-1-1.09,12.55-1.07.69-1c.08-.12.14-.22.31-.23h0a.77.77,0,0,1,.49.21l1.35,1c.25.18.35.25.37.43a.37.37,0,0,1-.26.38,1.54,1.54,0,0,1-.31.05l-6.71.57c.63,7.19,5.73,9.92,8.83,9.94h.21l.07.83Z"/><path class="cls-2" d="M56.69,61c0,.18.22,1.76.5,1.72s.52-.83.66-1.21l2.85-.36a22.21,22.21,0,0,1,.23,5.63c-.07.7-.08.8-.31.82a18.33,18.33,0,0,1-2.55-.77l-.17.32a10.88,10.88,0,0,1,2.61,1.65c.05.06.34.49.43.48s.69-.83.84-2.42a21.07,21.07,0,0,0-.24-5.44c0-.18,0-.21.11-.29s.63-.49.62-.56a.22.22,0,0,0-.09-.15l-1-.64c-.08,0-.16-.1-.22-.09s-.11.08-.15.16l-.34.76-2.38.29A13.07,13.07,0,0,0,59.13,55l-.87.1C58.43,58.63,57.35,60.7,56.69,61Z"/><path class="cls-2" d="M59.12,56.25c0-1.16-.07-1.5.37-2l0-.07-1.68-.74-.13.19a3,3,0,0,1,.58,1.66v1L59,56.2Z"/><path class="cls-2" d="M65.49,56.29l-1.38-.9c-.23-.13-.27-.15-.32-.14s-.09,0-.23.23l-.64,1-3,.37-.56.07-1,.11-.28,0-6.54.8.69.68a13.63,13.63,0,0,1,2.16-.45L55,58h.07l.92-.11.33,0,9.07-1.12c.18,0,.37,0,.35-.18S65.74,56.44,65.49,56.29Z"/><path class="cls-2" d="M55.84,69.29c.16,1.28.3,2.42,1.69,2.41.41,0,4.48-.5,5.3-.6.36,0,3.19-.42,3.16-.63a2.67,2.67,0,0,0-1.47-.9,5,5,0,0,0-.83.45,10.33,10.33,0,0,1-3.1.61c-3.17.39-3.22.35-3.52,0s-.19-.37-.34-1.6l-.4-3.28-.91.12Z"/><path class="cls-2" d="M63.42,61.27l-.14,0a1.45,1.45,0,0,1-.74.94A47.22,47.22,0,0,1,56.39,65l-1.45-1.25-.28.19a13,13,0,0,1,1,4.2l1-.12-.31-2.45L63,63.25a6.34,6.34,0,0,1,1.19-.31,1.46,1.46,0,0,1,.6,0l.08-.13Z"/><path class="cls-2" d="M108.78,41.88c-.11-1.31.11-1.63.72-2.21l0-.19-2.32-1.39-.24.29a5.34,5.34,0,0,1,.76,2.8l.73,8.63a1.77,1.77,0,0,1-.49,1.67c.24.5,1.21,2.59,1.54,2.56s.11-2.9.07-3.36Z"/><path class="cls-2" d="M104,50l2.07.65a6.24,6.24,0,0,1,1.49-2c4.81-4.79,6.22-6.32,8.84-9.24l-.31-.32A138.16,138.16,0,0,1,104,50Z"/><path class="cls-2" d="M123.66,50.67l0,.29a5.83,5.83,0,0,0-.9,0,2.31,2.31,0,0,0-1.51.67c-3.52-2.46-4.65-6.33-5.8-11.91l.33-.08C117.15,44.94,118.58,49.63,123.66,50.67Z"/><path class="cls-2" d="M103.36,42.63l.66.71a12.47,12.47,0,0,1,2.19-.38l.57,0h.07l.92-.08.33,0,.45,0,0-.58Z"/></g></g></g></svg>