<svg xmlns="http://www.w3.org/2000/svg" viewBox="0 0 165.75 64.81"><defs><style>.cls-1{fill:#fff;}</style></defs><g id="レイヤー_2" data-name="レイヤー 2"><g id="レイヤー_1-2" data-name="レイヤー 1"><path class="cls-1" d="M52.38,16.36,62.19,16c.26,0,.48,0,.47-.24,0-.07,0-.13-.33-.38l-1.6-1.3c-.16-.16-.26-.19-.33-.18s-.06,0-.22.2l-1,1.2-10.75.36.91,1A12.76,12.76,0,0,1,52.38,16.36Z"/><path class="cls-1" d="M52.56,3.82l8.59-.29c.26,0,.49,0,.48-.24,0-.06,0-.13-.34-.38L59.7,1.61c-.17-.15-.27-.18-.33-.18s-.07,0-.22.2l-1,1.2-9.52.32.91,1A12.64,12.64,0,0,1,52.56,3.82Z"/><path class="cls-1" d="M76.12,19.73c.11,3.46.72,3.71,7.09,3.5a17,17,0,0,0,4.2-.51c.47-.16,1-.36,1-.57s-.3-.74-.33-.88a43.34,43.34,0,0,1-1-7.9l-.48,0a61.6,61.6,0,0,1-.18,7.69c-.14.55-.27,1.06-4.48,1.2s-4.62-.23-4.69-2.35l-.45-13.3c0-1,.19-1.27.9-1.62V4.83L75.13,3.18l-.23.28a5.3,5.3,0,0,1,.77,3.21Z"/><path class="cls-1" d="M8.44,19.85l-.33.47A21.4,21.4,0,0,1,12,25.19c.45.86.49.93.63.93.35,0,.53-1.89.52-2.27C13.1,23.18,9.89,20.89,8.44,19.85Z"/><path class="cls-1" d="M12.48,16.34a31.7,31.7,0,0,0-3.86-2.72l-.34.43a25.33,25.33,0,0,1,3,3.28c.26.34,1.38,2.17,1.63,2.16s.47-1.6.46-1.95S13.27,17,12.48,16.34Z"/><path class="cls-1" d="M18.62,20.4a20.87,20.87,0,0,1,3.86,4.86c.45.87.49.94.63.93.35,0,.54-1.88.52-2.27,0-.67-3.23-3-4.67-4Z"/><path class="cls-1" d="M23.45,19.56c.35,0,.47-1.6.46-1.95s-.12-.56-.92-1.2a32.85,32.85,0,0,0-3.86-2.72l-.34.43a26.7,26.7,0,0,1,3,3.28C22.09,17.74,23.2,19.57,23.45,19.56Z"/><path class="cls-1" d="M56.1,48.26a48.07,48.07,0,0,1-3.38-9.64c.15-1.49.21-1.93,1.37-2.55v-.24L51.3,33.76,51,34a4.7,4.7,0,0,1,.41,2,32.72,32.72,0,0,1-.91,8.13c-1.3,5.63-4.16,13.1-13.39,20.26l.31.43A33.05,33.05,0,0,0,52.51,40.46c2.55,10.2,6.84,16.86,12.41,22.46a5.6,5.6,0,0,1,3.7-.83l0-.34C66.69,61,61.31,59.19,56.1,48.26Z"/><path class="cls-1" d="M116.7,37.45a.91.91,0,0,0-.34-.2c-.14,0-.2.11-.26.22l-.71,1.1-6.93.24c.24-.69.9-2.4,1.33-3.67.12-.38.29-.38.93-.61l.06-.2-2-2.2-.3.15a8.68,8.68,0,0,1-.1,2.23,49.74,49.74,0,0,1-6.54,15.56l.45.32a45.61,45.61,0,0,0,5.86-10.72l7.34-.25c-.6,7.19-4.61,15.59-12.82,22.34l.32.43a33.65,33.65,0,0,0,13.31-19c.11-.51.63-3.14.63-3.21.06-.23,1.19-.95,1.18-1.15s0-.1-.11-.2Z"/><path class="cls-1" d="M111.38,49c.4,0,.56-2.38.55-2.59a.57.57,0,0,0-.22-.46c-.8-.86-2.51-2.32-3.8-3.46l-.33.28A25.1,25.1,0,0,1,111,48.3C111.24,49,111.28,49,111.38,49Z"/><path class="cls-1" d="M122.65,47.09,122.27,36c0-1.62.24-2,1-2.68v-.23l-2.77-1.87-.33.35A6.55,6.55,0,0,1,121,35l.34,10.18a28.72,28.72,0,0,1-2.62-5.36l-.47.12a25,25,0,0,0,3.15,7l.37,10.79a2.24,2.24,0,0,1-.71,2c.26.63,1.33,3.27,1.73,3.26s.32-3.57.3-4.14l-.34-10.15a37.86,37.86,0,0,0,8.43,6.93c.65-.74,1.25-.89,3.28-1v-.34A20.15,20.15,0,0,1,122.65,47.09Z"/><path class="cls-1" d="M32.11,2.25,30.08.7c-.32-.24-.36-.27-.47-.27s-.13,0-.37.33L28.16,2.17,0,3.13,1,4.26a13.12,13.12,0,0,1,3.37-.4L15,3.5l.2,5.85-9.46.32L3.93,7.87l-.38.23a6.1,6.1,0,0,1,.5,2.13c.1,1,.37,9.07.46,11.67.08,2.14.18,5.27.15,8.41A2.77,2.77,0,0,1,4,32.44c.34.9,1.32,3.62,1.67,3.6.56,0,.42-4.09.39-5L5.4,10.57l9.84-.34.54,15.93a2.43,2.43,0,0,1-.6,2c.19.53,1.42,3.55,1.77,3.53s.43-2,.31-5.32l-.55-16.21,10-.34.71,21.05c0,1.37,0,1.52-.4,1.53a2.24,2.24,0,0,1-.64-.12c-1.17-.38-3.17-1.12-3.92-1.41l-.26.57A13.9,13.9,0,0,1,26.26,34a21.2,21.2,0,0,0,1.43,1.64c.32,0,1.41-2.16,1.36-3.6-.09-2.64-.85-18.76-.92-21.71l1-.71c.31-.22.45-.29.44-.4s-.22-.31-.43-.48l-1.31-1c-.43-.33-.5-.37-.64-.36s-.14.07-.34.43L26.26,9l-9.58.32-.2-5.85L32,2.92c.25,0,.56,0,.56-.26S32.43,2.52,32.11,2.25Z"/><path class="cls-1" d="M42.4,15.8c.25.61,1.27,3.13,1.66,3.11s.3-3.4.28-3.95L44,4.56C43.94,3,44.22,2.65,45,2V1.78L42.32,0,42,.33a6.23,6.23,0,0,1,.72,3.34l.35,10.21A2.1,2.1,0,0,1,42.4,15.8Z"/><path class="cls-1" d="M113.79,18.88c.27-.3.8-.87,3.32-1l0-.52c-4.5-.27-11.21-4.56-11.44-14.52L115,2.56c.24,0,.49,0,.48-.21s0-.13-.35-.38L113.38.53c-.25-.22-.34-.25-.43-.25s-.09,0-.3.31l-1,1.27-16.4.56.83,1a12.45,12.45,0,0,1,2.94-.36L105,2.9C105.13,7.36,105.41,14,113.79,18.88Z"/><path class="cls-1" d="M91.91,39.65,90.3,38.4c-.26-.19-.32-.22-.38-.22s-.11,0-.3.27l-.9,1.11-3.7.13-.69,0H84A13.66,13.66,0,0,0,84.28,38h0v-.24c0-.12,0-.25,0-.36h0c0-1,0-1.31.54-1.79l0-.09-2-1-.18.22a3.69,3.69,0,0,1,.6,2.1l0,1.24h0a15.21,15.21,0,0,1-.23,1.77h-.28L74.62,40l.77.92a14.85,14.85,0,0,1,2.73-.32l.71,0h.09l1.14,0h.41l2.42-.09c-.62,2.45-1.74,3.83-2.36,4.08,0,.23.08,2.2.42,2.18s.74-1,1-1.42l3.56-.13c0,.32.09,1.16.09,2.34-1.65.61-3.9,1.35-5.82,1.87l-1.66-1.71-.36.21a16.28,16.28,0,0,1,.78,5.29h0l0,1.46c.06,1.6.1,3,1.82,3.16.51,0,5.58-.13,6.61-.16.45,0,4-.17,4-.42a3.33,3.33,0,0,0-1.72-1.29,6.52,6.52,0,0,0-1.07.47,12.72,12.72,0,0,1-3.89.42c-4,.13-4,.08-4.35-.4-.21-.3-.18-.48-.24-2l0-1.27h0l-.1-3.06,6-1.49a26.71,26.71,0,0,1-.4,3.56c-.17.86-.2,1-.48,1a23.72,23.72,0,0,1-3.06-1.23l-.25.38a13.25,13.25,0,0,1,3,2.32c.06.08.36.64.47.64s.94-1,1.3-2.9a19.1,19.1,0,0,0,.38-4L88,48a7.74,7.74,0,0,1,1.51-.25,1.65,1.65,0,0,1,.74.09l.11-.15-1.55-2.09h-.17a1.85,1.85,0,0,1-1,1.09c-.23.12-.62.28-1.1.47,0-.46,0-1,0-1.53,0-.23,0-.26.16-.35s.84-.54.83-.63a.3.3,0,0,0-.09-.2l-1.2-.9c-.09-.05-.17-.13-.26-.13s-.14.09-.19.18l-.51.9-3,.1a17.19,17.19,0,0,0,1.62-4.14l7.93-.27c.23,0,.45,0,.45-.18S92.21,39.87,91.91,39.65Z"/><path class="cls-1" d="M156.79,40.91l.7-.71-.37-.41c-.23.23-.51.49-.81.76h0v0c-1.95,1.8-5.18,4.51-8.17,6.92L148,42.83c-.06-1.62.23-2,1-2.68v-.23l-2.77-1.87-.32.35a6.64,6.64,0,0,1,.76,3.49l0,1.34-5.46.18.77.92a14.71,14.71,0,0,1,2.73-.32l.7,0h.09l1.14,0h.06l.15,4.56c-2.37,1.88-4.43,3.44-5.33,4l2.51.94a7.38,7.38,0,0,1,2-2.38l.92-.83.08,2.37a2.19,2.19,0,0,1-.71,2c.26.64,1.33,3.28,1.74,3.26s.32-3.56.3-4.14l-.16-4.64c4-3.61,5.84-5.4,8.23-7.79,1,6.56,2.26,11.18,6.29,14.31a3,3,0,0,1,1.9-.73,6.5,6.5,0,0,1,1.11.09l.05-.37C159.69,53,158.16,47.38,156.79,40.91Z"/></g></g></svg>