<svg xmlns="http://www.w3.org/2000/svg" viewBox="0 0 568.53 117.82"><defs><style>.cls-1{fill:#fff;}</style></defs><g id="レイヤー_2" data-name="レイヤー 2"><g id="レイヤー_1-2" data-name="レイヤー 1"><path class="cls-1" d="M94.94,97.24c-17.89,0-24.65-9.17-24.65-25.45,0-12.72,3.55-36.68,15.13-47.45,5-4.7,11.81-7.34,20.86-7.34,6.19,0,13.3,1,15.59,2.07.23.11.46.34.35.91L120,30c-.23.58-.46.81-1,.69A45.54,45.54,0,0,0,106.86,29c-5.16,0-8.71,1.49-11.47,4.47-6.41,7.1-9.51,28.77-9.51,37.94s3.44,13.3,13,13.3a51.32,51.32,0,0,0,12.84-1.49c.46-.12.92.11.92.57l-.8,9.74c-.12.8-.46,1.26-.81,1.38A53.59,53.59,0,0,1,94.94,97.24Z"/><path class="cls-1" d="M178.49,47.84a52.3,52.3,0,0,1-.68,7.68L171.5,95a1.24,1.24,0,0,1-1.26,1.14h-12a1,1,0,0,1-1-1.14l6.19-38.63a38.62,38.62,0,0,0,.58-5.39c0-4-2.3-6.07-8.83-6.07a38.41,38.41,0,0,0-7.79.68c-.81.23-1.27.46-1.38,1.26L138.37,95a1.24,1.24,0,0,1-1.26,1.14h-12a.94.94,0,0,1-1-1.14l13-82a1.36,1.36,0,0,1,1.37-1.15H150.3a.88.88,0,0,1,.91,1.15L148,33.85c-.11.69,0,.92.69.92,1.49,0,5.5-1.15,10.55-1.15C172.65,33.62,178.49,37.06,178.49,47.84Z"/><path class="cls-1" d="M195.68,46.8a.84.84,0,0,1-1.14-.68l.68-8.94A1.16,1.16,0,0,1,196,36a79.58,79.58,0,0,1,19.83-2.41c12.6,0,19.83,3.9,19.83,14.22a30.1,30.1,0,0,1-.35,4.35l-6.65,41.15A1.91,1.91,0,0,1,227.43,95c-3.78,1.49-10,2.29-18.34,2.29-18.68,0-24.64-3.9-24.64-13.41,0-6.88,1.72-13.07,5.16-16.85s9.4-5.05,16.62-5.85l12.61-1.49c1-.11,1.49-.23,1.72-1a38.33,38.33,0,0,0,.91-6.76c0-4.7-3.32-6.54-11.23-6.54A76.14,76.14,0,0,0,195.68,46.8ZM219,69.5a.65.65,0,0,0-.57-.69H210c-4.81,0-7.68.92-9.17,3-1.6,2.3-2.52,6.88-2.52,10.55v.46c.11,4.24,2.75,5,11.58,5a19.32,19.32,0,0,0,5.73-.69,1.19,1.19,0,0,0,.68-.8Z"/><path class="cls-1" d="M271.67,44.74a34,34,0,0,0-6.42.69c-.8.23-1.14.46-1.26,1.26L256.31,95a1.24,1.24,0,0,1-1.26,1.14H243.13a1,1,0,0,1-1-1.14l9.17-57.77A1.35,1.35,0,0,1,252.53,36,93.25,93.25,0,0,1,272,33.62a51.13,51.13,0,0,1,8.25.46c.34.12.46.23.34.8l-2.17,9.86c-.12.46-.35.57-.81.57A32.67,32.67,0,0,0,271.67,44.74Z"/><path class="cls-1" d="M292.88,46.8a.85.85,0,0,1-1.15-.68l.69-8.94a1.17,1.17,0,0,1,.8-1.15,79.58,79.58,0,0,1,19.83-2.41c12.61,0,19.83,3.9,19.83,14.22a31.49,31.49,0,0,1-.34,4.35l-6.65,41.15A2,2,0,0,1,324.63,95c-3.79,1.49-10,2.29-18.34,2.29-18.69,0-24.65-3.9-24.65-13.41,0-6.88,1.72-13.07,5.16-16.85s9.4-5.05,16.62-5.85L316,59.64c1-.11,1.49-.23,1.72-1a38.53,38.53,0,0,0,.92-6.76c0-4.7-3.33-6.54-11.24-6.54A76,76,0,0,0,292.88,46.8Zm23.26,22.7a.64.64,0,0,0-.57-.69H307.2c-4.81,0-7.68.92-9.17,3-1.6,2.3-2.52,6.88-2.52,10.55v.46c.12,4.24,2.75,5,11.58,5a19.24,19.24,0,0,0,5.73-.69,1.23,1.23,0,0,0,.69-.8Z"/><path class="cls-1" d="M361.42,97.24c-15.36,0-20.41-7-20.41-20.52,0-11.23,2.64-27.51,11.12-36.22,4.47-4.36,10.43-6.88,18.8-6.88,5,0,8.6.58,11.12,1.61.46.23.57.46.46.91l-2.18,9.52a.66.66,0,0,1-.8.46A25.58,25.58,0,0,0,371.39,45c-4.47,0-7.34,1-9.4,3.9-4.13,5.61-6.07,19.25-6.07,26.59,0,7.68,2.86,10.55,10,10.55a46.93,46.93,0,0,0,9.17-1.15c.46-.11,1-.11,1,.46l-.92,9.28c-.11.46-.23.8-.69.92A44.93,44.93,0,0,1,361.42,97.24Z"/><path class="cls-1" d="M416,45.89c-.45,0-.68.23-.8.69l-5,31.17a28.54,28.54,0,0,0-.34,3.67c0,3.33,1.26,4.13,5.15,4.13h3.44c.46,0,.8.11.8.8l-1.6,8.6a1.35,1.35,0,0,1-1,1c-1.72.69-5.05.91-8.14.91-8.14,0-13.64-2.29-13.64-9.85a38.38,38.38,0,0,1,.69-6.65l5.38-33.93a.54.54,0,0,0-.57-.57h-8a1,1,0,0,1-1-1.15l1.49-8.82A1.25,1.25,0,0,1,394,34.77h7.91c.45,0,.8-.23.8-.69L405,19.75a1.37,1.37,0,0,1,1.38-1.14h12a.84.84,0,0,1,.92.91v.23L417,34.08c0,.46.11.69.57.69h9.63a1,1,0,0,1,1,1.15l-1.49,8.82a1.25,1.25,0,0,1-1.26,1.15Z"/><path class="cls-1" d="M431.44,75c0-10,3.1-27.74,11.93-35.65,4.35-3.89,10.31-5.73,17.76-5.73,16.39,0,20.52,7,20.52,18.57A52.8,52.8,0,0,1,480,63.88c-1.26,4.93-2.29,5.39-6.41,5.39l-27.06.8c-.34,0-.8,0-.91.69a29.63,29.63,0,0,0-.46,5.62c0,6.88,3.67,10,13.41,10,5,0,10.66-.8,14.21-2.18.58-.23,1.38-.11,1.38.58l-.46,8.36a1.34,1.34,0,0,1-.92,1.38,50,50,0,0,1-17.19,2.75C437.29,97.24,431.44,89,431.44,75Zm35.19-14.21a1.45,1.45,0,0,0,1.38-1,36.61,36.61,0,0,0,1-7.68c0-5-1.26-8.37-8.71-8.37-3.9,0-6.3,1-8.14,3.21-2.29,2.75-4.24,8.14-4.93,13.18a.73.73,0,0,0,.69.69Z"/><path class="cls-1" d="M515.92,44.74a34,34,0,0,0-6.42.69c-.8.23-1.15.46-1.26,1.26L500.56,95a1.26,1.26,0,0,1-1.26,1.14H487.38a1,1,0,0,1-1-1.14l9.17-57.77A1.35,1.35,0,0,1,496.77,36a93.25,93.25,0,0,1,19.49-2.41,51.13,51.13,0,0,1,8.25.46c.35.12.46.23.35.8l-2.18,9.86c-.12.46-.34.57-.8.57A32.75,32.75,0,0,0,515.92,44.74Z"/><path class="cls-1" d="M545.14,51.73c0,3.21,2.41,5.28,9.75,10.55,7,5.16,9.51,9,9.51,14.44,0,14.67-8.37,20.52-23.61,20.52a76.68,76.68,0,0,1-15.94-1.49c-.34-.12-.68-.23-.68-.8l2.17-9.75c.12-.45.46-.57.92-.45a67.38,67.38,0,0,0,12,1.26c6,0,10.08-.81,10.08-7.68,0-2.87-1.72-4.93-8.94-10.32s-9.63-8.71-9.63-14.1c0-16.62,9.17-20.29,24.19-20.29,3.78,0,9.86.35,13.07,1.26a.64.64,0,0,1,.46.69l-2.18,9.63a.74.74,0,0,1-.92.46,55.29,55.29,0,0,0-9.86-1.15C550,44.51,545.14,45.54,545.14,51.73Z"/><path class="cls-1" d="M27.55,0C21.1,37.85,21.89,57.13,0,58.9c0,0,0,0,0,0,21.44,1.77,15.92,21,13.08,58.89h0C19.56,80,18.77,60.69,40.65,58.92c0,0,0,0,0,0C19.2,57.13,24.73,37.85,27.57,0Z"/></g></g></svg>