<svg xmlns="http://www.w3.org/2000/svg" viewBox="0 0 292.88 60.73"><defs><style>.cls-1{fill:#96ddd1;}.cls-2{fill:#50b551;}.cls-3{fill:#fff;}</style></defs><title>アセット 80back_white_hover</title><g id="レイヤー_2" data-name="レイヤー 2"><g id="レイヤー_1-2" data-name="レイヤー 1"><path class="cls-1" d="M59.86,14.37a13.5,13.5,0,0,0-9.62-11A85.24,85.24,0,0,0,14.37.88h0a13.49,13.49,0,0,0-11,9.61A85.25,85.25,0,0,0,.88,46.36h0a13.47,13.47,0,0,0,9.61,11h0a85.42,85.42,0,0,0,35.87,2.47,13.49,13.49,0,0,0,11-9.62h0A85.41,85.41,0,0,0,59.86,14.37Z"/><path class="cls-2" d="M134.82,11.65A13.48,13.48,0,0,0,124.21,1.58h0a85.29,85.29,0,0,0-35.95.95h0A13.48,13.48,0,0,0,78.19,13.14a85.57,85.57,0,0,0,1,35.94h0A13.48,13.48,0,0,0,89.75,59.15a85.45,85.45,0,0,0,36-.94h0a13.49,13.49,0,0,0,10.07-10.62h0A85.41,85.41,0,0,0,134.82,11.65Z"/><path class="cls-1" d="M213,14.2h0a13.48,13.48,0,0,0-9.68-11h0A85.42,85.42,0,0,0,167.41,1a13.49,13.49,0,0,0-11,9.68h0a85.26,85.26,0,0,0-2.25,35.88h0a13.5,13.5,0,0,0,9.67,11,85.31,85.31,0,0,0,35.89,2.25h0a13.47,13.47,0,0,0,11-9.67h0A85.48,85.48,0,0,0,213,14.2Z"/><path class="cls-2" d="M290.46,11.65A13.48,13.48,0,0,0,279.85,1.58h0a85.3,85.3,0,0,0-36,.95h0a13.48,13.48,0,0,0-10.07,10.61,85.57,85.57,0,0,0,.95,35.94h0A13.49,13.49,0,0,0,245.4,59.15a85.41,85.41,0,0,0,35.94-.94h0a13.49,13.49,0,0,0,10.07-10.62h0A85.41,85.41,0,0,0,290.46,11.65Z"/><path class="cls-3" d="M18.17,22.12a13.7,13.7,0,0,0-2.86-2.05,1.57,1.57,0,0,1-1.08-1.49,2.26,2.26,0,0,1,2.4-2c.79,0,5.13,1.49,5.07,3.66a2.52,2.52,0,0,1-2.37,2.35A1.73,1.73,0,0,1,18.17,22.12Zm8.35,5.52a2,2,0,0,1-2.11-2,2,2,0,0,1,.15-.67c-4.59,4-9,6.16-10.13,6.13a2.25,2.25,0,0,1-2.1-2.28,2.19,2.19,0,0,1,1.39-1.92,30.48,30.48,0,0,0,12.37-9.44.67.67,0,0,0,.22-.45c0-.25-.2-.38-.53-.39-1.3,0-1.8,0-3.18,0l-1.17,0a2,2,0,0,1-2-2.11,2,2,0,0,1,2.11-2l6.51.2c1.79.05,2.86.67,3.34,1.52a1.16,1.16,0,0,1,.37,0,1.87,1.87,0,0,1,1.48.92c.48.77,1,1.54,1.6,2.27a20,20,0,0,0,2.77-3.22,1.94,1.94,0,0,1,1.66-.91,2.45,2.45,0,0,1,2.35,2.33c0,1.58-3.26,4-4.24,4.71.57.61,1.18,1.13,1.79,1.69a25.13,25.13,0,0,0,3.4-3.32,2,2,0,0,1,1.61-.79,2.48,2.48,0,0,1,2.31,2.33c0,.37-.13,1.58-4.1,4.3A30.93,30.93,0,0,0,47,27a2.27,2.27,0,0,1,1.56,2.14,2.47,2.47,0,0,1-2.65,2.26c-2.22-.07-6.09-3.07-9.18-6.05a1.75,1.75,0,0,1,.11.67,2,2,0,0,1-2.23,1.85ZM14.06,47.35a2,2,0,1,1,.08-4h0l9.18.36L22.31,42.3a1.34,1.34,0,0,1-.26-.84,1.63,1.63,0,0,1,.87-1.27c-2.17-.15-4-1.08-4.07-3.34,0-.59,0-1.42,0-2.21.1-3,.2-5.09,4.42-5.09,2.55,0,4.89.07,7.22.14s4.64.14,7,.3c2.55.12,3.84,1.37,4,2.88a18.62,18.62,0,0,1,0,2.29,20.14,20.14,0,0,1-.16,2.34c-.22,1.7-1.72,3.12-4.31,3.12h-.21a2,2,0,0,1,.82,1.65c0,.29-.1.71-.89,1.9l8.6.18h0a2,2,0,0,1,2,2.15,1.87,1.87,0,0,1-2.14,1.81Zm9.08-11.46c0,.51.27.81,1.14.83,2,.11,4.34.18,6.68.25,1.75.05,3.42.11,4.92.11,1.09,0,1.15-.63,1.19-1.84,0-1.46,0-1.93-1.15-2-1.76-.1-3.72-.16-5.72-.22s-4-.12-5.84-.14c-.88,0-1.14.47-1.16.8Zm11.6-11.84a2.52,2.52,0,0,1,.79.15,41.49,41.49,0,0,1-4.71-5.82l-.09.12a41.18,41.18,0,0,1-4.93,5.41,2.58,2.58,0,0,1,.84-.1ZM32,44a21.35,21.35,0,0,0,1.26-2.72,2.06,2.06,0,0,1,.43-.7c-1.25,0-2.54,0-3.79-.07s-2.55-.12-3.84-.16a12.77,12.77,0,0,1,2.27,3.54Z"/><path class="cls-3" d="M110.71,30.47c-.31.55-.61,1.11-1,1.67,1.63-.11,3.51-.2,5.34-.28s3.67-.16,5.13-.19c2.55-.07,4.31.94,4.43,3.65a28.47,28.47,0,0,1-.81,7.27,6,6,0,0,1-5.9,4.48c-3.58.16-3.9-1.16-3.94-2.16V44.7c-1.56,1.57-3.7,3.3-4.86,3.35a2,2,0,0,1-2.05-1.83,1.83,1.83,0,0,1,1-1.72,16.2,16.2,0,0,0,7.61-9.32l-2,.09c-3.3,6.7-9.46,11-11.38,11.12a2,2,0,0,1-2.13-1.91,1.69,1.69,0,0,1,1.06-1.64,18,18,0,0,0,8.28-7.39l-2.25.14c-3.22,3.78-6.52,5.81-7.68,5.86a2,2,0,0,1-2.13-1.83A1.7,1.7,0,0,1,98.39,38c3.79-2.22,6-4.16,7.94-7.38l-3.25.15a2.39,2.39,0,0,1,.11.58,2.22,2.22,0,0,1-1.25,2c-3,1.76-9.42,5.1-10.92,5.16a2,2,0,0,1-2.14-2,2.14,2.14,0,0,1,1.49-2.16C91.6,34,92.8,33.52,94,33.05l-.39-8.63-2.79.12a1.82,1.82,0,0,1-2-1.79,2,2,0,0,1,1.87-2.13l2.76-.12L93.09,14a2.07,2.07,0,0,1,2.12-2.18,2.11,2.11,0,0,1,2.35,2l.29,6.55,2.59-.12a1.84,1.84,0,0,1,2,1.88,1.86,1.86,0,0,1-1.79,2L98,24.22l.27,6.88c.73-.36,1.39-.73,2-1.09a3.72,3.72,0,0,1,.45-.19,1.46,1.46,0,0,1-.11-.58,1.86,1.86,0,0,1,1.88-2l21.48-1A1.76,1.76,0,0,1,126,28a1.79,1.79,0,0,1-1.83,1.88Zm9.87-15.86c.19,1.33.3,3,.37,4.53,0,.8.07,1.55.06,2.22,0,2.26-1.6,3.62-3.93,3.85-1.41.15-3,.26-4.58.33-6.84.3-8.68.3-8.9-4.74-.08-1.67-.08-3.64-.06-5.14a4,4,0,0,1,4-4c1.5-.15,3-.22,4.46-.29s3-.13,4.34-.11A3.94,3.94,0,0,1,120.58,14.61ZM116.42,16c-.14-1.29-.6-1.35-4.36-1.18-4,.17-4.5.2-4.52,1.62v.67l9-.4Zm-8.84,4.24c0,.38.08.71.09,1,.09,1.08.8,1.22,4.52,1.05s4.58-.24,4.53-1.41c0-.29,0-.67,0-1.05Zm8.11,22.5a2.45,2.45,0,0,1,.75,0,5.85,5.85,0,0,0,1.35.15c1.25-.06,2.47-.86,2.67-6.64v-.17c0-.62-.25-1-.84-1.05A25.51,25.51,0,0,1,115.69,42.7Z"/><path class="cls-3" d="M168.35,45.83a3.83,3.83,0,0,1-1.44.26,2.54,2.54,0,0,1-.64-5C180,35.8,181.58,22.43,181.8,18.43c.06-1.21,0-2.64,0-4v-.16a2.47,2.47,0,0,1,2.76-2.24,2.51,2.51,0,0,1,2.53,2.69c-.08,1.42-.25,3-.43,4.79a2.71,2.71,0,0,1,.05.59c.17,10.08,7,19.11,13.65,22a2.52,2.52,0,0,1,1.75,2.48,3.09,3.09,0,0,1-3.37,2.7c-3.5-.19-11.45-7.82-14.7-17.19A28,28,0,0,1,168.35,45.83Z"/><path class="cls-3" d="M251.92,36.24C249.46,37.35,248,38,247.28,38a2.29,2.29,0,0,1-2.44-2.18,2,2,0,0,1,1.49-2.08c1.9-.63,3.74-1.34,5.43-2l-.35-7.59-2,.09c-.71,6.51-1.61,7-2.94,7a2,2,0,0,1-2.25-1.78,2,2,0,0,1,.09-.72,32.28,32.28,0,0,0,1.36-11.47,1.91,1.91,0,0,1,2-1.93A1.83,1.83,0,0,1,249.79,17v0c0,.87,0,1.84,0,2.84l1.5-.07L251,13.55a2.26,2.26,0,0,1,4.51-.21l.29,6.34,1,0a2.11,2.11,0,0,1,.23,4.21l-1.08,0,.26,5.75c1.59-.91,2-1,2.37-1.07a1.82,1.82,0,0,1,1.88,1.76c.06,1.29-.67,1.78-4.06,3.65l.5,12.72a2.26,2.26,0,0,1-4.51.21Zm17.36-14.46c-.89,6.15-3,12.22-8,16.5a2.75,2.75,0,0,1-1.6.7,2.17,2.17,0,0,1-2.3-2,2.29,2.29,0,0,1,1-1.84c4.55-3.71,6.21-7.68,7-13.19l-1.34.1c-2,5-2.76,5.48-3.84,5.53a2.17,2.17,0,0,1-2.3-1.94,2.51,2.51,0,0,1,.43-1.4,34.65,34.65,0,0,0,4.23-11.81,1.91,1.91,0,0,1,1.89-1.59,2.22,2.22,0,0,1,2.47,1.93,30.21,30.21,0,0,1-1.43,5.29c1.92-.13,4.67-.25,7.17-.37l2.88-.13c2.88-.09,4.67,1.46,4.93,4.46.16,1.71.29,3.71.39,5.88.28,6.08.65,19-8.94,19.42-4.63.21-4.88-1.5-4.91-2.33a2.14,2.14,0,0,1,2-2.39,4.07,4.07,0,0,1,.67,0,8.1,8.1,0,0,0,2.1.2c1.63-.07,5.18-1,4.54-15.13-.24-5.25-.35-5.87-1.33-6.12-.36,7.7-2.26,18.2-11.77,24.27a3,3,0,0,1-1.52.53,2.12,2.12,0,0,1-2.22-2.07,2,2,0,0,1,1-1.8c8.73-5.62,10.34-14.26,10.55-20.83Z"/></g></g></svg>