<svg xmlns="http://www.w3.org/2000/svg" viewBox="0 0 446.17 60.73"><defs><style>.cls-1{fill:#50b551;}.cls-2{fill:#96ddd1;}.cls-3{fill:#fff;}</style></defs><title>アセット 81back_white_hover</title><g id="レイヤー_2" data-name="レイヤー 2"><g id="レイヤー_1-2" data-name="レイヤー 1"><path class="cls-1" d="M57.68,11A13.47,13.47,0,0,0,46.83,1.17h0A85.34,85.34,0,0,0,10.92,3h0A13.5,13.5,0,0,0,1.11,13.85,85.36,85.36,0,0,0,2.93,49.76h0a13.51,13.51,0,0,0,10.86,9.81h0A85.52,85.52,0,0,0,49.7,57.74h0a13.48,13.48,0,0,0,9.81-10.86h0A85.47,85.47,0,0,0,57.68,11Z"/><path class="cls-2" d="M136.46,14.37a13.49,13.49,0,0,0-9.61-11A85.25,85.25,0,0,0,91,.88h0a13.47,13.47,0,0,0-11,9.61,85.42,85.42,0,0,0-2.47,35.87h0a13.49,13.49,0,0,0,9.62,11h0A85.41,85.41,0,0,0,123,59.86a13.5,13.5,0,0,0,11-9.62h0A85.24,85.24,0,0,0,136.46,14.37Z"/><path class="cls-1" d="M211.43,11.65A13.49,13.49,0,0,0,200.81,1.58h0a85.25,85.25,0,0,0-35.94.95h0A13.48,13.48,0,0,0,154.8,13.14a85.24,85.24,0,0,0,.95,35.94h0a13.48,13.48,0,0,0,10.61,10.07,85.41,85.41,0,0,0,35.94-.94h0a13.46,13.46,0,0,0,10.07-10.62h0A85.41,85.41,0,0,0,211.43,11.65Z"/><path class="cls-2" d="M289.58,14.2h0a13.49,13.49,0,0,0-9.68-11h0A85.44,85.44,0,0,0,244,1a13.48,13.48,0,0,0-11,9.68h0a85.42,85.42,0,0,0-2.26,35.88h0a13.51,13.51,0,0,0,9.68,11,85.28,85.28,0,0,0,35.88,2.25h0a13.47,13.47,0,0,0,11-9.67h0A85.48,85.48,0,0,0,289.58,14.2Z"/><path class="cls-1" d="M367.07,11.65A13.49,13.49,0,0,0,356.45,1.58h0a85.25,85.25,0,0,0-35.94.95h0a13.48,13.48,0,0,0-10.07,10.61,85.41,85.41,0,0,0,.95,35.94h0A13.48,13.48,0,0,0,322,59.15a85.41,85.41,0,0,0,35.94-.94h0A13.49,13.49,0,0,0,368,47.59h0A85.58,85.58,0,0,0,367.07,11.65Z"/><path class="cls-2" d="M445.22,14.2h0a13.49,13.49,0,0,0-9.68-11h0A85.43,85.43,0,0,0,399.66,1a13.49,13.49,0,0,0-11,9.68h0a85.42,85.42,0,0,0-2.26,35.88h0a13.51,13.51,0,0,0,9.68,11A85.31,85.31,0,0,0,432,59.76h0a13.47,13.47,0,0,0,11-9.67h0A85.48,85.48,0,0,0,445.22,14.2Z"/><path class="cls-3" d="M16.87,47.77A4,4,0,0,1,15.4,48,2.35,2.35,0,0,1,13,45.6a2.44,2.44,0,0,1,2-2.11,31.38,31.38,0,0,0,14-8.31,16.15,16.15,0,0,0-3.66-1.91A1.81,1.81,0,0,1,24,31.39a2.23,2.23,0,0,1,2.5-2c1.46.07,4.59,1.75,5.64,2.35,2.16-2.77,4-5.93,4-6.6,0-.29-.19-.34-.61-.36-1.46-.08-6.36.11-7.08.2-3.17,3.67-7.24,7.84-10.1,9.61a3.2,3.2,0,0,1-1.78.53,2.39,2.39,0,0,1-2.25-2.51,2.57,2.57,0,0,1,1.5-2.13c4.14-2.29,9.93-8.79,11.58-12.21A2.79,2.79,0,0,1,30,16.38,2.69,2.69,0,0,1,32.62,19c0,.54-.12.66-.85,1.75,4.48-.18,5.73-.11,6-.09,3,.16,4.18,1.65,4.08,3.48a6.29,6.29,0,0,1-1,2.87c-1.64,2.63-3.24,5-4.91,7.26,3.09,2.47,3.18,3.81,3.15,4.4A2.48,2.48,0,0,1,36.52,41a2.32,2.32,0,0,1-1.71-.88,22.16,22.16,0,0,0-2.06-2C28.89,42.2,24.15,45.41,16.87,47.77ZM43.45,22a15.09,15.09,0,0,0-3.08-2.51,1.51,1.51,0,0,1-1-1.48,2,2,0,0,1,2.14-1.68c.66,0,5.24,2.09,5.12,4.21a2.17,2.17,0,0,1-2,2.06A1.45,1.45,0,0,1,43.45,22Zm4.13-3.7A14.74,14.74,0,0,0,44.45,16a1.64,1.64,0,0,1-1.14-1.48,2,2,0,0,1,2.15-1.73c1,.06,5.32,2,5.21,4.14a2.13,2.13,0,0,1-2,2A1.52,1.52,0,0,1,47.58,18.3Z"/><path class="cls-3" d="M99,31.63a2.41,2.41,0,0,1-2.62,2.26,2.15,2.15,0,0,1-2.31-2.16c0-1.21,0-3.84,0-5.92v-.13c0-3.84,3.9-4.67,5.44-4.69s3.22,0,4.93,0c0-1.59,0-3.63,0-4.68A2.3,2.3,0,0,1,107,14a2.26,2.26,0,0,1,2.44,2.28L109.33,21c1.84,0,3.59,0,5.14.1,2.88.12,5.28,1.61,5.24,4.66v.37C118.41,43.76,101.34,47,100.25,47a2.48,2.48,0,0,1-2.51-2.53,2.29,2.29,0,0,1,2.11-2.23c10.84-1.92,14.41-10.77,14.46-15.07a1.69,1.69,0,0,0-1.77-1.9c-1.59-.1-3.72-.17-5.8-.19-2.42,0-4.72,0-6,.05a2,2,0,0,0-1.81,2c0,1,0,3.26.07,4.51Z"/><path class="cls-3" d="M176.08,26a15.08,15.08,0,0,0-5.57-3.53,2,2,0,0,1-1.44-2.08,2.58,2.58,0,0,1,2.77-2.4c1.33.07,5.61,2,7.89,3.94a2.63,2.63,0,0,1,1,2.19A3,3,0,0,1,177.87,27,2.59,2.59,0,0,1,176.08,26ZM172,43.31a2.71,2.71,0,0,1-2.56-2.9,2.68,2.68,0,0,1,2.47-2.5c8.4-1.34,16.8-8.95,21.4-16.77a2.46,2.46,0,0,1,2.33-1.29,2.52,2.52,0,0,1,2.45,2.6,3.62,3.62,0,0,1-.59,1.68C187.25,40.51,173.51,43.39,172,43.31Z"/><path class="cls-3" d="M265.78,42c-2.38,0-4.3,0-6-.11-2.05-.08-3.88-.19-6.05-.36-4.37-.34-6.5-2.64-6.48-6.32,0-2,.07-3.84.14-5.55s.18-3.42.29-5.17c.25-3.21,2.31-5.67,6.82-5.7,2.05,0,4,0,5.77.1,2.33.09,4.54.22,6.79.39,3.58.27,6,3.12,6,5.8,0,1.88-.07,3.75-.14,5.59s-.14,3.67-.3,5.46C272.3,39.77,269.79,42,265.78,42ZM267.84,30c.18-4.46.24-6.21-2.8-6.46-1.74-.15-3.37-.22-5-.28s-3.08-.12-4.71-.1c-3,0-3.12,1.71-3.33,6.85,0,1.41-.06,2.79,0,4.21,0,2.6,1.32,2.73,8.28,3,1.3.06,2.63.07,4.31,0a2.72,2.72,0,0,0,2.94-2.52C267.67,33.19,267.78,31.61,267.84,30Z"/><path class="cls-3" d="M326.28,32.91a2.31,2.31,0,0,1-2.6-2.24,2.47,2.47,0,0,1,2.5-2.56l26.13-.51a2.4,2.4,0,1,1,.1,4.8Z"/><path class="cls-3" d="M414.11,44.56a2.73,2.73,0,0,1-2.72,3A2.44,2.44,0,0,1,409,44.85v-.17c.29-4.67.57-13.9.7-21.12.05-3.17.06-5.93.05-7.76a2.3,2.3,0,0,1,2.5-2.38,2.36,2.36,0,0,1,2.47,2.42v.08c-.07,2-.13,5.47-.24,9.44,1,0,7.74,1.38,10.42,3.77a2.66,2.66,0,0,1,.92,2.06,2.73,2.73,0,0,1-2.55,2.75,2.41,2.41,0,0,1-1.45-.57A25.44,25.44,0,0,0,414.32,30C414.1,42.89,414.12,44.14,414.11,44.56Zm9.56-21.68a14.85,14.85,0,0,0-3.43-2.31c-.87-.35-1.24-.9-1.23-1.48a2.12,2.12,0,0,1,2.17-1.89c.37,0,5.65,1.65,5.61,4.07a2.24,2.24,0,0,1-2,2.18A1.52,1.52,0,0,1,423.67,22.88Zm4-4.19a15.81,15.81,0,0,0-3.42-2.14A1.59,1.59,0,0,1,423,15,2,2,0,0,1,425,13.18c1.22,0,4.28,1.66,5,2.3A2,2,0,0,1,430.7,17a2.19,2.19,0,0,1-2,2.18A1.53,1.53,0,0,1,427.66,18.69Z"/></g></g></svg>