<svg xmlns="http://www.w3.org/2000/svg" viewBox="0 0 406.19 348.49">
<defs><style>.hty-1{fill:#ffffff;}</style></defs>
<title>アセット 1hitoyanelogo</title>
<g id="layer2" data-name="layer2">
<g id="layer1" data-name="layer1">
<path class="hty-1" d="M240.43,49.6a2.62,2.62,0,0,1-.6-5.2c8.23-1,15-3.28,19.65-6.66s6.92-7.84,6.35-12.66c-.63-5.3-3.45-8.74-8.6-10.5-4.87-1.66-10.55-1.35-13.5-1L214.4,17.05a2.63,2.63,0,0,1-2.91-2.29,2.63,2.63,0,0,1,2.29-2.91l29.35-3.48c3.39-.39,10-.73,15.79,1.26C266,12,270.15,17.17,271,24.46c.75,6.27-1.9,12.19-7.44,16.68s-13.41,7.3-23.13,8.46Z"/>
<path class="hty-1" d="M160.49,309.45c-8.79,1-15.05-5.17-16.35-16.1-.93-7.84,1.21-14.76,6.2-20a28.38,28.38,0,0,1,17.33-8.3l.17,0c12.46-1.41,26,4.79,27.71,19.37l1.8,15.19a2.56,2.56,0,0,1-.52,1.87,2.54,2.54,0,0,1-4.51-1.27l-1.8-15.2c-1.41-11.82-12.45-16-22.11-14.93l-.14,0A23.33,23.33,0,0,0,154,276.83c-3.91,4.12-5.59,9.62-4.84,15.92.57,4.75,2.71,12.58,10.75,11.67,7.26-.86,9.72-7.66,9-14l-1.34-11.25a2.5,2.5,0,0,1,.53-1.86,2.53,2.53,0,0,1,4.5,1.26l1.34,11.25a19.55,19.55,0,0,1-2.87,13.32,14.56,14.56,0,0,1-10.47,6.31Z"/>
<path class="hty-1" d="M245.91,169.61c-8.62,1-14.76-5.07-16-15.79-.91-7.7,1.19-14.49,6.08-19.64A27.89,27.89,0,0,1,253,126l.16,0c12.23-1.39,25.49,4.69,27.19,19l1.77,14.92a2.48,2.48,0,0,1-2.16,2.75,2.49,2.49,0,0,1-2.75-2.17L275.4,145.6C274,134,263.18,129.86,253.68,130.93l-.14,0a22.91,22.91,0,0,0-14,6.64c-3.85,4-5.49,9.46-4.76,15.64.56,4.67,2.67,12.36,10.57,11.47a9.28,9.28,0,0,0,7.4-4.94,15.06,15.06,0,0,0,1.42-8.83L253,140.78a2.47,2.47,0,1,1,4.91-.58l1.21,10.15c1.2,10.11-4.3,18.21-13.08,19.25Z"/>
<path class="hty-1" d="M381,136.73a2.56,2.56,0,0,1-1-.08l-16.94-4.78a2.69,2.69,0,0,1,.43-5.27,2.57,2.57,0,0,1,1,.09l16.94,4.78a2.69,2.69,0,0,1-.42,5.26Z"/>
<path class="hty-1" d="M355.83,169.51a2.7,2.7,0,0,1-3-2.35l-4-33.35A26.71,26.71,0,0,1,353.57,115a27.08,27.08,0,0,1,4.19-4.53.27.27,0,0,0,.08-.07,37.76,37.76,0,0,1,5.74-3.83,1,1,0,0,0,.5-.59,1,1,0,0,0-1.08-1.31,1.07,1.07,0,0,0-.36.1,37,37,0,0,0-6.88,4.76l-33.17,3.94a2.7,2.7,0,0,1-2.44-4.34,2.74,2.74,0,0,1,1.8-1l61.61-7.31a2.69,2.69,0,1,1,.63,5.34c-12.72,1.51-21.56,5.56-26.27,12a21.3,21.3,0,0,0-3.68,15l4,33.34a2.7,2.7,0,0,1-.56,2,2.64,2.64,0,0,1-1.8,1Z"/>
<path class="hty-1" d="M278.13,297.12c-6.2.71-11.11-3.63-11.93-10.55a2.77,2.77,0,0,1,2.43-3.08,2.77,2.77,0,0,1,3.08,2.43c.47,3.92,2.63,6,5.8,5.69L297,289.3a2.77,2.77,0,0,1,3.08,2.43,2.73,2.73,0,0,1-.57,2,2.79,2.79,0,0,1-1.86,1Z"/>
<path class="hty-1" d="M250.07,301.69a2.78,2.78,0,0,1-3.07-2.43l-5.2-43.71a2.78,2.78,0,0,1,5.52-.66l2.48,20.89a36.62,36.62,0,0,0-3.09,5.76,1.06,1.06,0,0,0,0,.8,1,1,0,0,0,.57.55,1,1,0,0,0,1.34-.58,33.23,33.23,0,0,1,2.66-5,18.06,18.06,0,0,1,4.55-4.11,2.88,2.88,0,0,1,1.17-.41,2.78,2.78,0,0,1,1.79,5.12c-6.74,4.23-7.14,13.6-6.3,20.72a2.77,2.77,0,0,1-2.43,3.08Z"/>
<path class="hty-1" d="M279.61,263.24a2.64,2.64,0,0,1-1-.07,2.78,2.78,0,0,1-1.7-1.28,2.72,2.72,0,0,1-.29-2.1,12.59,12.59,0,0,1,1-2.65,11.46,11.46,0,0,1,3.22-3.39,1,1,0,0,0,.3-1.44,1,1,0,0,0-1-.46,1.05,1.05,0,0,0-.46.16,13.1,13.1,0,0,0-4,4.3l-10.85,1.29a2.78,2.78,0,0,1-.65-5.52l28.62-3.4a2.78,2.78,0,1,1,.66,5.52c-6.54.78-10.51,3.19-11.5,7a2.75,2.75,0,0,1-2.36,2.06Z"/>
<path class="hty-1" d="M9.12,38.13a2.67,2.67,0,0,1-.61-5.31l14.27-1.7c-.52,1.79-1.16,4.2-1.52,5.57Z"/>
<path class="hty-1" d="M45.71,79.32c-9.66,1.1-15.28-3.24-18.29-7.07-5.94-7.56-7.59-20.89-4.31-34.79.32-1.22,1.14-4.29,1.71-6.21l.2-.67a.3.3,0,0,0,0-.1C27.53,22.83,33.26,15.9,38.68,14a9.94,9.94,0,0,1,1.91-.45A6.29,6.29,0,0,1,45.43,15a7.81,7.81,0,0,1,2.4,8.3c-1.21,4.46-6.25,9.9-16.73,12.09a39.77,39.77,0,0,1,2.26-6.12c5.08-1.68,8.72-4.52,9.52-7.46a2.38,2.38,0,0,0-.66-2.66,1.29,1.29,0,0,0-1-.22,3.52,3.52,0,0,0-.85.21c-2.84,1-6.31,4.58-8.64,9a5.18,5.18,0,0,0-.27.53.69.69,0,0,0-.05.13h0a41.36,41.36,0,0,0-2,5.39s0,.12,0,.16c-4.35,13.62-3.54,27.58,2,34.66C34.59,73,39.21,74.68,45.11,74l.14,0c6.11-.73,9.48-5.15,11.24-8.74A28.84,28.84,0,0,0,59,50c-.45-3.75-1.9-7.43-4.15-7.17a2.68,2.68,0,0,1-.64-5.31L75.38,35a2.67,2.67,0,0,1,.63,5.3l-16.41,2a1,1,0,0,0-.86,1.13,1,1,0,0,0,1.1.91l3-.36a22,22,0,0,1,1.3,5.44,34.08,34.08,0,0,1-3.06,18.29c-3.28,6.7-8.68,10.82-15.2,11.59Z"/>
<path class="hty-1" d="M139.79,64.48c-8.95,1-18.81-3-19.82-11.54-.86-7.25,3-14.95,10.73-21.67.81-.7,1.66-1.39,2.54-2.05l.07-.06c1.06-.76,2.66-1.77,4.2-2.74l1.67-1.06.09,0a37.5,37.5,0,0,1,12.33-4.49l.55-.07c8.1-.91,9.54,4,9.78,5.51.91,7.61-7.62,13.92-15.84,14.9h0a13.14,13.14,0,0,1-7.58-1.1,8.1,8.1,0,0,1-3.3-3.13,30.75,30.75,0,0,1,4.26-3.2,2.92,2.92,0,0,0,1.47,1.69,7.93,7.93,0,0,0,4.45.55c5.5-.65,11.75-4.75,11.37-8.87-.34-1.3-2.42-1.33-4.11-1.14l-.33.05a34.09,34.09,0,0,0-11.84,4.65.42.42,0,0,0-.15.07l-.46.29a36.45,36.45,0,0,0-7.33,5.57l-.11.15c-3.74,3.61-8,9.22-7.26,15.58.69,5.81,8.63,7.56,14,7l23.68-2.81a2.61,2.61,0,0,1,2.9,2.29,2.61,2.61,0,0,1-2.29,2.9Z"/>
<path class="hty-1" d="M130.44,2.92A2.56,2.56,0,0,1,131,1a2.58,2.58,0,0,1,1.74-1,2.62,2.62,0,0,1,2.91,2.29l2.52,21.24-1.72,1.09c-1,.65-2.19,1.38-3.18,2Z"/>
<path class="hty-1" d="M160.44,127.31l14-1.66c6.48-.74,10.5,2.64,11.32,9.52l1,8.43a2.67,2.67,0,0,0,2.94,2.33h0a2.68,2.68,0,0,0,2.33-3l-1-8.42c-1.17-9.83-7.76-15.26-17.33-14.18L159.81,122a2.65,2.65,0,0,0-1.77,1,2.62,2.62,0,0,0-.55,2A2.66,2.66,0,0,0,160.44,127.31Z"/>
<path class="hty-1" d="M172.7,141.4l-6.56,4.32c-3.1,2-4.42,5.52-3.27,8.67a6.59,6.59,0,0,0,7.13,4.19l17.48-2.07a2.66,2.66,0,0,0-.63-5.29L169.4,153.3c-1.05.12-1.41-.41-1.53-.74-.22-.6,0-1.58,1.2-2.4l6.56-4.31c3.76-2.48,5.5-6.31,4.32-9.55-1-2.82-4-4.38-7.72-4l-11,1.31a2.66,2.66,0,0,0,.63,5.28l11.07-1.31a3,3,0,0,1,1.79.21l0,0a.66.66,0,0,1,.32.49.65.65,0,0,1-.06.34A4.83,4.83,0,0,1,172.7,141.4Z"/>
<path class="hty-1" d="M175.46,182.66c-2.77,2.56-6.87,5.49-10,5.84a3.87,3.87,0,0,1-1.54-.09c-2.08-.59-2.88-3.82-3.19-6.43l-6-50.4a2.66,2.66,0,0,0-4.73-1.33,2.61,2.61,0,0,0-.55,2l6,50.4c.91,7.65,4.33,10.16,7,10.92a9.1,9.1,0,0,0,3.52.25h0c5.48-.62,11-5.33,13.63-7.84C178.34,185,176.61,183.62,175.46,182.66Z"/>
<path class="hty-1" d="M198.67,185.73a63.48,63.48,0,0,1-13.33-4.91l-.12,0a26.32,26.32,0,0,1-5.53-4.15l-.05,0c-3.25-3.1-4.18-4.67-3.66-6.25.35-1.09,2-1.84,3.3-2a3.81,3.81,0,0,1,3.36,1.2c.8,1.23.43,2.88-1.34,5.84a26.21,26.21,0,0,0,4.23,3.25c2.86-4.73,3.45-8.65,1.77-11.65-1.78-3.19-5.61-4.27-8.66-3.92s-6.73,2.09-7.79,5.86c-1,3.51.8,7.45,5.31,11.69,1.22,1.07,4,3.22,5.38,4.17,6.51,3.89,15.81,6.12,15.9,6.14a2.8,2.8,0,0,0,.91.06h0a2.66,2.66,0,0,0,.3-5.24Z"/>
<path class="hty-1" d="M119,150.69l10.45-1.24c-.14-1.25-.38-3.51-.52-5.3l-10.55,1.25a2.66,2.66,0,0,0,.62,5.29Z"/>
<path class="hty-1" d="M144.19,130.55a8,8,0,0,0-8.45,0c-2.35,1.49-5.1,4.92-4.86,12.73a.48.48,0,0,1,0,.12c.13,2,.48,5.15.61,6.27a.35.35,0,0,1,0,.14L133,162.38l4.77-5s-1-8.22-1-8.24a46.55,46.55,0,0,1-.6-7.27c.07-3.42,1-5.91,2.4-6.83a2.65,2.65,0,0,1,1.09-.39,2.74,2.74,0,0,1,1.71.39,3.91,3.91,0,0,1,1,3.7c-.4,1.57-1.84,2.87-4.19,3.75a51.11,51.11,0,0,0,.48,5.44c6.61-2,8.44-5.91,8.93-8.14C148.41,136.25,146.94,132.26,144.19,130.55Z"/>
<path class="hty-1" d="M134.44,174.39,136.65,193a2.66,2.66,0,0,0,2.94,2.33h0a2.66,2.66,0,0,0,2.33-3l-2.72-22.93Z"/>
<path class="hty-1" d="M126,159.77a2.68,2.68,0,0,0-2.33,3l1,8.35,4.77-4.93-.48-4.05A2.67,2.67,0,0,0,126,159.77Z"/>
<path class="hty-1" d="M144.71,154a2.59,2.59,0,0,0-1.6.8L131.34,167l-.08.1-6.72,6.95c-3.37,3.61-7.24,8.85-6.53,13.33a5.78,5.78,0,0,0,3.19,4.36,5.66,5.66,0,0,0,3.18.63h0a5.09,5.09,0,0,0,2.36-.91c2.79-1.95,4.16-6.63,3.9-13.25-6,6.16-6.75,8.08-6.76,8.66a1,1,0,0,1-1.22,1.61,1.79,1.79,0,0,1-.79-1.36c-.22-2.26,3.29-6.29,9-12l.15-.12,3-3.16h0l4.77-5h0l8-8.35a2.66,2.66,0,0,0-2.23-4.49Z"/>
<path class="hty-1" d="M80.87,300.72c-.18-1.5-.37-3.15-.54-4.61a13.84,13.84,0,0,1,1.47-8,11,11,0,0,1,4-4.18,1,1,0,0,0-.61-1.94,1,1,0,0,0-.38.12A12.82,12.82,0,0,0,80.08,287l-5.58.66a2.86,2.86,0,0,1-.67-5.68l23.89-2.83a2.86,2.86,0,1,1,.68,5.67c-12.11,1.44-12.7,7.94-12.39,10.67.17,1.43.35,3,.53,4.49Z"/>
<path class="hty-1" d="M72,329.42A10.87,10.87,0,0,1,59.9,315c1.43-4.13,6.06-9.57,20-12H80c1.37-.2,5.78-.8,7.4-1l12.82-1.52a2.87,2.87,0,0,1,3.18,2.5,2.87,2.87,0,0,1-2.5,3.18L88.18,307.6c-3.41.39-5.81.71-7.12.95h-.12c-11.83,2-14.87,6.06-15.64,8.27a5.74,5.74,0,0,0,1.4,5.78c.9.9,2.77,1.33,4.75,1.11a10.46,10.46,0,0,0,3.31-1c4.1-2,6.54-6.32,6.89-12.2.9-.15,2.6-.4,5.76-.77-.22,12-7.14,16.64-10.15,18.11a16.21,16.21,0,0,1-5.15,1.52Z"/>
<path class="hty-1" d="M36.45,286a2.86,2.86,0,0,1-.66-5.68l9.65-1.14c.12,1.62.38,4,.57,5.69Z"/>
<path class="hty-1" d="M53.79,308.68a2.85,2.85,0,0,1-3.16-2.5l-2.39-20.06v-.06c-.11-.95-.65-5.6-.77-7.68a.13.13,0,0,0,0-.06c-.21-8.49,3.08-12.65,5.88-14.64A11.75,11.75,0,0,1,59,261.54a12.25,12.25,0,0,1,6.57,1,9.26,9.26,0,0,1,4.84,9.79c-.52,3.08-3.12,8.57-14.62,11.07-.32-2.78-.5-4.7-.52-5.73,7.92-1.87,9.29-5,9.5-6.29a3.65,3.65,0,0,0-1.69-3.7,6.28,6.28,0,0,0-3.4-.52,6.47,6.47,0,0,0-3,1.13c-2.14,1.53-3.34,4.47-3.47,8.52a51.27,51.27,0,0,0,.6,7.5v.1l2.5,21.06a2.85,2.85,0,0,1-2.5,3.17Z"/>
<path class="hty-1" d="M28.88,150.81a2.7,2.7,0,0,0-5.37.64l3.34,28.16c.74,6.18-1.73,15.6-6.59,25.18a2.66,2.66,0,0,0-.16,2.07A2.7,2.7,0,0,0,23,208.71h0a2.69,2.69,0,0,0,2.1-1.46c2.56-5,8.38-17.89,7.14-28.27Z"/>
<path class="hty-1" d="M88.68,144.69l-8.32,1a1,1,0,0,1-.24-2L84,143.2a9.39,9.39,0,0,0,.07-2.64c-.58-4.93-5.29-9.46-13.25-8.55L28,137.09a2.7,2.7,0,0,0-2.37,3,2.73,2.73,0,0,0,3,2.37l42.84-5.09c4.58-.52,6.9,1.55,7.17,3.83a4.52,4.52,0,0,1-1,3.33,5.33,5.33,0,0,1-3.57,1.89l-31.8,3.78a2.7,2.7,0,0,0-2.37,3,2.7,2.7,0,0,0,3,2.37l46.42-5.51a2.74,2.74,0,0,0,1.81-1,2.71,2.71,0,0,0-2.45-4.36Z"/>
<path class="hty-1" d="M64.56,174.22c-.24.11-.58.28-1,.5l-.29.18c-.21.13-.44.28-.68.45l-.4.31-.63.54-.22.2a10.73,10.73,0,0,0-.78.84l0,0h0a12.51,12.51,0,0,0-2.85,7.53c0,1.35.36,5.28.49,6.56,0,0,.77,6.47.77,6.47a23.06,23.06,0,0,1,4,1.79l1.66-.19-1-8.77v-.14a33.37,33.37,0,0,1-.26-6.67.55.55,0,0,1,0-.18l.11-.42a6.08,6.08,0,0,1,3-3.93,4.84,4.84,0,0,1,1.67-.52,4.31,4.31,0,0,1,.8,0,1.51,1.51,0,0,1,1.31,1.07,2,2,0,0,1-.06,1.32c-.23.54-1.18,1.89-4.85,2.94a27,27,0,0,0,.2,5.51c5.24-1.26,8.51-3.46,9.72-6.54A7.56,7.56,0,0,0,74,175.67a6.32,6.32,0,0,0-2.1-1.59,8.05,8.05,0,0,0-4.43-.66A10.24,10.24,0,0,0,64.56,174.22Z"/>
<path class="hty-1" d="M66.28,157.92l-28,3.33a2.7,2.7,0,1,0,.64,5.37l4.21-.5a14,14,0,0,1,5.54-4.51l.23-.05a1,1,0,0,1,1.07.66,1,1,0,0,1,0,.78,1,1,0,0,1-.57.52A12.44,12.44,0,0,0,45,167.05a7.05,7.05,0,0,0-1.29,4.74c.52,4.32,4.52,6.92,9.75,6.33l4.37-.52a13.23,13.23,0,0,1,5.93-5.24,12.36,12.36,0,0,1,3.56-1,11.48,11.48,0,0,1,2.11,0c0-.2-.09-.39-.13-.56l-16.44,2a5.87,5.87,0,0,1-2.8-.29,1.45,1.45,0,0,1-1-1.37c.07-1.52,4.42-6.19,17.85-7.79a2.7,2.7,0,1,0-.64-5.37Z"/>
<path class="hty-1" d="M78.64,169.23a24.73,24.73,0,0,0,4.53,3.56A7.51,7.51,0,0,0,86,168.37a6.67,6.67,0,0,0-3.27-7.1,6.58,6.58,0,0,0-4.07-.83,8.64,8.64,0,0,0-6,3.87,7.91,7.91,0,0,0-1,7.46,8.47,8.47,0,0,1,3.94,2.58,9.41,9.41,0,0,1,1.7,3.13l4.29,3.38a2.7,2.7,0,0,0,2,.56h0a2.7,2.7,0,0,0,1.35-4.81L82.81,175l-.06,0-.69-.45-.58-.38-1.35-1c-.46-.33-.93-.68-1.41-1.08l-.44-.37-.4-.35-.36-.34-.31-.34a3.89,3.89,0,0,1-.28-.35c-.08-.11-.14-.21-.2-.31a1.92,1.92,0,0,1-.22-.85.28.28,0,0,1,0-.09,3.21,3.21,0,0,1,.62-1.73,3.48,3.48,0,0,1,2.17-1.55,1.25,1.25,0,0,1,.77.15,1.23,1.23,0,0,1,.68,1.33C80.6,168,79.82,168.71,78.64,169.23Z"/>
<path class="hty-1" d="M42.2,188a2.66,2.66,0,0,0-.56,2,2.7,2.7,0,0,0,3,2.37L56.11,191c-.13-1.35-.36-3.83-.42-5.4L44,187A2.74,2.74,0,0,0,42.2,188Z"/>
<path class="hty-1" d="M91.35,198.31l-25.88,3.07h-.12l-16.55,2a.53.53,0,0,1-.18,0l-6.49.77c-1.15.13-2.73.31-3.18-1a1.58,1.58,0,0,1,.15-1.4,2.35,2.35,0,0,1,1.81-1,17.67,17.67,0,0,1,5.74.78l12.49-1.47c-.81-.31-1.45-.54-1.46-.54l-.19-.09c-5.46-2.13-12.87-4.55-17.25-4.05a7.64,7.64,0,0,0-6.7,8.3c.4,3.38,3.45,6.49,9.35,5.82L92,203.68a2.7,2.7,0,1,0-.64-5.37Z"/>
<rect class="hty-1" x="28.17" y="326.22" width="283.89" height="6.12" rx="3.06" transform="translate(-37.14 22.02) rotate(-6.68)"/>
<rect class="hty-1" x="-0.94" y="77.55" width="283.89" height="6.12" rx="3.06" transform="translate(-8.42 16.94) rotate(-6.68)"/>
<rect class="hty-1" x="13.91" y="201.22" width="393.59" height="6.12" rx="3.06" transform="translate(-22.33 25.89) rotate(-6.68)"/>
</g></g></svg>