<svg xmlns="http://www.w3.org/2000/svg" viewBox="0 0 565.41 56.2"><defs><style>.cls-1{fill:#fff;}</style></defs><title>アセット 28aras</title><g id="レイヤー_2" data-name="レイヤー 2"><g id="レイヤー_1-2" data-name="レイヤー 1"><path class="cls-1" d="M135.14,38a1.53,1.53,0,0,1,0-3.06c4.85,0,8.95-.88,11.87-2.53s4.56-4.09,4.55-6.93a6.87,6.87,0,0,0-4.28-6.68,19.17,19.17,0,0,0-7.78-1.51l-17.28,0a1.53,1.53,0,1,1,0-3.06l17.29,0A22.44,22.44,0,0,1,148.61,16a9.93,9.93,0,0,1,6,9.44c0,3.69-1.93,7-5.46,9.18s-8.29,3.33-14,3.34Z"/><path class="cls-1" d="M484.76,35.23c-5,0-8.15-3.92-8.16-10.17a13.62,13.62,0,0,1,4.82-10.89,16.08,16.08,0,0,1,10.33-3.54h.1c7.12,0,14.35,4.42,14.36,12.76v8.7a1.38,1.38,0,0,1-.41,1,1.46,1.46,0,0,1-1,.42,1.43,1.43,0,0,1-1.44-1.43l0-8.7c0-6.77-6-9.87-11.49-9.89h-.08a13.24,13.24,0,0,0-8.5,2.87,10.84,10.84,0,0,0-3.78,8.67c0,2.72.69,7.28,5.29,7.3,4.16,0,6-3.68,6-7.32V18.59a1.42,1.42,0,0,1,.42-1,1.4,1.4,0,0,1,1-.43,1.45,1.45,0,0,1,1.44,1.44V25a11.08,11.08,0,0,1-2.5,7.33,8.33,8.33,0,0,1-6.33,2.87Z"/><path class="cls-1" d="M309.69,36.33c-5.07,0-8.23-3.95-8.24-10.27a13.78,13.78,0,0,1,4.87-11,16.27,16.27,0,0,1,10.44-3.57h.09c7.2,0,14.5,4.46,14.51,12.89l0,8.79a1.47,1.47,0,0,1-1.45,1.45,1.45,1.45,0,0,1-1.45-1.45V24.38c0-6.84-6-10-11.63-10h-.08a13.47,13.47,0,0,0-8.59,2.91,11,11,0,0,0-3.83,8.77c0,2.74.71,7.36,5.36,7.38a5.43,5.43,0,0,0,4.64-2.37,8.74,8.74,0,0,0,1.42-5v-6a1.45,1.45,0,0,1,2.9,0v6c0,6-3.74,10.29-8.91,10.3Z"/><path class="cls-1" d="M384.48,23.86a1.53,1.53,0,0,1-.6-.12l-9.52-3.93a1.62,1.62,0,0,1-.85-.86A1.57,1.57,0,0,1,375,16.78a1.53,1.53,0,0,1,.6.12l9.52,3.93a1.58,1.58,0,0,1-.6,3Z"/><path class="cls-1" d="M367.6,41.19A1.58,1.58,0,0,1,366,39.62L366,20a15.63,15.63,0,0,1,4-10.62A15.46,15.46,0,0,1,372.74,7l.05,0a20.77,20.77,0,0,1,3.6-1.83.61.61,0,0,0,.33-.32.58.58,0,0,0,0-.45.59.59,0,0,0-.55-.38A.52.52,0,0,0,376,4a21,21,0,0,0-4.33,2.29l-19.54,0a1.57,1.57,0,0,1-1.58-1.57A1.53,1.53,0,0,1,351,3.67a1.56,1.56,0,0,1,1.11-.47l36.3-.06A1.59,1.59,0,0,1,390,4.72a1.57,1.57,0,0,1-1.57,1.57c-7.5,0-12.91,1.76-16.09,5.2A12.48,12.48,0,0,0,369.15,20l0,19.64a1.57,1.57,0,0,1-.46,1.12,1.53,1.53,0,0,1-1.11.46Z"/><path class="cls-1" d="M552.53,35.46c-3.49,0-5.94-2.74-5.94-6.64a1.55,1.55,0,1,1,3.1,0c0,2.2,1.07,3.53,2.85,3.53h11A1.55,1.55,0,0,1,564.6,35a1.54,1.54,0,0,1-1.09.45Z"/><path class="cls-1" d="M536.64,36.17a1.55,1.55,0,0,1-1.55-1.55l0-24.63a1.58,1.58,0,0,1,.45-1.1,1.55,1.55,0,0,1,1.1-.46A1.58,1.58,0,0,1,538.16,10l0,11.77a20.26,20.26,0,0,0-2.1,3,.61.61,0,0,0,0,.44.58.58,0,0,0,.56.41.57.57,0,0,0,.51-.3,18,18,0,0,1,1.8-2.61,9.77,9.77,0,0,1,2.8-2,1.57,1.57,0,0,1,.67-.16,1.59,1.59,0,0,1,1.4.89,1.55,1.55,0,0,1-.74,2.07c-4,1.92-4.85,7.1-4.84,11.11a1.55,1.55,0,0,1-1.55,1.55Z"/><path class="cls-1" d="M555.56,16.73a1.56,1.56,0,0,1-1.45-2.12,7.43,7.43,0,0,1,.73-1.4,6.36,6.36,0,0,1,2-1.68.59.59,0,0,0,.26-.78.58.58,0,0,0-.52-.32.58.58,0,0,0-.26.06,7.36,7.36,0,0,0-2.5,2.13h-6.11a1.56,1.56,0,1,1,0-3.11l16.13,0a1.55,1.55,0,1,1,0,3.1c-3.68,0-6.05,1.09-6.84,3.14a1.54,1.54,0,0,1-1.45,1Z"/><path class="cls-1" d="M1.5,16.17a1.56,1.56,0,0,1,0-3.12l8.41,0c-.42,1-1,2.36-1.26,3.13Z"/><path class="cls-1" d="M20,42.6c-5.69,0-8.66-2.92-10.15-5.36-2.94-4.79-3-12.65-.14-20.51.27-.68,1-2.41,1.42-3.49l.16-.38,0,0c2-4.28,5.76-7.91,9-8.64A5.7,5.7,0,0,1,21.46,4a3.72,3.72,0,0,1,2.72,1.13,4.59,4.59,0,0,1,.83,5c-1,2.51-4.31,5.33-10.55,5.89a24.2,24.2,0,0,1,1.73-3.41c3.07-.63,5.37-2,6-3.68a1.41,1.41,0,0,0-.2-1.6.75.75,0,0,0-.58-.19,2.35,2.35,0,0,0-.51.06c-1.71.38-4,2.23-5.63,4.61l-.19.29a.3.3,0,0,0,0,.08h0a25.45,25.45,0,0,0-1.51,3l0,.09c-3.45,7.62-3.93,15.78-1.18,20.28,1.58,2.58,4.15,3.89,7.62,3.91h.08a8.51,8.51,0,0,0,7.13-4.32,16.87,16.87,0,0,0,2.51-8.68c0-2.21-.6-4.44-1.92-4.45a1.56,1.56,0,0,1,0-3.12l12.45,0a1.57,1.57,0,0,1,0,3.13l-9.67,0a.6.6,0,0,0,0,1.2h1.77a13.06,13.06,0,0,1,.38,3.25,19.92,19.92,0,0,1-3,10.42c-2.36,3.67-5.78,5.69-9.62,5.7Z"/><path class="cls-1" d="M75.64,39.77c-5.27,0-10.72-3-10.73-8.05,0-4.28,2.73-8.49,7.71-11.87.52-.35,1.06-.69,1.62-1l0,0C75,18.44,76,18,76.91,17.5l1-.5,0,0a22.07,22.07,0,0,1,7.47-1.77h.33c4.77,0,5.27,3,5.31,3.87,0,4.48-5.38,7.57-10.22,7.58h0a7.71,7.71,0,0,1-4.33-1.16,4.81,4.81,0,0,1-1.71-2,18,18,0,0,1,2.7-1.57A1.68,1.68,0,0,0,78.29,23a4.62,4.62,0,0,0,2.55.62c3.24,0,7.15-2,7.21-4.38-.11-.78-1.32-.93-2.31-.94h-.2a20.21,20.21,0,0,0-7.2,1.9l-.09,0-.28.14a21.3,21.3,0,0,0-4.64,2.74.29.29,0,0,0-.07.08C70.83,25,68,28,68,31.72c0,3.42,4.5,5,7.69,5l14,0a1.55,1.55,0,0,1,1.54,1.53,1.54,1.54,0,0,1-1.53,1.53Z"/><path class="cls-1" d="M74.4,3.36a1.53,1.53,0,0,1,.45-1.08,1.51,1.51,0,0,1,1.08-.45,1.53,1.53,0,0,1,1.53,1.53l0,12.51-1.07.52c-.65.31-1.37.65-2,1Z"/><path class="cls-1" d="M262.9,3.37h8.28c3.81,0,5.92,2.25,5.93,6.31v5a1.57,1.57,0,0,0,1.56,1.55h0a1.56,1.56,0,0,0,1.56-1.55v-5c0-5.79-3.47-9.39-9.1-9.41H262.9a1.51,1.51,0,0,0-1.1.46,1.55,1.55,0,0,0-.46,1.1A1.57,1.57,0,0,0,262.9,3.37Z"/><path class="cls-1" d="M269.07,12.4,265,14.46a4.3,4.3,0,0,0-2.5,4.81,3.88,3.88,0,0,0,3.86,2.93l10.3,0a1.56,1.56,0,1,0,0-3.11H266.34c-.62,0-.79-.33-.84-.53-.08-.36.09-.92.86-1.31l4.11-2.06c2.35-1.18,3.62-3.3,3.16-5.26-.41-1.71-2.05-2.82-4.21-2.82h-6.51a1.56,1.56,0,0,0,0,3.11h6.52a1.57,1.57,0,0,1,1,.25h0a.38.38,0,0,1,.15.3.36.36,0,0,1-.06.2A2.83,2.83,0,0,1,269.07,12.4Z"/><path class="cls-1" d="M267.86,36.56c-1.78,1.3-4.36,2.73-6.17,2.72a2.4,2.4,0,0,1-.89-.16c-1.17-.48-1.42-2.42-1.42-4l-.05-29.69a1.57,1.57,0,0,0-1.56-1.56,1.55,1.55,0,0,0-1.1.46,1.53,1.53,0,0,0-.45,1.1l0,29.7c0,4.51,1.82,6.2,3.34,6.83a5.36,5.36,0,0,0,2,.38h0c3.23,0,6.77-2.35,8.45-3.63C269.38,38.1,268.47,37.2,267.86,36.56Z"/><path class="cls-1" d="M281.14,39.92a37.26,37.26,0,0,1-7.41-3.76l-.06,0a15.76,15.76,0,0,1-2.94-2.79l0,0c-1.68-2-2.11-3-1.7-3.88a2.34,2.34,0,0,1,2.05-.94,2.24,2.24,0,0,1,1.87.93c.38.76.05,1.7-1.18,3.3A15.94,15.94,0,0,0,274,34.9c2-2.56,2.6-4.8,1.83-6.65a5.13,5.13,0,0,0-4.77-2.87c-1.73,0-4.06.76-4.93,2.88-.81,2,0,4.38,2.29,7.15.64.7,2.08,2.14,2.84,2.79a39.08,39.08,0,0,0,8.83,4.65,1.91,1.91,0,0,0,.53.1h0a1.59,1.59,0,0,0,1.46-1A1.57,1.57,0,0,0,281.14,39.92Z"/><path class="cls-1" d="M237.21,14.14h6.16c0-.74,0-2.07.06-3.12h-6.22a1.55,1.55,0,0,0-1.55,1.56A1.57,1.57,0,0,0,237.21,14.14Z"/><path class="cls-1" d="M253.24,4.15a4.63,4.63,0,0,0-2.88-1,4.54,4.54,0,0,0-2,.46c-1.47.7-3.3,2.51-3.69,7.07a.14.14,0,0,1,0,.06c-.06,1.2-.06,3-.07,3.69a.22.22,0,0,1,0,.08l0,7.38,3.11-2.55V14.47a26.58,26.58,0,0,1,.14-4.26c.28-2,1-3.37,1.86-3.81a1.52,1.52,0,0,1,.66-.15,1.57,1.57,0,0,1,1,.34,2.31,2.31,0,0,1,.32,2.22A3.52,3.52,0,0,1,249,10.7a27.69,27.69,0,0,0-.1,3.2c4-.69,5.31-2.87,5.75-4.13A5.24,5.24,0,0,0,253.24,4.15Z"/><path class="cls-1" d="M244.59,29l0,11a1.55,1.55,0,0,0,1.55,1.55h0a1.55,1.55,0,0,0,1.55-1.56l0-13.51Z"/><path class="cls-1" d="M240.65,19.89a1.55,1.55,0,0,0-1.55,1.56v4.92l3.1-2.54V21.45A1.56,1.56,0,0,0,240.65,19.89Z"/><path class="cls-1" d="M252,17.82a1.54,1.54,0,0,0-1,.35l-7.67,6.3,0,.05-4.38,3.58c-2.21,1.87-4.81,4.65-4.71,7.3a3.49,3.49,0,0,0,3.37,3.34h0a3.21,3.21,0,0,0,1.44-.37c1.76-.95,2.87-3.57,3.17-7.44-3.89,3.17-4.48,4.24-4.52,4.57a.62.62,0,0,1,.16.37.6.6,0,0,1-.14.43.59.59,0,0,1-.45.2.62.62,0,0,1-.39-.14,1.1,1.1,0,0,1-.37-.85c0-1.33,2.35-3.43,6.07-6.39l.1-.05,2-1.64h0l3.1-2.55h0l5.25-4.3a1.56,1.56,0,0,0,.21-2.19A1.54,1.54,0,0,0,252,17.82Z"/><path class="cls-1" d="M438.65,25.24c0-.84,0-1.76,0-2.58A7.55,7.55,0,0,1,440,18.35a6,6,0,0,1,2.47-2.05.58.58,0,0,0-.22-1.11.52.52,0,0,0-.21,0,7.1,7.1,0,0,0-2.92,2.36H436a1.61,1.61,0,0,1-1.6-1.59A1.59,1.59,0,0,1,436,14.42l13.38,0a1.59,1.59,0,0,1,1.13,2.72,1.57,1.57,0,0,1-1.12.46c-6.78,0-7.53,3.57-7.53,5.1,0,.79,0,1.69,0,2.51Z"/><path class="cls-1" d="M431.9,40.52a6,6,0,0,1-5.76-8.77c1.05-2.19,4-4.89,11.84-5.35H438l4.15-.08h7.18A1.59,1.59,0,0,1,451,27.91,1.53,1.53,0,0,1,450.5,29a1.58,1.58,0,0,1-1.12.47h-7.14c-1.91,0-3.25,0-4,.07h-.06c-6.67.37-8.61,2.39-9.18,3.56a3.18,3.18,0,0,0,.4,3.28,3.35,3.35,0,0,0,2.56.92,5.35,5.35,0,0,0,1.88-.32c2.4-.84,4-3.07,4.6-6.29.51,0,1.46,0,3.23,0-.89,6.6-5,8.73-6.78,9.34a8.79,8.79,0,0,1-2.94.51Z"/><path class="cls-1" d="M415.06,14.22a1.59,1.59,0,0,1-1.58-1.59A1.59,1.59,0,0,1,415.06,11h5.41c0,.91-.05,2.24-.06,3.18Z"/><path class="cls-1" d="M423.17,27.89a1.61,1.61,0,0,1-1.59-1.59V15c0-.53,0-3.14.07-4.29a.08.08,0,0,1,0,0c.43-4.7,2.52-6.79,4.19-7.7a6.54,6.54,0,0,1,3.25-.82,6.82,6.82,0,0,1,3.57,1,5.14,5.14,0,0,1,2,5.72c-.48,1.67-2.27,4.53-8.79,5.17,0-1.56,0-2.63.08-3.2,4.5-.52,5.46-2.16,5.66-2.86A2,2,0,0,0,431,5.86a3.53,3.53,0,0,0-1.85-.51,3.64,3.64,0,0,0-1.73.43c-1.28.71-2.13,2.26-2.47,4.48a28.8,28.8,0,0,0-.15,4.19.43.43,0,0,0,0,.05l0,11.79a1.59,1.59,0,0,1-1.58,1.6Z"/><path class="cls-1" d="M184.85,8.08a1.59,1.59,0,0,0-3.17,0l0,16.59c0,3.65-2.07,8.95-5.55,14.19a1.61,1.61,0,0,0-.23,1.19,1.57,1.57,0,0,0,.68,1,1.53,1.53,0,0,0,.86.26h0a1.59,1.59,0,0,0,1.32-.71c1.83-2.75,6.09-9.82,6.08-15.94Z"/><path class="cls-1" d="M220,8.59h-4.91a.59.59,0,0,1-.59-.59.62.62,0,0,1,.6-.6h2.26a5.39,5.39,0,0,0,.22-1.53C217.6,3,215.17,0,210.48,0L185.29,0a1.59,1.59,0,0,0-1.58,1.59,1.6,1.6,0,0,0,1.58,1.58l25.24,0c2.7,0,3.91,1.37,3.91,2.72a2.65,2.65,0,0,1-.82,1.86,3.14,3.14,0,0,1-2.2.86l-18.75,0a1.56,1.56,0,0,0-1.11.47,1.58,1.58,0,0,0,1.11,2.7L220,11.75a1.53,1.53,0,0,0,1.11-.46A1.58,1.58,0,0,0,220,8.59Z"/><path class="cls-1" d="M204,24.11c-.15.05-.36.12-.6.22l-.18.09a3.51,3.51,0,0,0-.43.22,1.65,1.65,0,0,0-.25.15,4.81,4.81,0,0,0-.41.27l-.13.1a5.15,5.15,0,0,0-.52.43l0,0h0a7.36,7.36,0,0,0-2.17,4.18c-.1.78-.15,3.09-.16,3.85v3.81a13.35,13.35,0,0,1,2.19,1.31h1V33.59a.25.25,0,0,1,0-.08,19.92,19.92,0,0,1,.29-3.89.45.45,0,0,1,0-.11s.07-.19.09-.23a3.52,3.52,0,0,1,2-2.08,3,3,0,0,1,1-.19,2.24,2.24,0,0,1,.46,0,.89.89,0,0,1,.69.71,1.14,1.14,0,0,1-.12.76c-.18.3-.82,1-3,1.38a16.41,16.41,0,0,0-.25,3.22c3.13-.38,5.18-1.44,6.09-3.14a4.41,4.41,0,0,0-.2-4.4,3.63,3.63,0,0,0-1.11-1.06,4.69,4.69,0,0,0-2.53-.69A5.91,5.91,0,0,0,204,24.11Z"/><path class="cls-1" d="M206.1,14.76l-16.49,0a1.59,1.59,0,1,0,0,3.17h2.48a8.15,8.15,0,0,1,3.53-2.24h.13a.59.59,0,0,1,.58.45.58.58,0,0,1-.07.45.62.62,0,0,1-.37.27,7.12,7.12,0,0,0-2.79,1.75A4,4,0,0,0,192,21.28c0,2.54,2.15,4.32,5.23,4.34h2.57A7.76,7.76,0,0,1,203.65,23a7.23,7.23,0,0,1,2.13-.32,6.26,6.26,0,0,1,1.23.12c0-.12,0-.23,0-.33h-9.69a3.44,3.44,0,0,1-1.6-.36.84.84,0,0,1-.48-.86c.14-.88,3-3.3,10.91-3.31a1.58,1.58,0,1,0,0-3.16Z"/><path class="cls-1" d="M212.51,22.17a15,15,0,0,0,2.39,2.37,4.36,4.36,0,0,0,2-2.37,3.92,3.92,0,0,0-3.72-5.11,5.06,5.06,0,0,0-3.78,1.84,4.61,4.61,0,0,0-1.12,4.26,5,5,0,0,1,2.12,1.77,5.81,5.81,0,0,1,.78,1.94l2.26,2.25a1.53,1.53,0,0,0,1.11.46h0a1.56,1.56,0,0,0,1.12-.46A1.53,1.53,0,0,0,216.1,28a1.56,1.56,0,0,0-.46-1.12l-1.1-1.09,0,0-.37-.3-.31-.27-.72-.64q-.36-.33-.75-.72l-.23-.24-.2-.24-.19-.22-.16-.22-.14-.22-.09-.19a1.13,1.13,0,0,1-.07-.51v-.06a1.82,1.82,0,0,1,.48-1,2,2,0,0,1,1.36-.75.78.78,0,0,1,.75,1A2,2,0,0,1,212.51,22.17Z"/><path class="cls-1" d="M190.06,30.61a1.58,1.58,0,0,0,1.11,2.7h6.77c0-.8.05-2.25.12-3.17h-6.89A1.54,1.54,0,0,0,190.06,30.61Z"/><path class="cls-1" d="M217.92,39.93l-15.25,0H188.92c-.68,0-1.61,0-1.79-.78a.93.93,0,0,1,.19-.8,1.4,1.4,0,0,1,1.12-.48,10.17,10.17,0,0,1,3.28.85h7.36l-.81-.41-.1-.07c-3-1.6-7.17-3.51-9.75-3.52a4.37,4.37,0,0,0-3.23,1.39,4.43,4.43,0,0,0-1.23,3c0,2,1.56,4,5,4l28.93,0a1.59,1.59,0,1,0,0-3.17Z"/><rect class="cls-1" y="53.37" width="565.41" height="2.82" rx="1.41"/></g></g></svg>