<svg xmlns="http://www.w3.org/2000/svg" viewBox="0 0 645.78 117.82"><defs><style>.cls-1{fill:#fff;}</style></defs><g id="レイヤー_2" data-name="レイヤー 2"><g id="レイヤー_1-2" data-name="レイヤー 1"><path class="cls-1" d="M83.36,95a1.25,1.25,0,0,1-1.26,1.14H69.83c-.68,0-1-.34-1-.91V95l12-75.66a1.24,1.24,0,0,1,1.26-1.14H94.36a.93.93,0,0,1,1,.92v.22Z"/><path class="cls-1" d="M135.28,96.09a.94.94,0,0,1-1-1.14l6.3-39a38.22,38.22,0,0,0,.46-4.58c0-5-2.29-6.53-9.74-6.53a31.89,31.89,0,0,0-7,.68c-.81.23-1.26.46-1.38,1.26L115.34,95a1.26,1.26,0,0,1-1.26,1.14H102A.94.94,0,0,1,101,95l9.17-57.77c.11-.69.46-.92,1.26-1.15a120.88,120.88,0,0,1,22-2.41c15.81,0,22.12,3.56,22.12,14.22a47.59,47.59,0,0,1-.69,7.68L148.58,95a1.26,1.26,0,0,1-1.26,1.14Z"/><path class="cls-1" d="M191,34.08c0,.46.12.69.58.69h9.51a1,1,0,0,1,1,1.15l-1.37,8.82a1.37,1.37,0,0,1-1.38,1.15h-9.28a.77.77,0,0,0-.81.69L181.58,95a1.24,1.24,0,0,1-1.26,1.14h-11.8a1,1,0,0,1-1-1.14l7.68-48.37c0-.46-.11-.69-.57-.69h-7.68a1,1,0,0,1-1-1.15l1.49-8.82a1.25,1.25,0,0,1,1.26-1.15h7.45c.46,0,.8-.23.8-.69l.92-5.16c1.26-7.91,4.7-17.08,19.83-17.08a34.77,34.77,0,0,1,8.83,1c.57.11.68.68.57,1.49l-1.49,7.68c-.23.91-.8.8-1.49.68a26.08,26.08,0,0,0-5.27-.57c-5.28,0-6.42,3.32-7.11,7.91Z"/><path class="cls-1" d="M214.71,39.35c5.5-4.7,10.2-5.73,18.68-5.73,16.62,0,22.35,6.77,22.35,22.13,0,10.31-3.09,28.31-11.46,35.87-4.82,4.36-10.32,5.62-18.8,5.62-17.19,0-22.12-6.42-22.12-22.7C203.36,63.65,206,46.92,214.71,39.35Zm26.82,16.51c0-8.94-.8-11.69-9.4-11.69-3.44,0-5.73.8-7.45,2.63-5.05,5.28-7.11,20.41-7.11,28.32,0,8.36.57,11,9.4,11,3.44,0,5.5-.69,7.22-2.41C238.89,78.9,241.3,64,241.53,55.86Z"/><path class="cls-1" d="M293.1,44.74a34,34,0,0,0-6.42.69c-.8.23-1.14.46-1.26,1.26L277.74,95a1.24,1.24,0,0,1-1.26,1.14H264.56a1,1,0,0,1-1-1.14l9.17-57.77A1.35,1.35,0,0,1,274,36a93.25,93.25,0,0,1,19.49-2.41,51.13,51.13,0,0,1,8.25.46c.34.12.46.23.34.8l-2.17,9.86c-.12.46-.35.57-.81.57A32.67,32.67,0,0,0,293.1,44.74Z"/><path class="cls-1" d="M349,95a1.26,1.26,0,0,1-1.26,1.14h-11.7a1,1,0,0,1-1-1.14l6.88-43.1a16.53,16.53,0,0,0,.23-2.18c.11-3.9-2.52-4.81-9.28-4.81a31.67,31.67,0,0,0-7.34.8c-.8.23-1.26.46-1.38,1.26L316.6,95a1.25,1.25,0,0,1-1.26,1.14h-12a1,1,0,0,1-1-1.14l9.17-57.66A1.44,1.44,0,0,1,312.7,36a130.06,130.06,0,0,1,22.7-2.41c6.07,0,12.49.58,15.81,2.75a1.7,1.7,0,0,0,1.5.12,53.49,53.49,0,0,1,17.07-2.87c14.56,0,20.06,5.62,20.06,15a54.14,54.14,0,0,1-.46,5.84L383,95a1.26,1.26,0,0,1-1.26,1.14h-12a.94.94,0,0,1-1-1.14l6.3-39.55a21.16,21.16,0,0,0,.46-3.21c0-5.39-2.18-7.33-10.43-7.33a29.83,29.83,0,0,0-6.88.8c-.8.23-1.37.46-1.49,1.26Z"/><path class="cls-1" d="M409.21,46.8a.85.85,0,0,1-1.15-.68l.69-8.94a1.17,1.17,0,0,1,.8-1.15,79.58,79.58,0,0,1,19.83-2.41c12.61,0,19.83,3.9,19.83,14.22a30,30,0,0,1-.34,4.35l-6.65,41.15A1.93,1.93,0,0,1,441,95c-3.78,1.49-10,2.29-18.34,2.29-18.69,0-24.65-3.9-24.65-13.41,0-6.88,1.72-13.07,5.16-16.85s9.4-5.05,16.62-5.85l12.61-1.49c1-.11,1.49-.23,1.72-1a38.53,38.53,0,0,0,.92-6.76c0-4.7-3.33-6.54-11.24-6.54A76,76,0,0,0,409.21,46.8Zm23.27,22.7a.65.65,0,0,0-.58-.69h-8.36c-4.82,0-7.68.92-9.17,3-1.61,2.3-2.53,6.88-2.53,10.55v.46c.12,4.24,2.75,5,11.58,5a19.24,19.24,0,0,0,5.73-.69,1.18,1.18,0,0,0,.69-.8Z"/><path class="cls-1" d="M483.59,45.89c-.45,0-.68.23-.8.69l-5,31.17a29,29,0,0,0-.35,3.67c0,3.33,1.27,4.13,5.16,4.13H486c.46,0,.8.11.8.8L485.2,95a1.35,1.35,0,0,1-1,1c-1.72.69-5.05.91-8.14.91-8.14,0-13.64-2.29-13.64-9.85a38.38,38.38,0,0,1,.69-6.65l5.38-33.93a.54.54,0,0,0-.57-.57h-8a1,1,0,0,1-1-1.15l1.49-8.82a1.25,1.25,0,0,1,1.26-1.15h7.91c.45,0,.8-.23.8-.69l2.29-14.33A1.37,1.37,0,0,1,474,18.61h12a.84.84,0,0,1,.92.91v.23l-2.29,14.33c0,.46.11.69.57.69h9.63a1,1,0,0,1,1,1.15l-1.49,8.82a1.25,1.25,0,0,1-1.26,1.15Z"/><path class="cls-1" d="M499.29,96.09a1,1,0,0,1-1-1.14l9.4-59a1.25,1.25,0,0,1,1.26-1.15h12a1,1,0,0,1,1,1.15l-9.4,59a1.24,1.24,0,0,1-1.26,1.14Zm11-71.52a.88.88,0,0,1-.92-1.15L511.1,12.3a1.35,1.35,0,0,1,1.38-1.14h12.6a1,1,0,0,1,1,1.14L524.4,23.42A1.37,1.37,0,0,1,523,24.57Z"/><path class="cls-1" d="M541.82,39.35c5.5-4.7,10.2-5.73,18.68-5.73,16.62,0,22.35,6.77,22.35,22.13,0,10.31-3.09,28.31-11.46,35.87-4.81,4.36-10.32,5.62-18.8,5.62-17.19,0-22.12-6.42-22.12-22.7C530.47,63.65,533.1,46.92,541.82,39.35Zm26.82,16.51c0-8.94-.8-11.69-9.4-11.69-3.44,0-5.73.8-7.45,2.63-5,5.28-7.11,20.41-7.11,28.32,0,8.36.57,11,9.4,11,3.44,0,5.5-.69,7.22-2.41C566,78.9,568.41,64,568.64,55.86Z"/><path class="cls-1" d="M625.49,96.09a.94.94,0,0,1-1-1.14l6.3-39a38.22,38.22,0,0,0,.46-4.58c0-5-2.29-6.53-9.74-6.53a32,32,0,0,0-7,.68c-.8.23-1.26.46-1.37,1.26L605.54,95a1.24,1.24,0,0,1-1.26,1.14h-12a1,1,0,0,1-1-1.14l9.17-57.77c.12-.69.46-.92,1.27-1.15a120.87,120.87,0,0,1,22-2.41c15.82,0,22.13,3.56,22.13,14.22a47.59,47.59,0,0,1-.69,7.68L638.78,95a1.24,1.24,0,0,1-1.26,1.14Z"/><path class="cls-1" d="M27.55,0C21.1,37.85,21.89,57.13,0,58.9c0,0,0,0,0,0,21.44,1.77,15.92,21,13.08,58.89h0C19.56,80,18.77,60.69,40.65,58.92c0,0,0,0,0,0C19.2,57.13,24.73,37.85,27.57,0Z"/></g></g></svg>