<svg xmlns="http://www.w3.org/2000/svg" viewBox="0 0 290.53 60.73"><defs><style>.cls-1{fill:#50b551;}.cls-2{fill:#96ddd1;}.cls-3{fill:#fff;}</style></defs><title>アセット 79back_white_hover</title><g id="レイヤー_2" data-name="レイヤー 2"><g id="レイヤー_1-2" data-name="レイヤー 1"><path class="cls-1" d="M57.68,11A13.47,13.47,0,0,0,46.83,1.17h0A85.34,85.34,0,0,0,10.92,3h0A13.5,13.5,0,0,0,1.11,13.85,85.36,85.36,0,0,0,2.93,49.76h0a13.51,13.51,0,0,0,10.86,9.81h0A85.52,85.52,0,0,0,49.7,57.74h0a13.48,13.48,0,0,0,9.81-10.86h0A85.47,85.47,0,0,0,57.68,11Z"/><path class="cls-2" d="M136.46,14.37a13.49,13.49,0,0,0-9.61-11A85.25,85.25,0,0,0,91,.88h0a13.47,13.47,0,0,0-11,9.61,85.42,85.42,0,0,0-2.47,35.87h0a13.49,13.49,0,0,0,9.62,11h0A85.41,85.41,0,0,0,123,59.86a13.5,13.5,0,0,0,11-9.62h0A85.24,85.24,0,0,0,136.46,14.37Z"/><path class="cls-1" d="M211.43,11.65A13.49,13.49,0,0,0,200.81,1.58h0a85.25,85.25,0,0,0-35.94.95h0A13.48,13.48,0,0,0,154.8,13.14a85.24,85.24,0,0,0,.95,35.94h0a13.48,13.48,0,0,0,10.61,10.07,85.41,85.41,0,0,0,35.94-.94h0a13.46,13.46,0,0,0,10.07-10.62h0A85.41,85.41,0,0,0,211.43,11.65Z"/><path class="cls-2" d="M289.58,14.2h0a13.49,13.49,0,0,0-9.68-11h0A85.44,85.44,0,0,0,244,1a13.48,13.48,0,0,0-11,9.68h0a85.42,85.42,0,0,0-2.26,35.88h0a13.51,13.51,0,0,0,9.68,11,85.28,85.28,0,0,0,35.88,2.25h0a13.47,13.47,0,0,0,11-9.67h0A85.48,85.48,0,0,0,289.58,14.2Z"/><path class="cls-3" d="M32.54,24.68a1.93,1.93,0,0,1,2-1.56,2.4,2.4,0,0,1,2.55,1.72c5.8.95,8.75,4.79,8.89,9.17.26,8.76-9.49,13.7-12.41,13.78a2.09,2.09,0,0,1-2.44-1.89c0-1,.69-2.15,2.34-2.74,5.37-2,7.77-5.67,7.67-8.84a6,6,0,0,0-4.8-5.57,26.28,26.28,0,0,1-6.75,10.31l.31.49a2.64,2.64,0,0,1,.46,1.37A2.52,2.52,0,0,1,28,43.49a2.3,2.3,0,0,1-2.08-1.27c-4.13,3.17-5.83,3.48-6.79,3.51-2,.06-4-1.14-4.07-4.69,0-.79-.2-8.18,8.87-13.42.08-1.47.16-2.93.28-4.44-.33,0-.62.06-.92.07-3.46.11-5.65-.37-5.71-2.5a2.15,2.15,0,0,1,2.06-2.32,4.15,4.15,0,0,1,.88.15,11,11,0,0,0,3,.28c.33,0,.71-.06,1.08-.08l.4-3.35A2.5,2.5,0,0,1,27.38,13a2,2,0,0,1,2.23,2c0,.12-.27,2.13-.41,3a36.16,36.16,0,0,0,5.13-1.66,2.12,2.12,0,0,1,.87-.2,2.22,2.22,0,0,1,2.28,2.11c0,.87-.53,1.77-2,2.31a54.9,54.9,0,0,1-6.91,2l-.32,3.1a17.86,17.86,0,0,1,4-1Zm-8.69,8.24,0-.79C20.4,34.87,19.2,38,19.25,39.71c0,.79.41,1.07.87,1.06,1.09,0,3.7-2.08,4.31-2.56A29.83,29.83,0,0,1,23.85,32.92Zm4.08-3.17c0,.88,0,1.67,0,2.47s.1,1.71.2,2.5a17.78,17.78,0,0,0,3.66-6.13A16.74,16.74,0,0,0,27.93,29.75Z"/><path class="cls-3" d="M103.12,48.33a2.5,2.5,0,0,1-2.6-2.5c0-1,.85-2,2.58-2.31,8.25-1.2,10.71-5.51,10.78-7,.1-2.13-2.31-2.45-3.23-2.5-4.59-.21-9.83,3.76-10.36,4.24a4.16,4.16,0,0,1-2.9,1.33c-.79,0-3.11-.53-2.89-5.28.1-2.13.44-3.95,2-12.15A2.45,2.45,0,0,1,99,20.05,2.06,2.06,0,0,1,101,22.4a2.15,2.15,0,0,1-.07.5c-.29,1.74-.85,3.93-1.28,5.91a19.7,19.7,0,0,0-.51,2.86c0,.59.07,1.09.45,1.11a.32.32,0,0,0,.21,0c5.69-2.87,9-3.13,10.93-3,5,.24,8.54,3.25,8.36,7.08-.14,2.92-2.43,6.28-7.84,9.25A23.24,23.24,0,0,1,103.12,48.33ZM105,21.76a2.53,2.53,0,0,1-.54,0,2.37,2.37,0,0,1-2.24-2.32,1.65,1.65,0,0,1,.91-1.38c.12-.07.17-.07.17-.11a.38.38,0,0,0-.12-.09c-2.8-1.93-3.24-2.37-3.18-3.5a2.37,2.37,0,0,1,2.6-2,2.82,2.82,0,0,1,1.64.62c.69.53,2.12,1.27,3.37,2.2s2.2,2.07,2.13,3.49a3,3,0,0,1-3.06,2.86A14.67,14.67,0,0,0,105,21.76Z"/><path class="cls-3" d="M189,19c1,0,2,0,2.84,0l6.26.13c2,.09,2.9,1.36,2.87,2.61A2.34,2.34,0,0,1,198.29,24H198c-2.92-.28-3.92-.34-6.5-.44-.84,0-1.76,0-2.72,0,0,1.25,0,2.46,0,3.55,0,.54.05,1.33.08,2.21a9.7,9.7,0,0,1,1.3,5.25c-.12,5.76-5.27,14-9.11,13.88a2.38,2.38,0,0,1-2.54-2.19,3.47,3.47,0,0,1,1.85-2.59,13.94,13.94,0,0,0,4.37-5.08,6,6,0,0,1-2.18.37c-3.5-.08-5.64-3.42-5.57-6.68.1-4.72,4.46-5.87,7-5.82h.34l0-2.72c-3.39.27-6.74.65-8.83.94-3.06.4-4.86.9-6.12,1.08a2.48,2.48,0,0,1-.54,0,2.27,2.27,0,0,1-2.25-2.39,2.62,2.62,0,0,1,2.52-2.45c1.92-.29,10.55-1.32,15.23-1.67l0-.42v-.46c.05-2.13-.2-2.3-.17-3.55a2.27,2.27,0,0,1,2.43-2.41,2.43,2.43,0,0,1,2.58,2.68c0,1-.19,2.67-.29,3.67ZM185.5,32.35v-.21c-.76-1.73-1.8-1.75-2.1-1.76a2.26,2.26,0,1,0-.26,4.51C185.28,34.94,185.49,32.73,185.5,32.35Z"/><path class="cls-3" d="M252.9,36.45c0,2.21.13,5.43,4.27,5.49,2.71,0,6.41-1.49,10.12-4.28A2.84,2.84,0,0,1,269.1,37a2.72,2.72,0,0,1,1.39,4.87,22.31,22.31,0,0,1-13.23,4.85c-4.88-.07-8.81-2.63-8.93-8.86,0-.71,0-1.38,0-2,.05-3.47.43-6.55.65-10.22.16-2.3.38-5.68.42-8.18V16.31A2.38,2.38,0,0,1,252,13.8a2.47,2.47,0,0,1,2.63,2.42c0,1.13-.32,5.22-.72,9.43C253.59,29.53,253,32.9,252.9,36.45Zm11.32-11A16.16,16.16,0,0,0,260.79,23a1.75,1.75,0,0,1-1.23-1.57,2.15,2.15,0,0,1,2.24-1.88c.83,0,5.77,1.84,5.74,4.21a2.32,2.32,0,0,1-2.08,2.31A1.64,1.64,0,0,1,264.22,25.47Zm4.65-4.19A15.17,15.17,0,0,0,265.4,19a1.73,1.73,0,0,1-1.32-1.56,2.22,2.22,0,0,1,2.29-1.93c.46,0,5.82,1.63,5.78,4.09a2.3,2.3,0,0,1-2.08,2.27A1.62,1.62,0,0,1,268.87,21.28Z"/></g></g></svg>