<svg xmlns="http://www.w3.org/2000/svg" viewBox="0 0 532.97 261.17">
    <defs>
        <style>
            .mem-1{fill:#e2f79f;}.mem-2{fill:#50b551;}.mem-3{fill:#96ddd1;}.mem-4{fill:#fff;}
        </style>
    </defs>
    <g id="layer_2" data-name="layer 2">
        <g id="layer_1-2" data-name="layer 1">
            <path class="mem-1" d="M75.59,109.55c17.76,2.77,31.93,11.47,31.24,23.28S91,150.66,73.1,152.32C48.54,154.61,19.46,141.49,3.53,133a6.7,6.7,0,0,1,.79-12.16C20.77,114.62,50.37,105.61,75.59,109.55Z"/>
            <path class="mem-1" d="M94.27,169.35c8.12-16,20.77-26.82,31.79-22.51s12.06,20.57,8.12,38.1c-5.42,24.06-26.88,47.67-39.89,60.18A6.68,6.68,0,0,1,83,240.62C82.15,223.05,82.73,192.12,94.27,169.35Z"/>
            <path class="mem-1" d="M133.88,77.53c2.85,17.74-1,33.9-12.49,36.9s-21.85-9.55-29-26.06C82.67,65.72,86.15,34,89.32,16.24a6.69,6.69,0,0,1,11.8-3C112.12,27,129.83,52.32,133.88,77.53Z"/>
            <path class="mem-1" d="M158.42,175.55c-12.74-12.67-19.09-28-11.59-37.19s23.29-5.11,38.75,4.06c21.21,12.58,37,40.29,44.91,56.53a6.68,6.68,0,0,1-7.77,9.37C205.75,203.68,176.51,193.57,158.42,175.55Z"/>
            <path class="mem-1" d="M185.78,115.42c-16,8.19-32.56,9.48-38.95-.48s2.33-23.73,15.83-35.59c18.53-16.29,49.76-22.77,67.65-25.25a6.69,6.69,0,0,1,6.51,10.29C227.16,79.09,208.51,103.78,185.78,115.42Z"/>
            <path class="mem-1" d="M436.33,84.59c-11.95,16.08-27.9,25.55-39.19,18.73s-9.38-24.88-1.73-43.41C405.91,34.49,434,12.6,450.62,1.3a7.46,7.46,0,0,1,11.59,7.08C459.8,27.85,453.32,61.74,436.33,84.59Z"/>
            <path class="mem-1" d="M365.4,62.94C377,79.28,381.07,97.37,371.1,106s-26.56,1.22-41.81-11.78C308.35,76.39,296.19,43,290.6,23.61a7.46,7.46,0,0,1,10.32-8.83C318.69,23.09,348.91,39.73,365.4,62.94Z"/>
            <path class="mem-1" d="M332.16,124.39c19.12-6,37.59-4.27,42.72,7.89s-7.05,25.64-24.12,36.13c-23.44,14.39-59,15.62-79.12,15a7.46,7.46,0,0,1-5.21-12.54C279.83,156.5,305,132.89,332.16,124.39Z"/>
            <path class="mem-1" d="M377.12,180.47c.22-20,7.55-37.07,20.7-38.2s22.21,14.63,26.9,34.11c6.45,26.74-3.37,60.94-10.21,79.87A7.46,7.46,0,0,1,401,257.33C391.48,240.16,376.81,208.94,377.12,180.47Z"/>
            <path class="mem-1" d="M446.46,155.53c-19-6.4-32.92-18.63-29.93-31.48s20.77-16.61,40.75-15c27.42,2.13,56.91,22,72.8,34.39a7.46,7.46,0,0,1-3.15,13.21C507.67,160.32,473.44,164.63,446.46,155.53Z"/>
            <path class="mem-2" d="M119.05,109.46a21.62,21.62,0,0,0-17.41-15.73h0a137,137,0,0,0-57.59,2.92h0a21.64,21.64,0,0,0-15.73,17.42,137,137,0,0,0,2.93,57.58h0a21.62,21.62,0,0,0,17.41,15.73h0a137,137,0,0,0,57.59-2.92h0A21.64,21.64,0,0,0,122,167h0A137,137,0,0,0,119.05,109.46Z"/>
            <path class="mem-1" d="M181.46,230.11l1.66-8.27a4.78,4.78,0,0,1,1.85-3.16,4.54,4.54,0,0,1,3.58-.56,3.35,3.35,0,0,1,2.82,2.13,3.33,3.33,0,0,1,3.41-.88,4.26,4.26,0,0,1,3,1.89,5,5,0,0,1,.44,3.61l-1.66,8.27-2.67-.54,1.6-7.95a2.43,2.43,0,0,0-.13-1.59,1.61,1.61,0,0,0-1.18-.8,1.58,1.58,0,0,0-1.4.29,2.43,2.43,0,0,0-.73,1.43l-1.59,7.93-2.79-.55,1.59-8a2.33,2.33,0,0,0-.13-1.58,1.85,1.85,0,0,0-2.58-.52,2.37,2.37,0,0,0-.72,1.41l-1.6,8Z"/>
            <path class="mem-1" d="M214.62,235.79a6.42,6.42,0,0,1-4.2-2.16,7.58,7.58,0,0,1,1.23-9.74,6.21,6.21,0,0,1,4.61-1.14,6.88,6.88,0,0,1,4.16,2.09,6.58,6.58,0,0,1,1.33,5.22,3.83,3.83,0,0,1-.32,1.13l-9.5-1.19a3.11,3.11,0,0,0,3,3c1.75.22,2.8-.09,3.16-.94l2.93.38a6.62,6.62,0,0,1-2.19,2.66A7.22,7.22,0,0,1,214.62,235.79Zm4.17-7.38c0-1.65-1-2.6-2.88-2.84a3.23,3.23,0,0,0-3.68,2Z"/>
            <path class="mem-1" d="M232.91,237.73l.45-8.42a4.81,4.81,0,0,1,1.39-3.39,4.49,4.49,0,0,1,3.46-1.07,3.37,3.37,0,0,1,3.09,1.71,3.32,3.32,0,0,1,3.25-1.37,4.31,4.31,0,0,1,3.26,1.44,5,5,0,0,1,.95,3.51l-.45,8.42-2.72-.15.44-8.09a2.39,2.39,0,0,0-.36-1.56,1.6,1.6,0,0,0-1.28-.61,1.55,1.55,0,0,0-1.34.48,2.36,2.36,0,0,0-.52,1.52l-.44,8.07-2.84-.15.44-8.09a2.45,2.45,0,0,0-.36-1.56,1.6,1.6,0,0,0-1.29-.61,1.56,1.56,0,0,0-1.34.47,2.43,2.43,0,0,0-.51,1.51l-.44,8.09Z"/>
            <path class="mem-1" d="M266.73,238.6a6.12,6.12,0,0,1-4.75-1.83,7.07,7.07,0,0,1-.16-9.31,6.73,6.73,0,0,1,9.42-.17,7.07,7.07,0,0,1,.16,9.31A6.08,6.08,0,0,1,266.73,238.6Zm3.5-6.63a3.73,3.73,0,0,0-1.09-2.62,3.58,3.58,0,0,0-5.15.09,3.86,3.86,0,0,0,.09,5.26,3.58,3.58,0,0,0,5.15-.09A3.72,3.72,0,0,0,270.23,232Z"/>
            <path class="mem-1" d="M285.49,237.8l-1.25-17.05,2.84-.19,1.25,17Z"/>
            <path class="mem-1" d="M299.48,220.69a1.48,1.48,0,0,1,.32-1.12,1.42,1.42,0,0,1,1-.58,1.5,1.5,0,0,1,1.12.33,1.49,1.49,0,0,1,.58,1,1.44,1.44,0,0,1-.33,1.12,1.54,1.54,0,0,1-2.15.26A1.51,1.51,0,0,1,299.48,220.69Zm1.91,15.66-1.28-11.24,2.94-.35L304.33,236Z"/>
            <path class="mem-1" d="M317.17,234.21l-2.75-16.85,2.82-.46L320,233.77Z"/>
            <path class="mem-1" d="M328.57,218.87l3-.66,4.48,8.22,1.51-9.52,3-.65-2.13,13.91-.71,4.65-3,.64.71-4.63Z"/>
            <path class="mem-3" d="M245.39,114.91A21.6,21.6,0,0,0,230,97.22a136.89,136.89,0,0,0-57.53-4h0a21.64,21.64,0,0,0-17.69,15.42,137,137,0,0,0-3.95,57.52h0a21.62,21.62,0,0,0,15.41,17.7h0a137.05,137.05,0,0,0,57.53,3.95,21.64,21.64,0,0,0,17.69-15.42h0A137,137,0,0,0,245.39,114.91Z"/>
            <path class="mem-2" d="M365.62,110.54a21.64,21.64,0,0,0-17-16.15h0A137,137,0,0,0,291,95.91h0a21.61,21.61,0,0,0-16.15,17,137,137,0,0,0,1.52,57.64h0a21.64,21.64,0,0,0,17,16.15A137,137,0,0,0,351,185.2h0a21.61,21.61,0,0,0,16.15-17h0A137,137,0,0,0,365.62,110.54Z"/>
            <path class="mem-3" d="M490.94,114.63h0A21.63,21.63,0,0,0,475.43,97h0a137.1,137.1,0,0,0-57.55-3.62,21.63,21.63,0,0,0-17.6,15.52h0a136.93,136.93,0,0,0-3.62,57.55h0a21.62,21.62,0,0,0,15.52,17.6,136.88,136.88,0,0,0,57.54,3.62h0a21.61,21.61,0,0,0,17.6-15.52h0A136.92,136.92,0,0,0,490.94,114.63Z"/>
            <path class="mem-4" d="M105.15,162.48a4.15,4.15,0,0,1-4.44-3.88l-.81-11.78a12.59,12.59,0,0,0-13.42-11.71l-.72,0,1,14.3a21,21,0,0,1-19.46,22.3l-3.57.25a21.33,21.33,0,0,1-4.6-.19A21,21,0,0,1,41.4,152.56l-.12-1.74a20.91,20.91,0,0,1,17.18-22l-1.16-17a4.17,4.17,0,0,1,8.32-.57l1.15,16.91,10.1-.7-1.15-16.9a4.17,4.17,0,0,1,8.32-.57l1.15,16.91.73,0a20.93,20.93,0,0,1,22.3,19.45L109,158A4.15,4.15,0,0,1,105.15,162.48Z"/>
            <path class="mem-2" d="M67.34,136.42l1,14.3a4.17,4.17,0,0,1-3.88,4.44,3.94,3.94,0,0,1-.91,0A4.16,4.16,0,0,1,60,151.29l-1-14.08a12.58,12.58,0,0,0-9.44,13l.12,1.74a12.59,12.59,0,0,0,13.42,11.7l3.57-.24A12.62,12.62,0,0,0,78.42,150l-1-14.3Z"/>
            <path class="mem-4" d="M215.85,176a3.49,3.49,0,0,1-.56,0l-7.22-.35a21.46,21.46,0,0,1-20.38-22.46l0-.9-12.7-.62a4.08,4.08,0,1,1,.4-8.16l12.7.62.72-15-12.69-.62a4.08,4.08,0,1,1,.4-8.16l12.69.62.68-14.1a4.08,4.08,0,0,1,8.16.39l-.68,14.11,13.41.65a4.09,4.09,0,0,1,.16,8.15,5,5,0,0,1-.55,0L197,129.49l-.72,15,13.41.65a4.09,4.09,0,0,1,.16,8.15,3.49,3.49,0,0,1-.56,0l-13.41-.65,0,.9a13.28,13.28,0,0,0,12.62,13.91l7.22.35a4.09,4.09,0,0,1,.16,8.15Z"/>
            <path class="mem-4" d="M306,141.49a19.85,19.85,0,0,1-6.57-13.79l-.78-15a4,4,0,0,1,8.07-.42l.78,15A11.86,11.86,0,0,0,320,138.52a4,4,0,0,1,.42,8.07c-.53,0-1.05,0-1.57,0A19.85,19.85,0,0,1,306,141.49Z"/>
            <path class="mem-4" d="M324,175.7h-.31a4,4,0,0,1-.11-8.08,11.88,11.88,0,0,0,11.24-12.47l-1.92-36.85a4,4,0,1,1,8.07-.42l1.92,36.85A20,20,0,0,1,324,175.7Z"/>
            <path class="mem-4" d="M428.82,140.15a19.87,19.87,0,0,1-5.32-14.31l.56-15a4,4,0,0,1,8.08.3l-.56,15A11.86,11.86,0,0,0,443,138.44a4,4,0,0,1-.31,8.08q-.78,0-1.56-.12A19.82,19.82,0,0,1,428.82,140.15Z"/>
            <path class="mem-4" d="M443.69,175.83l-.31,0a4,4,0,0,1,.61-8.05,11.89,11.89,0,0,0,12.31-11.43l1.37-36.87a4,4,0,1,1,8.07.3l-1.37,36.87A20,20,0,0,1,443.69,175.83Z"/>
        </g>
    </g>
</svg>