<svg xmlns="http://www.w3.org/2000/svg" viewBox="0 0 691.8 339.45"><defs><style>.cls-1{fill:#fff;}.cls-2{opacity:0.25;}</style></defs><g id="レイヤー_2" data-name="レイヤー 2"><g id="レイヤー_1-2" data-name="レイヤー 1"><polygon class="cls-1" points="268.79 73.89 268.63 75.66 322.02 75.66 260.3 151.81 262.45 151.84 325.64 73.89 268.79 73.89"/><polygon class="cls-1" points="292.07 132.94 290.3 153.21 324.07 153.21 324.22 151.44 292.22 151.44 293.84 132.94 292.07 132.94"/><polygon class="cls-1" points="570.19 102.55 538.18 102.55 542.82 49.63 541.04 49.63 536.26 104.32 570.03 104.32 570.19 102.55"/><polygon class="cls-1" points="393.77 76.98 395.54 76.98 399.89 27.27 427.77 27.27 427.92 25.5 400.04 25.5 402.27 0 400.5 0 398.27 25.5 379.41 25.5 379.25 27.27 398.12 27.27 393.77 76.98"/><polygon class="cls-1" points="131.95 181.04 231.75 181.04 231.9 179.27 132.11 179.27 131.95 181.04"/><polygon class="cls-1" points="102.97 279.91 210.62 279.91 210.78 278.14 103.13 278.14 102.97 279.91"/><polygon class="cls-1" points="285.79 239.21 308.63 199.47 306.65 199.48 283.8 239.24 285.79 239.21"/><polygon class="cls-1" points="310.39 214.87 349.67 214.87 349.82 213.09 310.55 213.09 310.39 214.87"/><polygon class="cls-1" points="374.4 199.47 372.41 199.51 356.3 227.54 358.27 227.53 374.4 199.47"/><polygon class="cls-1" points="376.7 214.87 422.13 214.87 422.28 213.09 376.85 213.09 376.7 214.87"/><polygon class="cls-1" points="320.68 223.08 318.72 223.02 323.94 237.79 325.87 237.79 320.68 223.08"/><polygon class="cls-1" points="391.56 223.07 389.61 223.02 395.16 238.74 397.08 238.7 391.56 223.07"/><polygon class="cls-1" points="301.74 249.32 301.58 251.09 350.07 251.09 349.3 259.89 351.07 259.89 351.85 251.09 400.34 251.09 400.49 249.32 352 249.32 353.13 236.34 351.36 236.34 350.23 249.32 301.74 249.32"/><polygon class="cls-1" points="281.71 272.29 417.19 272.29 417.35 270.52 281.86 270.52 281.71 272.29"/><polygon class="cls-1" points="382.66 281.11 380.89 281.11 379.8 293.57 287.21 293.57 287.05 295.34 379.64 295.34 376.32 333.34 346.01 333.34 345.86 335.11 377.93 335.11 381.41 295.34 407.87 295.34 408.03 293.57 381.57 293.57 382.66 281.11"/><polygon class="cls-1" points="469.31 305.37 597.87 305.37 598.03 303.6 469.47 303.6 469.31 305.37"/><polygon class="cls-1" points="483.88 237.76 453.19 287.96 455.18 287.97 485.82 237.84 483.88 237.76"/><path class="cls-1" d="M231.68,267.28A15.7,15.7,0,0,1,218.44,279s0,0,0,0a12.53,12.53,0,0,1,11.19,11.74h0A15.7,15.7,0,0,1,242.89,279s0,0,0,0a12.53,12.53,0,0,1-11.19-11.74Z"/><path class="cls-1" d="M315.38,309.43a15.72,15.72,0,0,1-13.25,11.73s0,0,0,0a12.53,12.53,0,0,1,11.19,11.73h0a15.7,15.7,0,0,1,13.24-11.73s0,0,0,0a12.53,12.53,0,0,1-11.19-11.73Z"/><path class="cls-1" d="M296.92,62a15.7,15.7,0,0,1,13.24-11.73s0,0,0,0A12.53,12.53,0,0,1,299,38.51h0a15.72,15.72,0,0,1-13.25,11.73s0,0,0,0A12.53,12.53,0,0,1,296.9,62Z"/><path class="cls-1" d="M452.36,38.13A15.7,15.7,0,0,1,465.6,26.39s0,0,0,0a12.53,12.53,0,0,1-11.19-11.74h0a15.72,15.72,0,0,1-13.25,11.74s0,0,0,0a12.53,12.53,0,0,1,11.19,11.74Z"/><path class="cls-1" d="M618.41,61.15a15.7,15.7,0,0,1-13.24,11.73s0,0,0,0a12.53,12.53,0,0,1,11.19,11.73s0,0,0,0A15.7,15.7,0,0,1,629.62,72.9s0,0,0,0a12.53,12.53,0,0,1-11.19-11.73Z"/><path class="cls-1" d="M125.92,114.18A24.69,24.69,0,0,0,150,92a20.78,20.78,0,0,0-.74-7.63h-1.86a19.56,19.56,0,0,1,.83,7.63,22.71,22.71,0,0,1-22.17,20.39A18.38,18.38,0,0,1,107.47,92a22.67,22.67,0,0,1,22.17-20.38,18.63,18.63,0,0,1,13.9,6c.07.08.11.18.19.26h36.53c10.93,0,8.21,15.32,7.51,36.56,3.44-24.1,2.17-36.35,18.07-37.44-15.71-1.09-12.3-13.35-11.51-37.45-3,21.24-3.17,36.56-13.9,36.56H145.18l3.76-43H126.77l-.16,1.77H147l-3.52,40.24c-8.06-7.29-21-6.93-29.93,1.23A24.2,24.2,0,0,0,105.7,92a20,20,0,0,0,20.22,22.16Z"/><path class="cls-1" d="M445.47,102.36a19.56,19.56,0,0,1,.82,7.63,22.69,22.69,0,0,1-22.17,20.39A18.38,18.38,0,0,1,405.51,110,22.71,22.71,0,0,1,427.69,89.6a18.54,18.54,0,0,1,13.89,6c.07.08.12.18.19.26h29.58l.15-1.77H443.22l3.13-35.79h-1.77l-3,34.81a20.18,20.18,0,0,0-13.7-5.25A24.67,24.67,0,0,0,403.74,110,20,20,0,0,0,424,132.15,24.67,24.67,0,0,0,448.06,110a20.8,20.8,0,0,0-.74-7.63Z"/><path class="cls-1" d="M592,224.94l-.16,1.77h1.77l4.68-53.4h-55c.08-9.41,1.08-21.21,1.65-35.49h0c-1.93,14.27-3,26.08-4.56,35.49H497.64l-.15,1.77H540c-2.93,16.26-7.8,24.85-22.5,26,0,0,0,0,0,0,13.8,1.14,17.5,9,17.9,23.81H482.55l3.61-41.31.75-8.55.15-1.77h-1.77l-4.67,53.4h54.83c0,3.91-.11,8.27-.36,13.08l-.93,10.7H492.42l-.15,1.77H534l-2.22,25.43H481.55l-.15,1.77h50.22l-1.48,16.9h1.77l1.48-16.9h53l.16-1.77h-53l2.22-25.43h62.36l.15-1.77H535.93l.93-10.62c.6-4.84,1.21-9.22,1.93-13.16h42.48l.16-1.77H539.14c3-14.8,8.06-22.67,22.06-23.81,0,0,0,0,0,0-14.49-1.19-17.85-9.78-17.94-26h53.11l-3.12,35.69Z"/><g class="cls-2"><path class="cls-1" d="M13.91,182.88c-1.23,26,.91,39.19-13.9,40.45,0,0,0,0,0,0,14.77,1.26,12.68,14.43,13.89,40.22a0,0,0,1,0,0,0c1.21-25.82-.88-39,13.93-40.22,0,0,0,0,0,0C13,222.1,15.16,208.86,13.93,182.88Z"/><path class="cls-1" d="M451.56,258.5c-1.23,26,.92,39.23-13.95,40.46,0,0,0,0,0,0,14.87,1.23,12.72,14.48,13.95,40.46h0c1.23-26-.92-39.23,13.95-40.46,0,0,0,0,0,0-14.87-1.23-12.72-14.47-13.95-40.46Z"/><path class="cls-1" d="M655.84,107.46c1.24-26-.92-39.23,13.95-40.46,0,0,0,0,0,0-14.87-1.23-12.71-14.47-13.95-40.46h0c-1.23,26,.92,39.23-13.94,40.46,0,0,0,0,0,0,14.86,1.23,12.71,14.47,13.94,40.46C655.82,107.47,655.84,107.47,655.84,107.46Z"/><path class="cls-1" d="M146.92,148.92a13.79,13.79,0,0,1-12,11.54s0,0,0,0a13.8,13.8,0,0,1,12,11.53s0,0,0,0a13.8,13.8,0,0,1,12-11.53s0,0,0,0a13.79,13.79,0,0,1-12-11.54Z"/><path class="cls-1" d="M248.05,166.66a13.78,13.78,0,0,1-12,11.48,0,0,0,0,0,0,0,13.78,13.78,0,0,1,12,11.49,0,0,0,0,0,0,0A13.78,13.78,0,0,1,260,178.18s0,0,0,0a13.78,13.78,0,0,1-11.94-11.48S248.06,166.63,248.05,166.66Z"/><path class="cls-1" d="M387.2,182.69a10.27,10.27,0,0,1-8.86,8.53,0,0,0,1,0,0,0,10.27,10.27,0,0,1,8.86,8.53,0,0,0,0,0,0,0,10.27,10.27,0,0,1,8.86-8.53,0,0,0,1,0,0,0,10.27,10.27,0,0,1-8.86-8.53A0,0,0,0,0,387.2,182.69Z"/><path class="cls-1" d="M679.75,223.39a13.78,13.78,0,0,1-12,11.55s0,0,0,0a13.79,13.79,0,0,1,12,11.55s0,0,0,0a13.77,13.77,0,0,1,12-11.55s0,0,0,0a13.76,13.76,0,0,1-12-11.55Z"/><polygon class="cls-1" points="30.21 215.29 31.16 217.16 132.76 165.91 131.81 164.04 30.21 215.29"/><polygon class="cls-1" points="165.24 163.63 230.73 175.22 231.09 173.16 165.6 161.56 165.24 163.63"/><rect class="cls-1" x="319.56" y="129.87" width="2.09" height="108.4" transform="translate(102.67 482.69) rotate(-83.74)"/><rect class="cls-1" x="417.98" y="192.48" width="2.09" height="100.36" transform="translate(-64.5 216.82) rotate(-27.02)"/><polygon class="cls-1" points="471.11 292.9 471.66 294.93 662.68 242.92 662.12 240.89 471.11 292.9"/><polygon class="cls-1" points="661.36 83.27 678.72 211.87 680.8 211.6 663.44 82.99 661.36 83.27"/></g></g></g></svg>