<svg xmlns="http://www.w3.org/2000/svg" viewBox="0 0 1228.44 212.77"><defs><style>.cls-1{fill:#fff;}</style></defs><g id="レイヤー_2" data-name="レイヤー 2"><g id="レイヤー_1-2" data-name="レイヤー 1"><path class="cls-1" d="M200.44,106.49H266s0,0,0,0L190.2,200.1a0,0,0,0,0,0,0l2.63,0h0l77.67-95.83s0,0,0,0H200.62l-.19,2.16Z"/><path class="cls-1" d="M231.41,176.92h-2.17l-2.18,24.91h41.53l.18-2.15s0,0,0,0H229.43l2-22.72S231.42,176.92,231.41,176.92Z"/><path class="cls-1" d="M537.51,74.5h-2.15s0,0,0,0l-5.89,67.21H571l.19-2.16H531.83l5.69-65S537.52,74.5,537.51,74.5Z"/><path class="cls-1" d="M396.08,47l.19-2.16a0,0,0,0,0,0,0H362l2.75-31.33h-2.18l-2.74,31.34H336.63s0,0,0,0L336.43,47s0,0,0,0h23.17s0,0,0,0l-5.34,61.08s0,0,0,0h2.17L361.8,47h34.28Z"/><path class="cls-1" d="M833.86,46.84l-.07-2.45h0L726,44.66a0,0,0,0,0,0,0l.09,2.17H833.86Z"/><path class="cls-1" d="M694.8,151.16l.09,2.16s0,0,0,0H811.1a0,0,0,0,0,0,0l-.07-2.43h0l-116.23.27S694.79,151.16,694.8,151.16Z"/><path class="cls-1" d="M916.39,66.15l-2.37.16h0l-24.84,43.2s0,0,0,0l2.84-.2h0L916.4,66.16Z"/><path class="cls-1" d="M960.85,83.27l-.07-2.44a0,0,0,0,0,0,0l-42.58.28a0,0,0,0,0,0,0l.09,2.16a0,0,0,0,0,0,0h42.57Z"/><path class="cls-1" d="M987.23,66.15l-2.39.19h0L967.26,96.94s0,0,0,0l2.83-.17h0l17.13-30.61Z"/><path class="cls-1" d="M989.58,81.11l.09,2.16h49.22l-.07-2.44h0l-49.22.28Z"/><path class="cls-1" d="M929.4,91.57l-2.39.32a0,0,0,0,0,0,0L932.86,108s0,0,0,0h2.49s0,0,0,0l-6-16.38Z"/><path class="cls-1" d="M1005.73,91.56l-2.37.33a0,0,0,0,0,0,0l6,17.09h0l2.52-.43h0l-6.17-17Z"/><path class="cls-1" d="M908.69,120.12l.09,2.16H960.9l-.72,9.46s0,0,0,0h2.18l.73-9.47h52.33l-.07-2.44h0l-52.06.14s0,0,0,0l1.07-14.1s0,0,0,0l-2.19.27h0L961.08,120s0,0,0,0l-52.37.14S908.69,120.11,908.69,120.12Z"/><path class="cls-1" d="M887.28,143l.1,2.17h146.2l-.07-2.45h0l-146.21.28Z"/><path class="cls-1" d="M1023.46,167.48l-28.42.06h0l1.12-13.45a0,0,0,0,0,0,0l-2.2.27h0l-1.09,13.19a0,0,0,0,1,0,0l-99.77.21s0,0,0,0l.09,2.17h99.49s0,0,0,0l-3.32,40.35h0l-32.92.27h0l.09,2.16s0,0,0,0h34.81a0,0,0,0,0,0,0l3.53-42.8a0,0,0,0,1,0,0h28.69l-.06-2.45A0,0,0,0,0,1023.46,167.48Z"/><path class="cls-1" d="M1089.33,178.57l.09,2.18h138.74l-.07-2.45s0,0,0,0l-138.74.27Z"/><path class="cls-1" d="M1104.89,107.53,1072.06,162h0l2.3,0h0l32.88-54.53v0l-2.35.06Z"/><path class="cls-1" d="M833.53,139.45a16.9,16.9,0,0,1-14.27,12.64s0,0,0,0a13.5,13.5,0,0,1,12.06,12.64h0a16.92,16.92,0,0,1,14.27-12.64s0,0,0,0a13.47,13.47,0,0,1-12.05-12.64Z"/><path class="cls-1" d="M923.66,184.84a16.9,16.9,0,0,1-14.27,12.64s0,0,0,0a13.48,13.48,0,0,1,12.06,12.64s0,0,0,0a16.9,16.9,0,0,1,14.27-12.64s0,0,0,0a13.48,13.48,0,0,1-12.06-12.64Z"/><path class="cls-1" d="M235.2,89.7a19.33,19.33,0,0,1,16.3-14.44s0,0,0,0a15.41,15.41,0,0,1-13.77-14.44s0,0,0,0a19.32,19.32,0,0,1-16.3,14.44s0,0,0,0A15.4,15.4,0,0,1,235.18,89.7Z"/><path class="cls-1" d="M426.31,60.36a19.32,19.32,0,0,1,16.3-14.44s0,0,0,0a15.4,15.4,0,0,1-13.77-14.44h0a19.33,19.33,0,0,1-16.3,14.44s0,0,0,0a15.42,15.42,0,0,1,13.77,14.44Z"/><path class="cls-1" d="M630.47,88.64a19.29,19.29,0,0,1-16.3,14.44s0,0,0,0A15.42,15.42,0,0,1,628,117.54h0a19.33,19.33,0,0,1,16.3-14.44s0,0,0,0a15.4,15.4,0,0,1-13.77-14.43S630.48,88.63,630.47,88.64Z"/><path class="cls-1" d="M1160.29,109.85l-1,11.4s0,0,0,0l-45.22.11h0l.1,2.16h44.93s0,0,0,0l-2.36,27h0l-54.37.14a0,0,0,0,0,0,0l.1,2.16h54.08a0,0,0,0,1,0,0l-1.57,17.9s0,0,0,0h1.9l1.57-17.92h57.36l-.07-2.44a0,0,0,0,0,0,0l-57.07.14h0l2.36-27s0,0,0,0h67.43l-.07-2.44h0l-67.15.17a0,0,0,0,1,0,0l1-11.31c.63-5.11,1.28-9.73,2-13.89h46a0,0,0,0,0,0,0l-.07-2.43h0l-45.51.11s0,0,0,0c3.22-15.82,8.7-24.26,23.73-25.48,0,0,0,0,0,0-15.57-1.28-19.22-10.47-19.34-27.88h0l56.9-.14h0l-4.7,53.68h0l.1,2.17s0,0,0,0h2.17a0,0,0,0,0,0,0l4.79-58h0l-59.27.15h0c.09-10.11,1.16-22.79,1.77-38.1h0c-2.07,15.32-3.21,28-4.89,38.11,0,0,0,0,0,0l-46.25.12h0l.09,2.17h0l45.78-.12h0c-3.17,17.4-8.42,26.59-24.21,27.87,0,0,0,0,0,0,14.81,1.22,18.81,9.67,19.27,25.49h0l-56.63.15a0,0,0,0,1,0,0l4.7-53.68h0l-.09-2.18h0l-2.2.28h0L1101.6,96a0,0,0,0,0,0,0h59.07C1160.71,100.19,1160.55,104.78,1160.29,109.85Z"/><path class="cls-1" d="M109.06,62.27s0,0,0,0C105.35,88.28,105.15,107,92,107H48.65l4.62-52.82H26l-.19,2.15v0H50.9l-4.33,49.44h0c-9.91-8.94-25.87-8.5-36.79,1.53A29.7,29.7,0,0,0,.11,126.61,24.91,24.91,0,0,0,6.4,145.87a24.76,24.76,0,0,0,18.57,8A30.34,30.34,0,0,0,54.6,126.61a25.65,25.65,0,0,0-.91-9.38,0,0,0,0,1,0,0H51.42s0,0,0,0a24.13,24.13,0,0,1,1,9.37,27.92,27.92,0,0,1-27.26,25.07,22.81,22.81,0,0,1-17.09-7.34,23,23,0,0,1-5.79-17.73,27.86,27.86,0,0,1,27.26-25,22.88,22.88,0,0,1,17.08,7.32c.09.1.15.22.24.32H91.78c13.4,0,10.1,18.74,9.24,44.76h0c4.18-29.44,2.69-44.45,22.07-45.84,0,0,0,0,0,0C104,106.72,108.09,91.71,109.06,62.27Z"/><path class="cls-1" d="M418.92,85.12h-2.17L413,127.89s0,0,0,0a24.77,24.77,0,0,0-16.82-6.44,30.32,30.32,0,0,0-29.63,27.25A24.56,24.56,0,0,0,391.4,176,30.34,30.34,0,0,0,421,148.71a25.63,25.63,0,0,0-.91-9.38,0,0,0,0,0,0,0h-2.27a24,24,0,0,1,1,9.38,27.9,27.9,0,0,1-27.26,25.06,22.6,22.6,0,0,1-22.87-25.06A27.92,27.92,0,0,1,396,123.63,22.81,22.81,0,0,1,413.06,131c.09.1.14.22.23.32h36.37l.19-2.16H415.08l3.85-44Z"/></g></g></svg>