<svg xmlns="http://www.w3.org/2000/svg" viewBox="0 0 263.03 54.99"><defs><style>.cls-1{fill:#50b551;}.cls-2{fill:#96ddd1;}.cls-3{fill:#fff;}</style></defs><title>アセット 95yuta</title><g id="レイヤー_2" data-name="レイヤー 2"><g id="レイヤー_1-2" data-name="レイヤー 1"><path class="cls-1" d="M52.22,9.94a12.19,12.19,0,0,0-9.83-8.88h0A77.22,77.22,0,0,0,9.88,2.71h0A12.2,12.2,0,0,0,1,12.54,77.23,77.23,0,0,0,2.66,45.05h0a12.2,12.2,0,0,0,9.83,8.88h0A77.33,77.33,0,0,0,45,52.28h0a12.21,12.21,0,0,0,8.88-9.83h0A77.22,77.22,0,0,0,52.22,9.94Z"/><path class="cls-2" d="M123.55,13a12.19,12.19,0,0,0-8.71-10A77.44,77.44,0,0,0,82.37.79h0a12.23,12.23,0,0,0-10,8.71A77.28,77.28,0,0,0,70.15,42h0a12.22,12.22,0,0,0,8.7,10h0a77.33,77.33,0,0,0,32.48,2.23,12.22,12.22,0,0,0,10-8.7h0A77.5,77.5,0,0,0,123.55,13Z"/><path class="cls-1" d="M191.42,10.55a12.23,12.23,0,0,0-9.61-9.12h0a77.29,77.29,0,0,0-32.54.86h0a12.19,12.19,0,0,0-9.12,9.61A77.29,77.29,0,0,0,141,44.44h0a12.22,12.22,0,0,0,9.62,9.11,77.29,77.29,0,0,0,32.54-.85h0a12.22,12.22,0,0,0,9.11-9.61h0A77.28,77.28,0,0,0,191.42,10.55Z"/><path class="cls-2" d="M262.17,12.86h0a12.21,12.21,0,0,0-8.76-9.94h0a77.34,77.34,0,0,0-32.49-2A12.21,12.21,0,0,0,211,9.64h0a77.33,77.33,0,0,0-2,32.49h0a12.2,12.2,0,0,0,8.76,9.93,77.35,77.35,0,0,0,32.49,2h0a12.21,12.21,0,0,0,9.93-8.76h0A77.36,77.36,0,0,0,262.17,12.86Z"/><path class="cls-3" d="M15.81,42.35l.39-18.24c-3,3.81-4.16,4.38-5,4.38a1.78,1.78,0,0,1-1.8-1.71,1.92,1.92,0,0,1,.69-1.38,35.16,35.16,0,0,0,9.2-13.47,1.62,1.62,0,0,1,1.64-1.14A2.05,2.05,0,0,1,23,12.66c0,.8-1.72,4-3.06,6.1l-.45,23.59a1.74,1.74,0,0,1-1.83,1.75,1.71,1.71,0,0,1-1.84-1.72ZM33,35.52v6.6a1.83,1.83,0,1,1-3.66,0V20.52H27.87A42.6,42.6,0,0,1,23.75,27,2.29,2.29,0,0,1,22,28a1.7,1.7,0,0,1-1.71-1.68,2,2,0,0,1,.49-1.22,33.37,33.37,0,0,0,6.45-12.94A1.73,1.73,0,0,1,29,10.71a1.87,1.87,0,0,1,2,1.72,30.24,30.24,0,0,1-1.6,4.77H42.57a1.62,1.62,0,0,1,1.64,1.68,1.56,1.56,0,0,1-1.64,1.64H33v4.12h7.86a1.61,1.61,0,0,1,1.64,1.68A1.56,1.56,0,0,1,40.81,28H33v4.23h8.24a1.61,1.61,0,0,1,1.64,1.68,1.56,1.56,0,0,1-1.64,1.65Z"/><path class="cls-3" d="M88.51,42.35c-4.2,0-7.1,0-7.25-3.78,0-.65,0-1.45,0-2.29,0-2.06.08-4.47.12-5.8a3.57,3.57,0,0,1,3.58-3.59c1.07,0,2.1-.08,3.09-.08,1.19,0,2.33,0,3.51.08a3.75,3.75,0,0,1,3.78,3.43c.08,1.57.16,4.43.16,6.53C95.46,40.67,95.23,42.35,88.51,42.35ZM91.79,31.2c-.07-1.26-.76-1.3-3.55-1.3s-3.39,0-3.47,1.3c0,.84-.08,2.6-.08,4.12,0,1,0,1.84,0,2.37.08,1.26,1,1.41,3.59,1.41,3.09,0,3.55-.07,3.55-2.67C91.87,34.83,91.83,32.31,91.79,31.2Zm10.38-6.75c-1.64.07-3.32.11-5,.11-1.9,0-3.85,0-5.76-.11-2.75-.08-4.12-1.64-4.24-3.67,0-1.06-.07-2.21-.07-3.28s0-2.14.07-3c.12-1.68,1.15-3.63,4.16-3.7,1.42,0,3.1-.08,4.81-.08,2.06,0,4.24,0,6.22.08a4,4,0,0,1,4,3.43c.08.95.12,2,.12,3.09,0,1.22,0,2.41-.12,3.4A4.11,4.11,0,0,1,102.17,24.45Zm.65-6.83c0-.69,0-1.38-.08-2-.07-1.64-.95-1.68-5.57-1.68-1.49,0-3,0-4.5.08-1.91.08-2,1.37-2,3.63,0,2.67.12,3.62,2,3.7,1.33,0,2.75,0,4.12,0s2.79,0,4.08,0C102.74,21.24,102.82,20.21,102.82,17.62Zm2.67,24.73c-4.27,0-7.17,0-7.32-3.78,0-.65,0-1.45,0-2.29,0-2.06.07-4.47.11-5.8a3.61,3.61,0,0,1,3.67-3.59c1.1,0,2.13-.08,3.12-.08,1.19,0,2.33,0,3.52.08a3.79,3.79,0,0,1,3.81,3.43c0,1.42.12,4,.12,6C112.48,40.67,112.36,42.35,105.49,42.35Zm3.32-11.15c-.07-1.26-.68-1.3-3.55-1.3-2.59,0-3.47,0-3.55,1.3,0,.84-.07,2.6-.07,4.12,0,1,0,1.84,0,2.37.07,1.41,1.18,1.41,3.62,1.41,3.51,0,3.59-.42,3.59-2.67C108.89,34.83,108.85,32.31,108.81,31.2Z"/><path class="cls-3" d="M147.58,26.5a2.48,2.48,0,0,1,.38-1.26,10.71,10.71,0,0,0,1.45-5.5A1.47,1.47,0,0,1,151,18.18a1.7,1.7,0,0,1,1.75,1.91c0,2.13-1.14,8.05-3.51,8.05A1.63,1.63,0,0,1,147.58,26.5Zm5.92-14.16a1.64,1.64,0,0,1,1.79-1.68,1.7,1.7,0,0,1,1.83,1.68v4.24a1.86,1.86,0,0,1,1-.31c1.18,0,3.55,2.71,3.55,3.85a1.82,1.82,0,0,1-1.76,1.72,1.25,1.25,0,0,1-1.1-.72,11.31,11.31,0,0,0-1.72-2.56V42.64a1.67,1.67,0,0,1-1.83,1.6,1.65,1.65,0,0,1-1.79-1.6ZM161.05,25a1.32,1.32,0,0,1-1.49-1.3,1.44,1.44,0,0,1,1.49-1.45l8.09,0V20.54l-5.49,0c-1,0-1.49-.61-1.49-1.22A1.39,1.39,0,0,1,163.65,18l5.49,0V16.42l-6.83,0a1.37,1.37,0,0,1-1.56-1.33,1.45,1.45,0,0,1,1.56-1.45h6.83l0-1.84a1.69,1.69,0,0,1,1.83-1.68,1.74,1.74,0,0,1,1.87,1.68v1.84h7.29a1.4,1.4,0,1,1,0,2.78l-7.32,0V18l5.42,0a1.3,1.3,0,1,1,0,2.59l-5.42,0v1.72l8.62,0a1.38,1.38,0,1,1,0,2.75Zm5.08,12.82c0,1.8,0,3.59.07,5.16v0a1.59,1.59,0,0,1-1.68,1.61A1.7,1.7,0,0,1,162.77,43c0-2.1,0-4.35,0-6.61s0-4.46,0-6.48.91-3.36,3.74-3.44c1.37,0,2.9-.07,4.39-.07s3,0,4.42.07c2.56.08,3.74,1.26,3.78,3.24,0,1.23.15,10.23.15,10.23V40c0,1.83-1.18,4.23-5,4.23-2.75,0-3.67-.64-3.67-1.9a1.53,1.53,0,0,1,1.53-1.61,1,1,0,0,1,.34,0,7.72,7.72,0,0,0,1.64.19c.92,0,1.65-.34,1.68-1.75,0-.42,0-.92,0-1.38Zm0-4.35v1.87h9.65c0-.61,0-1.26,0-1.87Zm9.54-3.24c-.08-1.18-.54-1.18-4.89-1.18-4,0-4.5,0-4.58,1.18V31h9.51Z"/><path class="cls-3" d="M227,21.44l-6.83,0a1.42,1.42,0,0,1-1.61-1.41,1.53,1.53,0,0,1,1.61-1.52l5.19,0,0-2.52-3.82,0a1.45,1.45,0,0,1-1.64-1.41,1.56,1.56,0,0,1,1.64-1.56l3.82,0,0-1.94v0a1.63,1.63,0,0,1,1.76-1.64,1.69,1.69,0,0,1,1.79,1.68v1.94l3.78,0a1.43,1.43,0,0,1,1.56,1.48,1.45,1.45,0,0,1-1.56,1.49l-3.82,0,0,2.52,4.93,0a1.47,1.47,0,1,1,0,2.93Zm1.79,14.5,0,5.84a1.7,1.7,0,0,1-1.79,1.68,1.64,1.64,0,0,1-1.76-1.68l0-5.84L221,36a1.48,1.48,0,0,1-1.64-1.45A1.56,1.56,0,0,1,221,33l4.39,0,0-2.79-5.19,0a1.43,1.43,0,0,1-1.61-1.41,1.54,1.54,0,0,1,1.61-1.53l6.79,0h.27a1.33,1.33,0,0,1,.3-.84,15,15,0,0,0,1.87-3.85,1.16,1.16,0,0,1,1.19-.77c.87,0,2,.69,2,1.61s-1.64,3.28-2,3.81h3.09a1.47,1.47,0,1,1,0,2.94l-4.93,0,0,2.79,4.39,0a1.51,1.51,0,1,1,0,3Zm-4.5-8.82a1.29,1.29,0,0,1-1.19-.8A9.07,9.07,0,0,0,221.73,24a1.13,1.13,0,0,1-.23-.61c0-.76,1-1.33,1.8-1.33,1.45,0,2.9,2.63,2.9,3.32A1.9,1.9,0,0,1,224.33,27.12Zm16.45,15.27a1.73,1.73,0,0,1-1.45-.77,1.8,1.8,0,0,1-3.59-.07s0-22.75.15-26.83c.08-2,1.22-3.36,3.86-3.47,1,0,2.17-.08,3.35-.08s2.45,0,3.52.08c2.55.07,3.89,1.56,3.89,3.58,0,3.9-.84,6.49-5.08,6.49-4.08,0-4.12-1.37-4.12-2a1.46,1.46,0,0,1,1.45-1.57,2.8,2.8,0,0,1,.57.08,6.88,6.88,0,0,0,1.76.31c1.14,0,1.75-.54,1.75-2.41,0-1.45-.72-1.49-4-1.49-2.6,0-3.48,0-3.55,1.61,0,1,0,3.7,0,7.09,1.33,0,3.74,0,5.68,0,3.55,0,5.46,0,5.46,2.93a24.47,24.47,0,0,1-3,10,16.24,16.24,0,0,0,4.2,3.12,1.47,1.47,0,0,1,.84,1.38,2,2,0,0,1-1.94,2c-1.42,0-3.78-2.17-5-3.62C245.32,38.91,242.49,42.39,240.78,42.39Zm-.31-13.78a1.58,1.58,0,0,1,1.64-1.53,1.35,1.35,0,0,1,1.38,1,19.57,19.57,0,0,0,1.79,4.74,18.55,18.55,0,0,0,1.56-6.26c0-.65-.49-.69-.76-.69-1.49,0-5.08.08-6.79.08,0,5.15,0,10.84,0,13.7a3.34,3.34,0,0,1,.64-.57,12.66,12.66,0,0,0,3.48-3.17A17.29,17.29,0,0,1,240.47,28.61Z"/></g></g></svg>