<svg xmlns="http://www.w3.org/2000/svg" viewBox="0 0 326.64 117.82"><defs><style>.cls-1{fill:#fff;}</style></defs><g id="レイヤー_2" data-name="レイヤー 2"><g id="レイヤー_1-2" data-name="レイヤー 1"><path class="cls-1" d="M88.63,39.58c0,3.79,3.44,7.11,11.46,13.87,8.26,7,11.35,12.27,11.35,19.37,0,17.77-10.09,24.42-26.13,24.42-6.42,0-15.13-.8-19.14-2.29-.35-.23-.46-.58-.35-1.15l2.29-10.43a.8.8,0,0,1,1-.57,73.51,73.51,0,0,0,15.35,2c7.34,0,11.35-2.18,11.35-10.78,0-4.13-2.29-7.11-10.77-14.1S72.93,47.61,72.93,41.53C72.93,24,80.84,17,99.52,17c4.81,0,12.38.69,16.28,1.84a.83.83,0,0,1,.69,1L114.31,30c-.12.46-.46.58-.92.46a85.58,85.58,0,0,0-13.18-1.14C91.27,29.27,88.63,31.79,88.63,39.58Z"/><path class="cls-1" d="M148.69,45.89a.75.75,0,0,0-.8.69l-5,31.17a30.51,30.51,0,0,0-.34,3.67c0,3.33,1.26,4.13,5.16,4.13h3.44c.46,0,.8.11.8.8L150.29,95a1.34,1.34,0,0,1-1,1c-1.72.69-5,.91-8.13.91-8.14,0-13.65-2.29-13.65-9.85a38.38,38.38,0,0,1,.69-6.65l5.39-33.93a.54.54,0,0,0-.57-.57h-8a1,1,0,0,1-1-1.15l1.49-8.82a1.26,1.26,0,0,1,1.26-1.15h7.91c.46,0,.8-.23.8-.69l2.3-14.33a1.35,1.35,0,0,1,1.37-1.14h12a.84.84,0,0,1,.91.91v.23l-2.29,14.33c0,.46.12.69.57.69h9.63a1,1,0,0,1,1,1.15l-1.5,8.82a1.25,1.25,0,0,1-1.26,1.15Z"/><path class="cls-1" d="M175.85,39.35c5.5-4.7,10.2-5.73,18.69-5.73,16.62,0,22.35,6.77,22.35,22.13,0,10.31-3.1,28.31-11.47,35.87-4.81,4.36-10.31,5.62-18.79,5.62-17.2,0-22.13-6.42-22.13-22.7C164.5,63.65,167.14,46.92,175.85,39.35Zm26.82,16.51c0-8.94-.8-11.69-9.4-11.69-3.43,0-5.73.8-7.45,2.63-5,5.28-7.1,20.41-7.1,28.32,0,8.36.57,11,9.4,11,3.44,0,5.5-.69,7.22-2.41C200,78.9,202.44,64,202.67,55.86Z"/><path class="cls-1" d="M254.25,44.74a34,34,0,0,0-6.42.69c-.8.23-1.15.46-1.26,1.26L238.89,95a1.24,1.24,0,0,1-1.26,1.14H225.71a.94.94,0,0,1-1-1.14l9.17-57.77A1.34,1.34,0,0,1,235.11,36a93.24,93.24,0,0,1,19.48-2.41,51.27,51.27,0,0,1,8.26.46c.34.12.46.23.34.8L261,44.74c-.11.46-.34.57-.8.57A32.75,32.75,0,0,0,254.25,44.74Z"/><path class="cls-1" d="M273.62,35.8c.11-.69.34-1,1.14-1h13c.68,0,.8.46.8,1-.12,12.15,0,33.24,1.26,46.77,0,.57.34.69,1.37.69s1.5-.12,1.72-.69c4.82-11.12,13.42-32.21,18.57-46.77a1.54,1.54,0,0,1,1.61-1h12.72a.78.78,0,0,1,.8,1.15c-2.75,7.45-20.28,49.28-27.28,61.43-8.71,15.48-14.78,19.37-25.67,19.37a43.41,43.41,0,0,1-8.83-.91c-.69-.12-.8-.58-.69-1.26L265,106c.23-.57.69-.69,1.38-.57a35.49,35.49,0,0,0,6.07.57c6.08,0,9.74-2.86,14-11.23q.17-.69-.69-.69c-5.73,0-7.45-.46-7.57-1.15C275.8,78.56,273.85,43.37,273.62,35.8Z"/><path class="cls-1" d="M27.55,0C21.1,37.85,21.89,57.13,0,58.9c0,0,0,0,0,0,21.44,1.77,15.92,21,13.08,58.89h0C19.56,80,18.77,60.69,40.65,58.92c0,0,0,0,0,0C19.2,57.13,24.73,37.85,27.57,0Z"/></g></g></svg>